<svg xmlns="http://www.w3.org/2000/svg" xmlns:xlink="http://www.w3.org/1999/xlink" fill="none" version="1.1" width="18" height="20" viewBox="0 0 18 20"><g><g><rect x="0.75" y="0.75" width="16.500011444091797" height="18.5" rx="3.25" fill-opacity="0" stroke-opacity="1" stroke="#2A3331" fill="none" stroke-width="1.5"/></g><g><path d="M8.833494207534791,3.9999303817749023C9.79439420753479,3.9999303817749023,10.66470420753479,4.390438381774902,11.29481420753479,5.021670381774903C11.92481420753479,5.652970381774902,12.31448420753479,6.525010381774902,12.31448420753479,7.487910381774903C12.31448420753479,8.450750381774903,11.92481420753479,9.323150381774902,11.29481420753479,9.954140381774902C11.13692420753479,10.112290381774901,10.96413420753479,10.255190381774902,10.77851420753479,10.380660381774902C11.51390420753479,10.659350381774903,12.17409420753479,11.091010381774902,12.72051420753479,11.636910381774904C13.71693420753479,12.633030381774903,14.33333420753479,14.007930381774901,14.33333420753479,15.525230381774902C14.33333420753479,15.787230381774902,14.12103420753479,15.999930381774902,13.85923420753479,15.999930381774902C13.59773420753479,15.999930381774902,13.38543420753479,15.787230381774902,13.38543420753479,15.525230381774902C13.38543420753479,14.268130381774903,12.87649420753479,13.130710381774902,12.05380420753479,12.308510381774902C11.23138420753479,11.486690381774903,10.094854207534791,10.977560381774904,8.83914420753479,10.975890381774903C8.83914420753479,10.975890381774903,8.833494207534791,10.975890381774903,8.833494207534791,10.975890381774903C8.833494207534791,10.975890381774903,8.83318420753479,10.975890381774903,8.83318420753479,10.975890381774903C8.83318420753479,10.975890381774903,8.82775420753479,10.975890381774903,8.82775420753479,10.975890381774903C7.57154420753479,10.977560381774904,6.435044207534791,11.486690381774903,5.61284420753479,12.308510381774902C4.79016420753479,13.130710381774902,4.28121720753479,14.268130381774903,4.28121720753479,15.525230381774902C4.28121720753479,15.787230381774902,4.06896720753479,15.999930381774902,3.80714620753479,15.999930381774902C3.54555820753479,15.999930381774902,3.33333420753479,15.787230381774902,3.33333420753479,15.525230381774902C3.33333420753479,14.007930381774901,3.94977920753479,12.633030381774903,4.94639420753479,11.636910381774904C5.49232420753479,11.091000381774903,6.152514207534789,10.659350381774903,6.88790420753479,10.380640381774903C6.7025042075347905,10.255210381774901,6.52972420753479,10.112290381774901,6.37189420753479,9.954140381774902C5.74211420753479,9.323150381774902,5.35243420753479,8.450750381774903,5.35243420753479,7.487900381774902C5.35243420753479,6.525010381774902,5.74211420753479,5.652970381774902,6.37189420753479,5.021670381774903C7.00188420753479,4.390438381774902,7.87224420753479,3.9999303817749023,8.833494207534791,3.9999303817749023C8.833494207534791,3.9999303817749023,8.833494207534791,3.9999303817749023,8.833494207534791,3.9999303817749023C8.833494207534791,3.9999303817749023,8.833494207534791,3.9999303817749023,8.833494207534791,3.9999303817749023C8.833494207534791,3.9999303817749023,8.833494207534791,3.9999303817749023,8.833494207534791,3.9999303817749023ZM10.62447420753479,5.693360381774903C10.16620420753479,5.2341603817749025,9.532814207534791,4.949690381774903,8.83347420753479,4.949690381774903C8.13406420753479,4.949690381774903,7.50043420753479,5.2341603817749025,7.04218420753479,5.693360381774903C6.5838842075347905,6.152560381774903,6.30002420753479,6.787110381774903,6.30002420753479,7.487920381774902C6.30002420753479,8.188740381774902,6.5838842075347905,8.823300381774903,7.04218420753479,9.282810381774901C7.4990742075347905,9.740580381774901,8.130504207534791,10.024480381774902,8.82775420753479,10.026140381774901C8.82775420753479,10.026140381774901,8.83315420753479,10.026140381774901,8.83315420753479,10.026140381774901C8.83315420753479,10.026140381774901,8.83347420753479,10.026140381774901,8.83347420753479,10.026140381774901C8.83347420753479,10.026140381774901,8.83887420753479,10.026140381774901,8.83887420753479,10.026140381774901C9.53607420753479,10.024480381774902,10.16745420753479,9.740580381774901,10.62442420753479,9.282810381774901C11.08276420753479,8.823300381774903,11.36660420753479,8.188720381774903,11.36660420753479,7.487920381774902C11.36660420753479,6.787090381774902,11.08276420753479,6.152560381774903,10.62447420753479,5.693360381774903C10.62447420753479,5.693360381774903,10.62447420753479,5.693360381774903,10.62447420753479,5.693360381774903C10.62447420753479,5.693360381774903,10.62447420753479,5.693360381774903,10.62447420753479,5.693360381774903Z" fill="#2A3331" fill-opacity="1"/><path d="M8.833494207534791,3.7499303817749023Q7.28792420753479,3.7499303817749023,6.194944207534791,4.845071381774902L6.19490420753479,4.845109381774902Q5.10243420753479,5.940210381774902,5.10243420753479,7.487900381774902Q5.10243420753479,9.036150381774902,6.19493420753479,10.130730381774903Q6.2919642075347895,10.227960381774903,6.3952842075347895,10.317410381774902Q5.48892420753479,10.740860381774901,4.76965420753479,11.460090381774902Q3.08333420753479,13.145580381774902,3.08333420753479,15.525230381774902Q3.08333420753479,15.825130381774903,3.29518980753479,16.037430381774904Q3.50725820753479,16.249930381774902,3.80714620753479,16.249930381774902Q4.10716020753479,16.249930381774902,4.31928520753479,16.037430381774904Q4.53121420753479,15.825230381774903,4.53121420753479,15.525230381774902Q4.53121420753479,13.742950381774902,5.78958420753479,12.485330381774903Q7.04722420753479,11.228260381774902,8.82775420753479,11.225890381774903L8.83881420753479,11.225890381774903Q10.61907420753479,11.228260381774902,11.87708420753479,12.485340381774902Q13.13543420753479,13.742940381774902,13.13543420753479,15.525230381774902Q13.13543420753479,15.825130381774903,13.34733420753479,16.037430381774904Q13.559334207534791,16.249930381774902,13.85923420753479,16.249930381774902Q14.15923420753479,16.249930381774902,14.37133420753479,16.037430381774904Q14.58333420753479,15.825230381774903,14.58333420753479,15.525230381774902Q14.58333420753479,13.145720381774902,12.89720420753479,11.460050381774902Q12.17725420753479,10.740780381774902,11.27126420753479,10.317490381774903Q11.37462420753479,10.228040381774903,11.47173420753479,10.130770381774902Q12.56448420753479,9.036310381774904,12.56448420753479,7.487910381774903Q12.56448420753479,5.940050381774903,11.47175420753479,4.8450543817749026Q10.37857420753479,3.7499303817749023,8.833494207534791,3.7499303817749023ZM6.54884420753479,5.198280381774902L6.54888420753479,5.1982403817749026Q7.49535420753479,4.249930381774902,8.833494207534791,4.249930381774902Q10.171204207534789,4.249930381774902,11.11788420753479,5.198290381774902Q12.06448420753479,6.146850381774902,12.06448420753479,7.487910381774903Q12.06448420753479,8.829440381774901,11.11790420753479,9.777500381774903Q10.896834207534791,9.998920381774902,10.63850420753479,10.173540381774902L10.23903420753479,10.443560381774901L10.689914207534791,10.614430381774902Q11.74268420753479,11.013400381774902,12.54382420753479,11.813780381774903Q14.08333420753479,13.352870381774903,14.08333420753479,15.525230381774902Q14.08333420753479,15.749930381774902,13.85923420753479,15.749930381774902Q13.63543420753479,15.749930381774902,13.63543420753479,15.525230381774902Q13.63543420753479,13.535740381774902,12.23053420753479,12.131680381774903Q10.82634420753479,10.728530381774902,8.83947420753479,10.725890381774903L8.82775420753479,10.725890381774903Q6.83991420753479,10.728530381774902,5.43610420753479,12.131700381774902Q4.03121820753479,13.535760381774903,4.03121720753479,15.525230381774902Q4.03121720753479,15.637930381774902,3.97486120753479,15.694130381774903Q3.9188442075347902,15.749930381774902,3.80714620753479,15.749930381774902Q3.7146612075347902,15.749930381774902,3.64909920753479,15.684230381774903Q3.58333420753479,15.618330381774902,3.58333420753479,15.525230381774902Q3.58333420753479,13.352760381774903,5.12312420753479,11.813740381774902Q5.923314207534791,11.013570381774901,6.97650420753479,10.614410381774903L7.42713420753479,10.443630381774902L7.02799420753479,10.173580381774903Q6.76966420753479,9.998800381774902,6.54885420753479,9.777540381774902Q5.60243420753479,8.829320381774902,5.60243420753479,7.487900381774902Q5.60243420753479,6.146990381774902,6.54884420753479,5.198280381774902ZM10.80135420753479,9.459430381774903Q11.61660420753479,8.642110381774902,11.61660420753479,7.487920381774902Q11.61660420753479,6.333550381774902,10.80142420753479,5.516760381774902Q9.98602420753479,4.699689381774903,8.83347420753479,4.699690381774903Q7.68060420753479,4.699690381774903,6.865224207534791,5.5167703817749025Q6.05002420753479,6.333560381774902,6.05002420753479,7.487920381774902Q6.05002420753479,8.642050381774903,6.86518420753479,9.459350381774902Q7.67764420753479,10.273400381774902,8.82716420753479,10.276140381774901L8.83315420753479,10.276140381774901L8.83887420753479,10.276140381774901Q9.98882420753479,10.273400381774902,10.80135420753479,9.459430381774903ZM10.44752420753479,5.869960381774902Q11.11660420753479,6.540360381774903,11.11660420753479,7.487920381774902Q11.11660420753479,8.435370381774902,10.44748420753479,9.106190381774901Q9.78096420753479,9.773890381774901,8.83887420753479,9.776140381774901L8.83315420753479,9.776140381774901L8.82835420753479,9.776140381774901Q7.88552420753479,9.773890381774901,7.21919420753479,9.106260381774902Q6.55002420753479,8.435330381774902,6.55002420753479,7.487920381774902Q6.55002420753479,6.540380381774902,7.21914420753479,5.869950381774903Q7.88801420753479,5.199690381774902,8.83347420753479,5.199690381774902Q9.77862420753479,5.199690381774902,10.44752420753479,5.869960381774902Z" fill-rule="evenodd" fill="#2A3331" fill-opacity="1"/></g></g></svg>