<svg xmlns="http://www.w3.org/2000/svg" xmlns:xlink="http://www.w3.org/1999/xlink" fill="none" version="1.1" width="18.400390625" height="17.28125" viewBox="0 0 18.400390625 17.28125"><g><path d="M17.4295953125,0.24574240625C17.6024953125,0.17655730625,17.7984953125,0.19762895625,17.9526953125,0.30199250625C18.1045953125,0.40886740625,18.2001953125,0.58324340625,18.2001953125,0.76886740625L18.2001953125,13.70636640625C18.2001953125,13.92016640625,18.0820953125,14.11136640625,17.8907953125,14.21266640625L12.2657953125,17.02516640625C12.2545953125,17.03076640625,12.2432953125,17.02516640625,12.2376953125,17.03076640625C12.1645953125,17.05886640625,12.0914953125,17.08136640625,12.0126953125,17.08136640625C11.9339953125,17.08136640625,11.8607953125,17.05886640625,11.7876953125,17.03076640625C11.7764953125,17.02516640625,11.7651953125,17.03076640625,11.7595953125,17.02516640625L6.3876953125,14.33636640625L1.0158213125,17.01946640625C0.9370713125,17.05886640625,0.8470713125,17.08136640625,0.7626963125,17.08136640625C0.4519063125,17.08166640625,0.1998837475,16.82966640625,0.2001953125,16.51886640625L0.2001953125,3.01886640625C0.2001953125,2.78824640625,0.34082131250000003,2.58011640625,0.5545713125,2.49011640625L6.1795753125,0.24011720625L6.1908253125,0.24011720625C6.2076953125,0.23449250625,6.2245753125,0.23449250625,6.2414453125,0.22886740625C6.2639453125,0.22324220625,6.2920753125,0.21761750625,6.3201953125,0.21199237625L6.3708253125,0.21199237625C6.3801953125,0.21199237625,6.3895753125,0.21136735625,6.3989453125,0.21074233625C6.4176953125,0.20949229625,6.4364453125,0.20824226625,6.4551953125,0.21199237625L6.5170753125,0.22886740625C6.5395753125,0.23449250625,6.5620753125,0.23449250625,6.5845753125,0.24574240625L6.5958253125,0.24574240625L12.0126953125,2.41136640625L17.4295953125,0.24574240625ZM5.8251953125,1.60136640625L1.3251953125,3.40136640625L1.3251953125,15.61326640625L5.8251953125,13.36326640625L5.8251953125,1.60136640625ZM11.4501953125,3.40136640625L6.9501953125,1.60136640625L6.9501953125,13.36326640625L11.4501953125,15.61326640625L11.4501953125,3.40136640625ZM12.5751953125,15.60766640625L17.0751953125,13.35766640625L17.0751953125,1.60136640625L12.5751953125,3.40136640625L12.5751953125,15.60766640625ZM2.5514753125,5.29694640625L4.2389753125,4.73444640625C4.5370953125,4.63882640625,4.8520953125,4.79631640625,4.9533453125,5.09444640625C5.0545953125,5.38694640625,4.8914753125,5.70756640625,4.5989753125,5.80319640625L2.9114753125,6.36569640625C2.8495953125,6.38256640625,2.7877253125,6.39382640625,2.7314753125,6.39382640625C2.4952253125,6.39382640625,2.2758453125,6.24756640625,2.1970953125,6.00569640625C2.0958453125,5.71319640625,2.2589753125,5.39257640625,2.5514753125,5.29694640625ZM2.5514753125,8.109446406250001L4.2389753125,7.54694640625C4.5370953125,7.45132640625,4.8520953125,7.60882640625,4.9533453125,7.90694640625C5.0545953125,8.19944640625,4.8914753125,8.52007640625,4.5989753125,8.61569640625L2.9114753125,9.17819640625C2.8495953125,9.19507640625,2.7877253125,9.20632640625,2.7314753125,9.20632640625C2.4952253125,9.20632640625,2.2758453125,9.06007640625,2.1970953125,8.81819640625C2.0958453125,8.52569640625,2.2589753125,8.20507640625,2.5514753125,8.109446406250001Z" fill-rule="evenodd" fill="#303433" fill-opacity="1"/><path d="M17.3552953125,0.06005540625Q17.7302953125,-0.08998559374999998,18.0647953125,0.13634580625Q18.4001953125,0.37233540625,18.4001953125,0.76886740625L18.4001953125,13.70636640625Q18.4001953125,14.16926640625,17.9843953125,14.38936640625L17.9822953125,14.39046640625L12.3552953125,17.20396640625Q12.3073953125,17.22796640625,12.2496953125,17.22796640625Q12.3233953125,17.22796640625,12.3791953125,17.17216640625L12.3490953125,17.20216640625L12.3094953125,17.21746640625Q12.1431953125,17.28136640625,12.0126953125,17.28136640625Q11.8821953125,17.28136640625,11.7158953125,17.21746640625L11.7068953125,17.21396640625L11.6981953125,17.20956640625Q11.7347953125,17.22796640625,11.7714953125,17.22796640625Q11.6794953125,17.22796640625,11.6180953125,17.16646640625L11.7595953125,17.02516640625L11.6700953125,17.20396640625L6.2981753125,14.51516640625L6.3876953125,14.33636640625L6.4770653125,14.51526640625L1.1051883125000002,17.19846640625Q0.9392753125,17.28136640625,0.7626963125,17.28136640625Q0.4468463125,17.28166640625,0.2233612125,17.05816640625Q-0.00012168749999999506,16.83476640625,0.0001953124999999889,16.51866640625L0.0001953124999999889,3.01886640625Q0.0001953124999999889,2.50653640625,0.4769593125,2.30578640625L6.1410553125,0.04011740624999999L6.1908253125,0.04011740624999999L6.1908253125,0.24011720625L6.1275753125,0.05037940625000001Q6.1509053125,0.042605406250000005,6.1832553125,0.03721340625L6.1781953125,0.03913140625L6.1854853125,0.03670140625000001L6.1929453125,0.03483840625000001Q6.2200553125,0.028060406250000003,6.2809453125,0.015881406250000007L6.2809753125,0.015876406250000002L6.3003953125,0.011992406250000004L6.3708253125,0.011992406250000004Q6.3735353125,0.011992406250000004,6.3856453125,0.011185406250000002L6.3856453125,0.011185406250000002Q6.4496353125,0.00691940625000001,6.4944153125,0.015876406250000002L6.5011753125,0.017227406249999994L6.5696953125,0.03591440625L6.5724553125,0.035963406249999996Q6.6321153125,0.045907406250000005,6.6740153125,0.06685740625L6.5845753125,0.24574240625L6.5845753125,0.045742406250000006L6.6343253125,0.045742406250000006L12.0868953125,2.22565640625L12.0126953125,2.41136640625L11.9384953125,2.22565640625L17.3552953125,0.060033406250000004L17.3552953125,0.06005540625ZM17.5037953125,0.43145140625L12.0126953125,2.62675640625L6.5215753125,0.43145140625L6.5958253125,0.24574240625L6.5958253125,0.44574240625L6.5373553125,0.44574240625L6.4951253125,0.42462740625L6.5066953125,0.43052140625Q6.4838153125,0.42670840625,6.4644453125,0.42182040625L6.4025753125,0.40494540625L6.4551953125,0.21199237625L6.4159753125,0.40810840625L6.4122553125,0.41029940625L6.4122553125,0.41029940625Q6.3868553125,0.41199240625,6.3708253125,0.41199240625L6.3201953125,0.41199240625L6.3201953125,0.21199237625L6.3594253125,0.40810840625L6.3593953125,0.40811340625000003Q6.3078253125,0.41842740624999997,6.2899553125,0.42289640625L6.2414453125,0.22886740625L6.3046953125,0.41860340625000003Q6.2813653125,0.42637940625000004,6.2490153125,0.43177140625L6.2540653125,0.42985540624999996L6.2232753125,0.44011740625L6.1795753125,0.44011740625L6.1795753125,0.24011720625L6.2538453125,0.42581240625L0.6321823125,2.67444640625Q0.4001953125,2.77212640625,0.4001953125,3.01886640625L0.4001953125,16.51906640625Q0.4000443125,16.66916640625,0.5062043125,16.77536640625Q0.6123613125,16.88156640625,0.7626963125,16.88136640625Q0.8448583125,16.88136640625,0.9264533125,16.84056640625L6.3877853125,14.11276640625L11.8780953125,16.86076640625L11.9009953125,16.88376640625Q11.8452953125,16.82796640625,11.7714953125,16.82796640625Q11.8292953125,16.82796640625,11.8771953125,16.85186640625L11.7876953125,17.03076640625L11.8594953125,16.84406640625Q11.9564953125,16.88136640625,12.0126953125,16.88136640625Q12.0688953125,16.88136640625,12.1658953125,16.84406640625L12.2376953125,17.03076640625L12.0961953125,16.88936640625Q12.1575953125,16.82796640625,12.2496953125,16.82796640625Q12.2129953125,16.82796640625,12.1763953125,16.84626640625L17.8013953125,14.03376640625L17.8907953125,14.21266640625L17.7971953125,14.03586640625Q18.0001953125,13.92846640625,18.0001953125,13.70636640625L18.0001953125,0.76886740625Q18.0001953125,0.57997140625,17.8405953125,0.46763940625Q17.6818953125,0.36021540625000004,17.5038953125,0.43142940625000004L17.5037953125,0.43145140625ZM5.8994753125,1.78706640625L1.3994753125,3.58706640625L1.3251953125,3.40136640625L1.5251953125,3.40136640625L1.5251953125,15.61326640625L1.3251953125,15.61326640625L1.2357553125,15.43436640625L5.7357553125,13.18436640625L5.8251953125,13.36326640625L5.6251953125,13.36326640625L5.6251953125,1.60136640625L5.8251953125,1.60136640625L5.8994753125,1.78706640625ZM6.0251953125,1.30595640625L6.0251953125,13.48686640625L1.1251973125,15.93686640625L1.1251973125,3.26596640625L5.7509153125,1.41567640625L6.0251953125,1.30595640625ZM11.3758953125,3.58706640625L6.8759153125,1.78706640625L6.9501953125,1.60136640625L7.1501953125,1.60136640625L7.1501953125,13.36326640625L6.9501953125,13.36326640625L7.0396453125,13.18436640625L11.5395953125,15.43436640625L11.4501953125,15.61326640625L11.2501953125,15.61326640625L11.2501953125,3.40136640625L11.4501953125,3.40136640625L11.3758953125,3.58706640625ZM11.6501953125,3.26596640625L11.6501953125,15.93686640625L6.7501953125,13.48686640625L6.7501953125,1.30595640625L11.5244953125,3.21567640625L11.6501953125,3.26596640625ZM12.4857953125,15.42876640625L16.9857953125,13.17876640625L17.0751953125,13.35766640625L16.8751953125,13.35766640625L16.8751953125,1.60136640625L17.0751953125,1.60136640625L17.1494953125,1.78706640625L12.6494953125,3.58706640625L12.5751953125,3.40136640625L12.7751953125,3.40136640625L12.7751953125,15.60766640625L12.5751953125,15.60766640625L12.4857953125,15.42876640625ZM12.3751953125,15.93126640625L12.3751953125,3.26596640625L17.2751953125,1.30596640625L17.2751953125,13.48126640625L12.6645953125,15.78646640625L12.3751953125,15.93126640625ZM2.4882253125,5.10720640625L4.1757253125,4.54470640625Q4.4796053125,4.44722640625,4.7598253125,4.58809640625Q5.0405253125,4.72921640625,5.1427253125,5.03012640625Q5.2457153125,5.32763640625,5.1025053125,5.61248640625Q4.9602153125,5.89551640625,4.6611253125,5.99329640625L2.9694553125,6.55718640625L2.9640953125,6.55864640625Q2.8351353125,6.59382640625,2.7314753125,6.59382640625Q2.1782453125,6.59382640625,2.0069253125,6.06761640625Q1.9047353125,5.77250640625,2.0479453125,5.48765640625Q2.1902253125,5.20462640625,2.4893253125,5.10684640625L2.4882253125,5.10720640625ZM2.6136253125,5.48704640625Q2.4728153125,5.53307640625,2.4053253125,5.66732640625Q2.3379853125,5.80127640625,2.3872753125,5.94377640625Q2.4686853125,6.19382640625,2.7314753125,6.19382640625Q2.7815653125,6.19382640625,2.8588453125,6.17274640625L2.9114753125,6.36569640625L2.8482253125,6.17595640625L4.5368253125,5.61309640625Q4.6776353125,5.56706640625,4.7451253125,5.43281640625Q4.8124653125,5.29886640625,4.7639753125,5.15876640625Q4.6467753125,4.81367640625,4.3022153125,4.92418640625L2.6147153125,5.48668640625L2.6136253125,5.48704640625ZM2.4882253125,7.91970640625L4.1757253125,7.35720640625Q4.4796053125,7.25972640625,4.7598253125,7.40059640625Q5.0405253125,7.54171640625,5.1427253125,7.84262640625Q5.2457153125,8.14013640625,5.1025053125,8.42498640625Q4.9602153125,8.70801640625,4.6611253125,8.80579640625L2.9694553125,9.36968640625L2.9641053125,9.37114640625Q2.8351453125,9.40632640625,2.7314753125,9.40632640625Q2.1782453125,9.40631640625,2.0069253125,8.88011640625Q1.9047353125,8.58501640625,2.0479453125,8.30015640625Q2.1902253125,8.01712640625,2.4893253125,7.91934640625L2.4882253125,7.91970640625ZM2.6136253125,8.29954640625Q2.4728153125,8.34557640625,2.4053253125,8.47982640625Q2.3379853125,8.61377640625,2.3872753125,8.75627640625Q2.4686853125,9.00632640625,2.7314753125,9.00632640625Q2.7815653125,9.00632640625,2.8588453125,8.98524640625L2.9114753125,9.17819640625L2.8482253125,8.98845640625L4.5368253125,8.42559640625Q4.6776353125,8.37956640625,4.7451253125,8.24531640625Q4.8124653125,8.11136640625,4.7639753125,7.97126640625Q4.6467753125,7.62617640625,4.3022153125,7.73668640625L2.6147153125,8.29918640625L2.6136253125,8.29954640625Z" fill="#303433" fill-opacity="1"/></g></svg>