<svg xmlns="http://www.w3.org/2000/svg" xmlns:xlink="http://www.w3.org/1999/xlink" fill="none" version="1.1" width="18.60009765625" height="20.604248046875" viewBox="0 0 18.60009765625 20.604248046875"><g style="mix-blend-mode:passthrough"><g><path d="M9.233438828125,20.30419921875L9.228758828125,20.30419921875C8.387318828125,20.29969921875,5.823238828125,18.65549921875,4.306298828125,17.55189921875C0.987253828125,15.13609921875,0.295397408125,13.84179921875,0.300072110325,13.18009921875L0.349156528125,4.13597921875C0.351493928125,3.70978921875,0.606265828125,3.32621921875,0.996603828125,3.16022921875L1.026988828125,3.14900921875L8.943608828125,0.38103421875C9.200718828125,0.27785181875,9.490548828125,0.27785181875,9.747658828125,0.38552041875L17.664248828125,3.23873921875C18.052248828125,3.40920921875,18.302348828125,3.79501921875,18.300048828125,4.221209218749999L18.250948828125,13.26539921875C18.241548828125,14.70319921875,16.032748828125,16.51339921875,14.181648828125,17.77619921875C12.358448828125,19.01889921875,10.011778828125,20.30419921875,9.233438828125,20.30419921875ZM1.370578828125,3.99465921875C1.326168828125,4.01932921875,1.295784828125,4.07764921875,1.295784828125,4.140459218749999L1.2466998281250001,13.18459921875C1.2443628281249999,13.67589921875,2.349928828125,14.97909921875,4.829858828125,16.78929921875C6.949838828125,18.33699921875,8.857118828125,19.36429921875,9.240448828125,19.39349921875C10.247848828125,19.35539921875,17.290248828125,15.13389921875,17.301948828125,13.25859921875L17.351048828125,4.21447921875C17.351048828125,4.15167921875,17.320648828125,4.09335921875,17.278648828125,4.06867921875L9.368998828125,1.21770821875C9.350308828125,1.20873621875,9.329268828125,1.20873621875,9.308228828125,1.21770821875L9.277848828125,1.22892421875L1.370578828125,3.99465921875Z" fill="#303433" fill-opacity="1"/><path d="M9.376898828125,1.51209921875L1.469628828125,4.27783921875L1.370578828125,3.99465921875L1.516278828125,4.25689921875Q1.595788828125,4.21272921875,1.595788828125,4.140459218749999L1.546698828125,13.18619921875Q1.542738828125,14.01849921875,5.006738828125,16.54699921875Q8.406758828125,19.02919921875,9.263208828125,19.09439921875L9.240448828125,19.39349921875L9.229098828125,19.09369921875Q10.132288828125,19.05949921875,13.474948828125,16.76759921875Q16.995148828125,14.35389921875,17.001948828125,13.25679921875L17.051048828125,4.21284921875Q17.051048828125,4.28301921875,17.126848828125,4.32745921875L17.278648828125,4.06867921875L17.176848828125,4.35090921875L9.252948828125,1.49476921875L9.239218828125,1.48817921875Q9.333128828125,1.53323921875,9.425938828125,1.49365921875L9.419088828125,1.49656921875L9.381728828125,1.51036921875L9.376898828125,1.51209921875ZM9.173968828125,0.94748321875L9.204348828125,0.93626821875L9.308228828125,1.21770821875L9.190528828125,0.94176221875Q9.347688828125,0.87473021875,9.498788828125,0.94723421875L9.368998828125,1.21770821875L9.470728828125,0.93548221875L17.406448828125,3.79585921875L17.430348828125,3.80989921875Q17.651048828125,3.93932921875,17.651048828125,4.216109218750001L17.601948828125,13.26049921875Q17.593148828125,14.67129921875,13.814248828125,17.26239921875Q10.328448828125,19.65249921875,9.251798828125,19.69329921875L9.234728828125,19.69389921875L9.217698828125,19.69259921875Q8.190928828125,19.61449921875,4.652988828125,17.03159921875Q0.941283828125,14.32229921875,0.946704828125,13.18299921875L0.995784828125,4.140459218749999Q0.995783828125,3.85969921875,1.224879828125,3.73241921875L1.247310828125,3.71994921875L9.178798828125,0.94574621875L9.173968828125,0.94748321875ZM14.350548828125,18.02409921875Q10.565348828125,20.60419921875,9.233438828125,20.60419921875L9.228758828125,20.60419921875Q7.982688828125,20.59759921875,4.129808828125,17.79449921875Q-0.011242171874999984,14.78039921875,0.0000808281249999876,13.17799921875L0.049160828125,4.13434921875Q0.05409282812499999,3.23502921875,0.879203828125,2.88414921875L0.885897828125,2.88130921875L0.923105828125,2.86756921875L8.844588828125,0.09784521874999999L8.943608828125,0.38103421875L8.831868828125,0.10261821874999999Q9.351138828125,-0.10577178124999997,9.863538828125,0.10880421874999999L9.747658828125,0.38552041875L9.849368828125,0.10329121875L17.775548828125,2.95996921875L17.784948828125,2.96407921875Q18.604948828125,3.32435921875,18.600048828125,4.22285921875L18.550948828125,13.26699921875Q18.538548828125,15.16709921875,14.350648828125,18.02409921875L14.350548828125,18.02409921875ZM14.012548828125,17.52839921875Q17.940648828125,14.84869921875,17.950948828125,13.26369921875L18.000048828125,4.219569218749999Q18.002848828125,3.71515921875,17.543548828125,3.51339921875L17.664248828125,3.23873921875L17.562548828125,3.52096921875L9.638788828125,0.66517221875L9.631778828125,0.6622372187500001Q9.346288828125,0.54268621875,9.055338828125,0.65945021875L9.049028828125,0.66198121875L1.130871828125,3.43044921875L1.100485828125,3.44166921875L0.996603828125,3.16022921875L1.1140028281249998,3.43629921875Q0.651920828125,3.63279921875,0.6491518281249999,4.13759921875L0.600065828125,13.18219921875Q0.590919828125,14.47659921875,4.482788828125,17.30929921875Q8.179278828125,19.99859921875,9.228758828125,20.00419921875L9.233438828125,20.00419921875Q10.380248828125,20.00419921875,14.012648828125,17.52829921875L14.012548828125,17.52839921875Z" fill="#303433" fill-opacity="1"/></g><g><path d="M8.197488828125,13.031476708221437C8.030928828124999,13.031476708221437,7.864368828125,12.971986708221436,7.735558828125,12.853026708221435L4.937270828125,10.265636708221436C4.759602328125,10.099946708221434,4.752939728125,9.828036708221436,4.926166828125,9.655966708221435C5.099393828125,9.486026708221436,5.383663828125,9.479646708221436,5.563553828125,9.645346708221435L8.199718828125,12.084036708221436L13.041188828125,7.695242708221436C13.221078828125,7.5316717082214355,13.507568828125,7.538044608221435,13.676358828125,7.712236708221435C13.847358828125,7.8843047082214355,13.840698828125,8.158338708221436,13.658588828125,8.319785708221435L8.654988828125,12.857276708221436C8.526178828125,12.974116708221436,8.361838828125,13.031476708221437,8.197488828125,13.031476708221437Z" fill="#303433" fill-opacity="1"/><path d="M8.856538828125,13.079486708221435Q8.578738828125001,13.331476708221436,8.197488828125,13.331476708221436Q7.811428828125,13.331476708221436,7.5320188281250005,13.073426708221437L4.733601728125,10.485906708221435Q4.506334828125,10.273966708221435,4.500193828125,9.969236708221436Q4.494009828125,9.662386708221435,4.714748028125,9.443126708221435Q5.233883828125,8.933816708221435,5.766800828125,9.424686708221437L8.403438828125001,11.863816708221435L8.199718828125,12.084036708221436L7.998228828125,11.861766708221435L12.839698828125,7.472973708221436Q13.383308828125,6.978686708221436,13.891798828125,7.503475008221436Q14.108278828125,7.721263708221436,14.099778828125,8.028303708221436Q14.091218828125,8.337164708221435,13.857598828125,8.544271708221435L8.856518828125001,13.079506708221436L8.856538828125,13.079486708221435ZM8.453458828125001,12.635046708221434L13.459578828125,8.095298708221435Q13.498648828125,8.060658708221435,13.500008828125,8.011684708221436Q13.501388828125,7.9617687082214355,13.460908828125,7.920998708221435Q13.356888828125,7.813654708221436,13.242678828125,7.917510708221435L8.197658828125,12.490816708221436L5.360305828125,9.866006708221436Q5.246914828125,9.761556708221436,5.137585828125,9.868806708221435Q5.099062828125,9.907076708221435,5.100071828125,9.957146708221435Q5.101100828125,10.008206708221437,5.140940828125,10.045366708221437L7.939088828125,12.632636708221437Q8.046108828125,12.731466708221436,8.197488828125,12.731466708221436Q8.347158828125,12.731466708221436,8.453438828125,12.635076708221437L8.453458828125001,12.635046708221434Z" fill="#303433" fill-opacity="1"/></g></g></svg>