<svg xmlns="http://www.w3.org/2000/svg" xmlns:xlink="http://www.w3.org/1999/xlink" fill="none" version="1.1" width="19.2001953125" height="19.199951171875" viewBox="0 0 19.2001953125 19.199951171875"><g style="mix-blend-mode:passthrough"><g><path d="M9.600102888946534,13.634221092681884C8.992782888946532,13.634221092681884,8.428862888946533,13.417321092681885,7.995082888946533,12.983531092681885L6.259907888946533,11.248381092681885C5.826124888946533,10.814581092681884,5.609222888946533,10.250661092681884,5.609222888946533,9.643341092681885C5.609222888946533,9.036051092681884,5.826124888946533,8.472111092681885,6.259907888946533,8.038331092681885L7.995082888946533,6.303176092681885C8.428862888946533,5.869373092681885,8.992782888946532,5.652491092681885,9.600092888946534,5.652491092681885C10.207412888946532,5.652491092681885,10.771332888946533,5.869373092681885,11.205112888946534,6.303176092681885L12.940282888946534,8.038331092681885C13.374072888946532,8.472111092681885,13.590972888946533,9.036051092681884,13.590972888946533,9.643341092681885C13.590972888946533,10.250661092681884,13.374072888946532,10.814581092681884,12.940282888946534,11.248381092681885L11.205112888946534,12.983531092681885C10.771332888946533,13.373941092681886,10.207412888946532,13.634221092681884,9.600102888946534,13.634221092681884ZM9.600102888946534,6.867101092681885C9.339822888946532,6.867101092681885,9.079552888946534,6.953861092681885,8.906042888946534,7.170741092681885L7.170862888946533,8.905921092681885C6.997362888946533,9.079421092681885,6.867222888946533,9.339701092681885,6.867222888946533,9.599971092681885C6.867222888946533,9.860251092681885,6.953982888946533,10.120521092681884,7.170862888946533,10.294031092681884L8.906042888946534,12.029201092681884C9.253062888946534,12.376221092681885,9.903742888946534,12.376221092681885,10.294152888946533,12.029201092681884L12.029332888946534,10.294031092681884C12.202832888946533,10.120521092681884,12.332972888946532,9.860251092681885,12.332972888946532,9.599971092681885C12.332972888946532,9.339701092681885,12.246212888946534,9.079421092681885,12.029332888946534,8.905911092681885L10.294152888946533,7.170741092681885C10.120642888946534,6.997231092681885,9.860372888946532,6.867101092681885,9.600102888946534,6.867101092681885Z" fill="#303433" fill-opacity="1"/><path d="M10.223442888946533,7.241451092681885Q9.949082888946533,6.967101092681885,9.600102888946534,6.967101092681885Q9.197022888946533,6.967101092681885,8.984122888946533,7.233211092681884L8.980662888946533,7.237541092681885L7.241572888946533,8.976631092681885Q6.967222888946534,9.250981092681885,6.967222888946534,9.599971092681885Q6.967222888946534,10.003041092681885,7.233342888946533,10.215941092681884L7.2376628889465335,10.219401092681885L8.976752888946534,11.958491092681886Q9.563292888946533,12.545031092681885,10.227722888946534,11.954461092681886L10.294152888946533,12.029201092681884L10.223442888946533,11.958491092681886L11.958622888946532,10.223321092681886Q12.232972888946534,9.948961092681884,12.232972888946534,9.599971092681885Q12.232972888946534,9.196901092681884,11.966862888946533,8.984001092681885L11.962532888946534,8.980541092681886L10.223442888946533,7.241451092681885ZM10.364862888946533,7.100031092681885L12.100042888946533,8.835201092681885L12.029332888946534,8.905911092681885L12.091802888946532,8.827831092681885Q12.432972888946534,9.100781092681885,12.432972888946534,9.599971092681885Q12.432972888946534,10.031801092681885,12.100042888946533,10.364741092681886L10.362782888946533,12.101991092681885L10.360592888946533,12.103951092681886Q9.555222888946533,12.819811092681885,8.835332888946533,12.099911092681886L7.100152888946534,10.364741092681886L7.170862888946533,10.294031092681884L7.108392888946533,10.372121092681885Q6.767222888946533,10.099171092681885,6.767222888946533,9.599971092681885Q6.767222888946533,9.168141092681886,7.100152888946534,8.835201092681885L8.835332888946533,7.100031092681885L8.906042888946534,7.170741092681885L8.827952888946534,7.108271092681885Q9.100902888946534,6.767091092681885,9.600102888946534,6.767101092681885Q10.031932888946534,6.767101092681885,10.364862888946533,7.100031092681885ZM11.272012888946534,13.057861092681884Q10.520512888946534,13.734221092681885,9.600102888946534,13.734221092681885Q8.604342888946533,13.734221092681885,7.924372888946533,13.054241092681885L6.189197888946533,11.319091092681884Q5.509222988946533,10.639091092681884,5.509222988946533,9.643341092681885Q5.509222888946534,8.647591092681886,6.189196888946533,7.967621092681885L7.924372888946533,6.232465092681885Q8.604312888946533,5.5524911926818845,9.600092888946534,5.552491092681885Q10.595882888946534,5.552491092681885,11.275822888946532,6.232467092681885L13.010992888946532,7.967621092681885Q13.690972888946533,8.647591092681886,13.690972888946533,9.643341092681885Q13.690962888946533,10.639091092681884,13.011002888946532,11.319091092681884L11.273962888946533,13.056101092681885L11.272012888946534,13.057861092681884ZM11.138212888946533,12.909201092681885L11.205112888946534,12.983531092681885L11.134402888946532,12.912821092681884L12.869572888946532,11.177671092681884Q13.490972888946533,10.556251092681885,13.490972888946533,9.643341092681885Q13.490972888946533,8.730441092681884,12.869572888946532,8.109041092681885L11.134402888946532,6.373885092681885Q10.513032888946533,5.752491092681884,9.600092888946534,5.752490992681885Q8.687152888946533,5.752490992681885,8.065792888946532,6.373887092681885L6.330617888946533,8.109041092681885Q5.709222888946533,8.730441092681884,5.709222888946533,9.643341092681885Q5.709222888946533,10.556251092681885,6.330617888946533,11.177671092681884L8.065792888946532,12.912821092681884Q8.687182888946534,13.534221092681886,9.600102888946534,13.534221092681886Q10.443772888946533,13.534221092681886,11.138212888946533,12.909201092681885Z" fill="#303433" fill-opacity="1"/></g><g><path d="M9.60009765625,19.0999755859375C4.35124765625,19.0999755859375,0.10009765625,14.8487755859375,0.10009765625,9.5999755859375C0.10009765625,4.3511255859375,4.35124765625,0.0999755859375,9.60009765625,0.0999755859375C14.84889765625,0.0999755859375,19.10009765625,4.3511255859375,19.10009765625,9.5999755859375C19.10009765625,14.8487755859375,14.84889765625,19.0999755859375,9.60009765625,19.0999755859375ZM9.60009765625,1.4013455859375C5.08867765625,1.4013455859375,1.40146765625,5.0885555859375,1.40146765625,9.5999755859375C1.40146765625,14.1113755859375,5.08867765625,17.7985755859375,9.60009765625,17.7985755859375C14.11149765625,17.7985755859375,17.79869765625,14.1113755859375,17.79869765625,9.5999755859375C17.79869765625,5.0885555859375,14.11149765625,1.4013455859375,9.60009765625,1.4013455859375Z" fill="#303433" fill-opacity="1"/><path d="M17.69869765625,9.5999755859375Q17.69869765625,6.2578155859375,15.32049765625,3.8795855859375Q12.94219765625,1.5013455859375,9.60009765625,1.5013455859375Q6.25796765625,1.5013455859375,3.87970765625,3.8795855859375Q1.50146765625,6.2578255859375,1.50146765625,9.5999755859375Q1.50146765625,12.9420755859375,3.87970765625,15.3203755859375Q6.25793765625,17.6985755859375,9.60009765625,17.6985755859375Q12.94229765625,17.6985755859375,15.32049765625,15.3203755859375Q17.69869765625,12.9421755859375,17.69869765625,9.5999755859375L17.69869765625,9.5999755859375ZM17.89869765625,9.5999755859375Q17.89869765625,13.0249755859375,15.46189765625,15.4617755859375Q13.02509765625,17.8985755859375,9.60009765625,17.8985755859375Q6.17509765625,17.8985755859375,3.73828765625,15.4617755859375Q1.30146765625,13.0249755859375,1.30146765625,9.5999755859375Q1.30146765625,6.1749855859375,3.73828765625,3.7381655859375Q6.17510765625,1.3013455859375,9.60009765625,1.3013455859375Q13.02499765625,1.3013455859375,15.46189765625,3.7381655859375Q17.89869765625,6.1749555859375,17.89869765625,9.5999755859375L17.89869765625,9.5999755859375ZM19.20009765625,9.5999755859375Q19.20009765625,13.5780755859375,16.38909765625,16.3889755859375Q13.57819765625,19.1999755859375,9.60009765625,19.1999755859375Q5.62200765625,19.1999755859375,2.81106765625,16.3889755859375Q0.00009915624999999595,13.5779755859375,0.00009765624999999445,9.5999755859375Q0.00009765624999999445,5.6219155859375,2.81106765625,2.8109455859375Q5.62203765625,-0.000030414062499997674,9.60009765625,-0.00002341406250000455Q13.57809765625,-0.000024314062500002676,16.38909765625,2.8109455859375Q19.20009765625,5.6218955859375,19.20009765625,9.5999755859375ZM19.00009765625,9.5999755859375Q19.00009765625,5.7047355859375,16.24769765625,2.9523655859375Q13.49529765625,0.1999755859375,9.60009765625,0.1999765859375Q5.70487765625,0.19998158593749998,2.95248765625,2.9523655859375Q0.20009765625,5.7047455859375,0.20009765625,9.5999755859375Q0.20009615625,13.4951755859375,2.95248765625,16.2475755859375Q5.70486765625,18.9999755859375,9.60009765625,18.9999755859375Q13.49529765625,18.9999755859375,16.24769765625,16.2475755859375Q19.00009765625,13.4951755859375,19.00009765625,9.5999755859375Z" fill="#303433" fill-opacity="1"/></g></g></svg>