<svg xmlns="http://www.w3.org/2000/svg" xmlns:xlink="http://www.w3.org/1999/xlink" fill="none" version="1.1" width="18" height="17" viewBox="0 0 18 17"><g><g><path d="M16.58017,3.66053C15.50475,2.58163,14.4234,1.50862,13.34811,0.429578C13.11357,0.19422,12.73085,0.190038,12.49591,0.425003C12.13905,0.781917,11.782057,1.1387,11.425049,1.49547C11.190559,1.72981,11.18516,2.1053,11.419634,2.33965C12.20293,3.12253,13.879,4.79771,14.6623,5.58059C14.89658,5.81474,15.2721,5.80996,15.50639,5.57581C15.86289,5.21951,16.219369999999998,4.8632,16.57575,4.50678C16.80947,4.27304,16.81352,3.89464,16.58017,3.66054" fill="#303433" fill-opacity="1"/></g><g><path d="M0,16.401400000000002C0,16.7327,0.267227,17,0.598598,17L4.25132,17C4.41044,17,4.56259,16.936799999999998,4.67511,16.8243L14.5757,6.92395C14.8101,6.68964,14.8035,6.30322,14.5692,6.0689L10.9314,2.430797C10.6971,2.196472,10.305,2.195569,10.0707,2.4298830000000002L0.176627,12.3237C0.0641019,12.4362,0,12.5893,0,12.7484L0,16.401400000000002ZM3.87807,15.5L1.5,15.5L1.5,13.1217L10.5006,4.12134L12.8787,6.49965L3.87807,15.5Z" fill-rule="evenodd" fill="#303433" fill-opacity="1"/></g><g><path d="M9.601102962341308,14.449590682983398C9.601102962341308,14.449590682983398,16.800662962341306,14.449590682983398,16.800662962341306,14.449590682983398C17.463062962341308,14.449590682983398,18.00000296234131,15.0205036829834,18.00000296234131,15.7248106829834C18.00000296234131,16.429060682983398,17.463062962341308,17.000000682983398,16.800662962341306,17.000000682983398C16.800662962341306,17.000000682983398,9.601102962341308,17.000000682983398,9.601102962341308,17.000000682983398C8.938704962341308,17.000000682983398,8.401762962341309,16.429060682983398,8.401762962341309,15.7248106829834C8.401762962341309,15.0205036829834,8.938704962341308,14.449590682983398,9.601102962341308,14.449590682983398C9.601102962341308,14.449590682983398,9.601102962341308,14.449590682983398,9.601102962341308,14.449590682983398Z" fill="#303433" fill-opacity="1"/></g></g></svg>