<svg xmlns="http://www.w3.org/2000/svg" xmlns:xlink="http://www.w3.org/1999/xlink" fill="none" version="1.1" width="18.2001953125" height="18.199951171875" viewBox="0 0 18.2001953125 18.199951171875"><g style="mix-blend-mode:passthrough"><g><path d="M9.193369398754882,0.9181493520736694L10.770820598754883,1.2846943520736693C10.577730598754883,2.106149352073669,10.962280598754884,2.8711493520736697,12.075820598754882,3.6688793520736693C14.674370598754884,5.52941935207367,15.288000598754882,6.57832935207367,14.549190598754883,8.897059352073668C14.113910598754883,10.263419352073669,14.641640598754883,10.76250935207367,16.463730598754882,10.76250935207367L16.463730598754882,12.372649352073669C13.665550598754884,12.372649352073669,12.187100598754883,10.97364935207367,13.004460598754882,8.41105935207367C13.481460598754882,6.91541935207367,13.223730598754884,6.476059352073669,11.128370598754882,4.9746893520736695C9.528004598754883,3.8292393520736696,8.832550598754883,2.4465093520736696,9.193369398754882,0.9181493520736694Z" fill="#303433" fill-opacity="1"/><path d="M11.070170598754883,5.056009352073669Q8.541093598754882,3.2458493520736695,9.096044308754882,0.8951732520736695L9.118940498754883,0.7981903520736694L10.891110598754883,1.2099813520736693L10.868170598754883,1.3075773520736695Q10.591920598754882,2.4828193520736694,12.134060598754882,3.5875793520736696Q14.141110598754882,5.02462935207367,14.653750598754883,6.067019352073669Q15.201190598754883,7.180169352073669,14.644470598754882,8.92741935207367Q14.337550598754884,9.89083935207367,14.729510598754882,10.27032935207367Q15.134590598754883,10.66250935207367,16.463730598754882,10.66250935207367L16.563730598754884,10.66250935207367L16.563730598754884,12.47264935207367L16.463730598754882,12.47264935207367Q14.273810598754883,12.47264935207367,13.304710598754884,11.42054935207367Q12.290710598754883,10.31969935207367,12.909190598754883,8.380669352073669Q13.252430598754882,7.304459352073669,12.943450598754882,6.743249352073669Q12.629760598754883,6.173479352073669,11.070120598754883,5.0559793520736696L11.070170598754883,5.056009352073669ZM11.186610598754882,4.89340935207367Q12.783100598754883,6.03731935207367,13.118650598754883,6.64678935207367Q13.469090598754882,7.28330935207367,13.099730598754883,8.441449352073668Q12.516570598754882,10.269709352073669,13.451820598754882,11.285049352073669Q14.361500598754883,12.272749352073669,16.463730598754882,12.27264935207367L16.463730598754882,12.372649352073669L16.363730598754884,12.372649352073669L16.363730598754884,10.76250935207367L16.463730598754882,10.76250935207367L16.463730598754882,10.862509352073669Q15.053630598754882,10.862519352073669,14.590390598754883,10.41401935207367Q14.109350598754883,9.948289352073669,14.453910598754883,8.86669935207367Q14.986180598754883,7.19617935207367,14.474280598754882,6.155279352073669Q13.983820598754882,5.1579893520736695,12.017590598754882,3.7501693520736694Q10.366580598754883,2.5674093520736694,10.673480598754884,1.2618123520736695L10.770820598754883,1.2846943520736693L10.748190598754883,1.3820993520736695L9.170735798754883,1.0155542520736693L9.193369398754882,0.9181493520736694L9.290693598754883,0.9411263520736695Q8.766557598754883,3.1612593520736696,11.186570598754884,4.893379352073669L11.186610598754882,4.89340935207367Z" fill="#FFFFFF" fill-opacity="1"/></g><g><path d="M1.8640823974609375,7.7254255859375C0.8177263974609374,13.2217755859375,6.0415223974609376,17.8310755859375,11.364782397460937,16.1084755859375C10.912382397460938,15.0628755859375,10.418982397460937,14.8288755859375,9.499352397460937,14.8550755859375C9.387262397460937,14.8574755859375,9.291532397460937,14.8632755859375,9.082082397460937,14.8754755859375C7.496442397460937,14.9712755859375,6.7077223974609375,14.7732755859375,5.962352397460937,13.6400755859375C5.128622397460937,12.3751755859375,5.389632397460938,11.4604755859375,6.395992397460938,10.3002755859375L6.515442397460937,10.1627755859375C7.264902397460937,9.3037055859375,7.336082397460937,9.0353355859375,6.7919923974609375,8.2531555859375C6.183262397460937,7.3777055859375,5.845352397460937,7.3310655859375,4.573902397460937,7.6951555859375C3.3793523974609374,8.0363355859375,2.6135323974609377,8.1116155859375,1.8640823974609375,7.7254255859375ZM2.3697223974609374,6.1070655859375C2.7804423974609374,6.4204255859375,3.1453523974609374,6.4016155859375,4.123902397460937,6.1217955859375C5.991812397460937,5.5875255859375,7.031722397460937,5.7323355859375,8.135442397460938,7.3187955859375C9.205632397460937,8.8569755859375,8.933992397460937,9.8797055859375,7.748442397460938,11.2386755859375L7.632262397460938,11.3720755859375C7.051352397460938,12.0429755859375,6.995722397460938,12.2352755859375,7.329532397460937,12.7408755859375C7.655172397460937,13.2366755859375,7.930082397460938,13.3054755859375,8.983082397460937,13.2424755859375C9.210532397460938,13.2284755859375,9.317722397460937,13.2227755859375,9.452722397460937,13.2186755859375C11.018682397460937,13.1744755859375,12.095482397460938,13.7586755859375,12.851482397460938,15.4375755859375C17.139782397460937,12.8961755859375,17.716682397460936,6.9174855859375,13.993482397460937,3.6029155859375C10.270282397460937,0.28835458593749996,4.398562397460937,1.5534055859375,2.3705323974609374,6.1070655859375L2.3697223974609374,6.1070655859375ZM9.100082397460938,18.0999755859375C4.129632397460938,18.0999755859375,0.1000823974609375,14.0704755859375,0.1000823974609375,9.0999755859375C0.1000823974609375,4.1295255859375,4.129632397460938,0.0999755859375,9.100082397460938,0.0999755859375C14.070582397460937,0.0999755859375,18.100082397460938,4.1295255859375,18.100082397460938,9.0999755859375C18.100082397460938,14.0704755859375,14.070582397460937,18.0999755859375,9.100082397460938,18.0999755859375Z" fill="#303433" fill-opacity="1"/><path d="M18.20008239746094,9.0999755859375Q18.20008239746094,12.8692755859375,15.534682397460937,15.5345755859375Q12.869282397460937,18.1999755859375,9.100082397460938,18.1999755859375Q5.330792397460938,18.1999755859375,2.6654523974609377,15.5345755859375Q0.00008389746093749595,12.8691755859375,0.00008239746093749445,9.0999755859375Q0.00008239746093749445,5.3306855859375,2.6654523974609377,2.6653455859375Q5.3308223974609374,-0.000030414062499997674,9.100082397460938,-0.00002441406250000555Q12.869282397460937,-0.000024314062500002676,15.534682397460937,2.6653455859375Q18.20008239746094,5.3306955859375,18.20008239746094,9.0999755859375ZM18.000082397460936,9.0999755859375Q18.000082397460936,5.4135355859375,15.393282397460938,2.8067655859375Q12.786482397460938,0.1999754859375,9.100082397460938,0.1999755859375Q5.4136623974609375,0.1999740859375,2.8068723974609373,2.8067655859375Q0.2000822974609375,5.4135455859375,0.2000823974609375,9.0999755859375Q0.2000808974609375,12.7863755859375,2.8068723974609373,15.3931755859375Q5.413652397460938,17.9999755859375,9.100082397460938,17.9999755859375Q12.786482397460938,17.9999755859375,15.393282397460938,15.3931755859375Q18.000082397460936,12.7863755859375,18.000082397460936,9.0999755859375ZM2.3704223974609375,6.2070655859375L2.3696023974609375,6.2070655859375L2.3697223974609374,6.1070655859375L2.4303723974609377,6.0275655859375Q2.8827523974609375,6.3726955859375,4.096402397460937,6.0256455859375Q6.816352397460937,5.2476655859375,8.217532397460937,7.2616855859375Q9.607622397460938,9.2596555859375,7.823802397460938,11.3044755859375L7.707662397460937,11.4377755859375Q7.072972397460937,12.1707755859375,7.412992397460937,12.6857755859375Q7.760802397460938,13.2153755859375,8.977112397460937,13.1425755859375Q9.286332397460937,13.1236755859375,9.449692397460938,13.1187755859375Q11.885982397460937,13.0499755859375,12.942582397460937,15.3965755859375L12.851482397460938,15.4375755859375L12.800482397460938,15.3515755859375Q15.973082397460937,13.4713755859375,16.327282397460937,9.8005855859375Q16.681482397460936,6.1297655859375,13.926982397460938,3.6776055859375Q11.172482397460938,1.2254455859375,7.567392397460938,2.0021655859375Q3.9622323974609377,2.7788955859375,2.4618823974609376,6.1477455859375L2.4354323974609375,6.2071455859375L2.3704223974609375,6.2070655859375ZM2.3706523974609377,6.0070655859375L2.3705323974609374,6.1070655859375L2.2791823974609375,6.0663855859375Q3.8208423974609373,2.6047555859375,7.525262397460938,1.8066555859375Q11.229682397460937,1.0085445859375,14.059982397460937,3.5282255859375Q16.890282397460936,6.0479155859375,16.52638239746094,9.8197955859375Q16.162382397460938,13.5916755859375,12.902382397460938,15.5236755859375L12.806182397460937,15.5806755859375L12.760282397460937,15.4786755859375Q11.758382397460938,13.2536755859375,9.455752397460937,13.3186755859375Q9.295492397460938,13.3234755859375,8.989052397460938,13.3422755859375Q7.657192397460937,13.4219755859375,7.246082397460937,12.7959755859375Q6.822552397460938,12.1544755859375,7.556862397460938,11.3063755859375L7.6730923974609375,11.1729755859375Q9.354312397460937,9.2457755859375,8.053362397460937,7.3759055859375Q6.733852397460938,5.4792955859375,4.1513923974609375,6.2179355859375Q2.8412323974609377,6.5925855859375,2.3090623974609374,6.1865655859375L2.0733323974609377,6.0067155859375L2.3706523974609377,6.0070655859375ZM4.601362397460938,7.7913155859375Q2.7820423974609376,8.3109455859375,1.8182723974609376,7.8143255859375L1.8640823974609375,7.7254255859375L1.9623223974609374,7.7441355859375Q1.1882023974609375,11.8103755859375,4.2919923974609375,14.5490755859375Q7.395802397460938,17.2876755859375,11.333982397460938,16.0133755859375L11.364782397460937,16.1084755859375L11.272982397460938,16.1482755859375Q10.741482397460938,14.9197755859375,9.502202397460938,14.9549755859375Q9.394322397460938,14.9573755859375,9.104882397460937,14.9743755859375L9.087932397460937,14.9753755859375Q6.8113723974609375,15.1127755859375,5.878802397460937,13.6949755859375Q4.773512397460937,12.0180755859375,6.3204523974609375,10.2346755859375L6.4399623974609375,10.0971955859375Q7.281722397460937,9.1323055859375,6.7099023974609375,8.3102555859375Q6.058852397460938,7.3739455859375,4.601432397460938,7.7912955859375L4.601362397460938,7.7913155859375ZM4.546372397460938,7.5990155859375Q6.141362397460938,7.1422755859375,6.8740823974609375,8.1960555859375Q7.5350023974609375,9.1461955859375,6.590922397460938,10.2283755859375L6.471532397460938,10.3657755859375Q5.023942397460938,12.0345755859375,6.045902397460938,13.5850755859375Q6.914852397460938,14.9061755859375,9.076232397460938,14.7756755859375L9.093182397460938,14.7746755859375Q9.386252397460938,14.7574755859375,9.496512397460938,14.7550755859375Q10.871182397460938,14.7159755859375,11.456582397460938,16.0687755859375L11.500282397460937,16.1697755859375L11.395582397460938,16.2036755859375Q7.348922397460938,17.5130755859375,4.159662397460938,14.6990755859375Q0.9704133974609375,11.8849755859375,1.7658423974609374,7.7067255859375L1.7908823974609376,7.5752155859375L1.9098823974609376,7.6365355859375Q2.8032623974609376,8.0968955859375,4.546432397460937,7.5990055859375L4.546372397460938,7.5990155859375Z" fill="#FFFFFF" fill-opacity="1"/></g></g></svg>