<svg xmlns="http://www.w3.org/2000/svg" xmlns:xlink="http://www.w3.org/1999/xlink" fill="none" version="1.1" width="80" height="80" viewBox="0 0 80 80"><defs><clipPath id="master_svg0_1559_15974"><rect x="0" y="0" width="80" height="80" rx="24"/></clipPath></defs><g clip-path="url(#master_svg0_1559_15974)"><rect x="0" y="0" width="80" height="80" rx="24" fill="#F4F4F4" fill-opacity="1"/><g><g><path d="M18.823428630828857,52.941354687499995L18.823428630828857,34.117824687500004C18.823428630828857,28.9198446875,23.037218630828857,24.7060546875,28.235198630828858,24.7060546875L51.76462863082886,24.7060546875C56.96262863082886,24.7060546875,61.176328630828856,28.9198446875,61.176328630828856,34.117824687500004L61.176328630828856,52.941354687499995C61.176328630828856,58.1393546875,56.96262863082886,62.3531546875,51.76462863082886,62.3531546875L28.235198630828858,62.3531546875C23.037218630828857,62.3531546875,18.823428630828857,58.1393546875,18.823428630828857,52.941354687499995ZM22.494018630828858,52.941354687499995Q22.494018630828858,55.3194546875,24.175568630828856,57.0009546875Q25.857118630828857,58.6825546875,28.235198630828858,58.6825546875L51.76462863082886,58.6825546875Q54.142728630828856,58.6825546875,55.824228630828856,57.0009546875Q57.50582863082886,55.3194546875,57.50582863082886,52.941354687499995L57.50582863082886,34.117824687500004Q57.50582863082886,31.7397446875,55.824228630828856,30.0581946875Q54.142728630828856,28.3766446875,51.76462863082886,28.3766446875L28.235198630828858,28.3766446875Q25.857118630828857,28.3766446875,24.175568630828856,30.0581946875Q22.494018630828858,31.7397446875,22.494018630828858,34.117824687500004L22.494018630828858,52.941354687499995Z" fill-rule="evenodd" fill="#2A3331" fill-opacity="1"/></g><g><path d="M31.055850982666016,63.411891015625L31.055850982666016,61.294251015625C31.055850982666016,60.319627015625,31.845936982666014,59.529541015625,32.82056098266602,59.529541015625C33.79518098266602,59.529541015625,34.585260982666014,60.319627015625,34.585260982666014,61.294251015625L34.585260982666014,63.411891015625C34.585260982666014,64.386511015625,33.79518098266602,65.176601015625,32.82056098266602,65.176601015625C31.845936982666014,65.176601015625,31.055850982666016,64.386511015625,31.055850982666016,63.411891015625Z" fill="#2A3331" fill-opacity="1"/></g><g><path d="M31.055850982666016,61.294251015625L31.055850982666016,63.411891015625C31.055850982666016,64.386511015625,31.845936982666014,65.176601015625,32.82056098266602,65.176601015625C33.79518098266602,65.176601015625,34.585260982666014,64.386511015625,34.585260982666014,63.411891015625L34.585260982666014,61.294251015625C34.585260982666014,60.319627015625,33.79518098266602,59.529541015625,32.82056098266602,59.529541015625C31.845936982666014,59.529541015625,31.055850982666016,60.319627015625,31.055850982666016,61.294251015625Z" fill-rule="evenodd" fill="#2A3331" fill-opacity="1"/></g><g transform="matrix(0,1,-1,0,101.88299942016602,24.704891204833984)"><path d="M38.589054107666016,72.7057053125L38.589054107666016,65.1762953125C38.589054107666016,64.1367033125,39.43181210766602,63.2939453125,40.47140410766602,63.2939453125C41.51100410766602,63.2939453125,42.35376410766602,64.1367033125,42.35376410766602,65.1762953125L42.35376410766602,72.7057053125C42.35376410766602,73.7453453125,41.51100410766602,74.5880453125,40.47140410766602,74.5880453125C39.43181210766602,74.5880453125,38.589054107666016,73.7453453125,38.589054107666016,72.7057053125Z" fill="#2A3331" fill-opacity="1"/></g><g transform="matrix(0,1,-1,0,101.88299942016602,24.704891204833984)"><path d="M38.589054107666016,65.1762953125L38.589054107666016,72.7057053125C38.589054107666016,73.7453453125,39.43181210766602,74.5880453125,40.47140410766602,74.5880453125C41.51100410766602,74.5880453125,42.35376410766602,73.7453453125,42.35376410766602,72.7057053125L42.35376410766602,65.1762953125C42.35376410766602,64.1367033125,41.51100410766602,63.2939453125,40.47140410766602,63.2939453125C39.43181210766602,63.2939453125,38.589054107666016,64.1367033125,38.589054107666016,65.1762953125Z" fill-rule="evenodd" fill="#2A3331" fill-opacity="1"/></g><g transform="matrix(0,1,-1,0,116.94159126281738,9.646299362182617)"><path d="M53.64764595031738,72.7057053125L53.64764595031738,65.1762953125C53.64764595031738,64.1367033125,54.490403950317386,63.2939453125,55.529995950317385,63.2939453125C56.569595950317385,63.2939453125,57.412355950317384,64.1367033125,57.412355950317384,65.1762953125L57.412355950317384,72.7057053125C57.412355950317384,73.7453453125,56.569595950317385,74.5880453125,55.529995950317385,74.5880453125C54.490403950317386,74.5880453125,53.64764595031738,73.7453453125,53.64764595031738,72.7057053125Z" fill="#2A3331" fill-opacity="1"/></g><g transform="matrix(0,1,-1,0,116.94159126281738,9.646299362182617)"><path d="M53.64764595031738,65.1762953125L53.64764595031738,72.7057053125C53.64764595031738,73.7453453125,54.490403950317386,74.5880453125,55.529995950317385,74.5880453125C56.569595950317385,74.5880453125,57.412355950317384,73.7453453125,57.412355950317384,72.7057053125L57.412355950317384,65.1762953125C57.412355950317384,64.1367033125,56.569595950317385,63.2939453125,55.529995950317385,63.2939453125C54.490403950317386,63.2939453125,53.64764595031738,64.1367033125,53.64764595031738,65.1762953125Z" fill-rule="evenodd" fill="#2A3331" fill-opacity="1"/></g><g transform="matrix(-1,0,0,-1,134.11560440063477,94.11767578125)"><path d="M67.05780220031738,57.058837890625L67.05780220031738,48.823547890625C67.05780220031738,47.848923890625,67.84788820031739,47.058837890625,68.82251220031738,47.058837890625C69.79713220031738,47.058837890625,70.58721220031738,47.848923890625,70.58721220031738,48.823547890625L70.58721220031738,57.058837890625C70.58721220031738,58.033437890625,69.79713220031738,58.823537890625,68.82251220031738,58.823537890625C67.84788820031739,58.823537890625,67.05780220031738,58.033437890625,67.05780220031738,57.058837890625Z" fill="#2A3331" fill-opacity="1"/></g><g transform="matrix(-1,0,0,-1,134.11560440063477,94.11767578125)"><path d="M67.05780220031738,48.823547890625L67.05780220031738,57.058837890625C67.05780220031738,58.033437890625,67.84788820031739,58.823537890625,68.82251220031738,58.823537890625C69.79713220031738,58.823537890625,70.58721220031738,58.033437890625,70.58721220031738,57.058837890625L70.58721220031738,48.823547890625C70.58721220031738,47.848923890625,69.79713220031738,47.058837890625,68.82251220031738,47.058837890625C67.84788820031739,47.058837890625,67.05780220031738,47.848923890625,67.05780220031738,48.823547890625Z" fill-rule="evenodd" fill="#2A3331" fill-opacity="1"/></g><g transform="matrix(-1,0,0,-1,32.939826011657715,94.11767578125)"><path d="M16.469913005828857,57.058837890625L16.469913005828857,48.823547890625C16.469913005828857,47.848923890625,17.259999005828856,47.058837890625,18.23462300582886,47.058837890625C19.209243005828856,47.058837890625,19.999323005828856,47.848923890625,19.999323005828856,48.823547890625L19.999323005828856,57.058837890625C19.999323005828856,58.033437890625,19.209243005828856,58.823537890625,18.23462300582886,58.823537890625C17.259999005828856,58.823537890625,16.469913005828857,58.033437890625,16.469913005828857,57.058837890625Z" fill="#2A3331" fill-opacity="1"/></g><g transform="matrix(-1,0,0,-1,32.939826011657715,94.11767578125)"><path d="M16.469913005828857,48.823547890625L16.469913005828857,57.058837890625C16.469913005828857,58.033437890625,17.259999005828856,58.823537890625,18.23462300582886,58.823537890625C19.209243005828856,58.823537890625,19.999323005828856,58.033437890625,19.999323005828856,57.058837890625L19.999323005828856,48.823547890625C19.999323005828856,47.848923890625,19.209243005828856,47.058837890625,18.23462300582886,47.058837890625C17.259999005828856,47.058837890625,16.469913005828857,47.848923890625,16.469913005828857,48.823547890625Z" fill-rule="evenodd" fill="#2A3331" fill-opacity="1"/></g><g transform="matrix(-1,0,0,-1,73.40857696533203,92.70556640625)"><path d="M36.704288482666016,54.823373203125L36.704288482666016,49.176313203125C36.704288482666016,47.616923203125,37.96842848266601,46.352783203125,39.527818482666014,46.352783203125C41.087208482666014,46.352783203125,42.35134848266601,47.616923203125,42.35134848266601,49.176313203125L42.35134848266601,54.823373203125C42.35134848266601,56.382783203125,41.087208482666014,57.646883203125,39.527818482666014,57.646883203125C37.96842848266601,57.646883203125,36.704288482666016,56.382783203125,36.704288482666016,54.823373203125Z" fill="#2A3331" fill-opacity="1"/></g><g transform="matrix(-1,0,0,-1,73.40857696533203,92.70556640625)"><path d="M36.704288482666016,54.823373203125L36.704288482666016,49.176313203125C36.704288482666016,47.616923203125,37.96842848266601,46.352783203125,39.527818482666014,46.352783203125C41.087208482666014,46.352783203125,42.35134848266601,47.616923203125,42.35134848266601,49.176313203125L42.35134848266601,54.823373203125C42.35134848266601,56.382783203125,41.087208482666014,57.646883203125,39.527818482666014,57.646883203125C37.96842848266601,57.646883203125,36.704288482666016,56.382783203125,36.704288482666016,54.823373203125ZM39.05722848266601,54.823373203125Q39.05722848266601,55.018293203125,39.19505848266601,55.156123203125Q39.332888482666014,55.293963203125,39.527818482666014,55.293963203125Q39.998408482666015,55.293963203125,39.998408482666015,54.823373203125L39.998408482666015,49.176313203125Q39.998408482666015,48.705723203125,39.527818482666014,48.705723203125Q39.05722848266601,48.705723203125,39.05722848266601,49.176313203125L39.05722848266601,54.823373203125Z" fill-rule="evenodd" fill="#2A3331" fill-opacity="1"/></g><g transform="matrix(-1,0,0,-1,99.76013565063477,92.70556640625)"><path d="M49.88006782531738,54.823373203125L49.88006782531738,49.176313203125C49.88006782531738,47.616923203125,51.14420782531738,46.352783203125,52.70359782531738,46.352783203125C54.26298782531738,46.352783203125,55.52712782531738,47.616923203125,55.52712782531738,49.176313203125L55.52712782531738,54.823373203125C55.52712782531738,56.382783203125,54.26298782531738,57.646883203125,52.70359782531738,57.646883203125C51.14420782531738,57.646883203125,49.88006782531738,56.382783203125,49.88006782531738,54.823373203125Z" fill="#2A3331" fill-opacity="1"/></g><g transform="matrix(-1,0,0,-1,99.76013565063477,92.70556640625)"><path d="M49.88006782531738,54.823373203125L49.88006782531738,49.176313203125C49.88006782531738,47.616923203125,51.14420782531738,46.352783203125,52.70359782531738,46.352783203125C54.26298782531738,46.352783203125,55.52712782531738,47.616923203125,55.52712782531738,49.176313203125L55.52712782531738,54.823373203125C55.52712782531738,56.382783203125,54.26298782531738,57.646883203125,52.70359782531738,57.646883203125C51.14420782531738,57.646883203125,49.88006782531738,56.382783203125,49.88006782531738,54.823373203125ZM52.23300782531738,54.823373203125Q52.23300782531738,55.018293203125,52.37083782531738,55.156123203125Q52.50866782531738,55.293963203125,52.70359782531738,55.293963203125Q53.17418782531738,55.293963203125,53.17418782531738,54.823373203125L53.17418782531738,49.176313203125Q53.17418782531738,48.705723203125,52.70359782531738,48.705723203125Q52.23300782531738,48.705723203125,52.23300782531738,49.176313203125L52.23300782531738,54.823373203125Z" fill-rule="evenodd" fill="#2A3331" fill-opacity="1"/></g><g><path d="M46.11639595031738,63.411891015625L46.11639595031738,61.294251015625C46.11639595031738,60.319627015625,46.906481950317385,59.529541015625,47.881105950317384,59.529541015625C48.855725950317385,59.529541015625,49.64580595031738,60.319627015625,49.64580595031738,61.294251015625L49.64580595031738,63.411891015625C49.64580595031738,64.386511015625,48.855725950317385,65.176601015625,47.881105950317384,65.176601015625C46.906481950317385,65.176601015625,46.11639595031738,64.386511015625,46.11639595031738,63.411891015625Z" fill="#2A3331" fill-opacity="1"/></g><g><path d="M46.11639595031738,61.294251015625L46.11639595031738,63.411891015625C46.11639595031738,64.386511015625,46.906481950317385,65.176601015625,47.881105950317384,65.176601015625C48.855725950317385,65.176601015625,49.64580595031738,64.386511015625,49.64580595031738,63.411891015625L49.64580595031738,61.294251015625C49.64580595031738,60.319627015625,48.855725950317385,59.529541015625,47.881105950317384,59.529541015625C46.906481950317385,59.529541015625,46.11639595031738,60.319627015625,46.11639595031738,61.294251015625Z" fill-rule="evenodd" fill="#2A3331" fill-opacity="1"/></g><g><path d="M37.647647857666016,24.70588L37.647647857666016,22.35294C37.647647857666016,21.05345,38.701097857666014,20,40.00058785766601,20C41.300087857666014,20,42.353527857666016,21.05345,42.353527857666016,22.35294L42.353527857666016,24.70588C42.353527857666016,26.00538,41.300087857666014,27.05882,40.00058785766601,27.05882C38.701097857666014,27.05882,37.647647857666016,26.00538,37.647647857666016,24.70588Z" fill="#2A3331" fill-opacity="1"/></g><g><path d="M37.647647857666016,22.35294L37.647647857666016,24.70588C37.647647857666016,26.00538,38.701097857666014,27.05882,40.00058785766601,27.05882C41.300087857666014,27.05882,42.353527857666016,26.00538,42.353527857666016,24.70588L42.353527857666016,22.35294C42.353527857666016,21.05345,41.300087857666014,20,40.00058785766601,20C38.701097857666014,20,37.647647857666016,21.05345,37.647647857666016,22.35294Z" fill-rule="evenodd" fill="#2A3331" fill-opacity="1"/></g><g><path d="M39.99874785766602,23.529348437499998C43.247487857666016,23.529348437499998,45.88109785766601,20.8957384375,45.88109785766601,17.6469984375C45.88109785766601,14.3982684375,43.247487857666016,11.7646484375,39.99874785766602,11.7646484375C36.750017857666016,11.7646484375,34.116397857666016,14.3982684375,34.116397857666016,17.6469984375C34.116397857666016,20.8957384375,36.750017857666016,23.529348437499998,39.99874785766602,23.529348437499998ZM39.99874785766602,15.4352384375C41.22027785766602,15.4352384375,42.21051785766602,16.4254784375,42.21051785766602,17.6469984375C42.21051785766602,18.8685284375,41.22027785766602,19.8587684375,39.99874785766602,19.8587684375C38.77722785766601,19.8587684375,37.78698785766601,18.8685284375,37.78698785766601,17.6469984375C37.78698785766601,16.4254784375,38.77722785766601,15.4352384375,39.99874785766602,15.4352384375Z" fill-rule="evenodd" fill="#2A3331" fill-opacity="1"/></g></g></g></svg>