<svg xmlns="http://www.w3.org/2000/svg" xmlns:xlink="http://www.w3.org/1999/xlink" fill="none" version="1.1" width="82" height="21" viewBox="0 0 82 21"><g style="mix-blend-mode:passthrough"><g><path d="M34.5729614453125,19.813486888122558C31.2740714453125,19.81368688812256,28.5997314453125,16.98186688812256,28.5997314453125,13.48865688812256C28.5996286413125,9.99555688812256,31.2737114453125,7.163786888122559,34.5724014453125,7.163786888122559C37.8709814453125,7.163676207122559,40.5450314453125,9.995446888122558,40.5450314453125,13.48865688812256C40.5413314453125,16.97992688812256,37.8698114453125,19.809286888122557,34.5729614453125,19.813486888122558ZM34.5729614453125,9.32677688812256C32.4024114453125,9.32677688812256,30.6428314453125,11.190116888122558,30.6428314453125,13.48865688812256C30.6428314453125,15.787196888122558,32.4024114453125,17.65058688812256,34.5729614453125,17.65058688812256C36.7435014453125,17.65058688812256,38.5030814453125,15.787196888122558,38.5030814453125,13.48865688812256C38.5006114453125,11.191196888122558,36.7424814453125,9.32939688812256,34.5729614453125,9.32677688812256Z" fill="#303433" fill-opacity="1"/></g><g><path d="M27.49920034484863,13.488678764038086C27.498900344848632,9.328418764038085,23.772230344848634,6.300689764038086,19.977560344848634,7.377675764038086C16.182890344848634,8.454658764038086,14.385580344848632,13.050168764038087,16.349967344848633,16.653008764038084C18.314350344848634,20.255798764038087,22.971250344848634,20.904998764038083,25.74920034484863,17.963298764038086C26.15350034484863,17.533598764038086,26.152900344848632,16.838338764038085,25.747600344848635,16.409578764038088C25.342450344848633,15.980808764038086,24.685880344848634,15.980608764038086,24.28045034484863,16.409128764038087C22.554740344848632,18.235498764038084,19.68681034484863,17.953598764038084,18.308020344848632,15.822068764038086C16.929240344848633,13.690508764038086,17.717130344848634,10.756748764038086,19.94880034484863,9.712538764038086C22.180470344848633,8.668328764038087,24.75927034484863,10.026808764038087,25.31913034484863,12.541548764038087L22.899850344848634,12.541548764038087C22.345350344848633,12.527518764038085,21.888680344848634,12.999698764038087,21.888680344848634,13.587068764038086C21.888680344848634,14.174438764038086,22.345350344848633,14.646618764038086,22.899850344848634,14.632598764038086L26.448200344848633,14.632598764038086C26.746700344848634,14.632218764038086,27.028900344848633,14.488568764038085,27.215700344848635,14.241978764038086C27.397700344848634,14.038718764038085,27.49920034484863,13.769088764038086,27.49920034484863,13.488678764038086Z" fill="#303433" fill-opacity="1"/></g><g transform="matrix(0.6865734457969666,0.7270603775978088,-0.6865734457969666,0.7270603775978088,4.90659985966515,-9.648368020220417)"><rect x="13.619211196899414" y="0.9292194843292236" width="4.047662258148193" height="4.047662258148193" rx="2.0238311290740967" fill="#303433" fill-opacity="1"/></g><g><rect x="0.4723312556743622" y="1.7914950847625732" width="2.5411057472229004" height="17.803936004638672" rx="1.2705528736114502" fill="#303433" fill-opacity="1"/></g><g transform="matrix(0.7521830201148987,-0.6589543223381042,0.6156218647956848,0.7880416512489319,-1.8572496809221661,0.6394502828734971)"><rect x="0" y="3.0168676376342773" width="2.6030311584472656" height="21.551057815551758" rx="1.3015155792236328" fill="#303433" fill-opacity="1"/></g><g><path d="M67.72467274414062,19.706551195526124C67.15143274414062,19.706551195526124,66.68681274414062,19.214251195526124,66.68712274414062,18.607251195526125L66.68712274414062,12.780611195526124C66.66422274414063,10.969731195526123,65.27145274414062,9.514451195526123,63.56126274414063,9.514451195526123C61.85107274414062,9.514451195526123,60.458302744140624,10.969731195526123,60.43541274414063,12.780611195526124L60.43541274414063,18.607251195526125C60.43541274414063,19.214751195526123,59.97038274414062,19.707151195526123,59.396742744140624,19.707151195526123C58.823092744140624,19.707151195526123,58.358062744140625,19.214751195526123,58.358062744140625,18.607251195526125L58.358062744140625,12.780611195526124C58.358062744140625,9.738651195526124,60.68673274414063,7.272651195526123,63.55930274414062,7.272651195526123C66.43187274414062,7.272651195526123,68.76056274414063,9.738651195526124,68.76056274414063,12.780611195526124L68.76056274414063,18.607251195526125C68.76086274414062,19.213551195526122,68.29726274414062,19.705551195526123,67.72467274414062,19.706551195526124Z" fill="#303433" fill-opacity="1"/></g><g><path d="M81.99997663574219,13.488668764038085C81.99967663574219,9.328418764038085,78.27300663574219,6.300687764038086,74.47833663574218,7.3776717640380856C70.68366363574219,8.454658764038086,68.88635663574219,13.050168764038087,70.85074663574218,16.652998764038088C72.81512663574219,20.255798764038087,77.47202663574218,20.904998764038083,80.24997663574219,17.963298764038086C80.65527663574218,17.534098764038085,80.65527663574218,16.838298764038086,80.24997663574219,16.409118764038084C79.84469663574218,15.979948764038086,79.18761663574219,15.979948764038086,78.78234663574219,16.409128764038087C77.0566366357422,18.235498764038084,74.1887066357422,17.953598764038084,72.80991663574218,15.822068764038086C71.43113663574219,13.690508764038086,72.21902663574218,10.756748764038086,74.45069663574219,9.712538764038086C76.68236663574218,8.668328764038087,79.26116663574219,10.026808764038087,79.82102663574219,12.541548764038087L77.40062663574219,12.541548764038087C76.86453663574218,12.555108764038085,76.43662663574219,13.019208764038087,76.43662663574219,13.587068764038086C76.43662663574219,14.154928764038086,76.86453663574218,14.619038764038086,77.40062663574219,14.632598764038086L80.94897663574218,14.632598764038086C81.24747663574219,14.632218764038086,81.52967663574219,14.488568764038085,81.71647663574218,14.241968764038086C81.89847663574218,14.038708764038086,81.99997663574219,13.769088764038086,81.99997663574219,13.488668764038085Z" fill="#303433" fill-opacity="1"/></g><g><path d="M52.11314534301758,19.7142L47.27741534301758,19.7142C44.69512534301758,19.711,42.60254316301758,17.495,42.59944534301758,14.7604L42.59944534301758,1.09993C42.59944534301758,0.492454,43.06447534301758,0,43.63812534301758,0C44.211765343017575,0,44.67679534301758,0.492454,44.67679534301758,1.09993L44.67679534301758,14.7604C44.67833534301758,16.2817,45.84252534301758,17.5145,47.27909534301758,17.5162L52.114835343017575,17.5162C53.551445343017576,17.5145,54.71554534301758,16.2817,54.71714534301758,14.7604L54.71714534301758,8.40284C54.71714534301758,7.79537,55.18214534301758,7.30292,55.755845343017576,7.30292C56.32944534301758,7.30292,56.79444534301758,7.79537,56.79444534301758,8.40284L56.79444534301758,14.7604C56.79174534301758,17.4965,54.69684534301758,19.7133,52.11314534301758,19.7142Z" fill="#303433" fill-opacity="1"/></g><g transform="matrix(0.6865735054016113,0.7270603775978088,-0.6865735054016113,0.7270603775978088,18.66721819263273,-40.083401431394165)"><rect x="55.778560638427734" y="1.7255828380584717" width="3.206326723098755" height="3.206326723098755" rx="1.6031633615493774" fill="#303433" fill-opacity="1"/></g></g></svg>