<svg t="1720409015448" class="icon" viewBox="0 0 1024 1024" version="1.1" xmlns="http://www.w3.org/2000/svg" p-id="25455" width="48" height="48"><path d="M515.2 508.8m-448 0a448 448 0 1 0 896 0 448 448 0 1 0-896 0Z" fill="#73777A" p-id="25456"></path><path d="M510.4 684.8c-17.6 0-28.8 6.4-40 17.6-11.2 11.2-17.6 22.4-17.6 40s6.4 28.8 17.6 40c11.2 11.2 22.4 17.6 40 17.6s28.8-6.4 40-17.6c11.2-11.2 17.6-22.4 17.6-40s-6.4-28.8-17.6-40c-11.2-11.2-24-17.6-40-17.6z m16-465.6c-57.6 0-102.4 17.6-136 51.2-40 33.6-57.6 80-57.6 136h84.8c0-33.6 6.4-62.4 22.4-80 17.6-22.4 40-33.6 80-33.6 28.8 0 51.2 6.4 68.8 22.4 17.6 17.6 22.4 40 22.4 62.4s-6.4 40-22.4 57.6l-17.6 17.6c-44.8 44.8-80 80-91.2 102.4-11.2 17.6-11.2 44.8-11.2 73.6v11.2h84.8v-11.2c0-17.6 6.4-33.6 11.2-51.2 6.4-17.6 17.6-28.8 33.6-40 40-33.6 62.4-51.2 68.8-62.4 22.4-22.4 28.8-57.6 28.8-96 0-44.8-17.6-84.8-44.8-113.6-33.6-35.2-73.6-46.4-124.8-46.4z" fill="#FFFFFF" p-id="25457"></path></svg>
