<svg xmlns="http://www.w3.org/2000/svg" xmlns:xlink="http://www.w3.org/1999/xlink" fill="none" version="1.1" width="15.38104248046875" height="14.0999755859375" viewBox="0 0 15.38104248046875 14.0999755859375"><g style="mix-blend-mode:passthrough"><g><path d="M7.1811282836914065,4.872211142196655L3.6883132836914063,4.872211142196655C3.3663202836914063,4.872211142196655,3.1061782836914062,4.628911142196655,3.1061782836914062,4.327766142196655C3.1061782836914062,4.026620142196656,3.3663202836914063,3.7833211421966553,3.6883132836914063,3.7833211421966553L7.1811282836914065,3.7833211421966553C7.503118283691406,3.7833211421966553,7.763258283691406,4.026620142196656,7.763258283691406,4.327766142196655C7.763258283691406,4.628911142196655,7.503118283691406,4.872211142196655,7.1811282836914065,4.872211142196655ZM10.673938283691406,7.5944311421966555L3.6883132836914063,7.5944311421966555C3.3663202836914063,7.5944311421966555,3.1061782836914062,7.351131142196655,3.1061782836914062,7.049991142196655C3.1061782836914062,6.748841142196655,3.3663202836914063,6.505541142196655,3.6883132836914063,6.505541142196655L10.673938283691406,6.505541142196655C10.995928283691406,6.505541142196655,11.256068283691405,6.748841142196655,11.256068283691405,7.049991142196655C11.256068283691405,7.351131142196655,10.995928283691406,7.5944311421966555,10.673938283691406,7.5944311421966555ZM10.673938283691406,10.316651142196655L3.6883132836914063,10.316651142196655C3.3663202836914063,10.316651142196655,3.1061782836914062,10.073351142196655,3.1061782836914062,9.772211142196655C3.1061782836914062,9.471061142196655,3.3663202836914063,9.227761142196655,3.6883132836914063,9.227761142196655L10.673938283691406,9.227761142196655C10.995928283691406,9.227761142196655,11.256068283691405,9.471061142196655,11.256068283691405,9.772211142196655C11.256068283691405,10.073351142196655,10.995928283691406,10.316651142196655,10.673938283691406,10.316651142196655Z" fill="#303433" fill-opacity="1"/><path d="M11.306068283691406,9.772211142196655Q11.306068283691406,10.366651142196655,10.673938283691406,10.366651142196655L3.6883132836914063,10.366651142196655Q3.0561780836914063,10.366651142196655,3.0561782836914064,9.772211142196655Q3.0561782836914064,9.177771142196654,3.6883132836914063,9.177761142196655L10.673938283691406,9.177761142196655Q10.935168283691407,9.177761142196655,11.119898283691406,9.350541142196654Q11.306068283691406,9.524651142196655,11.306068283691406,9.772211142196655ZM11.206068283691407,9.772211142196655Q11.206068283691407,9.568051142196655,11.051598283691407,9.423571142196655Q10.895688283691406,9.277771142196656,10.673938283691406,9.277761142196656L3.6883132836914063,9.277761142196656Q3.156178283691406,9.277771142196656,3.156178283691406,9.772211142196655Q3.156178483691406,10.266651142196654,3.6883132836914063,10.266651142196654L10.673938283691406,10.266651142196654Q11.206058283691407,10.266651142196654,11.206068283691407,9.772211142196655ZM11.306068283691406,7.049991142196655Q11.306068283691406,7.297541142196655,11.119898283691406,7.4716611421966554Q10.935168283691407,7.644431142196655,10.673938283691406,7.644431142196655L3.6883132836914063,7.644431142196655Q3.4270802836914065,7.644431142196655,3.242345283691406,7.4716611421966554Q3.0561782836914064,7.297541142196655,3.0561782836914064,7.049991142196655Q3.0561782836914064,6.802431142196655,3.242345283691406,6.628321142196656Q3.4270802836914065,6.455541142196655,3.6883132836914063,6.455541142196655L10.673938283691406,6.455541142196655Q10.935168283691407,6.455541142196655,11.119898283691406,6.628321142196656Q11.306068283691406,6.802431142196655,11.306068283691406,7.049991142196655ZM11.206068283691407,7.049991142196655Q11.206068283691407,6.845821142196655,11.051598283691407,6.701351142196655Q10.895688283691406,6.555541142196655,10.673938283691406,6.555541142196655L3.6883132836914063,6.555541142196655Q3.156178283691406,6.555541142196655,3.156178283691406,7.049991142196655Q3.156178283691406,7.254151142196655,3.3106512836914064,7.398621142196655Q3.4665552836914064,7.544431142196656,3.6883132836914063,7.544431142196656L10.673938283691406,7.544431142196656Q10.895698283691406,7.544431142196656,11.051598283691407,7.398621142196655Q11.206068283691407,7.254151142196655,11.206068283691407,7.049991142196655ZM7.813258283691407,4.327766142196655Q7.813258283691407,4.922211142196655,7.1811282836914065,4.922211142196655L3.6883132836914063,4.922211142196655Q3.4270802836914065,4.922211142196655,3.242345283691406,4.749435142196655Q3.0561782836914064,4.575322142196655,3.0561782836914064,4.327766142196655Q3.0561782836914064,3.7333214421966554,3.6883132836914063,3.7333211421966555L7.1811282836914065,3.7333211421966555Q7.442358283691406,3.7333211421966555,7.627088283691406,3.906096142196655Q7.813258283691407,4.0802101421966555,7.813258283691407,4.327766142196655ZM7.713258283691406,4.327766142196655Q7.713258283691406,3.833321142196655,7.1811282836914065,3.833321142196655L3.6883132836914063,3.833321142196655Q3.156178283691406,3.833321342196655,3.156178283691406,4.327766142196655Q3.156178283691406,4.531928142196655,3.3106512836914064,4.6764001421966555Q3.466556283691406,4.822211142196656,3.6883132836914063,4.822211142196656L7.1811282836914065,4.822211142196656Q7.713258283691406,4.822211142196656,7.713258283691406,4.327766142196655Z" fill="#303433" fill-opacity="1"/></g><g transform="matrix(-1,0,0,1,30.662063598632812,0)"><path d="M27.484631799316407,14.04998779296875L18.456811799316405,14.04998779296875C16.732771799316406,14.04998779296875,15.331031799316406,12.76558779296875,15.331031799316406,11.18588779296875L15.331031799316406,2.91404779296875C15.331031799316406,1.33436779296875,16.732771799316406,0.04998779296875,18.456811799316405,0.04998779296875L27.486331799316407,0.04998779296875C29.208631799316407,0.04998779296875,30.612031799316405,1.33436779296875,30.612031799316405,2.91404779296875L30.612031799316405,11.18588779296875C30.610331799316405,12.76558779296875,29.208631799316407,14.04998779296875,27.484631799316407,14.04998779296875ZM18.456811799316405,1.04998779296875C17.334741799316404,1.04998779296875,16.422411799316407,1.88592779296875,16.422411799316407,2.91404779296875L16.422411799316407,11.18588779296875C16.422411799316407,12.21408779296875,17.334741799316404,13.04998779296875,18.456811799316405,13.04998779296875L27.486331799316407,13.04998779296875C28.608331799316407,13.04998779296875,29.52073179931641,12.21408779296875,29.52073179931641,11.18588779296875L29.52073179931641,2.91404779296875C29.52073179931641,1.88592779296875,28.608331799316407,1.04998779296875,27.486331799316407,1.04998779296875L18.456811799316405,1.04998779296875Z" fill="#303433" fill-opacity="1"/><path d="M27.486331799316407,1.09998779296875L18.456811799316405,1.09998779296875Q17.634701799316407,1.09998779296875,17.052611799316406,1.63333779296875Q16.472411799316408,2.16495779296875,16.472411799316408,2.91404779296875L16.472411799316408,11.18588779296875Q16.472411799316408,11.93498779296875,17.052611799316406,12.46668779296875Q17.634701799316407,12.99998779296875,18.456811799316405,12.99998779296875L27.486331799316407,12.99998779296875Q28.308431799316406,12.99998779296875,28.890531799316406,12.46668779296875Q29.470731799316404,11.93498779296875,29.470731799316404,11.18588779296875L29.470731799316404,2.91404779296875Q29.470731799316404,2.16495779296875,28.890531799316406,1.63333779296875Q28.308431799316406,1.09998779296875,27.486331799316407,1.09998779296875ZM27.486331799316407,0.99998779296875Q28.347331799316407,0.99998879296875,28.95803179931641,1.55960779296875Q29.570731799316405,2.12094779296875,29.570731799316405,2.91404779296875L29.570731799316405,11.18588779296875Q29.570731799316405,13.09998779296875,27.486331799316407,13.09998779296875L18.456811799316405,13.09998779296875Q16.372411799316406,13.09998779296875,16.372411799316406,11.18588779296875L16.372411799316406,2.91404779296875Q16.372421799316406,0.99998879296875,18.456811799316405,0.99998779296875L27.486331799316407,0.99998779296875ZM30.662031799316406,11.18598779296875Q30.66073179931641,12.39278779296875,29.72793179931641,13.24718779296875Q28.796931799316404,14.09998779296875,27.484631799316407,14.09998779296875L18.456811799316405,14.09998779296875Q17.144351799316407,14.09998779296875,16.213629799316408,13.24718779296875Q15.281032599316406,12.39268779296875,15.281031799316406,11.18588779296875L15.281031799316406,2.91404779296875Q15.281031699316406,1.70728779296875,16.213629799316408,0.85277079296875Q17.144341799316408,-0.000011407031250000588,18.456811799316405,-0.000012207031250002776L27.486331799316407,-0.000012207031250002776Q28.797731799316406,-0.000012307031249998712,29.728831799316406,0.85276479296875Q30.662031799316406,1.70755779296875,30.662031799316406,2.91404779296875L30.662031799316406,11.18588779296875L30.662031799316406,11.18598779296875ZM30.562031799316408,11.18588779296875L30.562031799316408,2.91404779296875Q30.562031799316408,1.75156779296875,29.661331799316407,0.92650779296875Q28.758931799316407,0.09998789296874999,27.486331799316407,0.09998779296875L18.456811799316405,0.09998779296875Q17.183231799316406,0.09998699296875,16.281186799316405,0.92650079296875Q15.381031899316406,1.75128779296875,15.381031799316407,2.91404779296875L15.381031799316407,11.18588779296875Q15.381032899316406,12.34868779296875,16.281186799316405,13.17348779296875Q17.183231799316406,13.99998779296875,18.456811799316405,13.99998779296875L27.484631799316407,13.99998779296875Q28.758031799316406,13.99998779296875,29.660431799316406,13.17348779296875Q30.560831799316404,12.34878779296875,30.562031799316408,11.18588779296875L30.562031799316408,11.18588779296875Z" fill="#303433" fill-opacity="1"/></g></g></svg>