<svg xmlns="http://www.w3.org/2000/svg" xmlns:xlink="http://www.w3.org/1999/xlink" fill="none" version="1.1" width="69" height="70" viewBox="0 0 69 70"><g style="mix-blend-mode:passthrough"><g><path d="M43.4761,69.99997351989745C43.4761,69.99997351989745,6.16093,69.99997351989745,6.16093,69.99997351989745C2.76379,69.99997351989745,0,67.24887351989746,0,63.86707351989746C0,63.86707351989746,0,14.894333519897462,0,14.894333519897462C0,11.51261351989746,2.76379,8.761373519897488,6.16093,8.761373519897488C6.16093,8.761373519897488,43.4761,8.761373519897488,43.4761,8.761373519897488C46.8733,8.761373519897488,49.6371,11.51261351989746,49.6371,14.894333519897462C49.6371,14.894333519897462,49.6371,17.65338351989746,49.6371,17.65338351989746C49.6371,18.62116351989746,48.849,19.405673519897462,47.8768,19.405673519897462C46.9046,19.405673519897462,46.1165,18.62116351989746,46.1165,17.65338351989746C46.1165,17.65338351989746,46.1165,14.894333519897462,46.1165,14.894333519897462C46.1165,13.44503351989746,44.932,12.265913519897461,43.4761,12.265913519897461C43.4761,12.265913519897461,6.16093,12.265913519897461,6.16093,12.265913519897461C4.70502,12.265913519897461,3.52053,13.44503351989746,3.52053,14.894333519897462C3.52053,14.894333519897462,3.52053,63.86707351989746,3.52053,63.86707351989746C3.52053,65.31627351989746,4.70502,66.49547351989746,6.16093,66.49547351989746C6.16093,66.49547351989746,43.4761,66.49547351989746,43.4761,66.49547351989746C44.932,66.49547351989746,46.1165,65.31627351989746,46.1165,63.86707351989746C46.1165,63.86707351989746,46.1165,47.74817351989746,46.1165,47.74817351989746C46.1165,46.78037351989746,46.9046,45.99587351989746,47.8768,45.99587351989746C48.849,45.99587351989746,49.6371,46.78037351989746,49.6371,47.74817351989746C49.6371,47.74817351989746,49.6371,63.86717351989746,49.6371,63.86717351989746C49.6371,67.24887351989746,46.8732,69.99997351989745,43.4761,69.99997351989745C43.4761,69.99997351989745,43.4761,69.99997351989745,43.4761,69.99997351989745Z" fill="#303433" fill-opacity="1"/></g><g><path d="M62.839147463989256,61.2386C62.839147463989256,61.2386,47.87684746398926,61.2386,47.87684746398926,61.2386C47.87684746398926,61.2386,47.87684746398926,57.7341,47.87684746398926,57.7341C47.87684746398926,57.7341,62.839147463989256,57.7341,62.839147463989256,57.7341C64.29504746398925,57.7341,65.47944746398926,56.555,65.47944746398926,55.1057C65.47944746398926,55.1057,65.47944746398926,6.13295,65.47944746398926,6.13295C65.47944746398926,4.68365,64.29504746398925,3.50454,62.839147463989256,3.50454C62.839147463989256,3.50454,25.52386746398926,3.50454,25.52386746398926,3.50454C24.06795746398926,3.50454,22.88348746398926,4.68365,22.88348746398926,6.13295C22.88348746398926,6.13295,22.88348746398926,9.8999,22.88348746398926,9.8999C22.88348746398926,9.8999,19.362947463989258,9.8999,19.362947463989258,9.8999C19.362947463989258,9.8999,19.362947463989258,6.13295,19.362947463989258,6.13295C19.362947463989258,2.75125,22.126747463989258,1.3525e-14,25.52386746398926,1.3525e-14C25.52386746398926,1.3525e-14,62.839147463989256,1.3525e-14,62.839147463989256,1.3525e-14C66.23624746398926,1.3525e-14,69.00004746398926,2.75125,69.00004746398926,6.13295C69.00004746398926,6.13295,69.00004746398926,55.1057,69.00004746398926,55.1057C69.00004746398926,58.4875,66.23614746398925,61.2386,62.839147463989256,61.2386C62.839147463989256,61.2386,62.839147463989256,61.2386,62.839147463989256,61.2386Z" fill="#303433" fill-opacity="1"/></g><g style="opacity:0.30000001192092896;"><path d="M37.98307097473145,55.74552291259766C37.444870974731444,55.75262291259766,36.92337097473144,55.560322912597655,36.51977097473144,55.20592291259766C36.51977097473144,55.20592291259766,20.802502974731446,41.232622912597655,20.802502974731446,41.232622912597655C19.917706974731445,40.42962291259765,19.854421974731444,39.06492291259765,20.661051974731446,38.18392291259765C20.722236974731445,38.117022912597655,20.787622974731445,38.05422291259765,20.856801974731447,37.99562291259765C20.856801974731447,37.99562291259765,36.57387097473145,24.615772912597656,36.57387097473145,24.615772912597656C37.48397097473145,23.841092912597656,38.852470974731446,23.947172912597658,39.630470974731445,24.852842912597655C39.96167097473145,25.238142912597656,40.14597097473144,25.727252912597656,40.15087097473145,26.234372912597657C40.15087097473145,26.234372912597657,40.15087097473145,33.14002291259766,40.15087097473145,33.14002291259766C45.23457097473144,32.59492291259765,49.911970974731446,30.121922912597654,53.212270974731446,26.234372912597657C53.212270974731446,26.234372912597657,58.30677097473144,20.245722912597657,58.30677097473144,20.245722912597657C59.05267097473145,19.313390912597658,60.41637097473144,19.159395912597656,61.35337097473145,19.901892912597656C62.02377097473145,20.433522912597656,62.316670974731444,21.308402912597657,62.10067097473144,22.134142912597657C62.10067097473144,22.134142912597657,60.691470974731445,28.014632912597655,60.691470974731445,28.014632912597655C58.44377097473144,37.77112291259766,50.162570974731445,44.99282291259766,40.150770974731444,45.92642291259766C40.150770974731444,45.92642291259766,40.150770974731444,53.58732291259766,40.150770974731444,53.58732291259766C40.15087097473145,54.77912291259766,39.180170974731446,55.74552291259766,37.98307097473145,55.74552291259766C37.98307097473145,55.74552291259766,37.98307097473145,55.74552291259766,37.98307097473145,55.74552291259766Z" fill="#06CCAB" fill-opacity="1"/></g><g><path d="M32.52020350952148,52.58328656311035C31.982103509521483,52.59038656311035,31.460503509521484,52.398086563110354,31.056903509521483,52.04368656311035C31.056903509521483,52.04368656311035,15.339775509521484,38.07048656311035,15.339775509521484,38.07048656311035C14.455038509521485,37.267286563110346,14.391782509521484,35.90268656311035,15.198354509521485,35.02158656311035C15.259480509521484,34.954786563110346,15.324808509521484,34.89188656311035,15.394016509521485,34.83338656311035C15.394016509521485,34.83338656311035,31.111203509521484,21.45344656311035,31.111203509521484,21.45344656311035C32.02110350952148,20.67876656311035,33.38950350952149,20.784866563110352,34.167803509521484,21.690616563110353C34.49890350952148,22.07589656311035,34.68310350952149,22.564976563110353,34.68810350952148,23.072036563110352C34.68810350952148,23.072036563110352,34.68810350952148,29.97778656311035,34.68810350952148,29.97778656311035C39.77170350952149,29.43268656311035,44.44920350952148,26.95958656311035,47.749603509521485,23.072036563110352C47.749603509521485,23.072036563110352,52.84410350952148,17.08344756311035,52.84410350952148,17.08344756311035C53.58980350952148,16.15105656311035,54.95370350952148,15.997033563110351,55.89060350952148,16.73958756311035C56.56110350952149,17.27121656311035,56.85390350952149,18.146076563110352,56.637903509521486,18.97181656311035C56.637903509521486,18.97181656311035,55.22870350952149,24.852326563110353,55.22870350952149,24.852326563110353C52.98110350952148,34.60878656311036,44.70000350952148,41.83038656311035,34.68810350952148,42.76388656311035C34.68810350952148,42.76388656311035,34.68810350952148,50.42488656311035,34.68810350952148,50.42488656311035C34.68810350952148,51.61688656311035,33.71740350952149,52.58328656311035,32.52020350952148,52.58328656311035C32.52020350952148,52.58328656311035,32.52020350952148,52.58328656311035,32.52020350952148,52.58328656311035ZM20.109123509521485,36.50588656311035C20.109123509521485,36.50588656311035,30.352403509521487,45.62348656311035,30.352403509521487,45.62348656311035C30.352403509521487,45.62348656311035,30.352403509521487,40.71388656311035,30.352403509521487,40.71388656311035C30.352403509521487,39.52208656311035,31.323103509521484,38.55588656311035,32.52020350952148,38.55588656311035C40.32460350952148,38.55588656311035,47.099303509521484,33.96988656311035,50.025903509521484,27.01038656311035C45.44640350952149,31.746086563110353,39.123503509521484,34.415686563110356,32.52020350952148,34.40158656311036C31.323003509521484,34.40158656311036,30.352403509521487,33.435386563110356,30.352403509521487,32.24348656311035C30.352403509521487,32.24348656311035,30.352403509521487,27.76568656311035,30.352403509521487,27.76568656311035C30.352403509521487,27.76568656311035,20.109123509521485,36.50588656311035,20.109123509521485,36.50588656311035C20.109123509521485,36.50588656311035,20.109123509521485,36.50588656311035,20.109123509521485,36.50588656311035Z" fill="#06CCAB" fill-opacity="1"/></g></g></svg>