<svg xmlns="http://www.w3.org/2000/svg" xmlns:xlink="http://www.w3.org/1999/xlink" fill="none" version="1.1" width="15" height="15" viewBox="0 0 15 15"><g style="mix-blend-mode:passthrough"><g><path d="M7.6487,10.9692L6.19698,12.4196C5.17778,13.3924,3.56761,13.374,2.57093,12.3782C1.57425,11.3824,1.55585,9.77372,2.52948,8.75545L3.9812,7.30505C4.22944,7.05742,4.2296,6.65557,3.98155,6.40775C3.7335,6.15992,3.33129,6.16008,3.08343,6.40809L1.63171,7.85849C0.12276300000000001,9.36803,0.12276300000000001,11.8134,1.63171,13.3229C2.3830400000000003,14.0736,3.37632,14.4553,4.36323,14.4553C5.35015,14.4553,6.34343,14.0799,7.09476,13.3229L8.54648,11.8725C8.7948,11.6244,8.7948,11.2237,8.54648,10.9756C8.29816,10.7275,7.89702,10.7211,7.6487,10.9692ZM12.4241,2.534C13.4365,3.54599,13.4365,5.18618,12.4241,6.19817L10.9724,7.64857C10.7907,7.83026,10.7367,8.103580000000001,10.8358,8.3406C10.9349,8.57761,11.1674,8.73141,11.4244,8.73C11.59,8.73,11.7492,8.66639,11.8765,8.54552L13.3282,7.09512C14.8372,5.58559,14.8372,3.14022,13.3282,1.63068C11.8173,0.123106,9.36973,0.123106,7.85882,1.63068L6.4071,3.08108C6.15898,3.32873,6.15888,3.73048,6.40688,3.97826C6.65488,4.22603,7.057,4.22593,7.30487,3.97804L8.75659,2.52764C9.77384,1.52421,11.4103,1.52705,12.4241,2.534ZM10.9023,11.44C10.7832,11.1093,10.41791,10.9382,10.08733,11.0583C9.75624,11.1791,9.58433,11.5417,9.7053,11.8725L10.5076,14.0799C10.6267,14.4106,10.992,14.5817,11.3226,14.4616C11.6537,14.3408,11.8256,13.9782,11.7046,13.6474L10.9023,11.44ZM14.0796,10.21857L11.8701,9.41703C11.5396,9.29697,11.1743,9.46806,11.0551,9.79872C10.9342,10.12951,11.1061,10.49211,11.4372,10.613L13.6466,11.4145C13.9772,11.5346,14.3425,11.3635,14.4616,11.0328C14.5818,10.7026,14.4105,10.33757,14.0796,10.21857ZM4.15948,3.63452C4.2785899999999994,3.96518,4.6439,4.13627,4.97448,4.01621C5.30558,3.89534,5.47749,3.53274,5.35652,3.20195L4.55425,0.994543C4.4351400000000005,0.6638809999999999,4.06983,0.49279676,3.73925,0.612859C3.40816,0.733725,3.23624,1.096325,3.35722,1.427118L4.15948,3.63452ZM0.9822580000000001,4.85591L3.19167,5.65745C3.52225,5.77751,3.88756,5.60643,4.00667,5.27576C4.12684,4.94549,3.9556,4.58051,3.62464,4.4615L1.415227,3.65997C1.084648,3.53991,0.719337,3.71099,0.600227,4.041650000000001C0.4792505,4.372450000000001,0.651165,4.73504,0.9822580000000001,4.85591Z" fill="#303433" fill-opacity="1"/></g><g style="mix-blend-mode:passthrough"></g></g></svg>