<svg xmlns="http://www.w3.org/2000/svg" xmlns:xlink="http://www.w3.org/1999/xlink" fill="none" version="1.1" width="16" height="16" viewBox="0 0 16 16"><g style="mix-blend-mode:passthrough"><g style="mix-blend-mode:passthrough"><rect x="9.538889288902283" y="0.6499999761581421" width="5.811111211776733" height="5.811111211776733" rx="0.3500000238418579" fill-opacity="0" stroke-opacity="1" stroke="#06CCAB" fill="none" stroke-width="1.2999999523162842"/></g><g style="mix-blend-mode:passthrough"><rect x="0.6499999761581421" y="0.6499999761581421" width="5.811111211776733" height="5.811111211776733" rx="0.3500000238418579" fill-opacity="0" stroke-opacity="1" stroke="#06CCAB" fill="none" stroke-width="1.2999999523162842"/></g><g style="mix-blend-mode:passthrough"><rect x="0.6499999761581421" y="9.538889288902283" width="5.811111211776733" height="5.811111211776733" rx="0.3500000238418579" fill-opacity="0" stroke-opacity="1" stroke="#06CCAB" fill="none" stroke-width="1.2999999523162842"/></g><g style="mix-blend-mode:passthrough"><path d="M9.127777671813964,15.111107671813965L9.127777671813964,9.777777671813965L10.427777671813965,9.777777671813965L10.427777671813965,15.111107671813965L9.127777671813964,15.111107671813965ZM10.427777671813965,15.111107671813965Q10.427777671813965,15.175127671813964,10.415287671813966,15.237917671813964Q10.402798671813965,15.300707671813964,10.378299671813965,15.359857671813966Q10.353799671813965,15.418997671813965,10.318232671813965,15.472227671813965Q10.282665671813964,15.525457671813964,10.237396671813965,15.570727671813966Q10.192128671813965,15.615997671813965,10.138898671813966,15.651567671813964Q10.085667671813965,15.687137671813964,10.026521671813965,15.711627671813964Q9.967375671813965,15.736127671813964,9.904586671813965,15.748617671813964Q9.841797071813964,15.761107671813964,9.777777671813965,15.761107671813964Q9.713758271813965,15.761107671813964,9.650968671813965,15.748617671813964Q9.588179671813965,15.736127671813964,9.529033671813965,15.711637671813964Q9.469887671813964,15.687137671813964,9.416656671813964,15.651567671813964Q9.363426671813965,15.615997671813965,9.318158671813965,15.570727671813966Q9.272889671813966,15.525457671813964,9.237322671813965,15.472227671813965Q9.201755671813965,15.418997671813965,9.177255671813965,15.359857671813966Q9.152756671813965,15.300707671813964,9.140267671813964,15.237917671813964Q9.127777671813964,15.175127671813964,9.127777671813964,15.111107671813965Q9.127777671813964,15.047087671813966,9.140267671813964,14.984297671813966Q9.152756671813965,14.921507671813965,9.177255671813965,14.862367671813965Q9.201755671813965,14.803217671813965,9.237322671813965,14.749987671813965Q9.272889671813966,14.696757671813966,9.318158671813965,14.651487671813964Q9.363426671813965,14.606217671813965,9.416656671813964,14.570657671813965Q9.469887671813964,14.535087671813965,9.529033671813965,14.510587671813965Q9.588179671813965,14.486087671813966,9.650968671813965,14.473597671813966Q9.713758271813965,14.461107671813965,9.777777671813965,14.461107671813965Q9.841797071813964,14.461107671813965,9.904586671813965,14.473597671813966Q9.967375671813965,14.486087671813966,10.026521671813965,14.510587671813965Q10.085667671813965,14.535087671813965,10.138898671813966,14.570657671813965Q10.192128671813965,14.606217671813965,10.237396671813965,14.651487671813964Q10.282665671813964,14.696757671813966,10.318232671813965,14.749987671813965Q10.353799671813965,14.803217671813965,10.378299671813965,14.862367671813965Q10.402798671813965,14.921507671813965,10.415287671813966,14.984297671813966Q10.427777671813965,15.047087671813966,10.427777671813965,15.111107671813965ZM10.427777671813965,9.777777671813965Q10.427777671813965,9.841797071813964,10.415287671813966,9.904586671813965Q10.402798671813965,9.967375671813965,10.378299671813965,10.026521671813965Q10.353799671813965,10.085667671813965,10.318232671813965,10.138898671813966Q10.282665671813964,10.192128671813965,10.237396671813965,10.237396671813965Q10.192128671813965,10.282665671813964,10.138898671813966,10.318232671813965Q10.085667671813965,10.353799671813965,10.026521671813965,10.378299671813965Q9.967375671813965,10.402798671813965,9.904586671813965,10.415287671813966Q9.841797071813964,10.427777671813965,9.777777671813965,10.427777671813965Q9.713758271813965,10.427777671813965,9.650968671813965,10.415287671813966Q9.588179671813965,10.402798671813965,9.529033671813965,10.378299671813965Q9.469887671813964,10.353799671813965,9.416656671813964,10.318232671813965Q9.363426671813965,10.282665671813964,9.318158671813965,10.237396671813965Q9.272889671813966,10.192128671813965,9.237322671813965,10.138898671813966Q9.201755671813965,10.085667671813965,9.177255671813965,10.026521671813965Q9.152756671813965,9.967375671813965,9.140267671813964,9.904586671813965Q9.127777671813964,9.841797071813964,9.127777671813964,9.777777671813965Q9.127777671813964,9.713758271813965,9.140267671813964,9.650968671813965Q9.152756671813965,9.588179671813965,9.177255671813965,9.529033671813965Q9.201755671813965,9.469887671813964,9.237322671813965,9.416656671813964Q9.272889671813966,9.363426671813965,9.318158671813965,9.318158671813965Q9.363426671813965,9.272889671813966,9.416656671813964,9.237322671813965Q9.469887671813964,9.201755671813965,9.529033671813965,9.177255671813965Q9.588179671813965,9.152756671813965,9.650968671813965,9.140267671813964Q9.713758271813965,9.127777671813964,9.777777671813965,9.127777671813964Q9.841797071813964,9.127777671813964,9.904586671813965,9.140267671813964Q9.967375671813965,9.152756671813965,10.026521671813965,9.177255671813965Q10.085667671813965,9.201755671813965,10.138898671813966,9.237322671813965Q10.192128671813965,9.272889671813966,10.237396671813965,9.318158671813965Q10.282665671813964,9.363426671813965,10.318232671813965,9.416656671813964Q10.353799671813965,9.469887671813964,10.378299671813965,9.529033671813965Q10.402798671813965,9.588179671813965,10.415287671813966,9.650968671813965Q10.427777671813965,9.713758271813965,10.427777671813965,9.777777671813965Z" fill="#06CCAB" fill-opacity="1"/></g><g style="mix-blend-mode:passthrough"><path d="M11.79444465637207,15.111107671813965L11.79444465637207,9.777777671813965L13.09444465637207,9.777777671813965L13.09444465637207,15.111107671813965L11.79444465637207,15.111107671813965ZM13.09444465637207,15.111107671813965Q13.09444465637207,15.175127671813964,13.081954656372071,15.237917671813964Q13.06946565637207,15.300707671813964,13.04496665637207,15.359857671813966Q13.02046665637207,15.418997671813965,12.98489965637207,15.472227671813965Q12.94933265637207,15.525457671813964,12.90406365637207,15.570727671813966Q12.85879565637207,15.615997671813965,12.805565656372071,15.651567671813964Q12.75233465637207,15.687137671813964,12.69318865637207,15.711627671813964Q12.63404265637207,15.736127671813964,12.57125365637207,15.748617671813964Q12.50846405637207,15.761107671813964,12.44444465637207,15.761107671813964Q12.380425256372071,15.761107671813964,12.31763565637207,15.748617671813964Q12.25484665637207,15.736127671813964,12.19570065637207,15.711637671813964Q12.13655465637207,15.687137671813964,12.08332365637207,15.651567671813964Q12.03009365637207,15.615997671813965,11.98482565637207,15.570727671813966Q11.939556656372071,15.525457671813964,11.90398965637207,15.472227671813965Q11.86842265637207,15.418997671813965,11.84392265637207,15.359857671813966Q11.81942365637207,15.300707671813964,11.80693465637207,15.237917671813964Q11.79444465637207,15.175127671813964,11.79444465637207,15.111107671813965Q11.79444465637207,15.047087671813966,11.80693465637207,14.984297671813966Q11.81942365637207,14.921507671813965,11.84392265637207,14.862367671813965Q11.86842265637207,14.803217671813965,11.90398965637207,14.749987671813965Q11.939556656372071,14.696757671813966,11.98482565637207,14.651487671813964Q12.03009365637207,14.606217671813965,12.08332365637207,14.570657671813965Q12.13655465637207,14.535087671813965,12.19570065637207,14.510587671813965Q12.25484665637207,14.486087671813966,12.31763565637207,14.473597671813966Q12.380425256372071,14.461107671813965,12.44444465637207,14.461107671813965Q12.50846405637207,14.461107671813965,12.57125365637207,14.473597671813966Q12.63404265637207,14.486087671813966,12.69318865637207,14.510587671813965Q12.75233465637207,14.535087671813965,12.805565656372071,14.570657671813965Q12.85879565637207,14.606217671813965,12.90406365637207,14.651487671813964Q12.94933265637207,14.696757671813966,12.98489965637207,14.749987671813965Q13.02046665637207,14.803217671813965,13.04496665637207,14.862367671813965Q13.06946565637207,14.921507671813965,13.081954656372071,14.984297671813966Q13.09444465637207,15.047087671813966,13.09444465637207,15.111107671813965ZM13.09444465637207,9.777777671813965Q13.09444465637207,9.841797071813964,13.081954656372071,9.904586671813965Q13.06946565637207,9.967375671813965,13.04496665637207,10.026521671813965Q13.02046665637207,10.085667671813965,12.98489965637207,10.138898671813966Q12.94933265637207,10.192128671813965,12.90406365637207,10.237396671813965Q12.85879565637207,10.282665671813964,12.805565656372071,10.318232671813965Q12.75233465637207,10.353799671813965,12.69318865637207,10.378299671813965Q12.63404265637207,10.402798671813965,12.57125365637207,10.415287671813966Q12.50846405637207,10.427777671813965,12.44444465637207,10.427777671813965Q12.380425256372071,10.427777671813965,12.31763565637207,10.415287671813966Q12.25484665637207,10.402798671813965,12.19570065637207,10.378299671813965Q12.13655465637207,10.353799671813965,12.08332365637207,10.318232671813965Q12.03009365637207,10.282665671813964,11.98482565637207,10.237396671813965Q11.939556656372071,10.192128671813965,11.90398965637207,10.138898671813966Q11.86842265637207,10.085667671813965,11.84392265637207,10.026521671813965Q11.81942365637207,9.967375671813965,11.80693465637207,9.904586671813965Q11.79444465637207,9.841797071813964,11.79444465637207,9.777777671813965Q11.79444465637207,9.713758271813965,11.80693465637207,9.650968671813965Q11.81942365637207,9.588179671813965,11.84392265637207,9.529033671813965Q11.86842265637207,9.469887671813964,11.90398965637207,9.416656671813964Q11.939556656372071,9.363426671813965,11.98482565637207,9.318158671813965Q12.03009365637207,9.272889671813966,12.08332365637207,9.237322671813965Q12.13655465637207,9.201755671813965,12.19570065637207,9.177255671813965Q12.25484665637207,9.152756671813965,12.31763565637207,9.140267671813964Q12.380425256372071,9.127777671813964,12.44444465637207,9.127777671813964Q12.50846405637207,9.127777671813964,12.57125365637207,9.140267671813964Q12.63404265637207,9.152756671813965,12.69318865637207,9.177255671813965Q12.75233465637207,9.201755671813965,12.805565656372071,9.237322671813965Q12.85879565637207,9.272889671813966,12.90406365637207,9.318158671813965Q12.94933265637207,9.363426671813965,12.98489965637207,9.416656671813964Q13.02046665637207,9.469887671813964,13.04496665637207,9.529033671813965Q13.06946565637207,9.588179671813965,13.081954656372071,9.650968671813965Q13.09444465637207,9.713758271813965,13.09444465637207,9.777777671813965Z" fill="#06CCAB" fill-opacity="1"/></g><g style="mix-blend-mode:passthrough"><path d="M14.461111640930175,15.111107671813965L14.461111640930175,9.777777671813965L15.761111640930176,9.777777671813965L15.761111640930176,15.111107671813965L14.461111640930175,15.111107671813965ZM15.761111640930176,15.111107671813965Q15.761111640930176,15.175127671813964,15.748621640930176,15.237917671813964Q15.736132640930176,15.300707671813964,15.711633640930176,15.359857671813966Q15.687133640930176,15.418997671813965,15.651566640930175,15.472227671813965Q15.615999640930175,15.525457671813964,15.570730640930176,15.570727671813966Q15.525462640930176,15.615997671813965,15.472232640930176,15.651567671813964Q15.419001640930176,15.687137671813964,15.359855640930176,15.711627671813964Q15.300709640930176,15.736127671813964,15.237920640930176,15.748617671813964Q15.175131040930175,15.761107671813964,15.111111640930176,15.761107671813964Q15.047092240930176,15.761107671813964,14.984302640930176,15.748617671813964Q14.921513640930176,15.736127671813964,14.862367640930175,15.711637671813964Q14.803221640930175,15.687137671813964,14.749990640930175,15.651567671813964Q14.696760640930176,15.615997671813965,14.651492640930176,15.570727671813966Q14.606223640930176,15.525457671813964,14.570656640930176,15.472227671813965Q14.535089640930176,15.418997671813965,14.510589640930176,15.359857671813966Q14.486090640930176,15.300707671813964,14.473601640930175,15.237917671813964Q14.461111640930175,15.175127671813964,14.461111640930175,15.111107671813965Q14.461111640930175,15.047087671813966,14.473601640930175,14.984297671813966Q14.486090640930176,14.921507671813965,14.510589640930176,14.862367671813965Q14.535089640930176,14.803217671813965,14.570656640930176,14.749987671813965Q14.606223640930176,14.696757671813966,14.651492640930176,14.651487671813964Q14.696760640930176,14.606217671813965,14.749990640930175,14.570657671813965Q14.803221640930175,14.535087671813965,14.862367640930175,14.510587671813965Q14.921513640930176,14.486087671813966,14.984302640930176,14.473597671813966Q15.047092240930176,14.461107671813965,15.111111640930176,14.461107671813965Q15.175131040930175,14.461107671813965,15.237920640930176,14.473597671813966Q15.300709640930176,14.486087671813966,15.359855640930176,14.510587671813965Q15.419001640930176,14.535087671813965,15.472232640930176,14.570657671813965Q15.525462640930176,14.606217671813965,15.570730640930176,14.651487671813964Q15.615999640930175,14.696757671813966,15.651566640930175,14.749987671813965Q15.687133640930176,14.803217671813965,15.711633640930176,14.862367671813965Q15.736132640930176,14.921507671813965,15.748621640930176,14.984297671813966Q15.761111640930176,15.047087671813966,15.761111640930176,15.111107671813965ZM15.761111640930176,9.777777671813965Q15.761111640930176,9.841797071813964,15.748621640930176,9.904586671813965Q15.736132640930176,9.967375671813965,15.711633640930176,10.026521671813965Q15.687133640930176,10.085667671813965,15.651566640930175,10.138898671813966Q15.615999640930175,10.192128671813965,15.570730640930176,10.237396671813965Q15.525462640930176,10.282665671813964,15.472232640930176,10.318232671813965Q15.419001640930176,10.353799671813965,15.359855640930176,10.378299671813965Q15.300709640930176,10.402798671813965,15.237920640930176,10.415287671813966Q15.175131040930175,10.427777671813965,15.111111640930176,10.427777671813965Q15.047092240930176,10.427777671813965,14.984302640930176,10.415287671813966Q14.921513640930176,10.402798671813965,14.862367640930175,10.378299671813965Q14.803221640930175,10.353799671813965,14.749990640930175,10.318232671813965Q14.696760640930176,10.282665671813964,14.651492640930176,10.237396671813965Q14.606223640930176,10.192128671813965,14.570656640930176,10.138898671813966Q14.535089640930176,10.085667671813965,14.510589640930176,10.026521671813965Q14.486090640930176,9.967375671813965,14.473601640930175,9.904586671813965Q14.461111640930175,9.841797071813964,14.461111640930175,9.777777671813965Q14.461111640930175,9.713758271813965,14.473601640930175,9.650968671813965Q14.486090640930176,9.588179671813965,14.510589640930176,9.529033671813965Q14.535089640930176,9.469887671813964,14.570656640930176,9.416656671813964Q14.606223640930176,9.363426671813965,14.651492640930176,9.318158671813965Q14.696760640930176,9.272889671813966,14.749990640930175,9.237322671813965Q14.803221640930175,9.201755671813965,14.862367640930175,9.177255671813965Q14.921513640930176,9.152756671813965,14.984302640930176,9.140267671813964Q15.047092240930176,9.127777671813964,15.111111640930176,9.127777671813964Q15.175131040930175,9.127777671813964,15.237920640930176,9.140267671813964Q15.300709640930176,9.152756671813965,15.359855640930176,9.177255671813965Q15.419001640930176,9.201755671813965,15.472232640930176,9.237322671813965Q15.525462640930176,9.272889671813966,15.570730640930176,9.318158671813965Q15.615999640930175,9.363426671813965,15.651566640930175,9.416656671813964Q15.687133640930176,9.469887671813964,15.711633640930176,9.529033671813965Q15.736132640930176,9.588179671813965,15.748621640930176,9.650968671813965Q15.761111640930176,9.713758271813965,15.761111640930176,9.777777671813965Z" fill="#06CCAB" fill-opacity="1"/></g></g></svg>