<svg xmlns="http://www.w3.org/2000/svg" xmlns:xlink="http://www.w3.org/1999/xlink" fill="none" version="1.1" width="14" height="14" viewBox="0 0 14 14"><g style="mix-blend-mode:passthrough"><g><path d="M7,12.8333C10.2216,12.8333,12.8333,10.2216,12.8333,7C12.8333,3.77845,10.2216,1.16667,7,1.16667C3.77845,1.16667,1.16667,3.77845,1.16667,7C1.16667,10.2216,3.77845,12.8333,7,12.8333ZM7,14C3.13406,14,0,10.8659,0,7C0,3.13406,3.13406,0,7,0C10.8659,0,14,3.13406,14,7C14,10.8659,10.8659,14,7,14Z" fill="#303433" fill-opacity="1"/></g><g><path d="M0.790168,10.1442L1.83825,10.7123C1.22799,11.8391,1.08616,12.6047,1.25064,12.7692C1.43181,12.9503,2.29435,12.764,3.53591,12.0548C4.95189,11.2455,6.64797,9.90024,8.27412,8.27408C9.90027,6.64792,11.2455,4.95184,12.0548,3.53585C12.764,2.29428,12.9503,1.43213,12.7692,1.25096C12.6027,1.08449,11.8276,1.2307,10.6893,1.85049L10.1196,0.803598C11.6977,-0.0557686,12.9182,-0.285807,13.6119,0.407884C14.921,1.717,12.793,5.44092,9.11679,9.11676C5.44097,12.793,1.71707,14.921,0.407965,13.6118C-0.282543,12.9217,-0.057671,11.7104,0.790168,10.1446L0.790168,10.1442Z" fill="#303433" fill-opacity="1"/></g></g></svg>