<svg xmlns="http://www.w3.org/2000/svg" xmlns:xlink="http://www.w3.org/1999/xlink" fill="none" version="1.1" width="16" height="16" viewBox="0 0 16 16"><defs><clipPath id="master_svg0_1726_11154"><rect x="0" y="0" width="16" height="16" rx="0"/></clipPath></defs><g clip-path="url(#master_svg0_1726_11154)"><g><path d="M1.65625,9.88141C1.9941200000000001,9.8814,2.27678,10.13793,2.30944,10.4742L2.3125,10.53764L2.31206,13.6871L5.46206,13.6871C5.80025,13.6869,6.08322,13.9437,6.11569,14.2803L6.11875,14.3438C6.11873,14.6818,5.86196,14.9645,5.5255,14.9969L5.4625,15L1.65625,15C1.31806,15.0002,1.0350915,14.7434,1.0026251,14.4068L1.000000156657,14.3438L1.000000156657,10.53764C1.000000156657,10.17521,1.293813,9.88141,1.65625,9.88141ZM14.3437,6.11903C14.0056,6.11924,13.7226,5.86241,13.6901,5.5258L13.6875,5.4628L13.6875,2.3129L10.5375,2.3129C10.19931,2.31311,9.91634,2.05628,9.88387,1.719665L9.88125,1.6566670000000001C9.88102,1.3186390000000001,10.13761,1.0357373,10.47406,1.00306239L10.5375,1L14.3437,1C14.6816,0.99999420388,14.9643,1.256517,14.9969,1.592794L15,1.656229L15,5.46236C15,5.82479,14.7062,6.11859,14.3438,6.11859L14.3437,6.11903ZM5.99887,1.000437529C6.34901,1.000379019,6.63752,1.275199,6.65447,1.6249120000000001C6.67141,1.974626,6.41081,2.2760499999999997,6.06231,2.30983L5.99887,2.3129L2.31206,2.3124599999999997L2.31206,6.0674C2.3120700000000003,6.40526,2.0555399999999997,6.68791,1.71925,6.72057L1.65625,6.72363C1.318213,6.72386,1.0353022,6.46728,1.0026251,6.13084L1.000000156657,6.0674L1.000000156657,1.6566670000000001C0.999769088,1.31864,1.256358,1.0357384,1.592813,1.00306239L1.65625,1L5.99887,1L5.99887,1.000437529Z" fill="#2A3331" fill-opacity="1"/></g><g><path d="M1.199834,1.201249C1.447622,0.9525124,1.843238,0.9318037,2.11559,1.153313L2.16758,1.200336L7.79985,6.83118C8.057,7.08882,8.0677,7.50288,7.82421,7.7735C7.58072,8.04411,7.16822,8.07659,6.88546,7.84742L6.83347,7.8004L1.200746,2.16955C0.9334413,1.9023889999999999,0.933033,1.4689130000000001,1.199834,1.201249Z" fill="#2A3331" fill-opacity="1"/></g><g><path d="M9.69633,15C9.32488,15.000060000000001,9.0188032,14.71197,9.000828976,14.345369999999999C8.9828547,13.97877,9.259315,13.6628,9.629031,13.627379999999999L9.69633,13.62417L13.60759,13.62417L13.60759,9.687915C13.60759,9.333741,13.87974,9.0374452,14.2365,9.00321009L14.303799999999999,9C14.6624,9.0000170785,14.96232,9.269179,14.996749999999999,9.621876L15,9.687916L15,14.31208C14.99998,14.666419999999999,14.72758,14.962769999999999,14.37063,14.99679L14.303799999999999,15L9.69633,15Z" fill="#2A3331" fill-opacity="1"/></g><g><path d="M14.79908,14.79954C14.550419999999999,15.04782,14.15402,15.06793,13.88146,14.8461L13.829360000000001,14.79909L8.201182,9.16923C7.9426252,8.911414,7.9319498,8.496355,8.176911,8.225615C8.421872,7.9548755,8.836372,7.9236149,9.11926,8.154545L9.17135,8.20156L14.79953,13.83141C15.067,14.09891,15.0668,14.532309999999999,14.79908,14.79954Z" fill="#2A3331" fill-opacity="1"/></g></g></svg>