<svg xmlns="http://www.w3.org/2000/svg" xmlns:xlink="http://www.w3.org/1999/xlink" fill="none" version="1.1" width="16" height="16" viewBox="0 0 16 16"><g><g><g><path d="M11.5,3.875L14.4344,3.875C14.7453,3.875,15,4.1281300000000005,15,4.4375C15,4.7468699999999995,14.7453,5,14.4344,5L13,5L13,13.0938C13,13.35,12.95,13.6,12.85,13.8359C12.7547,14.0641,12.6172,14.2672,12.4422,14.4422C12.2672,14.6172,12.0625,14.7547,11.8359,14.85C11.6,14.95,11.35,15,11.0938,15L4.90625,15C4.65,15,4.4,14.95,4.16406,14.85C3.93594,14.7547,3.73281,14.6172,3.55781,14.4422C3.38281,14.2672,3.24531,14.0625,3.15,13.8359C3.05,13.6,3,13.35,3,13.0938L3,5L1.565625,5C1.254687,5,1,4.7468699999999995,1,4.4375C1,4.1281300000000005,1.254687,3.875,1.565625,3.875L4.5,3.875L4.5,2.59375C4.5,1.715625,5.21563,1,6.09375,1L9.90625,1C10.78437,1,11.5,1.715625,11.5,2.59375L11.5,3.875ZM6.09375,2.125C5.83437,2.125,5.625,2.33438,5.625,2.59375L5.625,3.875L10.375,3.875L10.375,2.59375C10.375,2.33438,10.16562,2.125,9.90625,2.125L6.09375,2.125ZM12,5L4,5L4,13C4,13.5523,4.44772,14,5,14L11,14C11.5523,14,12,13.5523,12,13L12,5Z" fill-rule="evenodd" fill="#FA5555" fill-opacity="1"/></g><g><path d="M6.437500476837158,11.624926567077637C6.128125476837158,11.624926567077637,5.875000476837158,11.371796567077638,5.875000476837158,11.062426567077637L5.875000476837158,7.812426567077637C5.875000476837158,7.5030515670776365,6.128125476837158,7.249926567077637,6.437500476837158,7.249926567077637C6.746875476837158,7.249926567077637,7.000000476837158,7.5030515670776365,7.000000476837158,7.812426567077637L7.000000476837158,11.062426567077637C7.000000476837158,11.371796567077638,6.746875476837158,11.624926567077637,6.437500476837158,11.624926567077637ZM9.562500476837158,11.624926567077637C9.253130476837159,11.624926567077637,9.000000476837158,11.371796567077638,9.000000476837158,11.062426567077637L9.000000476837158,7.812426567077637C9.000000476837158,7.5030515670776365,9.253130476837159,7.249926567077637,9.562500476837158,7.249926567077637C9.871880476837159,7.249926567077637,10.125000476837158,7.5030515670776365,10.125000476837158,7.812426567077637L10.125000476837158,11.062426567077637C10.125000476837158,11.371796567077638,9.871880476837159,11.624926567077637,9.562500476837158,11.624926567077637Z" fill="#FA5555" fill-opacity="1"/></g></g></g></svg>