<svg xmlns="http://www.w3.org/2000/svg" xmlns:xlink="http://www.w3.org/1999/xlink" fill="none" version="1.1" width="18" height="18" viewBox="0 0 18 18"><g><g><path d="M18,9C18,13.9706,13.9706,18,9,18C4.02944,18,0,13.9706,0,9C0,4.02944,4.02944,0,9,0C13.9706,0,18,4.02944,18,9ZM16.65,9Q16.65,7.54081,16.1129,6.18408Q15.5297,4.71095,14.4094,3.59063Q13.2891,2.47032,11.8159,1.88712Q10.4592,1.35,9,1.35Q7.54081,1.35,6.18408,1.88712Q4.71095,2.47032,3.59063,3.59063Q2.47032,4.71095,1.88712,6.18408Q1.35,7.54081,1.35,9Q1.35,10.4592,1.88712,11.8159Q2.47032,13.2891,3.59063,14.4094Q4.71095,15.5297,6.18408,16.1129Q7.54081,16.65,9,16.65Q10.4592,16.65,11.8159,16.1129Q13.289,15.5297,14.4094,14.4094Q15.5297,13.2891,16.1129,11.8159Q16.65,10.4592,16.65,9Z" fill-rule="evenodd" fill="#2A3331" fill-opacity="1"/></g><g><path d="M8.998873572937011,14.160548501281738C8.601470572937012,14.160548501281738,8.278582572937012,13.866728501281738,8.278582572937012,13.505138501281738C8.278582572937012,13.505138501281738,8.278582572937012,7.724240501281738,8.278582572937012,7.724240501281738C8.278582572937012,7.362597501281738,8.601470572937012,7.068768501281738,8.998873572937011,7.068768501281738C9.396272572937011,7.068768501281738,9.719192572937011,7.362597501281738,9.719192572937011,7.724240501281738C9.719192572937011,7.724240501281738,9.719192572937011,13.505138501281738,9.719192572937011,13.505138501281738C9.719192572937011,13.866728501281738,9.396272572937011,14.160548501281738,8.998873572937011,14.160548501281738C8.998873572937011,14.160548501281738,8.998873572937011,14.160548501281738,8.998873572937011,14.160548501281738Z" fill="#2A3331" fill-opacity="1"/><path d="M9.541712572937012,14.005418501281738Q9.769192572937012,13.798428501281737,9.769192572937012,13.505138501281738L9.769192572937012,7.724240501281738Q9.769192572937012,7.430907501281738,9.541712572937012,7.223907501281738Q9.316272572937011,7.0187685012817385,8.998873572937011,7.018768601281738Q8.681476572937012,7.0187685012817385,8.456049572937012,7.223908501281739Q8.228582572937011,7.430905501281738,8.228582572937011,7.724240501281738L8.228582672937012,13.505138501281738Q8.228582572937011,13.798438501281737,8.456050572937011,14.005418501281738Q8.681480572937012,14.210558501281739,8.998873572937011,14.210558501281739Q9.316272572937011,14.210548501281739,9.541712572937012,14.005418501281738ZM9.669192572937012,7.724240501281738L9.669192572937012,13.505138501281738Q9.669192572937012,13.754218501281738,9.474412572937013,13.931458501281739Q9.277582572937012,14.110558501281737,8.998873572937011,14.110548501281738Q8.72016857293701,14.110548501281738,8.523353572937012,13.931458501281739Q8.328582572937012,13.754228501281737,8.328582672937012,13.505138501281738L8.328582572937012,7.724240501281738Q8.328582572937012,7.475112501281738,8.523354572937011,7.297868501281738Q8.720165572937011,7.118768501281738,8.998873572937011,7.118768601281738Q9.277584572937013,7.118768501281738,9.474412572937013,7.297869501281738Q9.669192572937012,7.4751155012817385,9.669192572937012,7.724240501281738Z" fill-rule="evenodd" fill="#2A3331" fill-opacity="1"/></g><g><path d="M8.105987548828125,4.733555356933594C8.105987548828125,5.227378356933594,8.506329548828125,5.627718356933594,9.000164548828124,5.627718356933594C9.493997548828125,5.627718356933594,9.894337548828124,5.227378356933594,9.894337548828124,4.733555356933594C9.894337548828124,4.239706356933594,9.493997548828125,3.839378356933645,9.000164548828124,3.839378356933645C8.506329548828125,3.839378356933645,8.105987548828125,4.239706356933594,8.105987548828125,4.733555356933594C8.105987548828125,4.733555356933594,8.105987548828125,4.733555356933594,8.105987548828125,4.733555356933594Z" fill="#2A3331" fill-opacity="1"/></g></g></svg>