<svg xmlns="http://www.w3.org/2000/svg" xmlns:xlink="http://www.w3.org/1999/xlink" fill="none" version="1.1" width="16.22216796875" height="17.196044921875" viewBox="0 0 16.22216796875 17.196044921875"><g><g><path d="M8.4372075625,17.09609765625C8.0974285625,17.09609765625,7.8219795025,16.82069765625,7.8219795025,16.48089765625L7.8219795025,13.82769765625C7.8219795025,13.48789765625,8.0974285625,13.21249765625,8.4372075625,13.21249765625C8.7769865625,13.21249765625,9.0524365625,13.48789765625,9.0524365625,13.82769765625L9.0524365625,16.48089765625C9.0524365625,16.82069765625,8.7769865625,17.09609765625,8.4372075625,17.09609765625ZM8.4372075625,9.44421765625C8.0974285625,9.44421765625,7.8219795025,9.16876765625,7.8219795025,8.82898765625L7.8219795025,6.79104765625C7.8219795025,6.45126765625,8.0974285625,6.17581765625,8.4372075625,6.17581765625C8.7769865625,6.17581765625,9.0524365625,6.45126765625,9.0524365625,6.79104765625L9.0524365625,8.82898765625C9.0524365625,9.16876765625,8.7769865625,9.44421765625,8.4372075625,9.44421765625ZM8.4288055625,2.29219765625L8.4232495625,2.29217765625C8.0834705625,2.28917765625,7.8104830325,2.01128765625,7.8135013458,1.67152765625L7.8220185625,0.70986565625C7.8250180625,0.37197065625,8.0998905625,0.10009765625,8.4371125625,0.10009765625L8.4426685625,0.10011690095C8.7824475625,0.10311615625,9.0554365625,0.38100665625,9.0524365625,0.72076665625L9.0439165625,1.68242765625C9.0408965625,2.02031765625,8.7660275625,2.29219765625,8.4288055625,2.29219765625Z" fill="#F0F5F5" fill-opacity="1"/><path d="M8.9320665625,2.18505765625Q9.1412865625,1.97780765625,9.1439165625,1.68331765625L9.1439165625,1.68330765625L9.1524365625,0.72164865625Q9.1550465625,0.42540665625,8.9474265625,0.21407565625Q8.7398015625,0.0027358562500000017,8.4430145625,0.00011745624999999482L8.4371125625,0.00009765624999999445Q8.1429415625,0.00009765624999999445,7.9338545625,0.20722865625Q7.7246366625,0.41448965625,7.7220224625,0.70897965625L7.7135052625,1.67063765625Q7.7108735625,1.96687765625,7.9184915625,2.17821765625Q8.1261145625,2.38955765625,8.4229055625,2.39217765625L8.4288065625,2.39219765625Q8.7229745625,2.39219765625,8.9320665625,2.18505765625ZM8.9439265625,1.68152765625L8.9439265625,1.68153765625Q8.9420265625,1.89367765625,8.7913115625,2.0429776562499997Q8.6406835625,2.19219765625,8.4288065625,2.19219765625L8.4235945625,2.19217765625Q8.2107245625,2.19029765625,8.0611615625,2.03805765625Q7.9116015625,1.88581765625,7.9134975625,1.67240765625L7.9220145625,0.71075065625Q7.9238975625,0.49861465625,8.0746095625,0.34931365625Q8.2252335625,0.20009765625,8.4371125625,0.20009765625L8.4423215625,0.20011665625Q8.6551925625,0.20199665625000002,8.8047595625,0.35423765625Q8.9543265625,0.50647665625,8.9524365625,0.71988365625L8.9439265625,1.68152765625ZM8.9429465625,9.33472765625Q9.1524365625,9.12524765625,9.1524365625,8.82898765625L9.1524365625,6.79104765625Q9.1524365625,6.49478765625,8.9429465625,6.28530765625Q8.7334635625,6.07581765625,8.4372075625,6.07581765625Q8.1409515625,6.07581765625,7.9314655625,6.28530765625Q7.7219794625,6.49478765625,7.7219794625,6.79104765625L7.7219795625,8.82898765625Q7.7219794625,9.12524765625,7.9314655625,9.33472765625Q8.1409515625,9.54421765625,8.4372075625,9.54421765625Q8.7334635625,9.54421765625,8.9429465625,9.33472765625ZM8.9524365625,6.79104765625L8.9524365625,8.82898765625Q8.9524365625,9.04239765625,8.8015275625,9.19330765625Q8.6506205625,9.34421765625,8.4372075625,9.34421765625Q8.2237945625,9.34421765625,8.0728865625,9.19330765625Q7.9219795625,9.04239765625,7.9219795625,8.82898765625L7.9219795625,6.79104765625Q7.9219795625,6.57763765625,8.0728865625,6.42672765625Q8.2237945625,6.27581765625,8.4372075625,6.27581765625Q8.6506205625,6.27581765625,8.8015275625,6.42672765625Q8.9524365625,6.57763765625,8.9524365625,6.79104765625ZM8.9429465625,16.98659765625Q9.1524365625,16.77709765625,9.1524365625,16.48089765625L9.1524365625,13.82769765625Q9.1524365625,13.53149765625,8.9429465625,13.32199765625Q8.7334635625,13.11249765625,8.4372075625,13.11249765625Q8.1409515625,13.11249765625,7.9314655625,13.32199765625Q7.7219794625,13.53149765625,7.7219794625,13.82769765625L7.7219795625,16.48089765625Q7.7219795625,16.77709765625,7.9314655625,16.98659765625Q8.1409515625,17.19609765625,8.4372075625,17.19609765625Q8.7334625625,17.19609765625,8.9429465625,16.98659765625ZM8.9524365625,13.82769765625L8.9524365625,16.48089765625Q8.9524365625,16.69429765625,8.8015285625,16.84519765625Q8.6506195625,16.99609765625,8.4372075625,16.99609765625Q8.2237945625,16.99609765625,8.0728865625,16.84519765625Q7.9219795625,16.69429765625,7.9219795625,16.48089765625L7.9219795625,13.82769765625Q7.9219795625,13.61429765625,8.0728865625,13.46339765625Q8.2237945625,13.31249765625,8.4372075625,13.31249765625Q8.6506205625,13.31249765625,8.8015275625,13.46339765625Q8.9524365625,13.61429765625,8.9524365625,13.82769765625Z" fill-rule="evenodd" fill="#F0F5F5" fill-opacity="1"/></g><g><path d="M15.48729375,2.416761589012146L2.98632175,2.416761589012146C2.64654275,2.416761589012146,2.37109375,2.141308589012146,2.37109375,1.801529589012146C2.37109375,1.461750589012146,2.64654275,1.186301589012146,2.98632175,1.186301589012146L15.48729375,1.186301589012146C15.82709375,1.186301589012146,16.10249375,1.461750589012146,16.10249375,1.801529589012146C16.10249375,2.141308589012146,15.82709375,2.416761589012146,15.48729375,2.416761589012146ZM15.48729375,7.396261589012146L2.98632175,7.396261589012146C2.64654275,7.396261589012146,2.37109375,7.120811589012146,2.37109375,6.781031589012146C2.37109375,6.441251589012146,2.64654275,6.165801589012146,2.98632175,6.165801589012146L15.48729375,6.165801589012146C15.82709375,6.165801589012146,16.10249375,6.441251589012146,16.10249375,6.781031589012146C16.10249375,7.120811589012146,15.82709375,7.396261589012146,15.48729375,7.396261589012146Z" fill="#F0F5F5" fill-opacity="1"/><path d="M15.48729375,2.516761589012146Q16.202493750000002,2.516761589012146,16.202493750000002,1.801529589012146Q16.202493750000002,1.505274589012146,15.99299375,1.295787589012146Q15.78359375,1.086301589012146,15.48729375,1.086301589012146L2.98632175,1.086301589012146Q2.69006575,1.086301589012146,2.48057975,1.295787589012146Q2.27109375,1.505273589012146,2.27109375,1.801529589012146Q2.27109385,2.0977855890121457,2.48057975,2.307271589012146Q2.69006575,2.516761589012146,2.98632175,2.516761589012146L15.48729375,2.516761589012146ZM15.85159375,1.437209589012146Q16.00249375,1.588115589012146,16.00249375,1.801529589012146Q16.00249375,2.014942589012146,15.85159375,2.165849589012146Q15.70069375,2.3167615890121462,15.48729375,2.3167615890121462L2.98632175,2.3167615890121462Q2.77290875,2.3167615890121462,2.62200175,2.165849589012146Q2.47109375,2.014942589012146,2.47109375,1.801529589012146Q2.47109375,1.588116589012146,2.62200175,1.437209589012146Q2.77290875,1.286301589012146,2.98632175,1.286301589012146L15.48729375,1.286301589012146Q15.70069375,1.286301589012146,15.85159375,1.437209589012146ZM15.99299375,7.286771589012146Q16.202493750000002,7.077281589012146,16.202493750000002,6.781031589012146Q16.202493750000002,6.484771589012146,15.99299375,6.275291589012146Q15.78359375,6.065801589012146,15.48729375,6.065801589012146L2.98632175,6.065801589012146Q2.69006575,6.065801589012146,2.48057975,6.275291589012146Q2.27109375,6.484771589012146,2.27109375,6.781031589012146Q2.27109375,7.077281589012146,2.48057975,7.286771589012146Q2.69006575,7.496261589012146,2.98632175,7.496261589012146L15.48729375,7.496261589012146Q15.78359375,7.496261589012146,15.99299375,7.286771589012146ZM15.87369375,6.394611589012146Q16.00249375,6.523421589012146,16.00249375,6.781031589012146Q16.00249375,6.994441589012146,15.85159375,7.145351589012146Q15.70069375,7.296261589012146,15.48729375,7.296261589012146L2.98632175,7.296261589012146Q2.77290875,7.296261589012146,2.62200175,7.145351589012146Q2.47109375,6.994441589012146,2.47109375,6.781031589012146Q2.47109375,6.567621589012146,2.6220007499999998,6.416711589012146Q2.77290875,6.265801589012146,2.98632175,6.265801589012146L15.48729375,6.265801589012146Q15.74489375,6.265801589012146,15.87369375,6.394611589012146Z" fill-rule="evenodd" fill="#F0F5F5" fill-opacity="1"/></g><g><path d="M2.8741703125,7.283308649673462C2.7019803125,7.283308649673462,2.5308103125,7.211458649673462,2.4091303125,7.071168649673462L0.2725413125,4.607758649673462C0.049905712500000005,4.351072649673462,0.0775140125,3.962497649673462,0.3342183125,3.739881649673462C0.5909213125,3.517265249673462,0.9794573125,3.544854449673462,1.2020903125,3.8015586496734617L3.3386803125,6.264968649673461C3.5613203125,6.521658649673462,3.5337103125,6.910228649673462,3.2770103125,7.132848649673462C3.1653003125,7.2300086496734615,3.0222103125,7.283448649673462,2.8741703125,7.283308649673462Z" fill="#F0F5F5" fill-opacity="1"/><path d="M3.3425203125,7.208398649673462L3.3426303125,7.208298649673462Q3.5663503125,7.014218649673461,3.5873503125,6.718768649673462Q3.6083503125,6.423258649673462,3.4142303125,6.199448649673462L1.2776403125,3.736038649673462Q0.8090463125,3.195739649673462,0.2687013125,3.664333349673462Q0.044878812500000004,3.858434649673462,0.0238788125,4.1539556496734615Q0.0028793124999999947,4.449472649673462,0.19699721250000002,4.6732786496734615L2.3335903125,7.136688649673462Q2.5474903125,7.383308649673462,2.8740703125,7.383308649673462Q3.1410603125,7.383568649673462,3.3425203125,7.208398649673462ZM3.3878503125,6.704598649673462Q3.3727203125,6.917478649673462,3.2114903125,7.057298649673462L3.2113803125,7.057398649673462Q3.0664003125,7.183488649673462,2.8742603125,7.183308649673462Q2.6387703125,7.183308649673462,2.4846703125,7.0056486496734625L0.34808531249999997,4.542234649673462Q0.2082482125,4.381011649673462,0.2233753125,4.168131649673462Q0.2385033125,3.9552516496734618,0.3997343125,3.815430649673462Q0.7889883125,3.477864649673462,1.1265503125,3.867078649673462L3.2631403125,6.3304886496734625Q3.4029803125,6.491718649673462,3.3878503125,6.704598649673462Z" fill-rule="evenodd" fill="#F0F5F5" fill-opacity="1"/></g><g><path d="M0.7370473125,4.822110390624999C0.5894103125,4.822260390625,0.4466833125,4.769110390625,0.33511131250000004,4.672420390625C0.0779843125,4.450280390625,0.0496261125,4.061790390625,0.2717623125,3.804660390625L2.3452103125,1.404677390625C2.5673703125,1.147569490625,2.9558503125,1.119211290625,3.2129703125,1.341327390625C3.4701003125,1.563463390625,3.4984603125,1.951960390625,3.2763203125,2.2090903906249997L1.2028703125,4.609070390625C1.0811903125,4.749920390625,0.9095993125,4.822110390624999,0.7370473125,4.822110390624999ZM15.4858703125,7.341130390625C15.3136703125,7.341130390625,15.1425703125,7.269280390625,15.0208703125,7.128990390625L12.8842703125,4.665580390625C12.6616703125,4.408890390625,12.6892703125,4.020320390625,12.9459703125,3.797700390625C13.2026703125,3.575100390625,13.5911703125,3.602690390625,13.8137703125,3.859380390625L15.9503703125,6.322810390625C16.1730703125,6.579490390625,16.1454703125,6.968070390625,15.8887703125,7.190680390625C15.7770703125,7.287830390625,15.6339703125,7.341270390625,15.4858703125,7.341130390625Z" fill="#F0F5F5" fill-opacity="1"/><path d="M0.7370473125,4.922110390625Q1.0645803125,4.922110390625,1.2785403125,4.674450390625L3.3520003125,2.2744603906250003Q3.8195703125,1.733229390625,3.2783403125,1.265652990625Q2.7371403125,0.798137390625,2.2695403125,1.339301390625L0.1960901125,3.739290390625Q0.0024093124999999965,3.963480390625,0.023978412500000004,4.258940390625Q0.04554781250000001,4.554410390625,0.2696213125,4.7479903906250005Q0.4708593125,4.922380390624999,0.7370473125,4.922110390625ZM3.2006503125,2.143713390625L1.1272003125,4.543700390625Q0.9730643125,4.722110390625,0.7370473125,4.722110390625Q0.5453733125,4.722310390625,0.4006013125,4.596850390625Q0.2389853125,4.457230390625,0.2234473125,4.244380390625Q0.20790991250000002,4.0315403906250005,0.3474333125,3.870040390625L2.4208903125,1.470052390625Q2.7577303125,1.080212390625,3.1476003125,1.417002390625Q3.3091003125,1.556521390625,3.3246403125,1.7693663906250001Q3.3401803125,1.9822113906249998,3.2006503125,2.143713390625ZM15.9542703125,7.266230390625L15.9543703125,7.266140390625Q16.1780703125,7.072060390625,16.1990703125,6.776610390625Q16.2200703125,6.481090390625,16.0259703125,6.257290390625L13.8893703125,3.793860390625Q13.4207703125,3.253560390625,12.8804703125,3.722160390625Q12.6565703125,3.916260390625,12.6355703125,4.211780390625Q12.6145703125,4.507300390625,12.8087703125,4.731100390625L14.9452703125,7.194510390625Q15.1591703125,7.441130390625,15.4857703125,7.441130390625Q15.7527703125,7.441390390625,15.9542703125,7.266230390625ZM15.9995703125,6.762430390625Q15.9844703125,6.975310390625,15.8232703125,7.115140390625L15.8231703125,7.115220390625Q15.6781703125,7.241310390625,15.4859703125,7.241130390625Q15.2504703125,7.241130390625,15.0963703125,7.063470390625L12.9598703125,4.600060390625Q12.8199703125,4.438830390625,12.8350703125,4.225950390625Q12.8502703125,4.013070390625,13.0114703125,3.873250390625Q13.4006703125,3.535690390625,13.7382703125,3.924900390625L15.8748703125,6.388330390625Q16.0146703125,6.549550390625,15.9995703125,6.762430390625Z" fill-rule="evenodd" fill="#F0F5F5" fill-opacity="1"/></g><g><path d="M13.3499015625,4.879647799949646C13.2023015625,4.879797799949646,13.0596015625,4.826637799949646,12.9480015625,4.729957799949646C12.6909015625,4.507817799949645,12.6625015625,4.119307799949646,12.8847015625,3.862197799949646L14.9581015625,1.462211799949646C15.1803015625,1.205065999949646,15.5688015625,1.176726999949646,15.8259015625,1.398881799949646C16.0830015625,1.621017799949646,16.1114015625,2.009514799949646,15.8892015625,2.266617799949646L13.8158015625,4.666627799949646C13.6941015625,4.8074577999496455,13.5225015625,4.879647799949646,13.3499015625,4.879647799949646ZM13.2578015625,9.414977799949646L0.7568295625,9.414977799949646C0.4170505625,9.414977799949646,0.1416015625,9.139527799949647,0.1416015625,8.799747799949646C0.1416015625,8.459967799949645,0.4170505625,8.184517799949646,0.7568295625,8.184517799949646L13.2578015625,8.184517799949646C13.5976015625,8.184517799949646,13.8730015625,8.459967799949645,13.8730015625,8.799747799949646C13.8730015625,9.139527799949647,13.5976015625,9.414977799949646,13.2578015625,9.414977799949646ZM13.2578015625,14.394467799949647L0.7568295625,14.394467799949647C0.4170505625,14.394467799949647,0.1416015625,14.119067799949645,0.1416015625,13.779267799949645C0.1416015625,13.439467799949647,0.4170505625,13.164067799949645,0.7568295625,13.164067799949645L13.2578015625,13.164067799949645C13.5976015625,13.164067799949645,13.8730015625,13.439467799949647,13.8730015625,13.779267799949645C13.8730015625,14.119067799949645,13.5976015625,14.394467799949647,13.2578015625,14.394467799949647Z" fill="#F0F5F5" fill-opacity="1"/><path d="M13.3499015625,4.979647799949646Q13.6774015625,4.979647799949646,13.8914015625,4.7320077999496455L15.9649015625,2.331997799949646Q16.1586015625,2.107823799949646,16.1370015625,1.812356799949646Q16.1154015625,1.516892799949646,15.8913015625,1.323217299949646Q15.6671015625,1.129513799949646,15.3716015625,1.151074299949646Q15.0762015625,1.172634499949646,14.8824015625,1.396836799949646L12.8090015625,3.796817799949646Q12.6153015625,4.020997799949646,12.6369015625,4.3164677999496455Q12.6584015625,4.611947799949646,12.8825015625,4.805527799949646Q13.0838015625,4.979907799949646,13.3499015625,4.979647799949646ZM15.8136015625,2.201246799949646L13.7401015625,4.601247799949646Q13.5859015625,4.779647799949646,13.3499015625,4.779647799949646Q13.1583015625,4.779837799949647,13.0135015625,4.654377799949646Q12.8519015625,4.5147577999496455,12.8363015625,4.301907799949646Q12.8208015625,4.0890577999496465,12.9603015625,3.927577799949646L15.0338015625,1.527587799949646Q15.1733015625,1.366075799949646,15.3862015625,1.350543799949646Q15.5990015625,1.335013199949646,15.7605015625,1.474546799949646Q15.9220015625,1.614076799949646,15.9375015625,1.8269187999496461Q15.9531015625,2.039759799949646,15.8136015625,2.201246799949646ZM13.7636015625,9.305487799949645Q13.9730015625,9.095997799949647,13.9730015625,8.799737799949646Q13.9730015625,8.084517799949646,13.2578015625,8.084517799949646L0.7568295625,8.084517799949646Q0.4605735625,8.084517799949646,0.25108756249999997,8.294007799949647Q0.041601562499999994,8.503487799949646,0.041601562499999994,8.799747799949646Q0.0416016625,9.514967799949646,0.7568295625,9.514977799949646L13.2578015625,9.514977799949646Q13.5541015625,9.514977799949646,13.7636015625,9.305487799949645ZM13.2578015625,8.284517799949647Q13.7730015625,8.284517799949647,13.7730015625,8.799747799949646Q13.7730015625,9.013167799949645,13.6221015625,9.164067799949645Q13.4712015625,9.314977799949647,13.2578015625,9.314977799949647L0.7568295625,9.314977799949647Q0.2416014625,9.314967799949645,0.2416015625,8.799747799949646Q0.2416015625,8.284517799949647,0.7568295625,8.284517799949647L13.2578015625,8.284517799949647ZM13.2578015625,14.494467799949646Q13.9730015625,14.494467799949646,13.9730015625,13.779267799949645Q13.9730015625,13.482967799949646,13.7635015625,13.273467799949646Q13.5541015625,13.063967799949646,13.2578015625,13.064067799949646L0.7568295625,13.064067799949646Q0.4605755625,13.064067799949646,0.25108756249999997,13.273467799949646Q0.041601562499999994,13.482967799949646,0.041601562499999994,13.779267799949645Q0.041601562499999994,14.075467799949646,0.25108756249999997,14.284967799949646Q0.4605725625,14.494467799949646,0.7568295625,14.494467799949646L13.2578015625,14.494467799949646ZM13.2578015625,13.264067799949647Q13.7730015625,13.264067799949647,13.7730015625,13.779267799949645Q13.7730015625,13.992667799949645,13.6221015625,14.143567799949645Q13.4712015625,14.294467799949645,13.2578015625,14.294467799949645L0.7568295625,14.294467799949645Q0.5434155625,14.294467799949645,0.3925095625,14.143567799949645Q0.2416015625,13.992667799949645,0.2416015625,13.779267799949645Q0.2416015625,13.565867799949647,0.3925095625,13.414967799949647Q0.5434175625,13.264067799949647,0.7568295625,13.264067799949647L13.2578015625,13.264067799949647Z" fill-rule="evenodd" fill="#F0F5F5" fill-opacity="1"/></g><g><path d="M13.3698528125,14.281527410888671C13.2218038125,14.281667410888673,13.0787078125,14.228217410888671,12.9670128125,14.131037410888672C12.7103284125,13.908427410888672,12.6827197125,13.519847410888673,12.9053548125,13.263167410888672L15.0419428125,10.799756410888673C15.2645428125,10.543052710888672,15.6531128125,10.515482310888672,15.9098228125,10.738099410888672C16.1665028125,10.960715410888671,16.1941128125,11.349289410888671,15.9714828125,11.605977410888672L13.8348928125,14.069387410888671C13.7132458125,14.209657410888672,13.5420018125,14.281527410888671,13.3698528125,14.281527410888671Z" fill="#F0F5F5" fill-opacity="1"/><path d="M13.3698528125,14.381527410888673Q13.6965648125,14.381527410888673,13.9104328125,14.134907410888673L13.9104428125,14.134897410888673L16.0470228125,11.671497410888671Q16.2411428125,11.447692410888672,16.2201428125,11.152174410888671Q16.1991528125,10.856655410888672,15.9753328125,10.662550510888671Q15.7515128125,10.468448410888671,15.4560128125,10.489433710888672Q15.1604728125,10.510421110888672,14.9664028125,10.734234410888671L12.8298118125,13.197647410888672Q12.6356948125,13.421447410888671,12.6566905125,13.716967410888671Q12.6776861125,14.01248741088867,12.9013768125,14.206487410888672Q13.1028728125,14.381787410888672,13.3698528125,14.381527410888673ZM15.8959328125,11.540451410888672L13.7593428125,14.003867410888672L13.7593428125,14.003867410888672Q13.6052798125,14.181517410888672,13.3698528125,14.181527410888672Q13.1776108125,14.181707410888672,13.0326488125,14.055597410888673Q12.8713118125,13.915677410888673,12.8561878125,13.702787410888671Q12.8410630125,13.489907410888673,12.9808988125,13.328687410888673L15.1174928125,10.865278410888672Q15.2572928125,10.704049410888672,15.4701728125,10.688931410888673Q15.6830628125,10.673813410888672,15.8443028125,10.813647410888672Q16.0055228125,10.953467410888672,16.0206428125,11.166347410888672Q16.0357728125,11.379230410888672,15.8959328125,11.540451410888672Z" fill-rule="evenodd" fill="#F0F5F5" fill-opacity="1"/></g><g><path d="M15.506478125,11.820219690551758C15.333778125,11.820219690551758,15.162278125,11.748029690551757,15.040578125,11.607179690551758L12.967178125,9.207169690551758C12.744978125,8.950065690551758,12.773378125,8.561548690551758,13.030478125,8.339413690551758C13.287578125,8.117296990551758,13.676078125,8.145636390551758,13.898278125,8.402762690551757L15.971678125,10.802769690551758C16.193878125,11.059879690551758,16.165478125,11.448389690551757,15.908378125,11.670529690551758C15.796778125,11.767189690551758,15.654078125,11.820349690551758,15.506478125,11.820219690551758ZM0.757551125,14.339209690551758C0.609502125,14.339359690551758,0.466405125,14.285899690551759,0.354711125,14.188729690551757C0.098026825,13.966109690551757,0.070418425,13.577539690551758,0.293035125,13.320849690551757L2.429648125,10.857449690551757C2.652258125,10.600739690551759,3.040838125,10.573149690551759,3.297518125,10.795789690551757C3.554208125,11.018409690551758,3.581808125,11.406979690551758,3.359198125,11.663659690551757L1.222588125,14.127069690551757C1.100944125,14.267349690551757,0.929718125,14.339209690551758,0.757551125,14.339209690551758Z" fill="#F0F5F5" fill-opacity="1"/><path d="M15.973778125,11.746199690551759L15.973878125,11.746109690551759Q16.197878125,11.552449690551757,16.219478125,11.257039690551757Q16.241078125,10.961559690551757,16.047378125,10.737389690551758L13.973878125,8.337385690551757Q13.506378125,7.796187690551758,12.965078125,8.263744390551757Q12.740978125,8.457424690551758,12.719378125,8.752896690551758Q12.697778125,9.048379690551759,12.891478125,9.272549690551758L14.964978125,11.672549690551758Q15.178878125,11.920219690551757,15.506378125,11.920219690551757Q15.772478125,11.920449690551758,15.973778125,11.746199690551759ZM15.896078125,10.868139690551757Q16.232878125,11.257999690551758,15.842978125,11.594859690551758L15.842878125,11.594939690551758Q15.698078125,11.720379690551757,15.506478125,11.720219690551758Q15.270378125,11.720219690551758,15.116278125,11.541799690551757L13.042778125,9.141797690551758Q12.874378125,8.946883690551758,12.887678125,8.765216690551759Q12.900878125,8.583523690551758,13.095878125,8.415082690551758Q13.485778125,8.078271690551757,13.822578125,8.468139690551757L15.896078125,10.868139690551757ZM0.757551125,14.439209690551758Q1.084264125,14.439209690551758,1.298128125,14.192599690551758L1.298138125,14.192589690551758L3.434738125,11.729179690551758Q3.903358125,11.188849690551757,3.363038125,10.720249690551757Q3.139238125,10.526129690551757,2.843718125,10.547119690551758Q2.548198125,10.568109690551758,2.354098125,10.791919690551758L0.217488525,13.255339690551757Q-0.251127875,13.795669690551758,0.289075125,14.264179690551757Q0.490574125,14.439479690551757,0.757551125,14.439209690551758ZM3.283648125,11.598139690551758L1.147038125,14.061549690551757L1.147038125,14.061559690551757Q0.992978125,14.239209690551757,0.757551125,14.239209690551757Q0.565310125,14.239399690551757,0.420347125,14.113289690551758Q0.031003125000000006,13.775619690551757,0.368581125,13.386369690551758L2.505188125,10.922969690551758Q2.645008125,10.761729690551757,2.857888125,10.746609690551757Q3.070768125,10.731489690551758,3.231998125,10.871329690551757Q3.621228125,11.208899690551757,3.283648125,11.598139690551758Z" fill-rule="evenodd" fill="#F0F5F5" fill-opacity="1"/></g><g><path d="M2.89453640625,11.877880256652832C2.72194640625,11.877880256652832,2.55038640625,11.805690256652833,2.42870640625,11.664840256652832L0.35525840625,9.264840256652832C0.13312220624999999,9.007732256652831,0.16148040624999999,8.619215256652833,0.41860740625000004,8.397080256652831C0.6757344062499999,8.174925056652832,1.06425040625,8.203302656652832,1.28636640625,8.460429256652832L3.35981640625,10.860430256652831C3.58195640625,11.117540256652832,3.55359640625,11.506060256652832,3.29646640625,11.728190256652832C3.18488640625,11.824860256652832,3.04216640625,11.878020256652832,2.89453640625,11.877880256652832Z" fill="#F0F5F5" fill-opacity="1"/><path d="M3.36184640625,11.803870256652832L3.36194640625,11.803770256652832Q3.58603640625,11.610110256652831,3.60760640625,11.314710256652832Q3.62917640625,11.019230256652833,3.43548640625,10.795060256652832L1.36203640625,8.395058256652833Q1.16837240625,8.170863556652831,0.87289840625,8.149289456652832Q0.5774174062499999,8.127715256652833,0.35323340625,8.321408156652833Q0.12904410625,8.515088256652833,0.10747450625,8.810564256652832Q0.08590540625,9.106040256652832,0.27958700625,9.330210256652832L2.35303640625,11.730220256652832Q2.56699640625,11.977890256652833,2.89444640625,11.977880256652831Q3.16063640625,11.978120256652833,3.36184640625,11.803870256652832ZM3.40813640625,11.300150256652833Q3.39259640625,11.513000256652832,3.23109640625,11.652520256652831L3.23098640625,11.652610256652832Q3.08619640625,11.778050256652833,2.89462640625,11.777890256652832Q2.65851640625,11.777880256652832,2.50438640625,11.599470256652832L0.43092940625,9.199464256652831Q0.29140590625,9.037975256652832,0.30694340625,8.825125256652832Q0.32248140625,8.612273256652832,0.48398140625,8.472752256652832Q0.6454814062500001,8.333217156652832,0.85833340625,8.348758256652832Q1.07118140625,8.364299256652831,1.21069640625,8.525800256652833L3.28414640625,10.925810256652833Q3.42367640625,11.087300256652831,3.40813640625,11.300150256652833Z" fill-rule="evenodd" fill="#F0F5F5" fill-opacity="1"/></g></g></svg>