<svg xmlns="http://www.w3.org/2000/svg" xmlns:xlink="http://www.w3.org/1999/xlink" fill="none" version="1.1" width="18" height="18" viewBox="0 0 18 18"><g style="mix-blend-mode:passthrough"><g style="mix-blend-mode:passthrough"><g><path d="M8.999999904632569,16.649999833106996C4.7818199046325685,16.649999833106996,1.3499999046325684,13.403399833106995,1.3499999046325684,9.413079833106995C1.3499999046325684,7.645709833106995,2.0305969046325685,5.944379833106995,3.2656799046325684,4.6217698331069945C3.608989904632568,4.254719833106995,3.9949199046325683,3.9176318331069946,4.413039904632568,3.6206718331069947C4.657769904632568,3.446830833106995,4.913159904632568,3.2871728331069945,5.177829904632569,3.1425561331069947C5.528559904632568,2.9512421331069945,5.973219904632568,3.0677235331069945,6.171839904632568,3.4020998331069947C6.371349904632568,3.7364758331069945,6.250019904632568,4.1627798331069945,5.900699904632568,4.353589833106994C5.686249904632568,4.471039833106994,5.479189904632569,4.600439833106995,5.280589904632569,4.741129833106995C4.942239904632569,4.981539833106995,4.629889904632568,5.2539498331069945,4.352379904632569,5.551589833106995C3.355529904632568,6.618209833106995,2.8070599046325686,7.989739833106994,2.8070599046325686,9.413249833106995C2.8070599046325686,12.634609833106994,5.585159904632568,15.255399833106994,8.999999904632569,15.255399833106994C12.414799904632568,15.255399833106994,15.192899904632569,12.634439833106995,15.192899904632569,9.413079833106995C15.192899904632569,7.989739833106994,14.644299904632568,6.618709833106994,13.647999904632568,5.551419833106994C13.367699904632568,5.251779833106994,13.056399904632569,4.9802298331069945,12.718699904632569,4.740959833106995C12.521699904632568,4.6006098331069945,12.312799904632568,4.470579833106995,12.09889990463257,4.353419833106995C11.749599904632568,4.162109833106994,11.62859990463257,3.736306833106995,11.828199904632568,3.4019308331069946C12.02799990463257,3.0675542331069945,12.472499904632569,2.9503956331069947,12.822499904632569,3.1423868331069946C13.086599904632568,3.2872278331069946,13.341599904632568,3.4466428331069947,13.586199904632569,3.6198248331069944C14.003099904632569,3.9161078331069947,14.389599904632568,4.253189833106995,14.734299904632568,4.621599833106995C15.969799904632568,5.944879833106995,16.64999990463257,7.646219833106994,16.64999990463257,9.412909833106994C16.64999990463257,13.403399833106995,13.218199904632568,16.649999833106996,8.999999904632569,16.649999833106996Z" fill="#FCFDFF" fill-opacity="1"/></g><g><path d="M8.999999618530273,9.849999904632568C8.530528618530273,9.849999904632568,8.149999618530273,9.533259904632569,8.149999618530273,9.141709904632568L8.149999618530273,2.0582899046325682C8.149999618530273,1.6667449046325684,8.530528618530273,1.3499999046325684,8.999999618530273,1.3499999046325684C9.469469618530272,1.3499999046325684,9.849999618530273,1.6667449046325684,9.849999618530273,2.0582899046325682L9.849999618530273,9.141709904632568C9.849999618530273,9.533259904632569,9.469469618530272,9.849999904632568,8.999999618530273,9.849999904632568Z" fill="#FCFDFF" fill-opacity="1"/></g></g><g style="mix-blend-mode:passthrough"></g></g></svg>