<svg xmlns="http://www.w3.org/2000/svg" xmlns:xlink="http://www.w3.org/1999/xlink" fill="none" version="1.1" width="18" height="18" viewBox="0 0 18 18"><g style="mix-blend-mode:passthrough"><g style="mix-blend-mode:passthrough"><g><path d="M9.000891786499023,14.583905848407746C9.571121786499024,14.583905848407746,10.126101786499023,14.801405848407745,10.524601786499023,15.180105848407745C10.524601786499023,15.180105848407745,10.698321786499024,15.366805848407745,10.698321786499024,15.366805848407745C10.915121786499023,15.601005848407745,11.354721786499024,15.712005848407745,11.666421786499024,15.599605848407746C11.666421786499024,15.599605848407746,11.939621786499023,15.497905848407745,12.542321786499024,15.151305848407745C13.136421786499023,14.808005848407745,13.359221786499024,14.620705848407745,13.361221786499023,14.618705848407746C13.616421786499023,14.403205848407746,13.741821786499024,13.975605848407746,13.646321786499023,13.660505848407745C13.646321786499023,13.660505848407745,13.588621786499024,13.470405848407745,13.588621786499024,13.470405848407745C13.447421786499023,12.874905848407746,13.532221786499024,12.288705848407746,13.820021786499023,11.790205848407746C14.101421786499023,11.299445848407746,14.555321786499023,10.933305848407745,15.091721786499024,10.764465848407745C15.091721786499024,10.764465848407745,15.342421786499024,10.705585848407745,15.342421786499024,10.705585848407745C15.660721786499023,10.631975848407745,15.968321786499024,10.309455848407746,16.027321786499023,9.986265848407745C16.027321786499023,9.982255848407746,16.077721786499023,9.695865848407745,16.077721786499023,8.997285848407746C16.074421786499023,8.302725848407746,16.024721786499022,8.014995848407747,16.024721786499022,8.011655848407745C16.024721786499022,8.011655848407745,16.538521786499025,7.9179658484077455,16.538521786499025,7.9179658484077455C16.538521786499025,7.9179658484077455,16.024021786499024,8.010305848407747,16.024021786499024,8.010305848407747C15.967021786499023,7.6904658484077455,15.656021786499023,7.361925848407745,15.345021786499023,7.293665848407746C15.345021786499023,7.293665848407746,15.112321786499024,7.2387958484077455,15.112321786499024,7.2387958484077455C14.565921786499024,7.074975848407745,14.101921786499023,6.707205848407745,13.814721786499023,6.210345848407745C13.530221786499023,5.719115848407745,13.441821786499023,5.137005848407745,13.567421786499024,4.582345848407746C13.567421786499024,4.582345848407746,13.580621786499023,4.533485848407745,13.580621786499023,4.533485848407745C13.580621786499023,4.533485848407745,13.648921786499024,4.328735848407746,13.648921786499024,4.328735848407746C13.741821786499024,4.0262858484077455,13.615821786499023,3.5966958484077454,13.363821786499024,3.3812458484077452C13.362521786499023,3.3799058484077453,13.139021786499024,3.1938858484077453,12.537621786499024,2.8445958484077454C11.935621786499024,2.4979858484077453,11.667721786499023,2.3976158484077454,11.665021786499024,2.3962858484077456C11.370021786499024,2.287879848407745,10.918421786499023,2.3982858484077454,10.698321786499024,2.6324858484077454C10.698321786499024,2.6324858484077454,10.541851786499024,2.8004458484077457,10.541851786499024,2.8004458484077457C10.126771786499024,3.195895848407745,9.580401786499024,3.413365848407745,9.002881786499023,3.413365848407745C8.433311786499022,3.413365848407745,7.878991786499023,3.1972258484077454,7.482481786499023,2.8205158484077453C7.482481786499023,2.8205158484077453,7.305441786499023,2.6318158484077454,7.305441786499023,2.6318158484077454C7.0853017864990235,2.3942758484077453,6.6423817864990236,2.2872078484077454,6.337371786499023,2.3976158484077454C6.3148217864990235,2.4056458484077456,6.043631786499024,2.511375848407745,5.460801786499023,2.847265848407745C4.866691786499024,3.1932158484077453,4.645231786499023,3.3799058484077453,4.642591786499024,3.381915848407745C4.387311786499024,3.5967058484077454,4.261991786499023,4.024275848407745,4.357471786499024,4.338775848407746C4.357471786499024,4.338775848407746,4.423771786499024,4.555585848407745,4.423771786499024,4.555585848407745C4.557241786499024,5.117375848407745,4.4712817864990235,5.709455848407745,4.183741786499024,6.209005848407745C3.9035317864990233,6.699885848407745,3.4496917864990233,7.065615848407745,2.9133217864990235,7.232775848407745C2.9133217864990235,7.232775848407745,2.658041786499023,7.292335848407745,2.658041786499023,7.292335848407745C2.3397717864990235,7.365265848407746,2.0321117864990237,7.688465848407746,1.9731017864990235,8.010985848407746C1.9717717864990234,8.017675848407745,1.9227017864990235,8.300715848407744,1.9227017864990235,8.997955848407745C1.9227017864990235,9.692525848407746,1.9717717864990234,9.976905848407746,1.9724417864990234,9.979585848407746C2.0307917864990235,10.310125848407745,2.3357917864990236,10.632645848407746,2.6534017864990234,10.702905848407745C2.6534017864990234,10.702905848407745,2.8390617864990233,10.744395848407745,2.8390617864990233,10.744395848407745C3.4291817864990235,10.918375848407745,3.8933317864990236,11.286405848407746,4.181761786499024,11.790905848407746C4.465551786499024,12.288105848407746,4.555721786499023,12.880305848407746,4.427091786499023,13.416205848407746C4.427091786499023,13.416205848407746,4.359451786499024,13.650405848407745,4.359451786499024,13.650405848407745C4.261991786499023,13.969605848407745,4.3879717864990235,14.399905848407746,4.639271786499023,14.614005848407745C4.639271786499023,14.614005848407745,4.864051786499024,14.802705848407745,5.464781786499024,15.150605848407745C6.060211786499023,15.494605848407746,6.328751786499024,15.596305848407745,6.340021786499023,15.600305848407745C6.632431786499024,15.707405848407745,7.084641786499024,15.597605848407746,7.305441786499023,15.362805848407746C7.305441786499023,15.362805848407746,7.453301786499024,15.203505848407746,7.453301786499024,15.203505848407746C7.871661786499024,14.804905848407746,8.425491786499023,14.583105848407746,9.000891786499023,14.583905848407746C9.000891786499023,14.583905848407746,9.000891786499023,14.583905848407746,9.000891786499023,14.583905848407746ZM11.390621786499024,16.695005848407746C10.833601786499024,16.695005848407746,10.289221786499024,16.465505848407744,9.933161786499024,16.081405848407748C9.933161786499024,16.081405848407748,9.781991786499024,15.918105848407745,9.781991786499024,15.918105848407745C9.599641786499024,15.745505848407745,9.305901786499023,15.633105848407745,9.000901786499023,15.633105848407745C8.697211786499023,15.633105848407745,8.407461786499024,15.746805848407746,8.183341786499025,15.954305848407746C8.183341786499025,15.954305848407746,8.070621786499023,16.078105848407745,8.070621786499023,16.078105848407745C7.560061786499023,16.621405848407747,6.663601786499023,16.836905848407746,5.9779917864990235,16.584605848407747C5.8937917864990235,16.553105848407746,5.572861786499024,16.424005848407745,4.942961786499024,16.060005848407748C4.287851786499024,15.680605848407746,4.0120117864990235,15.455805848407746,3.9629517864990236,15.414905848407745C3.3933817864990234,14.927205848407745,3.1407517864990235,14.058605848407746,3.3589017864990236,13.347305848407744C3.3589017864990236,13.347305848407744,3.4185817864990233,13.145205848407745,3.4185817864990233,13.145205848407745C3.4782517864990234,12.893705848407745,3.4278517864990232,12.580505848407745,3.2746817864990234,12.313505848407745C3.1220217864990234,12.044805848407746,2.8719417864990238,11.846405848407745,2.5771517864990234,11.760105848407745C2.5771517864990234,11.760105848407745,2.4266317864990237,11.727305848407745,2.4266317864990237,11.727305848407745C1.6999237864990233,11.566805848407745,1.0753137864990234,10.911015848407745,0.9440293864990235,10.168275848407745C0.9387195864990234,10.140175848407745,0.8777217864990234,9.800255848407746,0.8777217864990234,8.997955848407745C0.8777217864990234,8.192995848407746,0.9387195864990234,7.852395848407745,0.9466777864990235,7.816265848407745C1.0792927864990234,7.0889258484077455,1.7012477864990234,6.435845848407745,2.4253117864990235,6.269225848407745C2.4253117864990235,6.269225848407745,2.6487617864990236,6.218375848407745,2.6487617864990236,6.218375848407745C2.8848117864990233,6.146785848407745,3.1261717864990235,5.948715848407745,3.2799917864990236,5.683065848407745C3.4298417864990234,5.422105848407745,3.4756017864990234,5.113635848407745,3.4099517864990236,4.812525848407745C3.4099517864990236,4.812525848407745,3.3589017864990236,4.647245848407746,3.3589017864990236,4.647245848407746C3.1400917864990237,3.9285958484077455,3.3966917864990234,3.061395848407745,3.9655917864990236,2.5823058484077457C3.9854917864990234,2.5649058484077454,4.250051786499023,2.3387358484077456,4.938311786499024,1.9379398484077455C5.5655717864990235,1.5765968484077453,5.891791786499024,1.4447778484077454,5.976661786499023,1.4126578484077454C6.686141786499023,1.1570558484077453,7.563371786499023,1.3691680484077453,8.069951786499024,1.9158458484077454C8.069951786499024,1.9158458484077454,8.223781786499023,2.0811228484077455,8.223781786499023,2.0811228484077455C8.405461786499023,2.2530978484077453,8.697871786499023,2.3641658484077457,9.002881786499023,2.3641658484077457C9.305901786499023,2.3641658484077457,9.593001786499023,2.2530978484077453,9.811821786499024,2.0496738484077452C9.811821786499024,2.0496738484077452,9.934481786499024,1.9158458484077454,9.934481786499024,1.9158458484077454C10.445041786499024,1.3738516484077454,11.341521786499024,1.1597228484077453,12.024421786499023,1.4106548484077455C12.080821786499023,1.4313988484077453,12.399721786499024,1.5551878484077455,13.058821786499024,1.9352588484077453C13.730521786499024,2.324015848407745,13.996421786499024,2.5441658484077454,14.043421786499023,2.583655848407745C14.609721786499023,3.0687658484077454,14.862321786499024,3.937295848407745,14.644221786499024,4.647915848407745C14.644221786499024,4.647915848407745,14.581821786499024,4.838615848407745,14.581821786499024,4.838615848407745C14.522221786499024,5.125685848407745,14.570621786499023,5.425445848407746,14.719821786499024,5.685745848407746C14.869621786499023,5.944705848407746,15.111021786499023,6.138075848407746,15.398721786499024,6.229745848407745C15.398721786499024,6.229745848407745,15.573121786499023,6.269895848407745,15.573121786499023,6.269895848407745C16.295921786499022,6.429155848407746,16.920521786499023,7.083565848407745,17.052421786499025,7.825635848407745C17.06442178649902,7.890545848407745,17.118721786499023,8.235815848407746,17.122721786499024,8.994615848407745C17.122721786499024,9.774815848407746,17.065721786499022,10.116755848407745,17.055121786499022,10.177635848407744C16.92112178649902,10.908325848407745,16.299221786499025,11.561405848407745,15.576421786499024,11.728005848407745C15.576421786499024,11.728005848407745,15.378921786499024,11.773505848407746,15.378921786499024,11.773505848407746C15.102321786499024,11.866905848407745,14.869521786499023,12.059905848407745,14.725121786499024,12.315505848407746C14.571121786499024,12.581505848407746,14.525221786499024,12.897405848407745,14.597121786499024,13.196805848407745C14.597121786499024,13.196805848407745,14.646821786499023,13.354705848407745,14.646821786499023,13.354705848407745C14.863021786499024,14.070705848407746,14.607021786499024,14.937905848407745,14.038821786499023,15.417605848407746C14.018321786499023,15.435705848407745,13.751721786499024,15.663205848407745,13.062821786499024,16.061305848407745C12.402421786499023,16.440705848407745,12.079521786499024,16.565805848407745,12.021821786499023,16.586605848407743C11.819321786499023,16.659005848407745,11.606021786499024,16.695705848407748,11.391221786499024,16.695005848407746C11.391221786499024,16.695005848407746,11.390521786499024,16.695005848407746,11.390521786499024,16.695005848407746C11.390521786499024,16.695005848407746,11.390621786499024,16.695005848407746,11.390621786499024,16.695005848407746ZM9.000231786499024,7.019325848407745C7.826611786499023,7.019325848407745,6.871801786499024,7.982885848407745,6.871801786499024,9.167245848407745C6.871801786499024,10.351615848407745,7.826611786499023,11.315205848407745,9.000231786499024,11.315205848407745C10.173841786499024,11.315205848407745,11.128621786499023,10.351615848407745,11.128621786499023,9.167245848407745C11.128621786499023,7.982885848407745,10.173851786499023,7.019325848407745,9.000231786499024,7.019325848407745C9.000231786499024,7.019325848407745,9.000231786499024,7.019325848407745,9.000231786499024,7.019325848407745ZM9.000231786499024,12.345605848407745C7.2615417864990235,12.343805848407746,5.8525217864990235,10.921855848407745,5.8506917864990236,9.167245848407745C5.8506917864990236,7.414125848407745,7.263011786499024,5.9888658484077455,9.000231786499024,5.9888658484077455C10.736781786499023,5.9888658484077455,12.149721786499024,7.414125848407745,12.149721786499024,9.167245848407745C12.149721786499024,10.919715848407746,10.736781786499023,12.345605848407745,9.000231786499024,12.345605848407745C9.000231786499024,12.345605848407745,9.000231786499024,12.345605848407745,9.000231786499024,12.345605848407745Z" fill="#FCFDFF" fill-opacity="1"/><path d="M11.390521786499024,16.545005848407747L11.391221786499024,16.545005848407747Q11.690021786499024,16.546005848407745,11.971221786499024,16.445405848407745Q12.297521786499024,16.328005848407745,12.988121786499024,15.931305848407746Q13.686421786499023,15.527705848407745,13.939821786499023,15.305005848407745Q14.333921786499024,14.972205848407745,14.493121786499023,14.432305848407745Q14.652421786499023,13.892105848407745,14.503221786499024,13.398005848407745L14.452521786499023,13.236805848407746L14.451221786499023,13.231805848407745Q14.325221786499023,12.706805848407745,14.595321786499023,12.240405848407745Q14.847021786499024,11.794805848407746,15.330921786499024,11.631405848407745L15.337921786499024,11.629005848407745L15.542821786499024,11.581805848407745Q16.040821786499023,11.467005848407746,16.428021786499023,11.060855848407746Q16.815121786499024,10.654775848407745,16.907521786499025,10.150595848407745Q16.972721786499022,9.776875848407744,16.972721786499022,8.994615848407745Q16.968521786499025,8.198575848407746,16.904921786499024,7.852785848407746Q16.813821786499023,7.340325848407745,16.425721786499025,6.932635848407745Q16.038721786499025,6.5260758484077455,15.540821786499023,6.416385848407745L15.359121786499024,6.374545848407745L15.353221786499024,6.372675848407745Q14.851521786499024,6.212845848407746,14.589921786499023,5.760875848407745Q14.330921786499024,5.308905848407745,14.435021786499023,4.808095848407746L14.436721786499023,4.7999358484077455L14.501621786499024,4.601315848407745Q14.651221786499024,4.113755848407745,14.493921786499023,3.5731258484077455Q14.336621786499023,3.0322958484077454,13.945921786499023,2.6975658484077454Q13.655121786499024,2.4536758484077454,12.983721786499023,2.0650808484077454Q12.305121786499024,1.6737978484077454,11.972621786499024,1.5514248484077453Q11.502421786499024,1.3786584484077453,10.949921786499024,1.5117328484077452Q10.395411786499023,1.6452998484077455,10.043671786499024,2.0186978484077454L9.918341786499024,2.1554498484077453L9.913951786499023,2.1595328484077454Q9.532491786499023,2.514165848407745,9.002881786499023,2.514165848407745Q8.463061786499024,2.514165848407745,8.120661786499024,2.1900578484077453L8.117211786499023,2.1867938484077456L7.960151786499023,2.0180408484077454Q7.610551786499023,1.6407708484077452,7.0642817864990235,1.5092288484077454Q6.516971786499023,1.3774380484077453,6.027511786499024,1.5537788484077453Q5.672281786499023,1.6882358484077453,5.013191786499023,2.067915848407745Q4.320261786499024,2.4714358484077454,4.064331786499023,2.6952258484077456Q3.6696417864990236,3.0276458484077455,3.5107517864990236,3.5673058484077456Q3.3515317864990233,4.108075848407745,3.5023917864990235,4.603555848407746L3.5551517864990236,4.774345848407745L3.556511786499023,4.780575848407745Q3.6706317864990234,5.3040158484077455,3.4100717864990235,5.757765848407745Q3.1386217864990233,6.226555848407745,2.6922917864990232,6.361915848407746L2.6872217864990233,6.363455848407745L2.4585917864990234,6.415485848407745Q1.9602117864990234,6.530175848407746,1.5726927864990234,6.9360558484077455Q1.1857427864990235,7.341345848407745,1.0942447864990235,7.843175848407745L1.0937547864990234,7.845865848407746L1.0931667864990233,7.848535848407745Q1.0277217864990233,8.145665848407745,1.0277217864990233,8.997955848407745Q1.0277217864990233,9.803315848407745,1.0914207864990235,10.140425848407745Q1.1822927864990234,10.654465848407746,1.5707207864990234,11.062725848407746Q1.9584717864990235,11.470305848407746,2.4590017864990235,11.580905848407745L2.6142217864990234,11.614705848407745L2.6192717864990236,11.616205848407745Q3.1371317864990234,11.767705848407745,3.4051117864990235,12.239405848407745Q3.6757117864990234,12.711105848407746,3.5645317864990234,13.179905848407746L3.5635917864990234,13.183805848407745L3.5027617864990233,13.389805848407745Q3.3517517864990234,13.882205848407745,3.5095317864990236,14.422905848407746Q3.6675217864990235,14.964405848407745,4.060521786499024,15.301005848407746Q4.355601786499023,15.546505848407746,5.018131786499024,15.930205848407745Q5.6824317864990235,16.314105848407745,6.030471786499024,16.444105848407744Q6.501691786499023,16.617505848407745,7.0547317864990235,16.483905848407744Q7.609341786499024,16.349905848407744,7.9613117864990235,15.975305848407745L8.076751786499024,15.848505848407745L8.081451786499024,15.844205848407745Q8.471601786499024,15.483105848407746,9.000901786499023,15.483105848407746Q9.540631786499024,15.483105848407746,9.885111786499023,15.809205848407746L9.888701786499023,15.812605848407745L10.043231786499023,15.979505848407745Q10.567471786499024,16.545005848407747,11.390621786499024,16.545005848407747L11.390621786499024,16.845005848407745Q10.436501786499024,16.845005848407745,9.823091786499024,16.183305848407745L9.671921786499023,16.020005848407745L9.781991786499024,15.918105848407745L9.678861786499024,16.027105848407743Q9.421151786499024,15.783105848407745,9.000901786499023,15.783105848407745Q8.589121786499025,15.783105848407745,8.285231786499024,16.064405848407745L8.183341786499025,15.954305848407746L8.294251786499023,16.055305848407745L8.179931786499022,16.180805848407743Q7.766721786499024,16.620505848407745,7.125171786499023,16.775505848407747Q6.483591786499024,16.930505848407748,5.925511786499023,16.725105848407743Q5.554011786499023,16.586405848407743,4.867781786499023,16.189805848407744Q4.183271786499024,15.793405848407746,3.8653717864990234,15.528905848407746Q3.4045417864990233,15.134205848407746,3.2215317864990234,14.507005848407745Q3.0386217864990233,13.880105848407746,3.2150417864990235,13.304805848407746L3.2747217864990232,13.102805848407746L3.4185817864990233,13.145205848407745L3.2726317864990233,13.110605848407745Q3.3564117864990233,12.757405848407746,3.1442617864990234,12.387605848407745Q2.9362817864990234,12.021505848407745,2.5350217864990237,11.904105848407745L2.5771517864990234,11.760105848407745L2.5452217864990234,11.906705848407745L2.3942717864990235,11.873805848407745Q1.8042767864990235,11.743405848407745,1.3533737864990234,11.269515848407746Q0.9026121864990234,10.795735848407745,0.7966375864990234,10.196125848407746Q0.7277217864990234,9.831405848407746,0.7277217864990234,8.997955848407745Q0.7277217864990234,8.113015848407745,0.8001889864990235,7.7840058484077455L0.9466777864990235,7.816265848407745L0.7991105864990234,7.789365848407745Q0.9067222864990234,7.199155848407745,1.3557097864990235,6.7288958484077455Q1.8053207864990233,6.257975848407745,2.3920217864990234,6.122965848407746L2.6154717864990236,6.072115848407745L2.6487617864990236,6.218375848407745L2.6052217864990235,6.0748258484077455Q2.9383017864990233,5.973815848407745,3.1499117864990236,5.608365848407745Q3.3528817864990232,5.254915848407745,3.2633917864990236,4.844475848407745L3.4099517864990236,4.812525848407745L3.2666317864990235,4.856795848407746L3.2154017864990236,4.6909358484077455Q3.0383717864990234,4.109515848407746,3.2229617864990234,3.482575848407745Q3.4073517864990235,2.8563158484077453,3.8668617864990233,2.4693858484077453Q4.144441786499023,2.226662848407745,4.863441786499024,1.8079638484077454Q5.543481786499023,1.4162118484077453,5.925821786499023,1.2715368484077454Q6.499841786499023,1.0647368484077453,7.134511786499023,1.2175651484077454Q7.768961786499023,1.3703400484077453,8.179751786499024,1.8136508484077454L8.333581786499025,1.9789268484077454L8.223781786499023,2.0811228484077455L8.326901786499024,1.9721868484077454Q8.582531786499024,2.2141678484077456,9.002881786499023,2.2141678484077456Q9.414581786499024,2.2141678484077456,9.709681786499024,1.9398158484077452L9.811821786499024,2.0496738484077452L9.701241786499024,1.9483198484077455L9.825301786499024,1.8129928484077453Q10.238301786499024,1.3745620484077454,10.879721786499024,1.2200737484077453Q11.520521786499023,1.0657118484077452,12.076221786499023,1.2698852484077454Q12.432821786499023,1.4011097484077453,13.133921786499023,1.8054358484077455Q13.827921786499024,2.2070838484077453,14.141021786499023,2.4697358484077454Q14.599721786499023,2.8626358484077454,14.782021786499023,3.4893158484077453Q14.964421786499024,4.116065848407745,14.786821786499024,4.694515848407745L14.724421786499024,4.8852158484077455L14.581821786499024,4.838615848407745L14.728721786499024,4.8691458484077454Q14.647821786499023,5.258495848407746,14.849621786499023,5.610615848407745Q15.053121786499023,5.962195848407745,15.444321786499023,6.086825848407745L15.398721786499024,6.229745848407745L15.432421786499024,6.083575848407746L15.605421786499024,6.123415848407745Q16.19272178649902,6.252835848407745,16.643021786499023,6.725785848407745Q17.093321786499022,7.198895848407745,17.199921786499022,7.798485848407745Q17.268421786499022,8.170425848407746,17.272721786499023,8.994615848407745Q17.272721786499023,9.802835848407746,17.202621786499023,10.204685848407745Q17.094121786499024,10.796945848407745,16.645121786499026,11.267865848407745Q16.195821786499025,11.739205848407746,15.610121786499024,11.874205848407746L15.412521786499024,11.919705848407744L15.378921786499024,11.773505848407746L15.426821786499023,11.915605848407745Q15.051721786499023,12.042305848407745,14.854921786499023,12.390705848407745Q14.644921786499024,12.753405848407745,14.743021786499023,13.161705848407745L14.597121786499024,13.196805848407745L14.740221786499024,13.151705848407746L14.790421786499023,13.311305848407745Q14.965521786499023,13.891105848407745,14.780821786499024,14.517205848407745Q14.596221786499024,15.143305848407746,14.137821786499023,15.530305848407746Q13.862221786499024,15.772605848407744,13.137521786499024,16.191405848407747Q12.423921786499024,16.601305848407748,12.072321786499023,16.727805848407748Q11.741621786499023,16.846105848407745,11.391221786499024,16.845005848407745L11.390521786499024,16.845005848407745L11.390521786499024,16.545005848407747ZM9.000681786499024,14.733905848407746Q8.164751786499023,14.732805848407745,7.556781786499023,15.312105848407745L7.453301786499024,15.203505848407746L7.563221786499024,15.305605848407746L7.415361786499023,15.464805848407746Q7.219011786499023,15.673705848407746,6.885271786499024,15.755405848407745Q6.551081786499023,15.837305848407745,6.2884517864990235,15.741205848407745Q6.0245617864990235,15.647205848407745,5.389751786499024,15.280505848407746Q4.777581786499024,14.926005848407746,4.542831786499024,14.728905848407745Q4.3190917864990235,14.538205848407745,4.224551786499024,14.213505848407745Q4.129921786499024,13.888505848407746,4.215991786499023,13.606605848407746L4.282981786499024,13.374605848407745L4.427091786499023,13.416205848407746L4.281231786499023,13.381205848407745Q4.469371786499023,12.597405848407746,4.051491786499024,11.865305848407745Q3.6340817864990234,11.135165848407745,2.7966417864990234,10.888275848407746L2.8390617864990233,10.744395848407745L2.8063417864990234,10.890785848407745L2.6206817864990235,10.849285848407746Q2.337421786499023,10.786635848407744,2.1065517864990237,10.541745848407745Q1.8762297864990234,10.297435848407746,1.8247237864990233,10.005665848407745L1.9724417864990234,9.979585848407746L1.8269587864990235,10.016125848407745Q1.7727017864990233,9.800095848407745,1.7727017864990233,8.997955848407745Q1.7727017864990233,8.249405848407745,1.8259847864990233,7.981705848407746Q1.8778817864990234,7.697965848407746,2.1097417864990233,7.454595848407745Q2.3419417864990235,7.2108758484077455,2.6245417864990235,7.1461258484077455L2.8792417864990236,7.086705848407745L2.9133217864990235,7.232775848407745L2.8686917864990233,7.089575848407746Q3.6467917864990236,6.847075848407745,4.053471786499023,6.134645848407746Q4.472001786499023,5.407535848407745,4.277831786499023,4.590245848407745L4.423771786499024,4.555585848407745L4.280331786499024,4.599455848407745L4.214021786499023,4.382645848407746Q4.129071786499024,4.1028158484077455,4.224681786499024,3.7803158484077453Q4.3205917864990235,3.456815848407745,4.546011786499023,3.267145848407745L4.5488217864990235,3.264775848407745L4.551741786499024,3.2625558484077453Q4.549611786499023,3.2641758484077457,4.548331786499023,3.2652358484077455Q4.800081786499023,3.0584258484077456,5.3853217864990235,2.717645848407745Q6.021991786499023,2.3507258484077456,6.287041786499024,2.2563138484077454Q6.557541786499024,2.158393848407745,6.888501786499023,2.238437848407745Q7.219611786499024,2.318525848407745,7.415461786499024,2.5298558484077454L7.5918717864990235,2.717875848407745L7.482481786499023,2.8205158484077453L7.585791786499024,2.7117658484077456Q8.166361786499024,3.2633658484077452,9.002881786499023,3.2633658484077452Q9.838491786499024,3.2633658484077452,10.438381786499024,2.691835848407745L10.541851786499024,2.8004458484077457L10.432091786499024,2.698195848407745L10.588571786499024,2.530235848407745Q10.784621786499024,2.3216658484077453,11.118021786499023,2.240197848407745Q11.452621786499023,2.1584218484077455,11.716821786499024,2.2554818484077455L11.724721786499023,2.258395848407745L11.732321786499023,2.2621818484077454Q11.726521786499024,2.2592818484077455,11.722521786499023,2.2576918484077453Q12.030121786499024,2.3792958484077453,12.612521786499023,2.714595848407745Q13.325721786499024,3.1288558484077456,13.470721786499023,3.2759858484077453L13.363821786499024,3.3812458484077452L13.461321786499024,3.2672458484077453Q13.683121786499024,3.4569158484077454,13.779421786499023,3.7794558484077454Q13.875621786499023,4.101565848407745,13.792321786499024,4.372745848407746L13.791821786499023,4.374475848407745L13.722921786499024,4.580945848407746L13.580621786499023,4.533485848407745L13.725421786499023,4.572775848407746L13.712121786499024,4.621635848407745L13.567421786499024,4.582345848407746L13.713721786499024,4.615475848407746Q13.531221786499023,5.421465848407745,13.944521786499024,6.135165848407746Q14.361821786499023,6.857195848407746,15.155421786499023,7.095115848407746L15.112321786499024,7.2387958484077455L15.146721786499024,7.092805848407745L15.379421786499023,7.147665848407746Q15.655421786499023,7.208215848407745,15.888721786499023,7.4544958484077455Q16.12102178649902,7.699815848407745,16.171721786499024,7.9839858484077455L16.024021786499024,8.010305848407747L15.997521786499023,7.862665848407746L16.512121786499023,7.7703258484077455L16.565521786499023,8.065535848407745L16.051621786499023,8.159225848407745L16.024721786499022,8.011655848407745L16.174721786499024,8.011655848407745Q16.174721786499024,8.000805848407746,16.173721786499023,7.9940258484077455Q16.22462178649902,8.337035848407744,16.227721786499025,8.996575848407744Q16.227721786499025,9.657755848407746,16.176421786499024,10.003205848407745Q16.17732178649902,9.997055848407745,16.17732178649902,9.986265848407745L16.17732178649902,9.999845848407745L16.174921786499024,10.013205848407745Q16.122621786499025,10.299555848407746,15.890721786499023,10.542985848407746Q15.658821786499024,10.786365848407746,15.376221786499023,10.851725848407746L15.126121786499024,10.910495848407745L15.091721786499024,10.764465848407745L15.136821786499024,10.907545848407745Q14.358621786499024,11.152485848407744,13.950121786499023,11.864905848407746Q13.533221786499023,12.587005848407745,13.734521786499023,13.435805848407746L13.588621786499024,13.470405848407745L13.732121786499023,13.426905848407745L13.789821786499024,13.616905848407745Q13.874621786499024,13.896905848407746,13.779121786499024,14.219605848407745Q13.683221786499024,14.543105848407745,13.457921786499023,14.733305848407745L13.361221786499023,14.618705848407746L13.467921786499023,14.724105848407746Q13.317021786499023,14.876905848407745,12.617321786499023,15.281205848407746Q12.003521786499023,15.634205848407746,11.718721786499023,15.740205848407745Q11.442521786499023,15.839805848407746,11.111221786499023,15.758905848407746Q10.782611786499023,15.678605848407745,10.588251786499024,15.468705848407746L10.414791786499023,15.282305848407745L10.524601786499023,15.180105848407745L10.421271786499023,15.288805848407746Q9.837361786499024,14.733905848407746,9.000891786499023,14.733905848407746L9.000891786499023,14.433905848407745Q9.957171786499023,14.433905848407745,10.627941786499024,15.071405848407746L10.631281786499024,15.074505848407746L10.808391786499023,15.264905848407745Q10.941421786499024,15.408605848407745,11.182421786499024,15.467505848407745Q11.425821786499023,15.526905848407745,11.614021786499023,15.459105848407745Q11.875521786499023,15.361705848407745,12.467221786499023,15.021405848407746Q13.131921786499024,14.637405848407745,13.254421786499023,14.513305848407745L13.259221786499024,14.508405848407746L13.264421786499023,14.504005848407745Q13.421121786499024,14.371805848407746,13.491421786499023,14.134405848407745Q13.561521786499023,13.897905848407746,13.502721786499023,13.704005848407744L13.443721786499024,13.509605848407745L13.442621786499023,13.505105848407746Q13.213821786499024,12.540305848407746,13.689921786499024,11.715605848407746Q14.156721786499023,10.901535848407745,15.046721786499024,10.621385848407746L15.052021786499024,10.619715848407745L15.308621786499023,10.559445848407746Q15.503621786499023,10.514335848407745,15.673521786499023,10.336045848407746Q15.843621786499023,10.157505848407745,15.879821786499024,9.959315848407746L16.027321786499023,9.986265848407745L15.877321786499023,9.986265848407745Q15.877321786499023,9.974905848407746,15.879721786499024,9.959145848407745Q15.927721786499024,9.635605848407746,15.927721786499024,8.998005848407745Q15.924721786499024,8.359865848407745,15.876921786499024,8.038065848407745Q15.874721786499023,8.022945848407744,15.874721786499023,8.011655848407745L15.874721786499023,7.886525848407746L16.511621786499024,7.770405848407745L16.538521786499025,7.9179658484077455L16.565021786499024,8.065605848407746L15.902721786499024,8.184475848407747L15.876321786499023,8.036635848407744Q15.841421786499023,7.840905848407745,15.670821786499024,7.660795848407745Q15.501021786499024,7.4814758484077455,15.310621786499024,7.439665848407746L15.073521786499024,7.383765848407745L15.069221786499023,7.382485848407746Q14.161721786499024,7.110375848407745,13.684921786499023,6.285515848407745Q13.212621786499023,5.469975848407746,13.421121786499024,4.549215848407745L13.421821786499024,4.546115848407745L13.437021786499024,4.490075848407745L13.506621786499023,4.281275848407745L13.648921786499024,4.328735848407746L13.505521786499024,4.284715848407745Q13.562121786499024,4.100355848407745,13.491921786499024,3.8652758484077454Q13.420921786499024,3.6274558484077453,13.266321786499024,3.495255848407745L13.261521786499024,3.4910858484077454L13.257021786499024,3.486515848407745Q13.140321786499024,3.3680658484077455,12.462821786499024,2.9745958484077453Q11.899421786499023,2.6502258484077457,11.612221786499024,2.5366858484077452Q11.603921786499024,2.533405848407745,11.597821786499024,2.530375848407745L11.665021786499024,2.3962858484077456L11.613321786499023,2.5370758484077456Q11.435021786499023,2.4715558484077453,11.189221786499024,2.5316258484077454Q10.942321786499024,2.5919658484077455,10.808071786499024,2.7347358484077455L10.648551786499024,2.9059558484077455L10.645311786499024,2.9090458484077453Q9.958521786499023,3.5633658484077455,9.002881786499023,3.5633658484077455Q8.046571786499022,3.5633658484077455,7.379161786499023,2.9292558484077453L7.3760317864990235,2.9262858484077454L7.195421786499024,2.7337758484077455Q7.061101786499023,2.5888358484077454,6.817971786499023,2.530025848407745Q6.574771786499023,2.4712058484077453,6.387701786499023,2.5389258484077453Q6.148241786499024,2.6242158484077454,5.536281786499023,2.9768958484077457Q4.971881786499023,3.3055458484077453,4.738751786499023,3.4970458484077453Q4.735731786499024,3.4995358484077452,4.733431786499024,3.501285848407745L4.642591786499024,3.381915848407745L4.739161786499023,3.4966958484077453Q4.582631786499023,3.6284058484077453,4.512301786499023,3.8655958484077453Q4.442281786499024,4.101795848407745,4.500911786499024,4.294905848407746L4.568611786499023,4.516275848407745L4.569711786499024,4.520905848407745Q4.791391786499023,5.454015848407745,4.314011786499023,6.283365848407746Q3.8487917864990235,7.098355848407746,2.9579517864990232,7.375985848407745L2.9527317864990232,7.377615848407745L2.691541786499023,7.438545848407745Q2.4969017864990235,7.483145848407745,2.3269517864990235,7.661535848407746Q2.1568617864990234,7.840055848407745,2.1202117864990235,8.040275848407745Q2.0727017864990236,8.278975848407745,2.0727017864990236,8.997955848407745Q2.0727017864990236,9.762995848407746,2.117921786499023,9.943045848407746L2.1192217864990237,9.948235848407746L2.120151786499023,9.953505848407746Q2.1560617864990235,10.156925848407745,2.3248417864990234,10.335955848407746Q2.4923717864990236,10.513655848407746,2.6861217864990232,10.556515848407745L2.876671786499023,10.599105848407746L2.8814717864990236,10.600515848407746Q3.8346417864990237,10.881525848407746,4.312031786499023,11.716605848407745Q4.788811786499023,12.551805848407746,4.572941786499023,13.451205848407746L4.572151786499024,13.454605848407745L4.502921786499023,13.694205848407746Q4.442971786499023,13.890505848407745,4.512591786499023,14.129705848407745Q4.582021786499023,14.368205848407746,4.735721786499024,14.499105848407746Q4.950501786499023,14.679405848407745,5.5398117864990235,15.020805848407745Q6.150951786499023,15.373805848407745,6.391591786499023,15.459405848407746Q6.568431786499024,15.524205848407746,6.813891786499023,15.464105848407746Q7.061311786499023,15.403405848407745,7.195511786499023,15.260705848407746L7.346501786499023,15.098105848407746L7.349821786499024,15.094905848407745Q8.044881786499023,14.432605848407745,9.001091786499023,14.433905848407745L9.000681786499024,14.733905848407746ZM12.299721786499024,9.167245848407745Q12.299721786499024,10.543335848407745,11.332721786499024,11.519205848407745Q10.365171786499024,12.495605848407745,9.000231786499024,12.495605848407745Q7.633611786499023,12.494205848407745,6.667591786499023,11.519305848407745Q5.702131786499024,10.545005848407746,5.700691786499023,9.167405848407746Q5.700691786499023,7.790665848407746,6.667451786499023,6.815055848407745Q7.6347817864990235,5.838865848407745,9.000231786499024,5.838865848407745Q10.365281786499024,5.838865848407745,11.332721786499024,6.815045848407745Q12.299721786499024,7.7907858484077455,12.299721786499024,9.167245848407745ZM11.999721786499023,9.167245848407745Q11.999721786499023,7.914255848407746,11.119621786499023,7.026225848407745Q10.240231786499024,6.138865848407745,9.000231786499024,6.138865848407745Q7.7598517864990235,6.138855848407745,6.880551786499024,7.0262158484077455Q6.000691786499023,7.914135848407746,6.000691786499023,9.167085848407744Q6.002001786499023,10.421405848407746,6.880691786499024,11.308105848407745Q7.758821786499023,12.194305848407746,9.000231786499024,12.195605848407745Q10.240101786499023,12.195605848407745,11.119621786499023,11.308005848407745Q11.999721786499023,10.419865848407746,11.999721786499023,9.167245848407745ZM10.978621786499023,9.167245848407745Q10.978621786499023,8.340705848407746,10.398001786499023,7.754735848407745Q9.817911786499023,7.169325848407746,9.000231786499024,7.169325848407746Q8.182541786499023,7.169325848407746,7.602461786499023,7.754735848407745Q7.021801786499023,8.340705848407746,7.021801786499023,9.167245848407745Q7.021801786499023,9.993795848407744,7.602461786499023,10.579765848407746Q8.182551786499022,11.165175848407745,9.000231786499024,11.165175848407745Q9.817911786499023,11.165165848407746,10.398001786499023,10.579765848407746Q10.978621786499023,9.993795848407744,10.978621786499023,9.167245848407745ZM11.278621786499023,9.167245848407745Q11.278621786499023,10.117255848407746,10.611091786499024,10.790925848407745Q9.942971786499024,11.465205848407745,9.000231786499024,11.465205848407745Q8.057481786499023,11.465205848407745,7.389361786499023,10.790925848407745Q6.721801786499023,10.117255848407746,6.721801786499023,9.167245848407745Q6.721801786499023,8.217245848407746,7.389361786499023,7.543565848407745Q8.057481786499023,6.869335848407745,9.000231786499024,6.869325848407746Q9.942971786499024,6.869325848407746,10.611101786499024,7.543565848407745Q11.278621786499023,8.217245848407746,11.278621786499023,9.167245848407745Z" fill="#FCFDFF" fill-opacity="1"/></g><g></g></g><g style="mix-blend-mode:passthrough"></g></g></svg>