<svg xmlns="http://www.w3.org/2000/svg" xmlns:xlink="http://www.w3.org/1999/xlink" fill="none" version="1.1" width="17" height="16" viewBox="0 0 17 16"><g style="mix-blend-mode:passthrough"><g style="mix-blend-mode:passthrough"><g><path d="M7.49391,0C8.1694,0,8.8262,0.218136,9.36398,0.621C9.36398,0.621,10.7826,1.6842,10.7826,1.6842C10.7826,1.6842,13.1364,1.6842,13.1364,1.6842C15.2703,1.6842,17,3.38972,17,5.4937C17,5.4937,17,12.1905,17,12.1905C17,14.2945,15.2702,16,13.1364,16C13.1364,16,3.86364,16,3.86364,16C1.72975,16,0,14.2945,0,12.1905C0,12.1905,0,3.80951,0,3.80951C0,1.70554,1.72975,0,3.86364,0C3.86364,0,7.49391,0,7.49391,0C7.49391,0,7.49391,0,7.49391,0ZM7.49391,1.33334C7.49391,1.33334,3.86364,1.33334,3.86364,1.33334C2.5116,1.33334,1.40226,2.38864,1.35382,3.72083C1.35382,3.72083,1.35227,3.80951,1.35227,3.80951C1.35227,3.80951,1.35227,12.1905,1.35227,12.1905C1.35227,13.5236,2.42256,14.6174,3.77367,14.6651C3.77367,14.6651,3.86364,14.6667,3.86364,14.6667C3.86364,14.6667,13.1364,14.6667,13.1364,14.6667C14.4884,14.6667,15.5977,13.6114,15.6462,12.2792C15.6462,12.2792,15.6477,12.1905,15.6477,12.1905C15.6477,12.1905,15.6477,5.49373,15.6477,5.49373C15.6477,4.16063,14.5775,3.06682,13.2263,3.01905C13.2263,3.01905,13.1364,3.01751,13.1364,3.01751C13.1364,3.01751,10.7826,3.01751,10.7826,3.01751C10.5173,3.01751,10.258,2.94067,10.0368,2.7965C10.0368,2.7965,9.96431,2.74591,9.96431,2.74591C9.96431,2.74591,8.54597,1.68304,8.54597,1.68304C8.26921,1.47558,7.93571,1.35471,7.58857,1.33599C7.58857,1.33599,7.4939,1.33334,7.4939,1.33334C7.4939,1.33334,7.49391,1.33334,7.49391,1.33334Z" fill="#FCFDFF" fill-opacity="1"/></g></g><g><path d="M11.0659340234375,7.722543505859376C11.0659340234375,7.722543505859376,8.8177640234375,5.465545505859375,8.8177640234375,5.465545505859375C8.6421640234375,5.289276105859375,8.3575740234375,5.289276105859375,8.1819940234375,5.465545505859375C8.1819940234375,5.465545505859375,5.9338100234375,7.722543505859376,5.9338100234375,7.722543505859376C5.7582288234375,7.8988135058593745,5.7582288234375,8.184543505859375,5.9338100234375,8.360793505859375C6.1093910234375,8.537093505859374,6.3940170234375,8.537093505859374,6.5695980234375,8.360793505859375C6.5695980234375,8.360793505859375,8.0502540234375,6.874363505859375,8.0502540234375,6.874363505859375C8.0502540234375,6.874363505859375,8.0502540234375,11.201453505859375,8.0502540234375,11.201453505859375C8.0502540234375,11.450833505859375,8.2514440234375,11.652853505859376,8.4998840234375,11.652853505859376C8.7482940234375,11.652853505859376,8.949524023437501,11.450833505859375,8.949524023437501,11.201453505859375C8.949524023437501,11.201453505859375,8.949524023437501,6.874363505859375,8.949524023437501,6.874363505859375C8.949524023437501,6.874363505859375,10.4301740234375,8.360793505859375,10.4301740234375,8.360793505859375C10.5178540234375,8.448843505859376,10.6329640234375,8.493063505859375,10.7480640234375,8.493063505859375C10.8631740234375,8.493063505859375,10.9782840234375,8.449043505859375,11.0659640234375,8.360793505859375C11.2415440234375,8.184543505859375,11.2415440234375,7.8988135058593745,11.0659640234375,7.722543505859376C11.0659640234375,7.722543505859376,11.0659340234375,7.722543505859376,11.0659340234375,7.722543505859376Z" fill="#FCFDFF" fill-opacity="1"/><path d="M11.1722340234375,7.616683505859375Q11.3476440234375,7.792783505859375,11.3476440234375,8.041673505859375Q11.3476440234375,8.290563505859375,11.1722340234375,8.466653505859375Q10.9969640234375,8.643063505859375,10.7480640234375,8.643063505859375Q10.4995640234375,8.643063505859375,10.3238840234375,8.466633505859376L8.843254023437499,6.9802235058593745L8.949524023437501,6.874363505859375L9.0995240234375,6.874363505859375L9.0995240234375,11.201453505859375Q9.0995240234375,11.450443505859376,8.9241340234375,11.626523505859375Q8.7484940234375,11.802853505859375,8.4998840234375,11.802853505859375Q8.2512540234375,11.802853505859375,8.0756240234375,11.626523505859375Q7.900254023437499,11.450453505859375,7.900254023437499,11.201453505859375L7.900254023437499,6.874363505859375L8.0502540234375,6.874363505859375L8.1565240234375,6.9802235058593745L6.6758700234375,8.466653505859375Q6.5002240234375,8.643023505859375,6.2517040234375,8.643023505859375Q6.0031830234375,8.643013505859376,5.8275266234375,8.466643505859375Q5.6521240234375,8.290563505859375,5.6521240234375,8.041673505859375Q5.6521240234375,7.792783505859375,5.8275364234375004,7.616683505859375L8.0757140234375,5.359687305859375Q8.2513740234375,5.183343505859375,8.4998740234375,5.183343505859375Q8.7483640234375,5.183343505859375,8.9240340234375,5.359682405859375L11.1722040234375,7.616683505859375L10.959654023437501,7.8284035058593755L8.7114940234375,5.571408505859375Q8.6237640234375,5.483343505859375,8.4998740234375,5.483343505859375Q8.3759840234375,5.483343505859375,8.288264023437499,5.571403505859375L6.0400830234375,7.8284035058593755Q5.8276403234375,8.041673505859375,6.0400930234375,8.254943505859375Q6.1278080234375,8.343023505859374,6.2517040234375,8.343023505859374Q6.3756000234375,8.343023505859374,6.4633250234375,8.254933505859375L8.2002540234375,6.511233505859375L8.2002540234375,11.201453505859375Q8.2002540234375,11.326533505859375,8.2881740234375,11.414813505859374Q8.3758640234375,11.502853505859374,8.4998840234375,11.502853505859374Q8.6238840234375,11.502853505859374,8.7115840234375,11.414813505859374Q8.799524023437499,11.326523505859374,8.799524023437499,11.201453505859375L8.799524023437499,6.511233505859375L10.5364640234375,8.254953505859374Q10.6242040234375,8.343063505859375,10.7480640234375,8.343063505859375Q10.8721240234375,8.343063505859375,10.9596940234375,8.254933505859375Q11.1721340234375,8.041673505859375,10.9596940234375,7.8284035058593755L11.1722340234375,7.616683505859375Z" fill="#FCFDFF" fill-opacity="1"/></g></g></svg>