<svg xmlns="http://www.w3.org/2000/svg" xmlns:xlink="http://www.w3.org/1999/xlink" fill="none" version="1.1" width="18" height="18" viewBox="0 0 18 18"><g style="mix-blend-mode:passthrough"><g style="mix-blend-mode:passthrough"><g><path d="M7.369748474121094,13.884757161560058C7.068433474121094,13.881157161560058,6.798690474121094,13.725247161560059,6.6839544741210934,13.48837716156006C6.569217474121094,13.25151716156006,6.631554474121094,12.979307161560058,6.842523474121093,12.796397161560058L9.327878474121093,10.667687161560059L6.842523474121093,10.667687161560059C6.541211474121094,10.664097161560058,6.271468474121094,10.50817716156006,6.156732274121094,10.27131716156006C6.041996274121094,10.03444716156006,6.104454274121093,9.76226716156006,6.3154234741210935,9.579357161560058L9.327878474121093,7.002511161560059C9.624238474121093,6.750585861560059,10.104758474121095,6.750585861560059,10.401118474121095,7.002511161560059C10.697478474121095,7.254435161560059,10.697478474121095,7.662885161560059,10.401118474121095,7.914807161560058L8.650138474121093,9.403297161560058L11.154288474121094,9.403297161560058C11.455598474121093,9.406897161560059,11.725348474121095,9.562817161560059,11.840078474121093,9.799677161560059C11.954818474121094,10.036537161560059,11.892478474121095,10.30875716156006,11.681508474121093,10.49165716156006L7.896968474121094,13.692687161560059C7.757918474121094,13.813307161560058,7.568398474121094,13.882347161560059,7.369748474121094,13.884757161560058Z" fill="#FCFDFF" fill-opacity="1"/><path d="M11.616008474121093,10.416107161560058Q11.905838474121094,10.164817161560059,11.750088474121092,9.843277161560058Q11.587918474121093,9.508487161560058,11.153098474121094,9.50329716156006L8.378108474121094,9.50329716156006L10.336348474121094,7.838617161560059Q10.523388474121095,7.679624161560058,10.523388474121095,7.458660161560059Q10.523388474121095,7.237696161560058,10.336348474121094,7.078703161560059Q10.142088474121094,6.913567161560058,9.864498474121094,6.913567161560058Q9.586908474121094,6.913567161560058,9.392638474121094,7.078703161560059L6.380426474121093,9.655357161560058Q6.091019394121094,9.90626716156006,6.246729474121094,10.227717161560058Q6.408899474121093,10.56250716156006,6.843717474121094,10.567697161560059L9.598358474121094,10.567687161560059L6.907574474121094,12.872347161560057Q6.618194474121093,13.12323716156006,6.773951474121094,13.444787161560058Q6.9361214741210935,13.77957716156006,7.370938474121093,13.784767161560058L7.369748474121094,13.884757161560058L7.3685384741210935,13.784767161560058Q7.642028474121094,13.78145716156006,7.831438474121094,13.617147161560059L11.616928474121094,10.415307161560058L11.616008474121093,10.416107161560058ZM11.746088474121095,10.568017161560059L7.962498474121094,13.768227161560059Q7.717728474121094,13.980547161560057,7.370958474121094,13.984747161560058L7.3697584741210935,13.984767161560058L7.368548474121094,13.984747161560058Q6.810050474121094,13.978087161560058,6.593956474121094,13.531977161560059Q6.371393474121094,13.072517161560057,6.777472474121094,12.72044716156006L9.262818474121094,10.591737161560058L9.327878474121093,10.667687161560059L9.327878474121093,10.767687161560058L6.8413294741210935,10.767687161560058Q6.282828474121094,10.761017161560058,6.066734974121093,10.314907161560058Q5.844218474121094,9.855537161560058,6.250420474121094,9.503367161560059L9.263108474121093,6.926319161560059Q9.513388474121093,6.713567161560059,9.864498474121094,6.713567161560059Q10.215608474121094,6.713567161560059,10.465888474121094,6.926319161560059Q10.723388474121094,7.145211161560058,10.723388474121094,7.458660161560059Q10.723388474121094,7.772109161560058,10.465888474121094,7.990997161560059L8.714908474121094,9.479487161560058L8.650138474121093,9.403297161560058L8.650138474121093,9.303297161560058L11.155488474121093,9.303307161560058Q11.713988474121095,9.30997716156006,11.930078474121093,9.756087161560059Q12.152638474121094,10.215547161560059,11.747018474121095,10.567217161560059L11.746088474121095,10.568017161560059Z" fill="#363940" fill-opacity="1"/></g><g style="mix-blend-mode:passthrough"><rect x="5.149999976158142" y="0.6499999761581421" width="7.700000047683716" height="2.767793893814087" rx="0.3500000238418579" fill-opacity="0" stroke-opacity="1" stroke="#FCFDFF" fill="none" stroke-width="1.2999999523162842"/></g><g style="mix-blend-mode:passthrough"><path d="M2.149999976158142 5.39577329158783C2.149999976158142 4.291203791926243 3.0454304764965556 3.3957732915878296 4.149999976158142 3.3957732915878296L13.850000023841858 3.3957732915878296C14.954569523503444 3.3957732915878296 15.850000023841858 4.291203791926243 15.850000023841858 5.39577329158783L15.850000023841858 13.350000023841858C15.850000023841858 15.55913902316503 14.05913902316503 17.350000023841858 11.850000023841858 17.350000023841858L6.149999976158142 17.350000023841858C3.9408609768349687 17.350000023841858 2.149999976158142 15.55913902316503 2.149999976158142 13.350000023841858Z" fill-opacity="0" stroke-opacity="1" stroke="#FCFDFF" fill="none" stroke-width="1.2999999523162842"/></g></g><g style="mix-blend-mode:passthrough"></g></g></svg>