<svg xmlns="http://www.w3.org/2000/svg" xmlns:xlink="http://www.w3.org/1999/xlink" fill="none" version="1.1" width="52" height="52" viewBox="0 0 52 52"><g><g><g><path d="M31.1345,6.533324921875C29.8059,5.523872921875,28.1832,4.977294921875,26.5144,4.977294921875L17.54547,4.977294921875C12.2735,4.977294921875,8,9.250824921875001,8,14.522714921875L8,35.522794921875004C8,40.794694921875,12.2735,45.068194921875,17.54547,45.068194921875L40.4546,45.068194921875C45.7265,45.068194921875,50,40.794694921875,50,35.522794921875004L50,18.742794921875C50,13.470864921875,45.7265,9.197364921875,40.4546,9.197364921875L34.639399999999995,9.197364921875L31.1345,6.533324921875ZM26.5144,8.318214921875L26.7482,8.324864921875001C27.6059,8.371764921875,28.4298,8.674634921875,29.1136,9.194444921875L32.6177,11.857674921874999L32.7969,11.984444921875C33.3434,12.345674921875,33.984,12.538214921875,34.639399999999995,12.538214921875L40.4546,12.538214921875L40.6768,12.542084921875C44.0149,12.661784921875,46.6591,15.402494921875,46.6591,18.742794921875L46.6591,35.522794921875004L46.6553,35.744994921875005C46.5356,39.082994921875,43.7949,41.727294921875,40.4546,41.727294921875L17.54547,41.727294921875L17.32319,41.723494921875C13.98515,41.603794921875,11.3409,38.863094921875,11.3409,35.522694921875L11.3409,14.522714921875L11.34474,14.300504921875C11.46441,10.962474921875,14.20514,8.318214921875,17.54547,8.318214921875L26.5144,8.318214921875ZM28.2134,33.844294921875004L22.659100000000002,28.188994921875C22.2253,27.747294921875,22.2253,27.031394921875,22.659100000000002,26.589794921875C22.875700000000002,26.368594921875,23.1601,26.258294921875,23.4444,26.258294921875C23.7288,26.258294921875,24.0132,26.369094921875,24.2298,26.589794921875L27.8879,30.314294921875L27.8879,19.471994921875C27.8879,18.847094921874998,28.3851,18.340894921874998,28.9988,18.340894921874998C29.6126,18.340894921874998,30.1096,18.847094921874998,30.1096,19.471994921875L30.1096,30.314294921875L33.767700000000005,26.589794921875C34.201499999999996,26.147994921875,34.9047,26.147994921875,35.338499999999996,26.589794921875C35.7723,27.031394921875,35.7723,27.747294921875,35.338499999999996,28.188994921875L29.7842,33.844294921875004C29.3504,34.285994921875,28.6473,34.285994921875,28.2134,33.844294921875004Z" fill-rule="evenodd" fill="#FFFFFF" fill-opacity="0.03999999910593033"/><path d="M34.69,9.047364921875001L40.4546,9.047364921875001Q44.4706,9.047364921875001,47.3103,11.887034921875Q50.15,14.726654921875,50.15,18.742794921875L50.15,35.522794921875004Q50.15,39.538794921875,47.3103,42.378494921875Q44.4706,45.218094921875,40.4546,45.218194921875L17.54547,45.218194921875Q13.529309999999999,45.218194921875,10.68968,42.378494921875Q7.85,39.538794921875,7.85,35.522794921875004L7.85,14.522714921875Q7.849998,10.506664921875,10.68968,7.666984921875001Q13.52936,4.827294921875,17.54547,4.827294921875L26.5144,4.827294921875Q29.137,4.827292921875,31.2253,6.413904921875L34.69,9.047364921875001ZM31.0438,6.652744921875L34.5487,9.316784921875L34.588899999999995,9.347364921875L40.4546,9.347364921875Q44.3463,9.347364921875,47.0982,12.099164921875001Q49.85,14.850924921875,49.85,18.742794921875L49.85,35.522794921875004Q49.85,39.414594921875,47.0982,42.166394921875Q44.3464,44.918194921875,40.4546,44.918194921875L17.54547,44.918194921875Q13.65358,44.918194921875,10.90181,42.166394921875Q8.15,39.414594921875,8.15,35.522794921875004L8.15,14.522714921875Q8.149994,10.630924921875,10.90181,7.879114921875Q13.65364,5.127294921875,17.54547,5.127294921875L26.5144,5.127294921875Q29.036,5.127294921875,31.0438,6.652744921875ZM26.5165,8.168214921875L17.54547,8.168214921875Q14.97968,8.168214921875,13.13321,9.949644921874999Q11.286760000000001,11.731064921875,11.19476,14.297914921875L11.1909,14.522714921875L11.1909,35.522694921875Q11.1909,38.088594921875,12.97233,39.934994921875Q14.7538,41.781494921875,17.320610000000002,41.873394921875L17.54547,41.877294921875L40.4546,41.877294921875Q43.0204,41.877294921875,44.8668,40.095894921875Q46.7132,38.314394921875,46.8053,35.747594921875L46.8091,35.522794921875004L46.8091,18.742794921875Q46.8091,16.176994921875,45.0277,14.330574921875Q43.2463,12.484134921875,40.6794,12.392104921875L40.4546,12.388214921875L34.639399999999995,12.388214921875Q33.681,12.388214921875,32.8816,11.860604921875L32.7065,11.736704921874999L29.2044,9.075034921875Q28.1185,8.249574921875,26.7564,8.175084921875L26.7545,8.174974921875L26.5165,8.168214921875ZM13.3415,10.165544921875Q15.1008,8.468214921875,17.54547,8.468214921875L26.5122,8.468214921875L26.742,8.474744921875Q28.011,8.544694921875,29.0228,9.313854921875L32.528999999999996,11.978644921875L32.712199999999996,12.108264921875L32.714200000000005,12.109574921875Q33.589600000000004,12.688204921875,34.639399999999995,12.688214921875L40.4546,12.688214921875L40.6742,12.692064921875Q43.1145,12.779594921874999,44.8118,14.538874921875Q46.5091,16.298094921875,46.5091,18.742794921875L46.5091,35.522794921875004L46.5053,35.742394921875004Q46.4178,38.182594921875,44.6585,39.879994921875Q42.8992,41.577294921875,40.4546,41.577294921875L17.54547,41.577294921875L17.32578,41.573494921875Q14.8856,41.485994921875,13.18823,39.726694921875Q11.4909,37.967394921875,11.4909,35.522694921875L11.4909,14.522714921875L11.49471,14.303094921875Q11.58223,11.862864921875001,13.3415,10.165544921875ZM28.9988,34.325594921874995Q29.5217,34.325594921874995,29.8912,33.949394921875L35.445499999999996,28.294094921875Q36.3341,27.389294921875,35.445499999999996,26.484694921875Q35.0761,26.108494921875,34.5531,26.108494921875Q34.030100000000004,26.108494921875,33.6607,26.484694921875L30.2596,29.947494921875L30.2596,19.471994921875Q30.2596,18.190894921875,28.9988,18.190894921875Q28.4756,18.190894921875,28.1062,18.566994921875Q27.7379,18.941994921875,27.7379,19.471994921875L27.7379,29.947494921875L24.3369,26.484694921875Q23.967399999999998,26.108294921875,23.4444,26.108294921875Q22.9207,26.108294921875,22.552,26.484694921875Q21.6634,27.389394921875,22.5521,28.294094921875L28.1064,33.949394921875Q28.4759,34.325594921874995,28.9988,34.325594921874995ZM35.2315,28.083894921875L29.6771,33.739194921875Q29.3959,34.025594921875,28.9988,34.025594921875Q28.6017,34.025594921875,28.3204,33.739194921875L22.766199999999998,28.083894921875Q22.0839,27.389394921875,22.7661,26.694894921875Q23.046799999999998,26.408294921875,23.4444,26.408294921875Q23.8415,26.408294921875,24.1228,26.694894921875L28.0379,30.681094921875L28.0379,19.471994921875Q28.0379,19.064694921875002,28.3202,18.777194921875Q28.6014,18.490894921875,28.9988,18.490894921875Q29.9596,18.490894921875,29.9596,19.471994921875L29.9596,30.681094921875L33.874700000000004,26.694894921875Q34.156,26.408494921875,34.5531,26.408494921875Q34.950199999999995,26.408494921875,35.2315,26.694894921875Q35.9136,27.389394921875,35.2315,28.083894921875Z" fill-rule="evenodd" fill="#FFFFFF" fill-opacity="0.03999999910593033"/></g><g><path d="M20.4657,16.264705078125C19.4052,15.458976078125,18.11,15.022705078125,16.777900000000002,15.022705078125L9.619060000000001,15.022705078125C5.41104,15.022705078125,2,18.433785078125,2,22.641725078125L2,39.403705078125C2,43.611605078124995,5.41104,47.022705078125,9.619060000000001,47.022705078125L27.9048,47.022705078125C32.112700000000004,47.022705078125,35.5238,43.611605078124995,35.5238,39.403705078125L35.5238,26.010105078125C35.5238,21.802155078125,32.1128,18.391105078125,27.9048,18.391105078125L23.2632,18.391105078125L20.4657,16.264705078125ZM16.777900000000002,17.689375078125L16.9646,17.694685078125C17.6491,17.732115078125,18.3068,17.973865078125,18.8526,18.388775078125L21.6495,20.514525078125L21.7925,20.615715078125C22.2288,20.904045078125,22.7401,21.057725078125,23.2632,21.057725078125L27.9048,21.057725078125L28.0822,21.060815078125C30.7466,21.156355078125,32.8572,23.343965078125002,32.8572,26.010205078125L32.8572,39.403705078125L32.8541,39.581105078125C32.7586,42.245405078125,30.571,44.356005078125,27.9048,44.356005078125L9.619060000000001,44.356005078125L9.44164,44.353005078125C6.77726,44.257505078125,4.66666,42.069805078125,4.66666,39.403605078125L4.66666,22.641725078125L4.66972,22.464365078125C4.76524,19.799995078125,6.95285,17.689375078125,9.619060000000001,17.689375078125L16.777900000000002,17.689375078125ZM18.1341,38.064005078125L13.7007,33.550005078125C13.3544,33.197405078125,13.3544,32.626005078125004,13.7007,32.273505078125C13.8735,32.097005078125,14.1005,32.008905078125,14.3275,32.008905078125C14.5545,32.008905078125,14.7815,32.097405078125,14.9544,32.273505078125L17.874200000000002,35.246305078125005L17.874200000000002,26.592205078124998C17.874200000000002,26.093405078125002,18.2711,25.689405078125,18.7609,25.689405078125C19.2508,25.689405078125,19.6476,26.093405078125002,19.6476,26.592205078124998L19.6476,35.246305078125005L22.5674,32.273505078125C22.9137,31.920905078125,23.475,31.920905078125,23.8212,32.273505078125C24.1674,32.626005078125004,24.1674,33.197405078125,23.8212,33.550005078125L19.3878,38.064005078125C19.0416,38.416505078125,18.4804,38.416505078125,18.1341,38.064005078125Z" fill-rule="evenodd" fill="#11BAAC" fill-opacity="1"/><path d="M23.3138,18.241105078125L27.9048,18.241105078125Q31.1229,18.241105078125,33.398399999999995,20.516555078125002Q35.6738,22.792025078125,35.6738,26.010105078125L35.6738,39.403705078125Q35.6738,42.621805078125,33.3983,44.897205078125Q31.1229,47.172705078125,27.9048,47.172705078125L9.619060000000001,47.172705078125Q6.40093,47.172705078125,4.12546,44.897205078125Q1.85,42.621805078125,1.85,39.403705078125L1.85,22.641725078125Q1.850002,19.423625078125,4.12546,17.148165078125Q6.40092,14.872705078125,9.619060000000001,14.872705078125L16.777900000000002,14.872705078125Q18.8815,14.872704078125,20.5564,16.145285078125L23.3138,18.241105078125ZM20.3749,16.384125078125L23.1725,18.510525078125L23.2127,18.541105078125L27.9048,18.541105078125Q30.9986,18.541095078125,33.1862,20.728695078125Q35.3738,22.916275078125,35.3738,26.010105078125L35.3738,39.403705078125Q35.3738,42.497505078125,33.1862,44.685105078125005Q30.9986,46.872705078125,27.9048,46.872705078125L9.619060000000001,46.872705078125Q6.52519,46.872705078125,4.3375900000000005,44.685105078125005Q2.15,42.497505078125,2.15,39.403705078125L2.15,22.641725078125Q2.149998,19.547895078125002,4.3375900000000005,17.360305078125002Q6.52519,15.172705078125,9.619060000000001,15.172705078125L16.777900000000002,15.172705078125Q18.7804,15.172707078125,20.3749,16.384125078125ZM16.78,17.539375078125L9.619060000000001,17.539375078125Q7.55885,17.539375078125,6.07623,18.969785078125Q4.59363,20.400175078125,4.5197400000000005,22.461775078125L4.51666,22.641725078125L4.51666,39.403605078125Q4.51666,41.463905078124995,5.9470600000000005,42.946505078125Q7.37744,44.429105078125005,9.43906,44.502905078124996L9.619060000000001,44.506005078125L27.9048,44.506005078125Q29.965,44.506005078125,31.4476,43.075605078125Q32.9302,41.645205078125,33.0041,39.583605078125004L33.0072,39.403705078125L33.0072,26.010205078125Q33.0071,23.949965078125,31.5768,22.467345078125Q30.1464,20.984745078125002,28.0848,20.910835078125L27.9048,20.907725078125L23.2632,20.907725078125Q22.5075,20.907725078125,21.8772,20.491865078125L21.7383,20.393565078125L18.9433,18.269365078125Q18.0693,17.604865078125002,16.9728,17.544905078125L16.9708,17.544805078125002L16.78,17.539375078125ZM6.28453,19.185685078125Q7.67998,17.839375078125,9.619060000000001,17.839375078125L16.7758,17.839375078125L16.9583,17.844565078125Q17.9618,17.899985078125,18.7618,18.508185078125L21.5608,20.635495078125L21.7078,20.739535078125L21.7098,20.740845078125Q22.4162,21.207725078125,23.2632,21.207725078125L27.9048,21.207725078125L28.0796,21.210795078125Q30.0146,21.280205078125,31.3609,22.675645078125Q32.7072,24.071095078124998,32.7072,26.010205078125L32.7072,39.403705078125L32.7041,39.578505078125005Q32.634699999999995,41.513405078125004,31.2393,42.859705078125Q29.8438,44.206005078125,27.9048,44.206005078125L9.619060000000001,44.206005078125L9.444230000000001,44.203005078125Q7.50924,44.133605078125,6.16296,42.738205078125Q4.816660000000001,41.342705078125,4.816660000000001,39.403605078125L4.816660000000001,22.641725078125L4.8197,22.466955078125Q4.8891,20.531975078125,6.28453,19.185685078125ZM18.761,38.478405078125Q19.1911,38.478405078125,19.4948,38.169105078125L23.9282,33.655105078125004Q24.6583,32.911705078124996,23.9282,32.168405078125005Q23.6245,31.859005078125,23.1943,31.859005078125Q22.7642,31.859005078125,22.4604,32.168405078125005L19.7976,34.879505078125L19.7976,26.592205078124998Q19.7976,26.156705078125,19.495,25.848605078125Q19.1913,25.539405078125,18.7609,25.539405078125Q17.7243,25.539405078125,17.7242,26.592205078124998L17.7242,34.879505078125L15.0615,32.168405078125005Q14.7576,31.858905078125,14.3275,31.858905078125Q13.8968,31.858905078125,13.5936,32.168405078125005Q12.8635,32.911705078124996,13.5937,33.655105078125004L18.0271,38.169105078125Q18.3309,38.478405078125,18.761,38.478405078125ZM23.7142,33.444905078125004L19.2808,37.958905078125Q19.0652,38.178405078124996,18.761,38.178405078124996Q18.4567,38.178405078124996,18.2411,37.958805078124996L13.8077,33.444905078125004Q13.284,32.911705078124996,13.8077,32.378605078125Q14.0228,32.158905078125,14.3275,32.158905078125Q14.6318,32.158905078125,14.8474,32.378605078125L18.0243,35.613105078125L18.0243,26.592205078124998Q18.0243,25.839405078125,18.7609,25.839405078125Q19.0654,25.839405078125,19.281,26.058805078124998Q19.4976,26.279405078125002,19.4976,26.592205078124998L19.4976,35.613105078125L22.6744,32.378605078125Q22.8901,32.159005078125,23.1943,32.159005078125Q23.4986,32.159005078125,23.7142,32.378605078125Q24.2378,32.911705078124996,23.7142,33.444905078125004Z" fill-rule="evenodd" fill="#11BAAC" fill-opacity="1"/></g></g></g></svg>