<svg xmlns="http://www.w3.org/2000/svg" xmlns:xlink="http://www.w3.org/1999/xlink" fill="none" version="1.1" width="52" height="52" viewBox="0 0 52 52"><g><g><g><path d="M44.88093773193359,5C48.20773773193359,5,50.904737731933594,7.81429,50.904737731933594,11.285730000000001L50.904737731933594,19.2857C50.904737731933594,20.2325,50.16923773193359,21,49.26193773193359,21C47.14483773193359,21,45.428537731933595,22.7909,45.428537731933595,25C45.428537731933595,27.2091,47.14483773193359,29,49.26193773193359,29C50.16923773193359,29,50.904737731933594,29.7675,50.904737731933594,30.7143L50.904737731933594,38.7143C50.904737731933594,42.1857,48.20773773193359,45,44.88093773193359,45L13.119027731933594,45C9.792257731933594,45,7.095237731933594,42.1857,7.095237731933594,38.7143L7.095237731933594,30.7144C7.095237731933594,29.7675,7.830782731933594,29.0001,8.738107731933594,29.0001C10.855207731933593,29.0001,12.571447731933594,27.2092,12.571447731933594,25.0001C12.571447731933594,22.7909,10.855207731933593,21,8.738107731933594,21C7.830782731933594,21,7.095257393133593,20.2325,7.095237731933594,19.285800000000002L7.095237731933594,11.285730000000001C7.095237731933594,7.81429,9.792257731933594,5,13.119027731933594,5L44.88093773193359,5ZM44.88093773193359,8.42859L13.119027731933594,8.42859C11.606827731933594,8.42859,10.380957731933593,9.70776,10.380957731933593,11.285730000000001L10.380957731933593,17.7703C13.520417731933595,18.544,15.857127731933593,21.4874,15.857127731933593,25C15.857127731933593,28.5126,13.520437731933594,31.4561,10.380917731933593,32.2298L10.380917731933593,38.7143C10.380917731933593,40.2923,11.606807731933593,41.5715,13.118987731933593,41.5715L44.881037731933596,41.5715C46.393237731933596,41.5715,47.619037731933595,40.2923,47.619037731933595,38.7143L47.619037731933595,32.2298C44.47963773193359,31.4561,42.1428377319336,28.5126,42.1428377319336,25C42.1428377319336,21.4874,44.4795377319336,18.544,47.61913773193359,17.7703L47.61913773193359,11.285730000000001C47.61913773193359,9.70772,46.393237731933596,8.42855,44.88093773193359,8.42859ZM29.000037731933595,17.8572C29.907337731933595,17.8572,30.642837731933593,18.6247,30.642837731933593,19.5715L30.642337731933594,23.5715L34.476237731933594,23.5715C35.3462377319336,23.5715,36.065337731933596,24.2791,36.1163377319336,25.1853L36.119037731933595,25.2857C36.119037731933595,26.2325,35.38353773193359,27,34.476237731933594,27L30.642837731933593,27L30.642837731933593,31C30.642837731933593,31.9079,29.964737731933592,32.6583,29.096337731933595,32.7115L29.000037731933595,32.7143C28.092637731933593,32.7143,27.357137731933594,31.9468,27.357137731933594,31L27.357137731933594,27L23.523837731933593,27C22.653737731933596,27,21.93463773193359,26.2924,21.883637731933593,25.3862L21.880937731933592,25.2857C21.880937731933592,24.3389,22.616437731933594,23.5714,23.523837731933593,23.5714L27.356637731933592,23.5714L27.357137731933594,19.5714C27.357137731933594,18.663600000000002,28.035237731933595,17.9132,28.903737731933592,17.86L29.000037731933595,17.8572Z" fill="#FFFFFF" fill-opacity="0.03999999910593033"/></g><g><path d="M31.323837731933594,15C33.985237731933594,15,36.1428377319336,17.25143,36.1428377319336,20.028579999999998L36.1428377319336,26.4286C36.1428377319336,27.186,35.5544377319336,27.8,34.828537731933594,27.8C33.134837731933594,27.8,31.761937731933592,29.2327,31.761937731933592,31C31.761937731933592,32.7673,33.134837731933594,34.2,34.828537731933594,34.2C35.5544377319336,34.2,36.1428377319336,34.814,36.1428377319336,35.5714L36.1428377319336,41.9714C36.1428377319336,44.748599999999996,33.985237731933594,47,31.323837731933594,47L5.914277731933594,47C3.252857731933594,47,1.0952377319335938,44.748599999999996,1.0952377319335938,41.9714L1.0952377319335938,35.5715C1.0952377319335938,34.814,1.6836737319335937,34.2001,2.409537731933594,34.2001C4.103207731933594,34.2001,5.476207731933593,32.7673,5.476207731933593,31.0001C5.476207731933593,29.2327,4.103207731933594,27.8,2.409537731933594,27.8C1.6836737319335937,27.8,1.0952534608335938,27.186,1.0952377319335938,26.4286L1.0952377319335938,20.028579999999998C1.0952377319335938,17.25143,3.252857731933594,15,5.914277731933594,15L31.323837731933594,15ZM31.323837731933594,17.74287L5.914277731933594,17.74287C4.704507731933594,17.74287,3.7238077319335936,18.76621,3.7238077319335936,20.028579999999998L3.7238077319335936,25.2162C6.2353777319335935,25.8352,8.104747731933593,28.1899,8.104747731933593,31C8.104747731933593,33.8101,6.235397731933594,36.1648,3.723777731933594,36.7838L3.723777731933594,41.9715C3.723777731933594,43.2339,4.704497731933594,44.2572,5.914237731933594,44.2572L31.323837731933594,44.2572C32.533637731933595,44.2572,33.514337731933594,43.2339,33.514337731933594,41.9715L33.514337731933594,36.7838C31.002737731933593,36.1648,29.133337731933594,33.8101,29.133337731933594,31C29.133337731933594,28.1899,31.002737731933593,25.8352,33.514337731933594,25.2162L33.514337731933594,20.028579999999998C33.514337731933594,18.76618,32.533637731933595,17.74284,31.323837731933594,17.74287ZM18.619037731933595,25.2857C19.344937731933594,25.2857,19.933337731933594,25.8997,19.933337731933594,26.6572L19.932937731933595,29.8572L23.000037731933595,29.8572C23.696037731933593,29.8572,24.271337731933595,30.423299999999998,24.312137731933593,31.1482L24.314337731933595,31.2286C24.314337731933595,31.986,23.725937731933595,32.6,23.000037731933595,32.6L19.933337731933594,32.6L19.933337731933594,35.8C19.933337731933594,36.5263,19.390837731933594,37.126599999999996,18.696137731933593,37.169200000000004L18.619037731933595,37.1715C17.893237731933592,37.1715,17.304737731933592,36.557500000000005,17.304737731933592,35.8L17.304737731933592,32.6L14.238137731933593,32.6C13.542037731933593,32.6,12.966737731933593,32.0339,12.925937731933594,31.309L12.923737731933594,31.2286C12.923737731933594,30.4712,13.512237731933594,29.857100000000003,14.238037731933593,29.857100000000003L17.304337731933593,29.857100000000003L17.304737731933592,26.6571C17.304737731933592,25.9309,17.847237731933593,25.3305,18.542037731933593,25.288L18.619037731933595,25.2857Z" fill="#11BAAC" fill-opacity="1"/></g></g></g></svg>