<svg xmlns="http://www.w3.org/2000/svg" xmlns:xlink="http://www.w3.org/1999/xlink" fill="none" version="1.1" width="16.200439453125" height="17.196044921875" viewBox="0 0 16.200439453125 17.196044921875"><g><g><path d="M8.415018422180175,17.0959755859375C8.075239422180175,17.0959755859375,7.799790362180175,16.8205755859375,7.799790362180175,16.4807755859375L7.799790362180175,13.8275755859375C7.799790362180175,13.4877755859375,8.075239422180175,13.2123755859375,8.415018422180175,13.2123755859375C8.754797422180175,13.2123755859375,9.030247422180176,13.4877755859375,9.030247422180176,13.8275755859375L9.030247422180176,16.4807755859375C9.030247422180176,16.8205755859375,8.754797422180175,17.0959755859375,8.415018422180175,17.0959755859375ZM8.415018422180175,9.4440955859375C8.075239422180175,9.4440955859375,7.799790362180175,9.1686455859375,7.799790362180175,8.8288655859375L7.799790362180175,6.7909255859375C7.799790362180175,6.4511455859375,8.075239422180175,6.1756955859375,8.415018422180175,6.1756955859375C8.754797422180175,6.1756955859375,9.030247422180176,6.4511455859375,9.030247422180176,6.7909255859375L9.030247422180176,8.8288655859375C9.030247422180176,9.1686455859375,8.754797422180175,9.4440955859375,8.415018422180175,9.4440955859375ZM8.406616422180175,2.2920755859375L8.401060422180176,2.2920555859375C8.061281422180176,2.2890555859375,7.788293892180175,2.0111655859375,7.791312205480176,1.6714055859375L7.799829422180176,0.7097435859375C7.802828922180176,0.3718485859375,8.077701422180176,0.0999755859375,8.414923422180175,0.0999755859375L8.420479422180176,0.0999948306375C8.760258422180176,0.1029940859375,9.033247422180176,0.3808845859375,9.030247422180176,0.7206445859375L9.021727422180176,1.6823055859375C9.018707422180176,2.0201955859375,8.743838422180175,2.2920755859375,8.406616422180175,2.2920755859375Z" fill="#2A3331" fill-opacity="1"/><path d="M8.909877422180175,2.1849355859375Q9.119097422180175,1.9776855859375,9.121727422180175,1.6831955859375L9.121727422180175,1.6831855859375L9.130247422180176,0.7215265859375Q9.132857422180177,0.4252835859375,8.925237422180176,0.2139535859375Q8.717612422180176,0.0026137859375000017,8.420825422180176,-0.000004614062500005178L8.414923422180175,-0.00002441406250000555Q8.120752422180177,-0.00002441406250000555,7.911665422180175,0.2071065859375Q7.702447522180176,0.4143675859375,7.699833322180176,0.7088575859375L7.691316122180176,1.6705155859375Q7.688684422180176,1.9667555859375,7.896302422180176,2.1780955859375Q8.103924422180176,2.3894355859375,8.400717422180175,2.3920555859375L8.406617422180176,2.3920755859375Q8.700785422180175,2.3920755859375,8.909877422180175,2.1849355859375ZM8.921737422180176,1.6814055859375L8.921737422180176,1.6814155859375Q8.919837422180176,1.8935555859375,8.769122422180176,2.0428555859374997Q8.618494422180175,2.1920755859375,8.406617422180176,2.1920755859375L8.401404422180176,2.1920555859375Q8.188535422180175,2.1901755859375,8.038972422180176,2.0379355859375Q7.889412422180175,1.8856955859375,7.891308422180176,1.6722955859375L7.899825422180176,0.7106285859375Q7.901708422180175,0.4984935859375,8.052420422180175,0.3491915859375Q8.203045422180177,0.1999755859375,8.414923422180175,0.1999755859375L8.420132422180176,0.1999945859375Q8.633003422180176,0.20187458593750002,8.782570422180175,0.3541155859375Q8.932137422180176,0.5063545859375,8.930247422180177,0.7197615859375L8.921737422180176,1.6814055859375ZM8.920757422180175,9.3346055859375Q9.130247422180176,9.1251255859375,9.130247422180176,8.8288655859375L9.130247422180176,6.7909255859375Q9.130247422180176,6.4946655859375,8.920757422180175,6.2851855859375Q8.711274422180177,6.0756955859375,8.415018422180175,6.0756955859375Q8.118762422180176,6.0756955859375,7.9092764221801755,6.2851855859375Q7.699790322180176,6.4946655859375,7.699790322180176,6.7909255859375L7.699790422180175,8.8288655859375Q7.699790322180176,9.1251255859375,7.9092764221801755,9.3346055859375Q8.118764422180176,9.5440955859375,8.415018422180175,9.5440955859375Q8.711272422180176,9.5440955859375,8.920757422180175,9.3346055859375ZM8.930247422180177,6.7909255859375L8.930247422180177,8.8288655859375Q8.930247422180177,9.0422755859375,8.779338422180176,9.1931855859375Q8.628430422180175,9.3440955859375,8.415018422180175,9.3440955859375Q8.201606422180175,9.3440955859375,8.050697422180177,9.1931855859375Q7.899790422180176,9.0422755859375,7.899790422180176,8.8288655859375L7.899790422180176,6.7909255859375Q7.899790422180176,6.5775155859375,8.050697422180177,6.4266055859375Q8.201604422180175,6.2756955859375,8.415018422180175,6.2756955859375Q8.628431422180176,6.2756955859375,8.779338422180176,6.4266055859375Q8.930247422180177,6.5775155859375,8.930247422180177,6.7909255859375ZM8.920757422180175,16.9864755859375Q9.130247422180176,16.7769755859375,9.130247422180176,16.4807755859375L9.130247422180176,13.8275755859375Q9.130247422180176,13.5313755859375,8.920757422180175,13.3218755859375Q8.711274422180177,13.1123755859375,8.415018422180175,13.1123755859375Q8.118762422180176,13.1123755859375,7.9092764221801755,13.3218755859375Q7.699790322180176,13.5313755859375,7.699790322180176,13.8275755859375L7.699790422180175,16.4807755859375Q7.699790322180176,16.7769755859375,7.9092764221801755,16.9864755859375Q8.118761422180176,17.1959755859375,8.415018422180175,17.1959755859375Q8.711274422180177,17.1959755859375,8.920757422180175,16.9864755859375ZM8.930247422180177,13.8275755859375L8.930247422180177,16.4807755859375Q8.930247422180177,16.6941755859375,8.779338422180176,16.8450755859375Q8.628431422180176,16.9959755859375,8.415018422180175,16.9959755859375Q8.201604422180175,16.9959755859375,8.050697422180177,16.8450755859375Q7.899790422180176,16.6941755859375,7.899790422180176,16.4807755859375L7.899790422180176,13.8275755859375Q7.899790422180176,13.6141755859375,8.050697422180177,13.4632755859375Q8.201603422180176,13.3123755859375,8.415018422180175,13.3123755859375Q8.628433422180176,13.3123755859375,8.779338422180176,13.4632755859375Q8.930247422180177,13.6141755859375,8.930247422180177,13.8275755859375Z" fill-rule="evenodd" fill="#2A3331" fill-opacity="1"/></g><g><path d="M15.465760260772704,2.416639518699646L2.964788260772705,2.416639518699646C2.625009260772705,2.416639518699646,2.349560260772705,2.141186518699646,2.349560260772705,1.801407518699646C2.349560260772705,1.461628518699646,2.625009260772705,1.186179518699646,2.964788260772705,1.186179518699646L15.465760260772704,1.186179518699646C15.805560260772705,1.186179518699646,16.080960260772706,1.461628518699646,16.080960260772706,1.801407518699646C16.080960260772706,2.141186518699646,15.805560260772705,2.416639518699646,15.465760260772704,2.416639518699646ZM15.465760260772704,7.396139518699646L2.964788260772705,7.396139518699646C2.625009260772705,7.396139518699646,2.349560260772705,7.120689518699646,2.349560260772705,6.780909518699646C2.349560260772705,6.441129518699646,2.625009260772705,6.165679518699646,2.964788260772705,6.165679518699646L15.465760260772704,6.165679518699646C15.805560260772705,6.165679518699646,16.080960260772706,6.441129518699646,16.080960260772706,6.780909518699646C16.080960260772706,7.120689518699646,15.805560260772705,7.396139518699646,15.465760260772704,7.396139518699646Z" fill="#2A3331" fill-opacity="1"/><path d="M15.971460260772705,2.307149518699646Q16.180960260772707,2.097661518699646,16.180960260772707,1.801407518699646Q16.180960260772707,1.5051535186996459,15.971460260772705,1.295665518699646Q15.762060260772705,1.086179518699646,15.465760260772704,1.086179518699646L2.964788260772705,1.086179618699646Q2.668532260772705,1.086179618699646,2.459046260772705,1.295665518699646Q2.249560260772705,1.505151518699646,2.249560260772705,1.801407518699646Q2.249560260772705,2.0976635186996457,2.459046260772705,2.307149518699646Q2.668532260772705,2.516639518699646,2.964788260772705,2.516639518699646L15.465760260772704,2.516639518699646Q15.762060260772705,2.516639518699646,15.971460260772705,2.307149518699646ZM15.830060260772704,1.437086518699646Q15.980960260772704,1.587995518699646,15.980960260772704,1.801407518699646Q15.980960260772704,2.014819518699646,15.830060260772704,2.165727518699646Q15.679160260772704,2.3166395186996462,15.465760260772704,2.3166395186996462L2.964788260772705,2.3166395186996462Q2.751375260772705,2.3166395186996462,2.600467260772705,2.165727518699646Q2.449560260772705,2.014820518699646,2.449560260772705,1.801407518699646Q2.449560260772705,1.587994518699646,2.600468260772705,1.437087518699646Q2.751375260772705,1.286179518699646,2.964788260772705,1.286179518699646L15.465760260772704,1.286179518699646Q15.679160260772704,1.286179518699646,15.830060260772704,1.437086518699646ZM15.971460260772705,7.286649518699646Q16.180960260772707,7.077169518699646,16.180960260772707,6.780909518699646Q16.180960260772707,6.484649518699646,15.971460260772705,6.275169518699646Q15.762060260772705,6.065679518699646,15.465760260772704,6.065679518699646L2.964788260772705,6.065679518699646Q2.668532260772705,6.065679518699646,2.459046260772705,6.275169518699646Q2.249560260772705,6.484649518699646,2.249560260772705,6.780909518699646Q2.249560260772705,7.077159518699646,2.459046260772705,7.286649518699646Q2.668532260772705,7.496139518699646,2.964788260772705,7.496139518699646L15.465760260772704,7.496139518699646Q15.762060260772705,7.496139518699646,15.971460260772705,7.286649518699646ZM15.830060260772704,6.416589518699646Q15.980960260772704,6.567499518699646,15.980960260772704,6.780909518699646Q15.980960260772704,6.994319518699646,15.830060260772704,7.145229518699646Q15.679160260772704,7.296139518699646,15.465760260772704,7.296139518699646L2.964788260772705,7.296139518699646Q2.751375260772705,7.296139518699646,2.600467260772705,7.145229518699646Q2.449560260772705,6.994319518699646,2.449560260772705,6.780909518699646Q2.449560260772705,6.567499518699646,2.600467260772705,6.416589518699646Q2.751375260772705,6.265679518699646,2.964788260772705,6.265679518699646L15.465760260772704,6.265679518699646Q15.679160260772704,6.265679518699646,15.830060260772704,6.416589518699646Z" fill-rule="evenodd" fill="#2A3331" fill-opacity="1"/></g><g><path d="M2.8523197265625,7.283186579360962C2.6801297265625,7.283186579360962,2.5089597265625,7.211336579360962,2.3872797265625,7.071046579360962L0.2506907265625,4.607636579360962C0.028055126562500005,4.350950579360962,0.0556634265625,3.962375579360962,0.3123677265625,3.739759579360962C0.5690707265625,3.517143179360962,0.9576067265625,3.544732379360962,1.1802397265625,3.8014365793609617L3.3168297265625,6.264846579360961C3.5394697265625,6.521536579360962,3.5118597265625,6.910106579360962,3.2551597265625,7.132726579360962C3.1434497265625,7.2298865793609615,3.0003597265625,7.283326579360962,2.8523197265625,7.283186579360962Z" fill="#2A3331" fill-opacity="1"/><path d="M3.3206697265625,7.208276579360962L3.3207797265625,7.208176579360962Q3.5444997265625,7.014096579360961,3.5654997265625,6.718646579360962Q3.5864997265625,6.423136579360962,3.3923797265625,6.199326579360962L1.2557897265625,3.735916579360962Q1.0616747265625,3.512099579360962,0.7661677265625,3.491104279360962Q0.4706727265625,3.4701095793609618,0.2468507265625,3.664211279360962Q0.023028226562500004,3.858312579360962,0.002028226562499999,4.1538335793609615Q-0.018971273437500005,4.449350579360962,0.17514662656250002,4.6731565793609615L2.3117397265625,7.136566579360962Q2.5256397265625,7.383186579360962,2.8522197265625,7.383186579360962Q3.1192097265625,7.383446579360962,3.3206697265625,7.208276579360962ZM3.3659997265625,6.704476579360962Q3.3508697265625,6.917356579360962,3.1896397265625,7.057176579360962L3.1895297265625,7.057266579360962Q3.0445497265625,7.183366579360962,2.8524097265625,7.183186579360962Q2.6169197265625,7.183186579360962,2.4628197265625,7.0055265793609625L0.32623472656249997,4.542112579360962Q0.1863976265625,4.380889579360962,0.2015247265625,4.168009579360962Q0.2166527265625,3.9551295793609618,0.3778837265625,3.815308579360962Q0.5391257265625,3.675477479360962,0.7519937265625,3.690601579360962Q0.9648637265625,3.705725579360962,1.1046997265625,3.866955579360962L3.2412897265625,6.3303665793609625Q3.3811297265625,6.491596579360962,3.3659997265625,6.704476579360962Z" fill-rule="evenodd" fill="#2A3331" fill-opacity="1"/></g><g><path d="M0.715553054159319,4.821845746002197C0.567916054159319,4.821995746002197,0.425189054159319,4.768845746002198,0.31361705415931906,4.672155746002197C0.05649005415931903,4.450015746002197,0.028131854159319028,4.061525746002197,0.250268054159319,3.8043957460021973L2.323716054159319,1.4044127460021973C2.545876054159319,1.1473048460021973,2.934356054159319,1.1189466460021973,3.191476054159319,1.3410627460021973C3.448606054159319,1.5631987460021972,3.476966054159319,1.9516957460021973,3.2548260541593192,2.208825746002197L1.181376054159319,4.608805746002197C1.059696054159319,4.7496557460021975,0.8881050541593191,4.821845746002197,0.715553054159319,4.821845746002197ZM15.464376054159318,7.340865746002197C15.292176054159318,7.340865746002197,15.12107605415932,7.269015746002197,14.999376054159319,7.128725746002197L12.862776054159319,4.6653157460021975C12.640176054159319,4.408625746002198,12.667776054159319,4.020055746002197,12.924476054159319,3.7974357460021975C13.18117605415932,3.574835746002197,13.569676054159318,3.602425746002197,13.79227605415932,3.8591157460021974L15.92887605415932,6.322545746002198C16.151576054159317,6.579225746002197,16.123976054159318,6.967805746002197,15.86727605415932,7.190415746002198C15.755576054159318,7.287565746002198,15.61247605415932,7.341005746002197,15.464376054159318,7.340865746002197Z" fill="#2A3331" fill-opacity="1"/><path d="M0.715553054159319,4.921845746002197Q1.0430870541593191,4.921845746002197,1.2570460541593191,4.674185746002197L3.330506054159319,2.2741957460021975Q3.524186054159319,2.0500077460021973,3.502616054159319,1.7545407460021973Q3.481046054159319,1.4590707460021972,3.256846054159319,1.2653883460021973Q3.032666054159319,1.0717257460021972,2.737206054159319,1.0932941460021972Q2.441746054159319,1.1148629460021973,2.2480460541593192,1.3390367460021972L0.17459585415931902,3.739025746002197Q-0.019084945840680975,3.9632157460021973,0.0024841541593190325,4.258675746002197Q0.024053554159319035,4.554145746002197,0.24812705415931902,4.747725746002198Q0.44936505415931904,4.922115746002197,0.715553054159319,4.921845746002197ZM3.179156054159319,2.143448746002197L1.105706054159319,4.5434357460021975Q0.9515700541593191,4.721845746002197,0.715553054159319,4.721845746002197Q0.523879054159319,4.722045746002197,0.379107054159319,4.596585746002197Q0.21749105415931902,4.456965746002197,0.20195305415931902,4.244115746002198Q0.18641555415931904,4.031275746002198,0.325939054159319,3.869775746002197L2.399386054159319,1.4697877460021973Q2.538926054159319,1.3083007460021974,2.751766054159319,1.2927637460021972Q2.964606054159319,1.2772256460021973,3.126106054159319,1.4167377460021973Q3.287606054159319,1.5562567460021972,3.303146054159319,1.7691017460021974Q3.318686054159319,1.9819467460021971,3.179156054159319,2.143448746002197ZM15.93277605415932,7.265965746002197L15.932876054159319,7.265875746002197Q16.15657605415932,7.071795746002198,16.17757605415932,6.776345746002197Q16.198576054159318,6.480825746002197,16.00447605415932,6.257025746002197L13.86787605415932,3.793595746002197Q13.673776054159319,3.5697957460021974,13.378276054159318,3.548795746002197Q13.08277605415932,3.527805746002197,12.85887605415932,3.7218957460021973Q12.635076054159319,3.9159957460021975,12.61407605415932,4.211515746002197Q12.593076054159319,4.507035746002197,12.78727605415932,4.730835746002198L14.923776054159319,7.194245746002197Q15.13767605415932,7.440865746002197,15.464276054159319,7.440865746002197Q15.731276054159318,7.441115746002197,15.93277605415932,7.265965746002197ZM15.978076054159319,6.762165746002197Q15.962976054159318,6.9750457460021975,15.801776054159319,7.114875746002197L15.80167605415932,7.114955746002197Q15.65667605415932,7.2410457460021975,15.464476054159318,7.240865746002197Q15.228976054159318,7.240865746002197,15.074876054159319,7.063205746002197L12.938376054159319,4.599795746002197Q12.79847605415932,4.438565746002197,12.813576054159318,4.225685746002197Q12.828776054159318,4.012805746002197,12.98997605415932,3.8729857460021972Q13.151176054159318,3.7331657460021974,13.36407605415932,3.748295746002197Q13.576976054159319,3.763415746002197,13.716776054159318,3.9246357460021972L15.85337605415932,6.388065746002197Q15.993176054159319,6.549285746002197,15.978076054159319,6.762165746002197Z" fill-rule="evenodd" fill="#2A3331" fill-opacity="1"/></g><g><path d="M13.327793661448359,4.879525729637146C13.18019366144836,4.879675729637146,13.037493661448359,4.826515729637146,12.92589366144836,4.729835729637146C12.66879366144836,4.507695729637145,12.640393661448359,4.119185729637146,12.86259366144836,3.862075729637146L14.935993661448359,1.462089729637146C15.15819366144836,1.204943929637146,15.546693661448359,1.176604929637146,15.80379366144836,1.398759729637146C16.06089366144836,1.620895729637146,16.08929366144836,2.009392729637146,15.86709366144836,2.266495729637146L13.79369366144836,4.666505729637146C13.67199366144836,4.8073357296371455,13.50039366144836,4.879525729637146,13.327793661448359,4.879525729637146ZM13.235693661448359,9.414855729637146L0.7347216614483595,9.414855729637146C0.3949426614483595,9.414855729637146,0.11949366144835949,9.139405729637147,0.11949366144835949,8.799625729637146C0.11949366144835949,8.459845729637145,0.3949426614483595,8.184395729637146,0.7347216614483595,8.184395729637146L13.235693661448359,8.184395729637146C13.575493661448359,8.184395729637146,13.85089366144836,8.459845729637145,13.85089366144836,8.799625729637146C13.85089366144836,9.139405729637147,13.575493661448359,9.414855729637146,13.235693661448359,9.414855729637146ZM13.235693661448359,14.394345729637147L0.7347216614483595,14.394345729637147C0.3949426614483595,14.394345729637147,0.11949366144835949,14.118945729637145,0.11949366144835949,13.779145729637145C0.11949366144835949,13.439345729637147,0.3949426614483595,13.163945729637145,0.7347216614483595,13.163945729637145L13.235693661448359,13.163945729637145C13.575493661448359,13.163945729637145,13.85089366144836,13.439345729637147,13.85089366144836,13.779145729637145C13.85089366144836,14.118945729637145,13.575493661448359,14.394345729637147,13.235693661448359,14.394345729637147Z" fill="#2A3331" fill-opacity="1"/><path d="M13.327793661448359,4.979525729637146Q13.65529366144836,4.979525729637146,13.86929366144836,4.7318857296371455L15.94279366144836,2.331875729637146Q16.13649366144836,2.107701729637146,16.11489366144836,1.812234729637146Q16.09329366144836,1.516770729637146,15.86919366144836,1.323095229637146Q15.644993661448359,1.129391729637146,15.34949366144836,1.150952229637146Q15.05409366144836,1.172512429637146,14.86029366144836,1.396714729637146L12.78689366144836,3.796695729637146Q12.593193661448359,4.020875729637146,12.61479366144836,4.3163457296371455Q12.63629366144836,4.611825729637146,12.86039366144836,4.805405729637146Q13.06169366144836,4.979785729637146,13.327793661448359,4.979525729637146ZM15.79149366144836,2.201124729637146L13.717993661448359,4.601125729637146Q13.56379366144836,4.779525729637146,13.327793661448359,4.779525729637146Q13.13619366144836,4.779715729637147,12.99139366144836,4.654255729637146Q12.82979366144836,4.5146357296371455,12.814193661448359,4.301785729637146Q12.79869366144836,4.0889357296371465,12.93819366144836,3.927455729637146L15.01169366144836,1.527465729637146Q15.15119366144836,1.365953729637146,15.36409366144836,1.350421729637146Q15.57689366144836,1.334891129637146,15.73839366144836,1.474424729637146Q15.89989366144836,1.613954729637146,15.915393661448359,1.8267967296371461Q15.93099366144836,2.039637729637146,15.79149366144836,2.201124729637146ZM13.74149366144836,9.305365729637145Q13.95089366144836,9.095875729637147,13.95089366144836,8.799615729637146Q13.95089366144836,8.503365729637146,13.74139366144836,8.293885729637147Q13.53199366144836,8.084395729637146,13.235693661448359,8.084395729637146L0.7347216614483595,8.084395729637146Q0.43846566144835947,8.084395729637146,0.2289796614483595,8.293885729637147Q0.019493661448359484,8.503365729637146,0.019493661448359484,8.799625729637146Q0.019493661448359484,9.095875729637147,0.2289796614483595,9.305365729637145Q0.4384666614483595,9.514855729637146,0.7347216614483595,9.514855729637146L13.235693661448359,9.514855729637146Q13.53199366144836,9.514855729637146,13.74149366144836,9.305365729637145ZM13.599993661448359,8.435305729637147Q13.750893661448359,8.586215729637146,13.750893661448359,8.799625729637146Q13.750893661448359,9.013045729637145,13.599993661448359,9.163945729637145Q13.449093661448359,9.314855729637147,13.235693661448359,9.314855729637147L0.7347216614483595,9.314855729637147Q0.5213086614483595,9.314855729637147,0.3704006614483595,9.163945729637145Q0.2194936614483595,9.013035729637146,0.2194936614483595,8.799625729637146Q0.2194936614483595,8.586215729637146,0.3704016614483595,8.435305729637147Q0.5213086614483595,8.284395729637147,0.7347216614483595,8.284395729637147L13.235693661448359,8.284395729637147Q13.449093661448359,8.284395729637147,13.599993661448359,8.435305729637147ZM13.74139366144836,14.284845729637146Q13.95089366144836,14.075345729637146,13.95089366144836,13.779145729637145Q13.95089366144836,13.482845729637146,13.74139366144836,13.273345729637146Q13.53199366144836,13.063845729637146,13.235693661448359,13.063945729637146L0.7347216614483595,13.063945729637146Q0.43846766144835947,13.063945729637146,0.2289796614483595,13.273345729637146Q0.019493661448359484,13.482845729637146,0.019493661448359484,13.779145729637145Q0.019493661448359484,14.075345729637146,0.2289796614483595,14.284845729637146Q0.4384646614483595,14.494345729637146,0.7347216614483595,14.494345729637146L13.235693661448359,14.494345729637146Q13.53199366144836,14.494345729637146,13.74139366144836,14.284845729637146ZM13.599993661448359,13.414845729637147Q13.750893661448359,13.565745729637147,13.750893661448359,13.779145729637145Q13.750893661448359,13.992545729637145,13.599993661448359,14.143445729637145Q13.449093661448359,14.294345729637145,13.235693661448359,14.294345729637145L0.7347216614483595,14.294345729637145Q0.5213076614483595,14.294345729637145,0.3704016614483595,14.143445729637145Q0.2194936614483595,13.992545729637145,0.2194936614483595,13.779145729637145Q0.2194936614483595,13.565745729637147,0.3704016614483595,13.414845729637147Q0.5213096614483594,13.263945729637147,0.7347216614483595,13.263945729637147L13.235693661448359,13.263945729637147Q13.449093661448359,13.263945729637147,13.599993661448359,13.414845729637147Z" fill-rule="evenodd" fill="#2A3331" fill-opacity="1"/></g><g><path d="M13.34812143585205,14.281405340576171C13.20007243585205,14.281545340576173,13.05697643585205,14.228095340576171,12.945281435852051,14.130915340576172C12.68859703585205,13.908305340576172,12.660988335852052,13.519725340576173,12.883623435852051,13.263045340576172L15.020211435852051,10.799634340576173C15.242811435852051,10.542930640576172,15.63138143585205,10.515360240576172,15.88809143585205,10.737977340576172C16.14477143585205,10.960593340576171,16.17238143585205,11.349167340576171,15.94975143585205,11.605855340576172L13.81316143585205,14.069265340576171C13.691514435852051,14.209535340576172,13.520270435852051,14.281405340576171,13.34812143585205,14.281405340576171Z" fill="#2A3331" fill-opacity="1"/><path d="M13.34812143585205,14.381405340576173Q13.67483443585205,14.381405340576173,13.88870143585205,14.134785340576173L13.88871143585205,14.134775340576173L16.02529143585205,11.671375340576171Q16.219411435852052,11.447570340576172,16.19841143585205,11.152052340576171Q16.17741143585205,10.856533340576172,15.95360143585205,10.662428540576173Q15.72978143585205,10.468326340576171,15.43428143585205,10.489311740576172Q15.13875143585205,10.510298940576172,14.944671435852051,10.734112340576171L12.808080535852051,13.197525340576172Q12.613963435852051,13.421325340576171,12.634959135852052,13.716845340576171Q12.65595473585205,14.01236534057617,12.879645435852051,14.206365340576172Q13.081142435852051,14.381665340576172,13.34812143585205,14.381405340576173ZM15.87420143585205,11.540329340576172L13.73761143585205,14.003745340576172L13.73761143585205,14.003745340576172Q13.58354843585205,14.181395340576172,13.34812143585205,14.181405340576172Q13.155880435852051,14.181585340576172,13.010918435852052,14.055475340576173Q12.849580435852051,13.915545340576172,12.83445643585205,13.702665340576171Q12.81933163585205,13.489785340576173,12.95916743585205,13.328565340576173L15.09576143585205,10.865156340576172Q15.23556143585205,10.703927340576172,15.44844143585205,10.688809340576173Q15.66133143585205,10.673691440576173,15.822571435852051,10.813525340576172Q15.983791435852051,10.953345340576172,15.998911435852051,11.166225340576172Q16.01404143585205,11.379108340576172,15.87420143585205,11.540329340576172Z" fill-rule="evenodd" fill="#2A3331" fill-opacity="1"/></g><g><path d="M15.484879161933064,11.820097620239258C15.312179161933065,11.820097620239258,15.140679161933065,11.747907620239257,15.018979161933064,11.607057620239258L12.945579161933065,9.207047620239258C12.723379161933064,8.949943620239258,12.751779161933065,8.561426620239258,13.008879161933065,8.339291620239258C13.265979161933064,8.117174920239258,13.654479161933065,8.145514320239258,13.876679161933064,8.402640620239257L15.950079161933065,10.802647620239258C16.172279161933066,11.059757620239258,16.143879161933064,11.448267620239257,15.886779161933065,11.670407620239258C15.775179161933064,11.767067620239258,15.632479161933064,11.820227620239258,15.484879161933064,11.820097620239258ZM0.7359521619330645,14.339087620239258C0.5879031619330645,14.339237620239258,0.44480616193306444,14.285777620239259,0.3331121619330645,14.188607620239257C0.07642786193306446,13.965987620239257,0.04881946193306447,13.577417620239258,0.27143616193306447,13.320727620239257L2.4080491619330644,10.857327620239257C2.6306591619330644,10.600617620239259,3.0192391619330645,10.573027620239259,3.2759191619330643,10.795667620239257C3.5326091619330646,11.018287620239258,3.5602091619330642,11.406857620239258,3.3375991619330643,11.663537620239257L1.2009891619330644,14.126947620239257C1.0793451619330645,14.267227620239257,0.9081191619330644,14.339087620239258,0.7359521619330645,14.339087620239258Z" fill="#2A3331" fill-opacity="1"/><path d="M15.952179161933065,11.746077620239259L15.952279161933065,11.745987620239259Q16.176279161933063,11.552327620239257,16.197879161933063,11.256917620239257Q16.219479161933066,10.961447620239259,16.025779161933066,10.737267620239258L13.952279161933065,8.337263620239257Q13.758679161933065,8.113080520239258,13.463179161933065,8.091515320239258Q13.167679161933064,8.069950620239258,12.943479161933064,8.263622620239257Q12.719379161933064,8.457304620239258,12.697779161933065,8.752774620239258Q12.676179161933064,9.048256620239258,12.869879161933065,9.272427620239258L14.943379161933064,11.672427620239258Q15.157279161933065,11.920097620239257,15.484779161933064,11.920097620239257Q15.750879161933064,11.920327620239258,15.952179161933065,11.746077620239259ZM15.998379161933064,11.242357620239257Q15.982879161933065,11.455207620239257,15.821379161933065,11.594737620239258L15.821279161933065,11.594817620239258Q15.676479161933065,11.720257620239257,15.484879161933064,11.720097620239258Q15.248779161933065,11.720097620239258,15.094679161933064,11.541677620239257L13.021179161933064,9.141676620239258Q12.881679161933064,8.980192620239258,12.897279161933065,8.767338620239258Q12.912779161933065,8.554486620239258,13.074279161933065,8.414960620239258Q13.235779161933065,8.275450120239258,13.448579161933065,8.290984620239257Q13.661479161933064,8.306519620239257,13.800979161933064,8.468017620239257L15.874479161933065,10.868017620239257Q16.013979161933065,11.029507620239258,15.998379161933064,11.242357620239257ZM0.7359521619330645,14.439087620239258Q1.0626651619330645,14.439087620239258,1.2765291619330645,14.192477620239258L1.2765391619330644,14.192467620239258L3.4131391619330644,11.729057620239258Q3.6072391619330646,11.505257620239258,3.5862491619330643,11.209737620239258Q3.5652491619330644,10.914217620239258,3.3414391619330646,10.720127620239257Q3.1176391619330643,10.526007620239257,2.8221191619330646,10.546997620239258Q2.5265991619330643,10.567987620239258,2.3324991619330646,10.791797620239258L0.19588956193306445,13.255217620239257Q0.0017881619330644555,13.479017620239258,0.022787861933064466,13.774537620239258Q0.04378776193306447,14.070057620239258,0.26747616193306445,14.264057620239257Q0.4689751619330645,14.439357620239257,0.7359521619330645,14.439087620239258ZM3.2620491619330645,11.598017620239258L1.1254391619330644,14.061427620239257L1.1254391619330644,14.061437620239257Q0.9713791619330645,14.239087620239257,0.7359521619330645,14.239087620239257Q0.5437121619330645,14.239277620239257,0.39874816193306445,14.113167620239258Q0.23741216193306447,13.973237620239257,0.22228516193306447,13.760357620239258Q0.20715706193306446,13.547477620239258,0.34698216193306447,13.386247620239258L2.4835891619330646,10.922847620239258Q2.6234091619330644,10.761607620239257,2.8362891619330646,10.746487620239257Q3.0491691619330643,10.731367620239258,3.2103991619330645,10.871207620239257Q3.3716191619330647,11.011037620239257,3.3867491619330643,11.223917620239257Q3.4018791619330644,11.436797620239258,3.2620491619330645,11.598017620239258Z" fill-rule="evenodd" fill="#2A3331" fill-opacity="1"/></g><g><path d="M2.872678071708679,11.877758186340332C2.700088071708679,11.877758186340332,2.528528071708679,11.805568186340333,2.406848071708679,11.664718186340332L0.3334000717086792,9.264718186340332C0.1112638717086792,9.007610186340331,0.13962207170867919,8.619093186340333,0.39674907170867924,8.396958186340331C0.6538760717086791,8.174802986340332,1.0423920717086792,8.203180586340332,1.2645080717086792,8.460307186340332L3.3379580717086794,10.860308186340331C3.560098071708679,11.117418186340332,3.5317380717086793,11.505938186340332,3.274608071708679,11.728068186340332C3.163028071708679,11.824738186340332,3.020308071708679,11.877898186340332,2.872678071708679,11.877758186340332Z" fill="#2A3331" fill-opacity="1"/><path d="M3.3399880717086794,11.803738186340333L3.340088071708679,11.803648186340332Q3.564178071708679,11.609988186340331,3.585748071708679,11.314588186340332Q3.6073180717086792,11.019108186340333,3.413628071708679,10.794938186340332L1.3401780717086793,8.394936186340333Q1.1465140717086792,8.170741586340332,0.8510400717086792,8.149167486340332Q0.5555590717086791,8.127593186340333,0.3313750717086792,8.321285986340332Q0.1071857717086792,8.514966186340333,0.0856161717086792,8.810442186340332Q0.0640470717086792,9.105918186340332,0.2577286717086792,9.330088186340332L2.3311780717086794,11.730098186340332Q2.545138071708679,11.977758186340331,2.8725880717086794,11.977758186340331Q3.1387780717086793,11.977998186340333,3.3399880717086794,11.803738186340333ZM3.3862780717086793,11.300028186340333Q3.3707380717086792,11.512878186340332,3.209238071708679,11.652398186340331L3.209128071708679,11.652488186340332Q3.0643380717086792,11.777928186340333,2.872768071708679,11.777758186340332Q2.636658071708679,11.777758186340332,2.4825280717086793,11.599348186340332L0.4090710717086792,9.199342186340331Q0.2695475717086792,9.037853186340332,0.2850850717086792,8.825003186340332Q0.3006230717086792,8.612151186340332,0.4621230717086792,8.472630186340332Q0.6236230717086793,8.333095086340332,0.8364750717086792,8.348636186340332Q1.0493230717086792,8.364177186340331,1.1888380717086793,8.525678186340333L3.2622880717086793,10.925688186340333Q3.4018080717086794,11.087178186340331,3.3862780717086793,11.300028186340333Z" fill-rule="evenodd" fill="#2A3331" fill-opacity="1"/></g></g></svg>