<svg xmlns="http://www.w3.org/2000/svg" xmlns:xlink="http://www.w3.org/1999/xlink" fill="none" version="1.1" width="15.300048828125" height="15.300048828125" viewBox="0 0 15.300048828125 15.300048828125"><g style="mix-blend-mode:passthrough"><g><path d="M7.65,15.299999928474426C3.43182,15.299999928474426,0,12.053399928474427,0,8.063079928474426C0,6.295709928474427,0.680597,4.594379928474426,1.91568,3.271769928474426C2.25899,2.9047199284744263,2.64492,2.5676319284744262,3.06304,2.2706719284744263C3.30777,2.0968309284744264,3.56316,1.9371729284744263,3.82783,1.7925562284744263C4.17856,1.6012422284744263,4.62322,1.7177236284744262,4.82184,2.0520999284744263C5.02135,2.386475928474426,4.90002,2.812779928474426,4.5507,3.003589928474426C4.33625,3.1210399284744264,4.12919,3.2504399284744263,3.93059,3.3911299284744265C3.59224,3.6315399284744263,3.27989,3.903949928474426,3.00238,4.2015899284744265C2.00553,5.268209928474427,1.45706,6.639739928474426,1.45706,8.063249928474427C1.45706,11.284609928474426,4.23516,13.905399928474425,7.65,13.905399928474425C11.0648,13.905399928474425,13.8429,11.284439928474427,13.8429,8.063079928474426C13.8429,6.639739928474426,13.2943,5.268709928474426,12.298,4.201419928474426C12.0177,3.901779928474426,11.7064,3.630229928474426,11.3687,3.3909599284744263C11.1717,3.250609928474426,10.9628,3.1205799284744264,10.7489,3.0034199284744263C10.3996,2.812109928474426,10.2786,2.3863069284744265,10.4782,2.0519309284744263C10.678,1.7175543284744264,11.1225,1.6003957284744263,11.4725,1.7923869284744263C11.7366,1.9372279284744263,11.9916,2.0966429284744263,12.2362,2.269824928474426C12.6531,2.5661079284744264,13.0396,2.9031899284744265,13.3843,3.2715999284744264C14.6198,4.594879928474427,15.3,6.296219928474426,15.3,8.062909928474426C15.3,12.053399928474427,11.8682,15.299999928474426,7.65,15.299999928474426Z" fill="#303433" fill-opacity="1"/></g><g><path d="M7.649999713897705,8.5C7.180528713897705,8.5,6.799999713897705,8.18326,6.799999713897705,7.79171L6.799999713897705,0.70829C6.799999713897705,0.316745,7.180528713897705,0,7.649999713897705,0C8.119469713897704,0,8.499999713897704,0.316745,8.499999713897704,0.70829L8.499999713897704,7.79171C8.499999713897704,8.18326,8.119469713897704,8.5,7.649999713897705,8.5Z" fill="#303433" fill-opacity="1"/></g></g></svg>