<svg xmlns="http://www.w3.org/2000/svg" xmlns:xlink="http://www.w3.org/1999/xlink" fill="none" version="1.1" width="16" height="15.999982833862305" viewBox="0 0 16 15.999982833862305"><g><path d="M7.20001,0C4.99086,0,3.20003,1.79086,3.20003,4C3.20003,4,3.20003,4.79998,3.20003,4.79998C1.4327,4.79998,0,6.23267,0,8.00001C0,8.00001,0,12.8,0,12.8C0,14.5673,1.4327,16,3.20003,16C3.20003,16,12.8,16,12.8,16C14.5673,16,16,14.5673,16,12.8C16,12.8,16,8.00001,16,8.00001C16,6.23267,14.5673,4.79998,12.8,4.79998C12.8,4.79998,12.8,4,12.8,4C12.8,1.79086,11.0091,0,8.80001,0C8.80001,0,7.20001,0,7.20001,0C7.20001,0,7.20001,0,7.20001,0ZM3.20003,6.39998C3.20003,6.39998,12.8,6.39998,12.8,6.39998C13.6836,6.39998,14.4,7.11633,14.4,7.99998C14.4,7.99998,14.4,12.8,14.4,12.8C14.4,13.6836,13.6836,14.4,12.8,14.4C12.8,14.4,3.20003,14.4,3.20003,14.4C2.31637,14.4,1.60002,13.6836,1.60002,12.8C1.60002,12.8,1.60002,7.99998,1.60002,7.99998C1.60002,7.11633,2.31637,6.39998,3.20003,6.39998C3.20003,6.39998,3.20003,6.39998,3.20003,6.39998ZM4.80003,4C4.80003,2.67451,5.87452,1.59998,7.20001,1.59998C7.20001,1.59998,8.80001,1.59998,8.80001,1.59998C10.1255,1.59998,11.2,2.67451,11.2,4C11.2,4,11.2,4.79998,11.2,4.79998C11.2,4.79998,4.8,4.79998,4.8,4.79998C4.8,4.79998,4.8,4,4.8,4C4.8,4,4.80003,4,4.80003,4ZM7.20001,8.8C6.75818,8.8,6.40003,9.15817,6.40003,9.59998C6.40003,10.0418,6.75818,10.4,7.20001,10.4C7.20001,10.4,8.80001,10.4,8.80001,10.4C9.24182,10.4,9.60001,10.0418,9.60001,9.59998C9.60001,9.15817,9.24182,8.8,8.80001,8.8C8.80001,8.8,7.20001,8.8,7.20001,8.8C7.20001,8.8,7.20001,8.8,7.20001,8.8Z" fill="#2A3331" fill-opacity="1"/></g></svg>