<svg xmlns="http://www.w3.org/2000/svg" xmlns:xlink="http://www.w3.org/1999/xlink" fill="none" version="1.1" width="17.10009765625" height="17.0999755859375" viewBox="0 0 17.10009765625 17.0999755859375"><g style="mix-blend-mode:passthrough"><g><path d="M8.550891798419952,14.133905860328674C9.121121798419953,14.133905860328674,9.676101798419952,14.351405860328674,10.074601798419952,14.730105860328674C10.074601798419952,14.730105860328674,10.248321798419953,14.916805860328674,10.248321798419953,14.916805860328674C10.465121798419952,15.151005860328674,10.904721798419953,15.262005860328674,11.216421798419953,15.149605860328675C11.216421798419953,15.149605860328675,11.489621798419952,15.047905860328674,12.092321798419952,14.701305860328674C12.686421798419952,14.358005860328674,12.909221798419953,14.170705860328674,12.911221798419952,14.168705860328675C13.166421798419952,13.953205860328675,13.291821798419953,13.525605860328675,13.196321798419952,13.210505860328674C13.196321798419952,13.210505860328674,13.138621798419953,13.020405860328674,13.138621798419953,13.020405860328674C12.997421798419952,12.424905860328675,13.082221798419953,11.838705860328675,13.370021798419952,11.340205860328675C13.651421798419952,10.849445860328675,14.105321798419952,10.483305860328674,14.641721798419953,10.314465860328674C14.641721798419953,10.314465860328674,14.892421798419953,10.255585860328674,14.892421798419953,10.255585860328674C15.210721798419952,10.181975860328674,15.518321798419953,9.859455860328675,15.577321798419952,9.536265860328674C15.577321798419952,9.532255860328675,15.627721798419952,9.245865860328674,15.627721798419952,8.547285860328675C15.624421798419952,7.8527258603286745,15.574721798419953,7.564995860328675,15.574721798419953,7.561655860328674C15.574721798419953,7.561655860328674,16.088521798419954,7.4679658603286745,16.088521798419954,7.4679658603286745C16.088521798419954,7.4679658603286745,15.574021798419952,7.560305860328675,15.574021798419952,7.560305860328675C15.517021798419952,7.2404658603286745,15.206021798419952,6.911925860328674,14.895021798419952,6.843665860328675C14.895021798419952,6.843665860328675,14.662321798419953,6.788795860328674,14.662321798419953,6.788795860328674C14.115921798419953,6.624975860328674,13.651921798419952,6.257205860328674,13.364721798419952,5.760345860328674C13.080221798419952,5.269115860328674,12.991821798419952,4.687005860328674,13.117421798419953,4.132345860328675C13.117421798419953,4.132345860328675,13.130621798419952,4.083485860328674,13.130621798419952,4.083485860328674C13.130621798419952,4.083485860328674,13.198921798419953,3.8787358603286743,13.198921798419953,3.8787358603286743C13.291821798419953,3.5762858603286745,13.165821798419952,3.1466958603286743,12.913821798419953,2.931245860328674C12.912521798419952,2.9299058603286743,12.689021798419953,2.743885860328674,12.087621798419953,2.3945958603286743C11.485621798419952,2.0479858603286742,11.217721798419952,1.9476158603286744,11.215021798419953,1.9462858603286743C10.920021798419953,1.8378798603286743,10.468421798419952,1.9482858603286743,10.248321798419953,2.1824858603286743C10.248321798419953,2.1824858603286743,10.091851798419953,2.3504458603286746,10.091851798419953,2.3504458603286746C9.676771798419953,2.745895860328674,9.130401798419953,2.963365860328674,8.552881798419952,2.963365860328674C7.983311798419952,2.963365860328674,7.428991798419952,2.7472258603286743,7.032481798419952,2.3705158603286742C7.032481798419952,2.3705158603286742,6.855441798419952,2.1818158603286744,6.855441798419952,2.1818158603286744C6.6353017984199525,1.9442758603286743,6.1923817984199525,1.8372078603286743,5.887371798419952,1.9476158603286744C5.864821798419952,1.9556458603286744,5.593631798419953,2.061375860328674,5.010801798419952,2.397265860328674C4.4166917984199525,2.7432158603286743,4.195231798419952,2.9299058603286743,4.1925917984199526,2.931915860328674C3.9373117984199526,3.1467058603286744,3.8119917984199523,3.574275860328674,3.9074717984199525,3.8887758603286744C3.9074717984199525,3.8887758603286744,3.9737717984199525,4.105585860328674,3.9737717984199525,4.105585860328674C4.1072417984199525,4.667375860328674,4.0212817984199525,5.259455860328674,3.7337417984199526,5.759005860328674C3.4535317984199523,6.249885860328674,2.9996917984199523,6.615615860328674,2.4633217984199525,6.782775860328674C2.4633217984199525,6.782775860328674,2.208041798419952,6.842335860328674,2.208041798419952,6.842335860328674C1.8897717984199525,6.915265860328675,1.5821117984199524,7.238465860328675,1.5231017984199524,7.560985860328675C1.5217717984199524,7.5676758603286745,1.4727017984199524,7.850715860328674,1.4727017984199524,8.547955860328674C1.4727017984199524,9.242525860328675,1.5217717984199524,9.526905860328675,1.5224417984199523,9.529585860328675C1.5807917984199524,9.860125860328674,1.8857917984199524,10.182645860328675,2.2034017984199523,10.252905860328674C2.2034017984199523,10.252905860328674,2.3890617984199523,10.294395860328674,2.3890617984199523,10.294395860328674C2.9791817984199525,10.468375860328674,3.4433317984199525,10.836405860328675,3.7317617984199525,11.340905860328675C4.015551798419953,11.838105860328675,4.105721798419952,12.430305860328675,3.9770917984199525,12.966205860328675C3.9770917984199525,12.966205860328675,3.9094517984199526,13.200405860328674,3.9094517984199526,13.200405860328674C3.8119917984199523,13.519605860328674,3.9379717984199525,13.949905860328675,4.189271798419952,14.164005860328674C4.189271798419952,14.164005860328674,4.414051798419953,14.352705860328674,5.0147817984199525,14.700605860328674C5.610211798419952,15.044605860328675,5.878751798419953,15.146305860328674,5.890021798419952,15.150305860328674C6.182431798419953,15.257405860328674,6.634641798419953,15.147605860328675,6.855441798419952,14.912805860328675C6.855441798419952,14.912805860328675,7.003301798419953,14.753505860328675,7.003301798419953,14.753505860328675C7.421661798419953,14.354905860328675,7.975491798419952,14.133105860328675,8.550891798419952,14.133905860328674C8.550891798419952,14.133905860328674,8.550891798419952,14.133905860328674,8.550891798419952,14.133905860328674ZM10.940621798419953,16.245005860328675C10.383601798419953,16.245005860328675,9.839221798419953,16.015505860328673,9.483161798419953,15.631405860328675C9.483161798419953,15.631405860328675,9.331991798419953,15.468105860328674,9.331991798419953,15.468105860328674C9.149641798419953,15.295505860328674,8.855901798419952,15.183105860328673,8.550901798419952,15.183105860328673C8.247211798419952,15.183105860328673,7.957461798419953,15.296805860328675,7.733341798419953,15.504305860328675C7.733341798419953,15.504305860328675,7.620621798419952,15.628105860328674,7.620621798419952,15.628105860328674C7.110061798419952,16.171405860328676,6.213601798419952,16.386905860328675,5.5279917984199525,16.134605860328676C5.443791798419952,16.103105860328675,5.122861798419953,15.974005860328674,4.492961798419953,15.610005860328675C3.8378517984199525,15.230605860328675,3.5620117984199524,15.005805860328675,3.5129517984199525,14.964905860328674C2.9433817984199524,14.477205860328674,2.6907517984199525,13.608605860328675,2.9089017984199526,12.897305860328673C2.9089017984199526,12.897305860328673,2.9685817984199523,12.695205860328674,2.9685817984199523,12.695205860328674C3.0282517984199524,12.443705860328674,2.977851798419952,12.130505860328674,2.8246817984199524,11.863505860328674C2.6720217984199524,11.594805860328675,2.4219417984199527,11.396405860328674,2.1271517984199524,11.310105860328674C2.1271517984199524,11.310105860328674,1.9766317984199524,11.277305860328674,1.9766317984199524,11.277305860328674C1.2499237984199523,11.116805860328673,0.6253137984199524,10.461015860328674,0.4940293984199524,9.718275860328674C0.4887195984199524,9.690175860328674,0.4277217984199524,9.350255860328675,0.4277217984199524,8.547955860328674C0.4277217984199524,7.742995860328675,0.4887195984199524,7.402395860328674,0.4966777984199524,7.366265860328674C0.6292927984199523,6.6389258603286745,1.2512477984199524,5.985845860328674,1.9753117984199524,5.819225860328674C1.9753117984199524,5.819225860328674,2.1987617984199526,5.768375860328674,2.1987617984199526,5.768375860328674C2.434811798419952,5.696785860328674,2.6761717984199525,5.498715860328674,2.8299917984199525,5.233065860328674C2.9798417984199523,4.972105860328674,3.0256017984199524,4.663635860328674,2.9599517984199526,4.362525860328674C2.9599517984199526,4.362525860328674,2.9089017984199526,4.197245860328675,2.9089017984199526,4.197245860328675C2.6900917984199526,3.4785958603286744,2.9466917984199523,2.611395860328674,3.5155917984199525,2.1323058603286746C3.5354917984199523,2.1149058603286743,3.800051798419952,1.8887358603286744,4.488311798419953,1.4879398603286744C5.1155717984199525,1.1265968603286742,5.441791798419953,0.9947778603286743,5.526661798419952,0.9626578603286743C6.236141798419952,0.7070558603286743,7.113371798419952,0.9191680603286743,7.619951798419953,1.4658458603286744C7.619951798419953,1.4658458603286744,7.773781798419952,1.6311228603286743,7.773781798419952,1.6311228603286743C7.955461798419952,1.8030978603286743,8.247871798419952,1.9141658603286744,8.552881798419952,1.9141658603286744C8.855901798419952,1.9141658603286744,9.143001798419952,1.8030978603286743,9.361821798419953,1.5996738603286742C9.361821798419953,1.5996738603286742,9.484481798419953,1.4658458603286744,9.484481798419953,1.4658458603286744C9.995041798419953,0.9238516603286743,10.891521798419953,0.7097228603286743,11.574421798419952,0.9606548603286743C11.630821798419952,0.9813988603286743,11.949721798419953,1.1051878603286744,12.608821798419953,1.4852588603286743C13.280521798419953,1.8740158603286743,13.546421798419953,2.0941658603286744,13.593421798419952,2.133655860328674C14.159721798419952,2.6187658603286743,14.412321798419953,3.487295860328674,14.194221798419953,4.197915860328674C14.194221798419953,4.197915860328674,14.131821798419953,4.388615860328674,14.131821798419953,4.388615860328674C14.072221798419953,4.675685860328674,14.120621798419952,4.975445860328675,14.269821798419953,5.235745860328675C14.419621798419952,5.494705860328675,14.661021798419952,5.6880758603286745,14.948721798419953,5.779745860328674C14.948721798419953,5.779745860328674,15.123121798419952,5.819895860328674,15.123121798419952,5.819895860328674C15.845921798419953,5.9791558603286745,16.470521798419952,6.633565860328674,16.602421798419954,7.375635860328674C16.61442179841995,7.440545860328674,16.668721798419952,7.7858158603286745,16.672721798419953,8.544615860328674C16.672721798419953,9.324815860328675,16.61572179841995,9.666755860328674,16.60512179841995,9.727635860328673C16.47112179841995,10.458325860328674,15.849221798419952,11.111405860328674,15.126421798419953,11.278005860328674C15.126421798419953,11.278005860328674,14.928921798419953,11.323505860328675,14.928921798419953,11.323505860328675C14.652321798419953,11.416905860328674,14.419521798419952,11.609905860328674,14.275121798419953,11.865505860328675C14.121121798419953,12.131505860328675,14.075221798419953,12.447405860328674,14.147121798419953,12.746805860328674C14.147121798419953,12.746805860328674,14.196821798419952,12.904705860328674,14.196821798419952,12.904705860328674C14.413021798419953,13.620705860328675,14.157021798419953,14.487905860328674,13.588821798419952,14.967605860328675C13.568321798419952,14.985705860328673,13.301721798419953,15.213205860328674,12.612821798419953,15.611305860328674C11.952421798419952,15.990705860328674,11.629521798419953,16.115805860328674,11.571821798419952,16.13660586032867C11.369321798419952,16.209005860328674,11.156021798419953,16.245705860328677,10.941221798419953,16.245005860328675C10.941221798419953,16.245005860328675,10.940521798419953,16.245005860328675,10.940521798419953,16.245005860328675C10.940521798419953,16.245005860328675,10.940621798419953,16.245005860328675,10.940621798419953,16.245005860328675ZM8.550231798419953,6.569325860328674C7.376611798419952,6.569325860328674,6.421801798419953,7.532885860328674,6.421801798419953,8.717245860328674C6.421801798419953,9.901615860328674,7.376611798419952,10.865205860328674,8.550231798419953,10.865205860328674C9.723841798419953,10.865205860328674,10.678621798419952,9.901615860328674,10.678621798419952,8.717245860328674C10.678621798419952,7.532885860328674,9.723851798419952,6.569325860328674,8.550231798419953,6.569325860328674C8.550231798419953,6.569325860328674,8.550231798419953,6.569325860328674,8.550231798419953,6.569325860328674ZM8.550231798419953,11.895605860328674C6.811541798419952,11.893805860328674,5.4025217984199525,10.471855860328674,5.4006917984199525,8.717245860328674C5.4006917984199525,6.964125860328674,6.813011798419953,5.5388658603286745,8.550231798419953,5.5388658603286745C10.286781798419952,5.5388658603286745,11.699721798419953,6.964125860328674,11.699721798419953,8.717245860328674C11.699721798419953,10.469715860328675,10.286781798419952,11.895605860328674,8.550231798419953,11.895605860328674C8.550231798419953,11.895605860328674,8.550231798419953,11.895605860328674,8.550231798419953,11.895605860328674Z" fill="#303433" fill-opacity="1"/><path d="M10.940521798419953,16.095005860328676L10.941221798419953,16.095005860328676Q11.240021798419953,16.096005860328674,11.521221798419953,15.995405860328674Q11.847521798419953,15.878005860328674,12.538121798419953,15.481305860328675Q13.236421798419952,15.077705860328674,13.489821798419952,14.855005860328674Q14.397521798419952,14.088505860328674,14.053221798419953,12.948005860328674L14.002521798419952,12.786805860328675L14.001221798419952,12.781805860328674Q13.875221798419952,12.256805860328674,14.145321798419952,11.790405860328674Q14.397021798419953,11.344805860328675,14.880921798419953,11.181405860328674L14.887921798419953,11.179005860328674L15.092821798419953,11.131805860328674Q16.24382179841995,10.866505860328674,16.457521798419954,9.700595860328674Q16.52272179841995,9.326875860328673,16.52272179841995,8.544615860328674Q16.518521798419954,7.748575860328675,16.454921798419953,7.402785860328675Q16.244721798419953,6.220635860328675,15.090821798419952,5.966385860328674L14.909121798419953,5.924545860328674L14.903221798419953,5.922675860328674Q14.401521798419953,5.7628458603286745,14.139921798419952,5.310875860328674Q13.880921798419953,4.858905860328674,13.985021798419952,4.358095860328675L13.986721798419952,4.349935860328674L14.051621798419953,4.151315860328674Q14.398621798419953,3.0209458603286743,13.495921798419952,2.2475658603286743Q13.205121798419952,2.0036758603286744,12.533721798419952,1.6150808603286744Q11.855121798419953,1.2237978603286743,11.522621798419953,1.1014248603286743Q10.416651798419952,0.6950548603286744,9.593671798419953,1.5686978603286743L9.468341798419953,1.7054498603286743L9.463951798419952,1.7095328603286744Q9.082491798419952,2.064165860328674,8.552881798419952,2.064165860328674Q8.013061798419953,2.064165860328674,7.670661798419952,1.7400578603286743L7.667211798419952,1.7367938603286743L7.510151798419952,1.5680408603286744Q6.7039017984199525,0.6979738603286743,5.577511798419953,1.1037788603286742Q5.222281798419952,1.2382358603286743,4.563191798419952,1.6179158603286743Q3.8702617984199525,2.0214358603286744,3.6143317984199523,2.2452258603286745Q2.7046217984199523,3.0113558603286745,3.0523917984199525,4.153555860328675L3.1051517984199526,4.324345860328674L3.106511798419952,4.330575860328674Q3.2206317984199524,4.8540158603286745,2.9600717984199525,5.307765860328674Q2.6886217984199523,5.776555860328674,2.242291798419952,5.9119158603286746L2.2372217984199523,5.913455860328674L2.0085917984199524,5.965485860328674Q0.8562027984199524,6.230665860328674,0.6442447984199524,7.393175860328674L0.6437547984199524,7.395865860328675L0.6431667984199524,7.398535860328674Q0.5777217984199524,7.695665860328674,0.5777217984199524,8.547955860328674Q0.5777217984199524,9.353315860328674,0.6414207984199524,9.690425860328673Q0.8508057984199524,10.874905860328674,2.0090017984199524,11.130905860328674L2.1642217984199523,11.164705860328674L2.1692717984199525,11.166205860328674Q2.6871317984199523,11.317705860328674,2.9551117984199524,11.789405860328674Q3.2257117984199524,12.261105860328675,3.1145317984199523,12.729905860328675L3.1135917984199524,12.733805860328674L3.052761798419952,12.939805860328674Q2.7045717984199524,14.075105860328675,3.6105217984199522,14.851005860328675Q3.9056017984199523,15.096505860328675,4.5681317984199525,15.480205860328674Q5.232431798419952,15.864105860328674,5.580471798419953,15.994105860328673Q6.687951798419952,16.401605860328672,7.5113117984199524,15.525305860328674L7.626751798419952,15.398505860328674L7.631451798419953,15.394205860328674Q8.021601798419953,15.033105860328675,8.550901798419952,15.033105860328675Q9.090631798419953,15.033105860328675,9.435111798419952,15.359205860328675L9.438701798419952,15.362605860328674L9.593231798419952,15.529505860328674Q10.117471798419952,16.095005860328676,10.940621798419953,16.095005860328676L10.940621798419953,16.395005860328673Q9.986501798419953,16.395005860328673,9.373091798419953,15.733305860328674L9.221921798419952,15.570005860328674L9.331991798419953,15.468105860328674L9.228861798419953,15.577105860328674Q8.971151798419953,15.333105860328674,8.550901798419952,15.333105860328674Q8.139121798419954,15.333105860328674,7.835231798419953,15.614405860328674L7.733341798419953,15.504305860328675L7.844251798419952,15.605305860328674L7.729931798419952,15.730805860328674Q6.770641798419953,16.751705860328673,5.475511798419952,16.275105860328672Q5.104011798419952,16.136405860328672,4.417781798419952,15.739805860328675Q3.7332717984199526,15.343405860328675,3.4153717984199523,15.078905860328675Q2.3601117984199522,14.175105860328674,2.7650417984199525,12.854805860328675L2.824721798419952,12.652805860328675L2.9685817984199523,12.695205860328674L2.8226317984199523,12.660605860328674Q2.9064117984199522,12.307405860328675,2.6942617984199524,11.937605860328674Q2.4862817984199523,11.571505860328674,2.0850217984199526,11.454105860328674L2.1271517984199524,11.310105860328674L2.0952217984199524,11.456705860328674L1.9442717984199525,11.423805860328674Q0.5902857984199523,11.124605860328675,0.3466375984199524,9.746125860328675Q0.27772179841995237,9.381405860328675,0.27772179841995237,8.547955860328674Q0.27772179841995237,7.663015860328675,0.3501889984199524,7.334005860328674L0.4966777984199524,7.366265860328674L0.3491105984199524,7.339365860328674Q0.5964887984199524,5.982585860328674,1.9420217984199524,5.672965860328675L2.1654717984199525,5.622115860328674L2.1987617984199526,5.768375860328674L2.1552217984199524,5.6248258603286745Q2.4883017984199522,5.523815860328674,2.6999117984199525,5.158365860328674Q2.902881798419952,4.804915860328674,2.8133917984199526,4.394475860328674L2.9599517984199526,4.362525860328674L2.8166317984199525,4.406795860328675L2.7654017984199526,4.240935860328674Q2.359971798419952,2.9093758603286743,3.4168617984199523,2.0193858603286743Q3.6944417984199522,1.7766628603286743,4.413441798419953,1.3579638603286743Q5.093481798419952,0.9662118603286743,5.475821798419952,0.8215368603286743Q6.789001798419952,0.3484388603286743,7.729751798419953,1.3636508603286743L7.883581798419953,1.5289268603286743L7.773781798419952,1.6311228603286743L7.8769017984199525,1.5221868603286743Q8.132531798419953,1.7641678603286743,8.552881798419952,1.7641678603286743Q8.964581798419953,1.7641678603286743,9.259681798419953,1.4898158603286742L9.361821798419953,1.5996738603286742L9.251241798419953,1.4983198603286745L9.375301798419953,1.3629928603286743Q10.334141798419953,0.34512786032867426,11.626221798419952,0.8198852603286744Q11.982821798419952,0.9511097603286743,12.683921798419952,1.3554358603286745Q13.377921798419953,1.7570838603286743,13.691021798419952,2.0197358603286744Q14.743121798419953,2.9210258603286743,14.336821798419953,4.244515860328674L14.274421798419953,4.435215860328674L14.131821798419953,4.388615860328674L14.278721798419953,4.419145860328674Q14.197821798419952,4.808495860328675,14.399621798419952,5.160615860328674Q14.603121798419952,5.512195860328674,14.994321798419952,5.636825860328674L14.948721798419953,5.779745860328674L14.982421798419953,5.6335758603286745L15.155421798419953,5.673415860328674Q16.505021798419953,5.970795860328674,16.74992179841995,7.348485860328674Q16.81842179841995,7.720425860328675,16.822721798419952,8.544615860328674Q16.822721798419952,9.352835860328675,16.752621798419952,9.754685860328674Q16.503421798419954,11.114505860328673,15.160121798419953,11.424205860328675L14.962521798419953,11.469705860328673L14.928921798419953,11.323505860328675L14.976821798419952,11.465605860328674Q14.601721798419952,11.592305860328674,14.404921798419952,11.940705860328674Q14.194921798419953,12.303405860328674,14.293021798419952,12.711705860328674L14.147121798419953,12.746805860328674L14.290221798419953,12.701705860328675L14.340421798419952,12.861305860328674Q14.741721798419952,14.190505860328674,13.687821798419952,15.080305860328675Q13.412221798419953,15.322605860328673,12.687521798419953,15.741405860328674Q11.973921798419953,16.151305860328677,11.622321798419952,16.277805860328677Q11.291621798419952,16.396105860328674,10.941221798419953,16.395005860328673L10.940521798419953,16.395005860328673L10.940521798419953,16.095005860328676ZM8.550681798419953,14.283905860328675Q7.714751798419952,14.282805860328674,7.106781798419952,14.862105860328674L7.003301798419953,14.753505860328675L7.113221798419953,14.855605860328675L6.965361798419952,15.014805860328675Q6.483541798419952,15.527305860328674,5.838451798419952,15.291205860328674Q5.5745617984199525,15.197205860328674,4.939751798419953,14.830505860328675Q4.327581798419953,14.476005860328675,4.092831798419953,14.278905860328674Q3.5615317984199524,13.826205860328674,3.7659917984199525,13.156605860328675L3.8329817984199526,12.924605860328674L3.9770917984199525,12.966205860328675L3.831231798419952,12.931205860328674Q4.019371798419952,12.147405860328675,3.6014917984199526,11.415305860328674Q3.1840817984199523,10.685165860328674,2.3466417984199524,10.438275860328675L2.3890617984199523,10.294395860328674L2.3563417984199524,10.440785860328674L2.1706817984199525,10.399285860328675Q1.4973517984199525,10.250355860328675,1.3747237984199523,9.555665860328673L1.5224417984199523,9.529585860328675L1.3769587984199525,9.566125860328674Q1.3227017984199523,9.350095860328674,1.3227017984199523,8.547955860328674Q1.3227017984199523,7.799405860328674,1.3759847984199522,7.531705860328675Q1.5005917984199524,6.850555860328674,2.1745417984199524,6.696125860328674L2.4292417984199526,6.636705860328674L2.4633217984199525,6.782775860328674L2.4186917984199523,6.639575860328675Q3.1967917984199525,6.397075860328674,3.6034717984199522,5.684645860328675Q4.022001798419952,4.957535860328674,3.8278317984199526,4.140245860328674L3.9737717984199525,4.105585860328674L3.8303317984199525,4.149455860328674L3.7640217984199524,3.9326458603286745Q3.5618217984199525,3.2666058603286743,4.096011798419952,2.817145860328674L4.098821798419952,2.814775860328674L4.101741798419953,2.812555860328674Q4.099611798419952,2.8141758603286746,4.098331798419952,2.8152358603286745Q4.350081798419952,2.6084258603286745,4.935321798419952,2.267645860328674Q5.571991798419952,1.9007258603286743,5.8370417984199525,1.8063138603286744Q6.492191798419952,1.5691578603286742,6.965461798419953,2.0798558603286743L7.1418717984199525,2.267875860328674L7.032481798419952,2.3705158603286742L7.135791798419953,2.2617658603286745Q7.716361798419952,2.813365860328674,8.552881798419952,2.813365860328674Q9.388491798419953,2.813365860328674,9.988381798419953,2.241835860328674L10.091851798419953,2.3504458603286746L9.982091798419953,2.248195860328674L10.138571798419953,2.080235860328674Q10.620121798419952,1.5679138603286744,11.266821798419953,1.8054818603286744L11.274721798419952,1.8083958603286743L11.282321798419952,1.8121818603286743Q11.276521798419953,1.8092818603286744,11.272521798419952,1.8076918603286742Q11.580121798419952,1.9292958603286743,12.162521798419952,2.264595860328674Q12.875721798419953,2.6788558603286745,13.020721798419952,2.8259858603286743L12.913821798419953,2.931245860328674L13.011321798419953,2.8172458603286743Q13.542321798419952,3.2712758603286742,13.342321798419952,3.9227458603286744L13.341821798419952,3.9244758603286742L13.272921798419953,4.130945860328675L13.130621798419952,4.083485860328674L13.275421798419952,4.122775860328675L13.262121798419953,4.171635860328674L13.117421798419953,4.132345860328675L13.263721798419953,4.165475860328675Q13.081221798419952,4.971465860328674,13.494521798419953,5.6851658603286745Q13.911821798419952,6.407195860328675,14.705421798419952,6.645115860328675L14.662321798419953,6.788795860328674L14.696721798419953,6.642805860328674L14.929421798419952,6.697665860328675Q15.598821798419952,6.844565860328674,15.721721798419953,7.5339858603286745L15.574021798419952,7.560305860328675L15.547521798419952,7.412665860328675L16.062121798419952,7.3203258603286745L16.11552179841995,7.6155358603286745L15.601621798419952,7.709225860328674L15.574721798419953,7.561655860328674L15.724721798419953,7.561655860328674Q15.724721798419953,7.5508058603286745,15.723721798419952,7.5440258603286745Q15.774621798419952,7.887035860328674,15.777721798419952,8.546575860328673Q15.777721798419952,9.207755860328675,15.726421798419953,9.553205860328674Q15.727321798419952,9.547055860328674,15.727321798419952,9.536265860328674L15.727321798419952,9.549845860328674L15.724921798419953,9.563205860328674Q15.600221798419952,10.245835860328674,14.926221798419952,10.401725860328675L14.676121798419953,10.460495860328674L14.641721798419953,10.314465860328674L14.686821798419953,10.457545860328674Q13.908621798419952,10.702485860328673,13.500121798419952,11.414905860328675Q13.083221798419952,12.137005860328674,13.284521798419952,12.985805860328675L13.138621798419953,13.020405860328674L13.282121798419952,12.976905860328674L13.339821798419953,13.166905860328674Q13.541621798419952,13.832905860328674,13.007921798419952,14.283305860328674L12.911221798419952,14.168705860328675L13.017921798419952,14.274105860328675Q12.867021798419952,14.426905860328674,12.167321798419952,14.831205860328675Q11.553521798419952,15.184205860328674,11.268721798419952,15.290205860328674Q10.609721798419953,15.527905860328675,10.138251798419953,15.018705860328675L9.964791798419952,14.832305860328674L10.074601798419952,14.730105860328674L9.971271798419952,14.838805860328675Q9.387361798419953,14.283905860328675,8.550891798419952,14.283905860328675L8.550891798419952,13.983905860328674Q9.507171798419952,13.983905860328674,10.177941798419953,14.621405860328675L10.181281798419953,14.624505860328675L10.358391798419952,14.814905860328674Q10.694821798419952,15.178305860328674,11.164021798419952,15.009105860328674Q11.425521798419952,14.911705860328674,12.017221798419952,14.571405860328674Q12.681921798419953,14.187405860328674,12.804421798419952,14.063305860328674L12.809221798419953,14.058405860328675L12.814421798419952,14.054005860328674Q13.197221798419953,13.730905860328674,13.052721798419952,13.254005860328673L12.993721798419953,13.059605860328674L12.992621798419952,13.055105860328675Q12.763821798419952,12.090305860328675,13.239921798419953,11.265605860328675Q13.706721798419952,10.451535860328674,14.596721798419953,10.171385860328675L14.602021798419953,10.169715860328674L14.858621798419952,10.109445860328675Q15.340521798419953,9.997975860328674,15.429821798419953,9.509315860328675L15.577321798419952,9.536265860328674L15.427321798419952,9.536265860328674Q15.427321798419952,9.524905860328674,15.429721798419953,9.509145860328674Q15.477721798419953,9.185605860328675,15.477721798419953,8.548005860328674Q15.474721798419953,7.909865860328674,15.426921798419952,7.588065860328674Q15.424721798419952,7.572945860328674,15.424721798419952,7.561655860328674L15.424721798419952,7.436525860328675L16.061621798419953,7.320405860328674L16.088521798419954,7.4679658603286745L16.115021798419953,7.6156058603286745L15.452721798419953,7.734475860328675L15.426321798419952,7.586635860328674Q15.338621798419952,7.094605860328675,14.860621798419952,6.9896658603286745L14.623521798419953,6.933765860328674L14.619221798419952,6.932485860328675Q13.711721798419953,6.660375860328674,13.234921798419952,5.835515860328674Q12.762621798419952,5.019975860328675,12.971121798419952,4.099215860328674L12.971821798419953,4.096115860328674L12.987021798419953,4.040075860328674L13.056621798419952,3.8312758603286743L13.198921798419953,3.8787358603286743L13.055521798419953,3.834715860328674Q13.197721798419952,3.371385860328674,12.816321798419953,3.045255860328674L12.811521798419953,3.0410858603286743L12.807021798419953,3.036515860328674Q12.690321798419953,2.9180658603286744,12.012821798419953,2.5245958603286742Q11.449421798419952,2.2002258603286746,11.162221798419953,2.086685860328674Q11.153921798419953,2.083405860328674,11.147821798419953,2.080375860328674L11.215021798419953,1.9462858603286743L11.163321798419952,2.0870758603286745Q10.702921798419952,1.9179158603286743,10.358071798419953,2.2847358603286745L10.198551798419953,2.4559558603286744L10.195311798419953,2.4590458603286742Q9.508521798419952,3.1133658603286745,8.552881798419952,3.1133658603286745Q7.596571798419952,3.1133658603286745,6.929161798419952,2.4792558603286743L6.926031798419952,2.4762858603286744L6.745421798419953,2.2837758603286744Q6.407311798419952,1.9189358603286744,5.937701798419952,2.0889258603286742Q5.698241798419953,2.1742158603286743,5.086281798419952,2.5268958603286746Q4.521881798419952,2.8555458603286743,4.288751798419952,3.0470458603286743Q4.2857317984199526,3.049535860328674,4.283431798419953,3.051285860328674L4.1925917984199526,2.931915860328674L4.289161798419952,3.0466958603286742Q3.9063617984199523,3.3687758603286744,4.0509117984199525,3.8449058603286743L4.118611798419952,4.066275860328674L4.119711798419953,4.070905860328674Q4.341391798419952,5.004015860328674,3.8640117984199525,5.833365860328675Q3.3987917984199525,6.6483558603286745,2.507951798419952,6.925985860328674L2.502731798419952,6.927615860328674L2.241541798419952,6.988545860328674Q1.7601417984199523,7.098855860328674,1.6702117984199525,7.590275860328674Q1.6227017984199523,7.828975860328674,1.6227017984199523,8.547955860328674Q1.6227017984199523,9.312995860328675,1.6679217984199524,9.493045860328674L1.6692217984199524,9.498235860328675L1.6701517984199523,9.503505860328675Q1.7579317984199523,10.000735860328675,2.236121798419952,10.106515860328674L2.426671798419952,10.149105860328675L2.4314717984199525,10.150515860328674Q3.3846417984199526,10.431525860328675,3.8620317984199524,11.266605860328674Q4.338811798419952,12.101805860328675,4.122941798419952,13.001205860328675L4.122151798419953,13.004605860328674L4.052921798419952,13.244205860328675Q3.9059517984199523,13.725505860328674,4.285721798419953,14.049105860328675Q4.500501798419952,14.229405860328674,5.0898117984199525,14.570805860328674Q5.700951798419952,14.923805860328674,5.941591798419952,15.009405860328675Q6.400651798419952,15.177505860328674,6.745511798419952,14.810705860328675L6.896501798419952,14.648105860328675L6.899821798419953,14.644905860328674Q7.594881798419952,13.982605860328674,8.551091798419952,13.983905860328674L8.550681798419953,14.283905860328675ZM11.849721798419953,8.717245860328674Q11.849721798419953,10.093335860328674,10.882721798419952,11.069205860328674Q9.915171798419953,12.045605860328674,8.550231798419953,12.045605860328674Q7.183611798419952,12.044205860328674,6.217591798419952,11.069305860328674Q5.252131798419953,10.095005860328675,5.250691798419952,8.717405860328675Q5.250691798419952,7.3406658603286745,6.217451798419952,6.365055860328674Q7.1847817984199525,5.388865860328674,8.550231798419953,5.388865860328674Q9.915281798419953,5.388865860328674,10.882721798419952,6.365045860328674Q11.849721798419953,7.340785860328674,11.849721798419953,8.717245860328674ZM11.549721798419952,8.717245860328674Q11.549721798419952,7.464255860328675,10.669621798419952,6.576225860328674Q9.790231798419953,5.688865860328674,8.550231798419953,5.688865860328674Q7.3098517984199525,5.688855860328674,6.430551798419953,6.5762158603286744Q5.550691798419952,7.464135860328675,5.550691798419952,8.717085860328673Q5.552001798419952,9.971405860328675,6.430691798419953,10.858105860328674Q7.308821798419952,11.744305860328675,8.550231798419953,11.745605860328673Q9.790101798419952,11.745605860328673,10.669621798419952,10.858005860328674Q11.549721798419952,9.969865860328675,11.549721798419952,8.717245860328674ZM10.528621798419952,8.717245860328674Q10.528621798419952,6.719335860328674,8.550231798419953,6.7193258603286745Q6.571801798419952,6.719335860328674,6.571801798419952,8.717245860328674Q6.571801798419952,10.715165860328675,8.550231798419953,10.715175860328674Q9.367911798419952,10.715165860328675,9.948001798419952,10.129765860328675Q10.528621798419952,9.543795860328673,10.528621798419952,8.717245860328674ZM10.828621798419952,8.717245860328674Q10.828621798419952,9.667255860328675,10.161091798419953,10.340925860328674Q9.492971798419953,11.015205860328674,8.550231798419953,11.015205860328674Q7.607481798419952,11.015205860328674,6.939361798419952,10.340925860328674Q6.271801798419952,9.667255860328675,6.271801798419952,8.717245860328674Q6.271801798419952,7.767245860328674,6.939361798419952,7.093565860328674Q7.607481798419952,6.419335860328674,8.550231798419953,6.419325860328675Q9.492971798419953,6.419325860328675,10.161101798419953,7.093565860328674Q10.828621798419952,7.767245860328674,10.828621798419952,8.717245860328674Z" fill="#303433" fill-opacity="1"/></g><g></g></g></svg>