<svg xmlns="http://www.w3.org/2000/svg" xmlns:xlink="http://www.w3.org/1999/xlink" fill="none" version="1.1" width="18" height="17.0699462890625" viewBox="0 0 18 17.0699462890625"><g><path d="M11.6074,17.0699Q10.5771,17.0699,9.91501,16.3558L9.75333,16.1812Q9.46597,15.9116,9.00074,15.9116Q8.54518,15.9116,8.20825,16.2208L8.08794,16.3529Q7.64204,16.8274,6.94911,16.9948Q6.25625,17.1621,5.65437,16.9407Q5.25102,16.79,4.50419,16.3584Q3.75927,15.927,3.41429,15.64Q2.91698,15.2141,2.71933,14.5367Q2.52179,13.8596,2.71222,13.2387L2.77621,13.0221Q2.86786,12.6293,2.63289,12.2198Q2.40247,11.8142,1.95895,11.6827L1.79928,11.6479Q1.16279,11.5072,0.675931,10.9955Q0.189165,10.4839,0.0747614,9.8366Q0,9.44093,0,8.53403Q0,7.5747,0.0779405,7.21746Q0.194541,6.58213,0.67845,6.07529Q1.16398,5.56676,1.79698,5.4211L2.03573,5.36676Q2.40489,5.25275,2.639,4.84845Q2.86355,4.45741,2.76662,4.004L2.71256,3.82898Q2.52152,3.20155,2.72087,2.5245Q2.91998,1.84821,3.41609,1.43046Q3.71718,1.16718,4.4994,0.71167Q5.23954,0.2853,5.65446,0.128293Q6.27391,-0.0948778,6.95931,0.0701657Q7.64439,0.235135,8.08766,0.71348L8.25233,0.890412Q8.53748,1.15793,9.0029,1.15793Q9.45853,1.15793,9.78605,0.856012L9.91727,0.712867Q10.3629,0.239764,11.0557,0.0729018Q11.7478,-0.0937947,12.3472,0.126436Q12.7342,0.268878,13.4972,0.708889Q14.2524,1.14597,14.5922,1.431Q15.0871,1.85498,15.2841,2.53178Q15.481,3.20864,15.2895,3.83242L15.224,4.03287Q15.1373,4.46234,15.3601,4.85097Q15.5852,5.24001,16.0167,5.37943L16.1999,5.42162Q16.8335,5.56123,17.3196,6.07188Q17.806,6.58278,17.921,7.22993Q17.9953,7.63363,18,8.53038Q18,9.40995,17.9239,9.84606Q17.8068,10.4851,17.322,10.9937Q16.8368,11.5027,16.2048,11.6483L15.9962,11.6964Q15.5832,11.8382,15.3658,12.223Q15.1332,12.6248,15.2401,13.0769L15.2933,13.246Q15.4822,13.8716,15.2828,14.5477Q15.0834,15.2239,14.5885,15.6417Q14.2896,15.9045,13.5012,16.3601Q12.7246,16.8063,12.3431,16.9435Q11.9863,17.0712,11.6081,17.0699L11.6074,17.0699ZM16.5239,7.48125L16.5262,7.4943Q16.5771,7.84682,16.5803,8.53397Q16.5803,9.23135,16.5271,9.5897Q16.4857,9.81134,16.2965,10.01Q16.1063,10.2096,15.8866,10.2604L15.6027,10.3275Q14.6407,10.6303,14.1361,11.5103Q13.6215,12.4017,13.8689,13.4449L13.8699,13.4492L13.9341,13.6606Q14.0002,13.8789,13.9218,14.1436Q13.8431,14.4094,13.6667,14.5583L13.6619,14.5624L13.6574,14.5669Q13.5216,14.7045,12.7937,15.125Q12.1466,15.4972,11.8595,15.6041Q11.6472,15.6807,11.3747,15.6141Q11.105,15.5482,10.955,15.3862L10.7623,15.1791L10.7592,15.1762Q10.0344,14.4874,9.00073,14.4873Q7.96731,14.486,7.2161,15.2018L7.213,15.2048L7.0488,15.3816Q6.89748,15.5426,6.62078,15.6104Q6.346,15.6777,6.14632,15.6046Q5.8819,15.5104,5.21348,15.1243Q4.57042,14.7518,4.33289,14.5528Q4.15977,14.4053,4.08207,14.1384Q4.00415,13.8708,4.07161,13.6499L4.14687,13.3893L4.14761,13.3862Q4.38089,12.4142,3.86547,11.5113Q3.34948,10.6087,2.3189,10.3049L2.31442,10.3036L2.10734,10.2573Q1.88892,10.209,1.70117,10.0098Q1.5122,9.80936,1.47179,9.58048L1.47092,9.57556L1.46971,9.57071Q1.41967,9.37153,1.41967,8.53403Q1.41967,7.74744,1.47195,7.48474Q1.51313,7.25974,1.70355,7.05988Q1.89386,6.86013,2.11313,6.80988L2.3971,6.74364L2.40198,6.74212Q3.36479,6.44205,3.86763,5.56117Q4.38371,4.66459,4.14407,3.65591L4.14305,3.65158L4.06942,3.41084Q4.00338,3.19332,4.08179,2.92885Q4.16034,2.6639,4.33592,2.51572L4.33649,2.51525Q4.59226,2.30515,5.20956,1.94569Q5.87905,1.55986,6.14227,1.4661Q6.35293,1.38985,6.62516,1.45569Q6.89732,1.52152,7.04871,1.68487L7.24516,1.89426L7.24807,1.89703Q7.96923,2.58219,9.0029,2.58219Q10.0358,2.58219,10.7781,1.875L10.7811,1.87213L10.9547,1.68587Q11.1059,1.52494,11.3821,1.45744Q11.656,1.39052,11.8567,1.46348L11.8579,1.46394Q12.1728,1.58844,12.7889,1.94312Q13.5306,2.37391,13.6602,2.50546L13.6644,2.50971L13.669,2.51359Q13.8429,2.66235,13.9224,2.92846Q14.0007,3.19081,13.9376,3.39822L13.8624,3.62365L13.8461,3.68365L13.8455,3.68654Q13.6201,4.68184,14.1306,5.56338Q14.646,6.45501,15.627,6.74913L15.631,6.75033L15.8889,6.81114Q16.1033,6.85823,16.2936,7.05912Q16.4846,7.26075,16.5239,7.48125ZM12.5754,8.71869Q12.5754,10.21,11.5275,11.2675Q10.479,12.3256,9.00001,12.3256Q7.51919,12.324,6.4724,11.2676Q5.42613,10.2118,5.42456,8.71884Q5.42456,7.22687,6.47225,6.1696Q7.52045,5.11179,9.00001,5.11178Q10.4791,5.11179,11.5275,6.16959Q12.5754,7.227,12.5754,8.71869ZM11.1818,8.71869Q11.1818,7.80733,10.5416,7.16121Q9.90183,6.51562,9.00001,6.51562Q8.09819,6.51562,7.45845,7.16121Q6.8182,7.80733,6.8182,8.71869Q6.8182,9.63006,7.45845,10.2762Q8.09819,10.9218,9.00001,10.9218Q9.90183,10.9218,10.5416,10.2762Q11.1818,9.63006,11.1818,8.71869Z" fill-rule="evenodd" fill="#2A3331" fill-opacity="1"/></g></svg>