<svg xmlns="http://www.w3.org/2000/svg" xmlns:xlink="http://www.w3.org/1999/xlink" fill="none" version="1.1" width="15" height="18" viewBox="0 0 15 18"><g style="mix-blend-mode:passthrough"><g><path d="M5.869748474121094,13.884757161560058C5.568433474121094,13.881157161560058,5.298690474121094,13.725247161560059,5.1839544741210934,13.48837716156006C5.069217474121094,13.25151716156006,5.131554474121094,12.979307161560058,5.342523474121093,12.796397161560058L7.827878474121094,10.667687161560059L5.342523474121093,10.667687161560059C5.041211474121094,10.664097161560058,4.771468474121094,10.50817716156006,4.656732274121094,10.27131716156006C4.541996274121094,10.03444716156006,4.604454274121093,9.76226716156006,4.8154234741210935,9.579357161560058L7.827878474121094,7.002511161560059C8.124238474121093,6.750585861560059,8.604758474121095,6.750585861560059,8.901118474121095,7.002511161560059C9.197478474121095,7.254435161560059,9.197478474121095,7.662885161560059,8.901118474121095,7.914807161560058L7.150138474121094,9.403297161560058L9.654288474121094,9.403297161560058C9.955598474121093,9.406897161560059,10.225348474121095,9.562817161560059,10.340078474121093,9.799677161560059C10.454818474121094,10.036537161560059,10.392478474121095,10.30875716156006,10.181508474121093,10.49165716156006L6.396968474121094,13.692687161560059C6.257918474121094,13.813307161560058,6.068398474121094,13.882347161560059,5.869748474121094,13.884757161560058Z" fill="#303433" fill-opacity="1"/><path d="M10.116008474121093,10.416107161560058Q10.405838474121094,10.164817161560059,10.250088474121092,9.843277161560058Q10.087918474121093,9.508487161560058,9.653098474121094,9.50329716156006L6.878108474121094,9.50329716156006L8.836348474121094,7.838617161560059Q9.023388474121095,7.679624161560058,9.023388474121095,7.458660161560059Q9.023388474121095,7.237696161560058,8.836348474121094,7.078703161560059Q8.364498474121094,6.6775991615600585,7.892638474121094,7.078703161560059L4.880426474121093,9.655357161560058Q4.591019394121094,9.90626716156006,4.746729474121094,10.227717161560058Q4.908899474121093,10.56250716156006,5.343717474121094,10.567697161560059L8.098358474121094,10.567687161560059L5.407574474121094,12.872347161560057Q5.118194474121093,13.12323716156006,5.273951474121094,13.444787161560058Q5.4361214741210935,13.77957716156006,5.870938474121093,13.784767161560058L5.869748474121094,13.884757161560058L5.8685384741210935,13.784767161560058Q6.142028474121094,13.78145716156006,6.331438474121094,13.617147161560059L10.116928474121094,10.415307161560058L10.116008474121093,10.416107161560058ZM10.246088474121095,10.568017161560059L6.462498474121094,13.768227161560059Q6.217728474121094,13.980547161560057,5.870958474121094,13.984747161560058L5.8697584741210935,13.984767161560058L5.868548474121094,13.984747161560058Q5.310050474121094,13.978087161560058,5.093956474121094,13.531977161560059Q4.871393474121094,13.072517161560057,5.277472474121094,12.72044716156006L7.762818474121094,10.591737161560058L7.827878474121094,10.667687161560059L7.827878474121094,10.767687161560058L5.3413294741210935,10.767687161560058Q4.782828474121094,10.761017161560058,4.566734974121093,10.314907161560058Q4.344218474121094,9.855537161560058,4.750420474121094,9.503367161560059L7.763108474121093,6.926319161560059Q8.364498474121094,6.415103161560059,8.965888474121094,6.926319161560059Q9.223388474121094,7.145211161560058,9.223388474121094,7.458660161560059Q9.223388474121094,7.772109161560058,8.965888474121094,7.990997161560059L7.214908474121094,9.479487161560058L7.150138474121094,9.403297161560058L7.150138474121094,9.303297161560058L9.655488474121093,9.303307161560058Q10.213988474121095,9.30997716156006,10.430078474121093,9.756087161560059Q10.652638474121094,10.215547161560059,10.247018474121095,10.567217161560059L10.246088474121095,10.568017161560059Z" fill="#FFFFFF" fill-opacity="1"/></g><g style="mix-blend-mode:passthrough"><rect x="3.649999976158142" y="0.6499999761581421" width="7.700000047683716" height="2.767793893814087" rx="0.3500000238418579" fill-opacity="0" stroke-opacity="1" stroke="#303433" fill="none" stroke-width="1.2999999523162842"/></g><g style="mix-blend-mode:passthrough"><path d="M0.6499999761581421 5.39577329158783C0.6499999761581421 4.291203791926243 1.5454304764965554 3.3957732915878296 2.649999976158142 3.3957732915878296L12.350000023841858 3.3957732915878296C13.454569523503444 3.3957732915878296 14.350000023841858 4.291203791926243 14.350000023841858 5.39577329158783L14.350000023841858 13.350000023841858C14.350000023841858 15.55913902316503 12.55913902316503 17.350000023841858 10.350000023841858 17.350000023841858L4.649999976158142 17.350000023841858C2.4408609768349687 17.350000023841858 0.6499999761581421 15.55913902316503 0.6499999761581421 13.350000023841858Z" fill-opacity="0" stroke-opacity="1" stroke="#303433" fill="none" stroke-width="1.2999999523162842"/></g></g></svg>