<svg xmlns="http://www.w3.org/2000/svg" xmlns:xlink="http://www.w3.org/1999/xlink" fill="none" version="1.1" width="18" height="18" viewBox="0 0 18 18"><g style="mix-blend-mode:passthrough"><g style="mix-blend-mode:passthrough"><g style="mix-blend-mode:passthrough"><g><path d="M7.99391,1C8.6694,1,9.3262,1.2181359999999999,9.86398,1.621C9.86398,1.621,11.2826,2.6841999999999997,11.2826,2.6841999999999997C11.2826,2.6841999999999997,13.6364,2.6841999999999997,13.6364,2.6841999999999997C15.7703,2.6841999999999997,17.5,4.3897200000000005,17.5,6.4937C17.5,6.4937,17.5,13.1905,17.5,13.1905C17.5,15.2945,15.7702,17,13.6364,17C13.6364,17,4.36364,17,4.36364,17C2.22975,17,0.5,15.2945,0.5,13.1905C0.5,13.1905,0.5,4.8095099999999995,0.5,4.8095099999999995C0.5,2.70554,2.22975,1,4.36364,1C4.36364,1,7.99391,1,7.99391,1C7.99391,1,7.99391,1,7.99391,1ZM7.99391,2.3333399999999997C7.99391,2.3333399999999997,4.36364,2.3333399999999997,4.36364,2.3333399999999997C3.0116,2.3333399999999997,1.90226,3.38864,1.85382,4.720829999999999C1.85382,4.720829999999999,1.85227,4.8095099999999995,1.85227,4.8095099999999995C1.85227,4.8095099999999995,1.85227,13.1905,1.85227,13.1905C1.85227,14.5236,2.92256,15.6174,4.27367,15.6651C4.27367,15.6651,4.36364,15.6667,4.36364,15.6667C4.36364,15.6667,13.6364,15.6667,13.6364,15.6667C14.9884,15.6667,16.0977,14.6114,16.1462,13.2792C16.1462,13.2792,16.1477,13.1905,16.1477,13.1905C16.1477,13.1905,16.1477,6.49373,16.1477,6.49373C16.1477,5.16063,15.0775,4.06682,13.7263,4.01905C13.7263,4.01905,13.6364,4.01751,13.6364,4.01751C13.6364,4.01751,11.2826,4.01751,11.2826,4.01751C11.0173,4.01751,10.758,3.94067,10.5368,3.7965C10.5368,3.7965,10.46431,3.74591,10.46431,3.74591C10.46431,3.74591,9.04597,2.68304,9.04597,2.68304C8.76921,2.47558,8.43571,2.35471,8.08857,2.33599C8.08857,2.33599,7.9939,2.3333399999999997,7.9939,2.3333399999999997C7.9939,2.3333399999999997,7.99391,2.3333399999999997,7.99391,2.3333399999999997Z" fill="#303433" fill-opacity="1"/></g></g><g><path d="M11.5659340234375,8.722543505859376C11.5659340234375,8.722543505859376,9.3177640234375,6.465545505859375,9.3177640234375,6.465545505859375C9.1421640234375,6.289276105859375,8.8575740234375,6.289276105859375,8.6819940234375,6.465545505859375C8.6819940234375,6.465545505859375,6.4338100234375,8.722543505859376,6.4338100234375,8.722543505859376C6.2582288234375,8.898813505859374,6.2582288234375,9.184543505859375,6.4338100234375,9.360793505859375C6.6093910234375,9.537093505859374,6.8940170234375,9.537093505859374,7.0695980234375,9.360793505859375C7.0695980234375,9.360793505859375,8.5502540234375,7.874363505859375,8.5502540234375,7.874363505859375C8.5502540234375,7.874363505859375,8.5502540234375,12.201453505859375,8.5502540234375,12.201453505859375C8.5502540234375,12.450833505859375,8.7514440234375,12.652853505859376,8.9998840234375,12.652853505859376C9.2482940234375,12.652853505859376,9.449524023437501,12.450833505859375,9.449524023437501,12.201453505859375C9.449524023437501,12.201453505859375,9.449524023437501,7.874363505859375,9.449524023437501,7.874363505859375C9.449524023437501,7.874363505859375,10.9301740234375,9.360793505859375,10.9301740234375,9.360793505859375C11.0178540234375,9.448843505859376,11.1329640234375,9.493063505859375,11.2480640234375,9.493063505859375C11.3631740234375,9.493063505859375,11.4782840234375,9.449043505859375,11.5659640234375,9.360793505859375C11.7415440234375,9.184543505859375,11.7415440234375,8.898813505859374,11.5659640234375,8.722543505859376C11.5659640234375,8.722543505859376,11.5659340234375,8.722543505859376,11.5659340234375,8.722543505859376Z" fill="#303433" fill-opacity="1"/><path d="M11.6722340234375,8.616683505859374Q12.0955740234375,9.041683505859375,11.6722340234375,9.466653505859375Q11.4969640234375,9.643063505859375,11.2480640234375,9.643063505859375Q10.9995640234375,9.643063505859375,10.8238840234375,9.466633505859376L9.343254023437499,7.9802235058593745L9.449524023437501,7.874363505859375L9.5995240234375,7.874363505859375L9.5995240234375,12.201453505859375Q9.5995240234375,12.802853505859375,8.9998840234375,12.802853505859375Q8.4002540234375,12.802853505859375,8.4002540234375,12.201453505859375L8.4002540234375,7.874363505859375L8.5502540234375,7.874363505859375L8.6565240234375,7.9802235058593745L7.1758700234375,9.466653505859375Q7.0002240234375,9.643023505859375,6.7517040234375,9.643023505859375Q6.5031830234375,9.643013505859376,6.3275266234375,9.466643505859375Q5.9041940234375,9.041683505859375,6.3275364234375004,8.616683505859374L8.5757140234375,6.359687305859375Q8.7513740234375,6.183343505859375,8.9998740234375,6.183343505859375Q9.2483640234375,6.183343505859375,9.4240340234375,6.359682405859375L11.6722040234375,8.616683505859374L11.459654023437501,8.828403505859375L9.2114940234375,6.571408505859375Q9.1237640234375,6.483343505859375,8.9998740234375,6.483343505859375Q8.8759840234375,6.483343505859375,8.788264023437499,6.571403505859375L6.5400830234375,8.828403505859375Q6.3276403234375,9.041673505859375,6.5400930234375,9.254943505859375Q6.6278080234375,9.343023505859374,6.7517040234375,9.343023505859374Q6.8756000234375,9.343023505859374,6.9633250234375,9.254933505859375L8.7002540234375,7.511233505859375L8.7002540234375,12.201453505859375Q8.7002540234375,12.326533505859375,8.7881740234375,12.414813505859374Q8.8758640234375,12.502853505859374,8.9998840234375,12.502853505859374Q9.1238840234375,12.502853505859374,9.2115840234375,12.414813505859374Q9.299524023437499,12.326523505859374,9.299524023437499,12.201453505859375L9.299524023437499,7.511233505859375L11.0364640234375,9.254953505859374Q11.1242040234375,9.343063505859375,11.2480640234375,9.343063505859375Q11.3721240234375,9.343063505859375,11.4596940234375,9.254933505859375Q11.6721340234375,9.041673505859375,11.4596940234375,8.828403505859375L11.6722340234375,8.616683505859374Z" fill="#303433" fill-opacity="1"/></g></g><g style="mix-blend-mode:passthrough"></g></g></svg>