<svg xmlns="http://www.w3.org/2000/svg" xmlns:xlink="http://www.w3.org/1999/xlink" fill="none" version="1.1" width="48.300048828125" height="42.34521484375" viewBox="0 0 48.300048828125 42.34521484375"><g><g><path d="M29.2845244140625,1.70593234375C27.9559244140625,0.69648034375,26.3332244140625,0.14990234375,24.6644244140625,0.14990234375L15.6954944140625,0.14990234375C10.4235244140625,0.14990234375,6.1500244140625,4.42343234375,6.1500244140625,9.69532234375L6.1500244140625,30.69540234375C6.1500244140625,35.96730234375,10.4235244140625,40.24080234375,15.6954944140625,40.24080234375L38.6046244140625,40.24080234375C43.8765244140625,40.24080234375,48.1500244140625,35.96730234375,48.1500244140625,30.69540234375L48.1500244140625,13.91540234375C48.1500244140625,8.64347234375,43.8765244140625,4.36997234375,38.6046244140625,4.36997234375L32.789424414062495,4.36997234375L29.2845244140625,1.70593234375ZM24.6644244140625,3.49082234375L24.8982244140625,3.49747234375C25.7559244140625,3.54437234375,26.5798244140625,3.84724234375,27.2636244140625,4.36705234375L30.7677244140625,7.03028234375L30.9469244140625,7.15705234375C31.4934244140625,7.51828234375,32.1340244140625,7.71082234375,32.789424414062495,7.71082234375L38.6046244140625,7.71082234375L38.8268244140625,7.71469234375C42.1649244140625,7.83439234375,44.8091244140625,10.57510234375,44.8091244140625,13.91540234375L44.8091244140625,30.69540234375L44.8053244140625,30.91760234375C44.6856244140625,34.25560234375,41.9449244140625,36.89990234375,38.6046244140625,36.89990234375L15.6954944140625,36.89990234375L15.4732144140625,36.89610234375C12.1351744140625,36.77640234375,9.4909244140625,34.03570234375,9.4909244140625,30.69530234375L9.4909244140625,9.69532234375L9.4947644140625,9.47311234375C9.6144344140625,6.13508234375,12.3551644140625,3.49082234375,15.6954944140625,3.49082234375L24.6644244140625,3.49082234375ZM26.3634244140625,29.01690234375L20.809124414062502,23.36160234375C20.3753244140625,22.91990234375,20.3753244140625,22.20400234375,20.809124414062502,21.76240234375C21.025724414062502,21.54120234375,21.3101244140625,21.43090234375,21.5944244140625,21.43090234375C21.8788244140625,21.43090234375,22.1632244140625,21.54170234375,22.3798244140625,21.76240234375L26.0379244140625,25.48690234375L26.0379244140625,14.64460234375C26.0379244140625,14.01970234375,26.5351244140625,13.51350234375,27.1488244140625,13.51350234375C27.7626244140625,13.51350234375,28.2596244140625,14.01970234375,28.2596244140625,14.64460234375L28.2596244140625,25.48690234375L31.9177244140625,21.76240234375C32.351524414062496,21.32060234375,33.0547244140625,21.32060234375,33.488524414062496,21.76240234375C33.9223244140625,22.20400234375,33.9223244140625,22.91990234375,33.488524414062496,23.36160234375L27.9342244140625,29.01690234375C27.5004244140625,29.45860234375,26.7973244140625,29.45860234375,26.3634244140625,29.01690234375Z" fill-rule="evenodd" fill="#E9F0EF" fill-opacity="1"/><path d="M32.8400244140625,4.21997234375L38.6046244140625,4.21997234375Q40.5770244140625,4.21997234375,42.3786244140625,4.98192234375Q44.1185244140625,5.71782234375,45.4603244140625,7.05964234375Q46.8022244140625,8.40144234375,47.5380244140625,10.14139234375Q48.3000244140625,11.94290234375,48.3000244140625,13.91540234375L48.3000244140625,30.69540234375Q48.3000244140625,32.66790234375,47.5380244140625,34.46940234375Q46.8021244140625,36.20940234375,45.4603244140625,37.55110234375Q44.1185244140625,38.89300234375,42.3786244140625,39.62890234375Q40.5769244140625,40.39080234375,38.6046244140625,40.39080234375L15.6954944140625,40.39080234375Q13.7230344140625,40.39080234375,11.9214644140625,39.62890234375Q10.1815044140625,38.89300234375,8.8397044140625,37.55110234375Q7.4978744140625,36.20930234375,6.7619814140625,34.46940234375Q6.0000244140625,32.66780234375,6.0000244140625,30.69540234375L6.0000244140625,9.69532234375Q6.0000244140625,7.72285234375,6.7619824140625,5.92134234375Q7.4979044140625,4.18139234375,8.8397044140625,2.83959234375Q10.1815044140625,1.49779234375,11.9214644140625,0.76186434375Q13.7229944140625,-0.00009765624999999445,15.6954944140625,-0.00009765624999999445L24.6644244140625,-0.00009765624999999445Q27.2870244140625,-0.00009965624999999645,29.3753244140625,1.58651234375L32.8400244140625,4.21997234375ZM29.1938244140625,1.82535234375L32.6987244140625,4.48939234375L32.738924414062495,4.51997234375L38.6046244140625,4.51997234375Q40.5162244140625,4.51996234375,42.2617244140625,5.25823234375Q43.9477244140625,5.97132234375,45.2482244140625,7.27177234375Q46.5487244140625,8.57220234375,47.2617244140625,10.25830234375Q48.0000244140625,12.00380234375,48.0000244140625,13.91540234375L48.0000244140625,30.69540234375Q48.0000244140625,32.60710234375,47.2617244140625,34.35250234375Q46.5486244140625,36.03860234375,45.2482244140625,37.33900234375Q43.9477244140625,38.63950234375,42.2617244140625,39.35250234375Q40.5161244140625,40.09080234375,38.6046244140625,40.09080234375L15.6954944140625,40.09080234375Q13.7838644140625,40.09080234375,12.0383344140625,39.35260234375Q10.3522644140625,38.63940234375,9.0518344140625,37.33900234375Q7.7513744140625,36.03850234375,7.0382834140625,34.35250234375Q6.3000244140625,32.60700234375,6.3000244140625,30.69540234375L6.3000244140625,9.69532234375Q6.3000244140625,7.78369234375,7.0382844140625,6.03820234375Q7.7514044140625,4.35214234375,9.0518344140625,3.05172234375Q10.3522644140625,1.75129234375,12.0383344140625,1.03816634375Q13.7838244140625,0.29990234375,15.6954944140625,0.29990234375L24.6644244140625,0.29990234375Q27.1860244140625,0.29990234375,29.1938244140625,1.82535234375ZM24.6665244140625,3.34082234375L15.6954944140625,3.34082234375Q13.1297044140625,3.34082234375,11.2832344140625,5.12225234375Q9.436784414062501,6.90367234375,9.3447844140625,9.47052234375L9.3409244140625,9.69532234375L9.3409244140625,30.69530234375Q9.3409244140625,33.26120234375,11.1223544140625,35.10760234375Q12.9038244140625,36.95410234375,15.4706344140625,37.04600234375L15.6954944140625,37.04990234375L38.6046244140625,37.04990234375Q41.1704244140625,37.04990234375,43.0168244140625,35.26850234375Q44.8632244140625,33.48700234375,44.9553244140625,30.92020234375L44.9591244140625,30.69540234375L44.9591244140625,13.91540234375Q44.9591244140625,11.34960234375,43.1777244140625,9.50318234375Q41.3963244140625,7.65674234375,38.8294244140625,7.56471234375L38.6046244140625,7.56082234375L32.789424414062495,7.56082234375Q31.8310244140625,7.56082234375,31.0316244140625,7.03321234375L30.8565244140625,6.90931234375L27.3544244140625,4.24764234375Q26.2685244140625,3.42218234375,24.9064244140625,3.34769234375L24.9045244140625,3.34758234375L24.6665244140625,3.34082234375ZM11.4915244140625,5.33815234375Q13.2508244140625,3.64082234375,15.6954944140625,3.64082234375L24.6622244140625,3.64082234375L24.8920244140625,3.64735234375Q26.1610244140625,3.71730234375,27.1728244140625,4.48646234375L30.6790244140625,7.15125234375L30.8622244140625,7.28087234375L30.8642244140625,7.28218234375Q31.7396244140625,7.86081234375,32.789424414062495,7.86082234375L38.6046244140625,7.86082234375L38.8242244140625,7.86467234375Q41.2645244140625,7.95220234375,42.9618244140625,9.71148234375Q44.6591244140625,11.47070234375,44.6591244140625,13.91540234375L44.6591244140625,30.69540234375L44.6553244140625,30.91500234375Q44.5678244140625,33.35520234375,42.8085244140625,35.05260234375Q41.0492244140625,36.74990234375,38.6046244140625,36.74990234375L15.6954944140625,36.74990234375L15.4758044140625,36.74610234375Q13.0356244140625,36.65860234375,11.3382544140625,34.89930234375Q9.6409244140625,33.14000234375,9.6409244140625,30.69530234375L9.6409244140625,9.69532234375L9.6447344140625,9.47570234375Q9.7322544140625,7.03547234375,11.4915244140625,5.33815234375ZM27.1488244140625,29.49820234375Q27.6717244140625,29.49820234375,28.0412244140625,29.12200234375L33.595524414062496,23.46670234375Q33.9638244140625,23.09170234375,33.9638244140625,22.56200234375Q33.9638244140625,22.03220234375,33.595524414062496,21.65730234375Q33.2261244140625,21.28110234375,32.7031244140625,21.28110234375Q32.180124414062504,21.28110234375,31.8107244140625,21.65730234375L28.4096244140625,25.12010234375L28.4096244140625,14.64460234375Q28.4096244140625,14.11460234375,28.0414244140625,13.73960234375Q27.6720244140625,13.36350234375,27.1488244140625,13.36350234375Q26.6256244140625,13.36350234375,26.2562244140625,13.73960234375Q25.8879244140625,14.11460234375,25.8879244140625,14.64460234375L25.8879244140625,25.12010234375L22.4869244140625,21.65730234375Q22.117424414062498,21.28090234375,21.5944244140625,21.28090234375Q21.0707244140625,21.28090234375,20.7020244140625,21.65730234375Q20.3337244140625,22.03230234375,20.3337244140625,22.56200234375Q20.3337244140625,23.09170234375,20.7021244140625,23.46670234375L26.2564244140625,29.12200234375Q26.6259244140625,29.49820234375,27.1488244140625,29.49820234375ZM33.3815244140625,23.25650234375L27.8271244140625,28.91180234375Q27.5459244140625,29.19820234375,27.1488244140625,29.19820234375Q26.7517244140625,29.19820234375,26.4704244140625,28.91180234375L20.916224414062498,23.25650234375Q20.6337244140625,22.96900234375,20.6337244140625,22.56200234375Q20.6337244140625,22.15490234375,20.9161244140625,21.86750234375Q21.196824414062498,21.58090234375,21.5944244140625,21.58090234375Q21.9915244140625,21.58090234375,22.2728244140625,21.86750234375L26.1879244140625,25.85370234375L26.1879244140625,14.64460234375Q26.1879244140625,14.23730234375,26.4702244140625,13.94980234375Q26.7514244140625,13.66350234375,27.1488244140625,13.66350234375Q27.5462244140625,13.66350234375,27.8274244140625,13.94980234375Q28.1096244140625,14.23730234375,28.1096244140625,14.64460234375L28.1096244140625,25.85370234375L32.024724414062504,21.86750234375Q32.3060244140625,21.58110234375,32.7031244140625,21.58110234375Q33.100224414062495,21.58110234375,33.3815244140625,21.86750234375Q33.6638244140625,22.15490234375,33.6638244140625,22.56200234375Q33.6638244140625,22.96900234375,33.3815244140625,23.25650234375Z" fill-rule="evenodd" fill="#E9F0EF" fill-opacity="1"/></g><g><path d="M18.6157244140625,11.4373125C17.5552244140625,10.6315835,16.2600244140625,10.1953125,14.9279244140625,10.1953125L7.7690844140625,10.1953125C3.5610644140625,10.1953125,0.1500244140625,13.6063925,0.1500244140625,17.8143325L0.1500244140625,34.5763125C0.1500244140625,38.784212499999995,3.5610644140625,42.1953125,7.7690844140625,42.1953125L26.0548244140625,42.1953125C30.2627244140625,42.1953125,33.6738244140625,38.784212499999995,33.6738244140625,34.5763125L33.6738244140625,21.1827125C33.6738244140625,16.9747625,30.2628244140625,13.5637125,26.0548244140625,13.5637125L21.4132244140625,13.5637125L18.6157244140625,11.4373125ZM14.9279244140625,12.8619825L15.1146244140625,12.8672925C15.7991244140625,12.9047225,16.4568244140625,13.1464725,17.0026244140625,13.5613825L19.7995244140625,15.6871325L19.9425244140625,15.7883225C20.3788244140625,16.0766525,20.8901244140625,16.2303325,21.4132244140625,16.2303325L26.0548244140625,16.2303325L26.2322244140625,16.2334225C28.8966244140625,16.3289625,31.0072244140625,18.516572500000002,31.0072244140625,21.1828125L31.0072244140625,34.5763125L31.0041244140625,34.7537125C30.9086244140625,37.4180125,28.7210244140625,39.5286125,26.0548244140625,39.5286125L7.7690844140625,39.5286125L7.5916644140625,39.5256125C4.9272844140625,39.4301125,2.8166844140625,37.2424125,2.8166844140625,34.5762125L2.8166844140625,17.8143325L2.8197444140625,17.6369725C2.9152644140625,14.9726025,5.1028744140625,12.8619825,7.7690844140625,12.8619825L14.9279244140625,12.8619825ZM16.2841244140625,33.2366125L11.8507244140625,28.7226125C11.5044244140625,28.3700125,11.5044244140625,27.7986125,11.8507244140625,27.4461125C12.0235244140625,27.2696125,12.2505244140625,27.1815125,12.4775244140625,27.1815125C12.7045244140625,27.1815125,12.9315244140625,27.2700125,13.1044244140625,27.4461125L16.024224414062502,30.4189125L16.024224414062502,21.764812499999998C16.024224414062502,21.266012500000002,16.4211244140625,20.8620125,16.9109244140625,20.8620125C17.4008244140625,20.8620125,17.7976244140625,21.266012500000002,17.7976244140625,21.764812499999998L17.7976244140625,30.4189125L20.7174244140625,27.4461125C21.0637244140625,27.0935125,21.6250244140625,27.0935125,21.9712244140625,27.4461125C22.3174244140625,27.7986125,22.3174244140625,28.3700125,21.9712244140625,28.7226125L17.5378244140625,33.2366125C17.1916244140625,33.5891125,16.6304244140625,33.5891125,16.2841244140625,33.2366125Z" fill-rule="evenodd" fill="#0AC9AA" fill-opacity="1"/><path d="M21.4638244140625,13.413712499999999L26.0548244140625,13.413712499999999Q29.2729244140625,13.413712499999999,31.5484244140625,15.6891625Q33.8238244140625,17.9646325,33.8238244140625,21.1827125L33.8238244140625,34.5763125Q33.8238244140625,37.7944125,31.5483244140625,40.0698125Q29.2729244140625,42.3453125,26.0548244140625,42.3453125L7.7690844140625,42.3453125Q4.5509544140625,42.3453125,2.2754844140625,40.0698125Q0.00002441406250000555,37.7944125,0.00002441406250000555,34.5763125L0.00002441406250000555,17.8143325Q0.00002641406250000755,14.5962325,2.2754844140625,12.3207725Q4.5509444140625,10.0453125,7.7690844140625,10.0453125L14.9279244140625,10.0453125Q17.0315244140625,10.0453115,18.7064244140625,11.3178925L21.4638244140625,13.413712499999999ZM18.5249244140625,11.5567325L21.3225244140625,13.6831325L21.3627244140625,13.7137125L26.0548244140625,13.7137125Q29.1486244140625,13.7137025,31.3362244140625,15.9013025Q33.5238244140625,18.0888825,33.5238244140625,21.1827125L33.5238244140625,34.5763125Q33.5238244140625,37.6701125,31.3362244140625,39.857712500000005Q29.1486244140625,42.0453125,26.0548244140625,42.0453125L7.7690844140625,42.0453125Q4.6752144140625,42.0453125,2.4876144140625,39.857712500000005Q0.3000244140625,37.6701125,0.3000244140625,34.5763125L0.3000244140625,17.8143325Q0.30002241406249996,14.7205025,2.4876144140625,12.5329125Q4.6752144140625,10.3453125,7.7690844140625,10.3453125L14.9279244140625,10.3453125Q16.9304244140625,10.3453145,18.5249244140625,11.5567325ZM14.9300244140625,12.7119825L7.7690844140625,12.7119825Q5.7088744140625,12.7119825,4.2262544140625,14.1423925Q2.7436544140625,15.572782499999999,2.6697644140625,17.6343825L2.6666844140625,17.8143325L2.6666844140625,34.5762125Q2.6666844140625,36.636512499999995,4.0970844140625005,38.1191125Q5.5274644140625,39.601712500000005,7.5890844140625,39.675512499999996L7.7690844140625,39.6786125L26.0548244140625,39.6786125Q28.1150244140625,39.6786125,29.5976244140625,38.2482125Q31.0802244140625,36.8178125,31.1541244140625,34.756212500000004L31.1572244140625,34.5763125L31.1572244140625,21.1828125Q31.1571244140625,19.1225725,29.7268244140625,17.6399525Q28.2964244140625,16.157352500000002,26.2348244140625,16.0834425L26.0548244140625,16.0803325L21.4132244140625,16.0803325Q20.6575244140625,16.0803325,20.0272244140625,15.664472499999999L19.8883244140625,15.5661725L17.0933244140625,13.4419725Q16.2193244140625,12.7774725,15.1228244140625,12.7175125L15.1208244140625,12.7174125L14.9300244140625,12.7119825ZM4.4345544140625,14.358292500000001Q5.8300044140625,13.0119825,7.7690844140625,13.0119825L14.9258244140625,13.0119825L15.1083244140625,13.017172500000001Q16.1118244140625,13.072592499999999,16.9118244140625,13.680792499999999L19.7108244140625,15.8081025L19.8578244140625,15.9121425L19.8598244140625,15.9134525Q20.5662244140625,16.3803325,21.4132244140625,16.3803325L26.0548244140625,16.3803325L26.2296244140625,16.3834025Q28.1646244140625,16.4528125,29.5109244140625,17.8482525Q30.8572244140625,19.243702499999998,30.8572244140625,21.1828125L30.8572244140625,34.5763125L30.8541244140625,34.751112500000005Q30.7847244140625,36.686012500000004,29.3893244140625,38.0323125Q27.9938244140625,39.3786125,26.0548244140625,39.3786125L7.7690844140625,39.3786125L7.5942544140625,39.3756125Q5.6592644140625,39.3062125,4.3129844140625,37.9108125Q2.9666844140625,36.5153125,2.9666844140625,34.5762125L2.9666844140625,17.8143325L2.9697244140625,17.6395625Q3.0391244140625,15.7045825,4.4345544140625,14.358292500000001ZM16.9110244140625,33.6510125Q17.3411244140625,33.6510125,17.6448244140625,33.3417125L22.0782244140625,28.8277125Q22.3809244140625,28.5195125,22.3809244140625,28.0843125Q22.3809244140625,27.6491125,22.0782244140625,27.3410125Q21.7745244140625,27.0316125,21.3443244140625,27.0316125Q20.9142244140625,27.0316125,20.6104244140625,27.3410125L17.9476244140625,30.0521125L17.9476244140625,21.764812499999998Q17.9476244140625,21.3293125,17.6450244140625,21.0212125Q17.3413244140625,20.7120125,16.9109244140625,20.7120125Q16.4806244140625,20.7120125,16.1769244140625,21.0212125Q15.8743244140625,21.3293125,15.8742244140625,21.764812499999998L15.8742244140625,30.0521125L13.2115244140625,27.3410125Q12.9076244140625,27.0315125,12.4775244140625,27.0315125Q12.0468244140625,27.0315125,11.7436244140625,27.3410125Q11.4410244140625,27.6491125,11.4410244140625,28.0843125Q11.4410244140625,28.5195125,11.7437244140625,28.8277125L16.1771244140625,33.3417125Q16.4809244140625,33.6510125,16.9110244140625,33.6510125ZM21.8642244140625,28.6175125L17.4308244140625,33.1315125Q17.2152244140625,33.351012499999996,16.9110244140625,33.351012499999996Q16.6067244140625,33.351012499999996,16.3911244140625,33.131412499999996L11.9577244140625,28.6175125Q11.7410244140625,28.3968125,11.7410244140625,28.0843125Q11.7410244140625,27.7718125,11.9577244140625,27.5512125Q12.1728244140625,27.3315125,12.4775244140625,27.3315125Q12.7818244140625,27.3315125,12.9974244140625,27.5512125L16.1743244140625,30.7857125L16.1743244140625,21.764812499999998Q16.1743244140625,21.452012500000002,16.3909244140625,21.231412499999998Q16.6065244140625,21.0120125,16.9109244140625,21.0120125Q17.2154244140625,21.0120125,17.4310244140625,21.231412499999998Q17.6476244140625,21.452012500000002,17.6476244140625,21.764812499999998L17.6476244140625,30.7857125L20.8244244140625,27.5512125Q21.0401244140625,27.3316125,21.3443244140625,27.3316125Q21.6486244140625,27.3316125,21.8642244140625,27.5512125Q22.0809244140625,27.7718125,22.0809244140625,28.0843125Q22.0809244140625,28.3968125,21.8642244140625,28.6175125Z" fill-rule="evenodd" fill="#0AC9AA" fill-opacity="1"/></g></g></svg>