<svg xmlns="http://www.w3.org/2000/svg" xmlns:xlink="http://www.w3.org/1999/xlink" fill="none" version="1.1" width="17" height="16" viewBox="0 0 17 16"><g style="mix-blend-mode:passthrough"><g style="mix-blend-mode:passthrough"><g><path d="M7.49391,0C8.1694,0,8.8262,0.218136,9.36398,0.621C9.36398,0.621,10.7826,1.6842,10.7826,1.6842C10.7826,1.6842,13.1364,1.6842,13.1364,1.6842C15.2703,1.6842,17,3.38972,17,5.4937C17,5.4937,17,12.1905,17,12.1905C17,14.2945,15.2702,16,13.1364,16C13.1364,16,3.86364,16,3.86364,16C1.72975,16,0,14.2945,0,12.1905C0,12.1905,0,3.80951,0,3.80951C0,1.70554,1.72975,0,3.86364,0C3.86364,0,7.49391,0,7.49391,0C7.49391,0,7.49391,0,7.49391,0ZM7.49391,1.33334C7.49391,1.33334,3.86364,1.33334,3.86364,1.33334C2.5116,1.33334,1.40226,2.38864,1.35382,3.72083C1.35382,3.72083,1.35227,3.80951,1.35227,3.80951C1.35227,3.80951,1.35227,12.1905,1.35227,12.1905C1.35227,13.5236,2.42256,14.6174,3.77367,14.6651C3.77367,14.6651,3.86364,14.6667,3.86364,14.6667C3.86364,14.6667,13.1364,14.6667,13.1364,14.6667C14.4884,14.6667,15.5977,13.6114,15.6462,12.2792C15.6462,12.2792,15.6477,12.1905,15.6477,12.1905C15.6477,12.1905,15.6477,5.49373,15.6477,5.49373C15.6477,4.16063,14.5775,3.06682,13.2263,3.01905C13.2263,3.01905,13.1364,3.01751,13.1364,3.01751C13.1364,3.01751,10.7826,3.01751,10.7826,3.01751C10.5173,3.01751,10.258,2.94067,10.0368,2.7965C10.0368,2.7965,9.96431,2.74591,9.96431,2.74591C9.96431,2.74591,8.54597,1.68304,8.54597,1.68304C8.26921,1.47558,7.93571,1.35471,7.58857,1.33599C7.58857,1.33599,7.4939,1.33334,7.4939,1.33334C7.4939,1.33334,7.49391,1.33334,7.49391,1.33334Z" fill="#303433" fill-opacity="1"/></g></g><g transform="matrix(-1,0,0,-1,22.39537811279297,23.305723190307617)"><path d="M16.461499056396484,14.04206159515381C16.461499056396484,14.04206159515381,14.213329056396484,11.785063595153808,14.213329056396484,11.785063595153808C14.037729056396484,11.60879419515381,13.753139056396485,11.60879419515381,13.577559056396485,11.785063595153808C13.577559056396485,11.785063595153808,11.329375056396485,14.04206159515381,11.329375056396485,14.04206159515381C11.153793856396485,14.218331595153808,11.153793856396485,14.504061595153809,11.329375056396485,14.680311595153809C11.504956056396484,14.856611595153808,11.789582056396485,14.856611595153808,11.965163056396484,14.680311595153809C11.965163056396484,14.680311595153809,13.445819056396484,13.193881595153808,13.445819056396484,13.193881595153808C13.445819056396484,13.193881595153808,13.445819056396484,17.52097159515381,13.445819056396484,17.52097159515381C13.445819056396484,17.77035159515381,13.647009056396485,17.97237159515381,13.895449056396485,17.97237159515381C14.143859056396485,17.97237159515381,14.345089056396485,17.77035159515381,14.345089056396485,17.52097159515381C14.345089056396485,17.52097159515381,14.345089056396485,13.193881595153808,14.345089056396485,13.193881595153808C14.345089056396485,13.193881595153808,15.825739056396484,14.680311595153809,15.825739056396484,14.680311595153809C15.913419056396485,14.76836159515381,16.028529056396486,14.812581595153809,16.143629056396485,14.812581595153809C16.258739056396486,14.812581595153809,16.373849056396484,14.768561595153809,16.461529056396486,14.680311595153809C16.637109056396483,14.504061595153809,16.637109056396483,14.218331595153808,16.461529056396486,14.04206159515381C16.461529056396486,14.04206159515381,16.461499056396484,14.04206159515381,16.461499056396484,14.04206159515381Z" fill="#303433" fill-opacity="1"/><path d="M16.567799056396485,13.936201595153808Q16.991139056396484,14.361201595153808,16.567799056396485,14.786171595153808Q16.392529056396484,14.962581595153809,16.143629056396485,14.962581595153809Q15.895129056396485,14.962581595153809,15.719449056396485,14.78615159515381L14.238819056396483,13.299741595153808L14.345089056396485,13.193881595153808L14.495089056396484,13.193881595153808L14.495089056396484,17.52097159515381Q14.495089056396484,18.12237159515381,13.895449056396485,18.12237159515381Q13.295819056396484,18.12237159515381,13.295819056396484,17.52097159515381L13.295819056396484,13.193881595153808L13.445819056396484,13.193881595153808L13.552089056396484,13.299741595153808L12.071435056396485,14.786171595153808Q11.895789056396485,14.962541595153809,11.647269056396484,14.962541595153809Q11.398748056396485,14.96253159515381,11.223091656396484,14.786161595153809Q10.799759056396484,14.361201595153808,11.223101456396485,13.936201595153808L13.471279056396485,11.679205395153808Q13.646939056396484,11.502861595153808,13.895439056396484,11.502861595153808Q14.143929056396484,11.502861595153808,14.319599056396484,11.67920049515381L16.567769056396486,13.936201595153808L16.355219056396486,14.147921595153809L14.107059056396483,11.89092659515381Q14.019329056396485,11.802861595153809,13.895439056396484,11.802861595153809Q13.771549056396484,11.802861595153809,13.683829056396483,11.89092159515381L11.435648056396484,14.147921595153809Q11.223205356396484,14.361191595153809,11.435658056396484,14.574461595153808Q11.523373056396485,14.662541595153808,11.647269056396484,14.662541595153808Q11.771165056396484,14.662541595153808,11.858890056396485,14.574451595153809L13.595819056396484,12.830751595153808L13.595819056396484,17.52097159515381Q13.595819056396484,17.646051595153807,13.683739056396485,17.734331595153808Q13.771429056396485,17.822371595153808,13.895449056396485,17.822371595153808Q14.019449056396484,17.822371595153808,14.107149056396484,17.734331595153808Q14.195089056396483,17.646041595153807,14.195089056396483,17.52097159515381L14.195089056396483,12.830751595153808L15.932029056396484,14.574471595153808Q16.019769056396484,14.662581595153808,16.143629056396485,14.662581595153808Q16.267689056396485,14.662581595153808,16.355259056396484,14.574451595153809Q16.567699056396485,14.361191595153809,16.355259056396484,14.147921595153809L16.567799056396485,13.936201595153808Z" fill="#303433" fill-opacity="1"/></g></g></svg>