<svg xmlns="http://www.w3.org/2000/svg" xmlns:xlink="http://www.w3.org/1999/xlink" fill="none" version="1.1" width="52" height="52" viewBox="0 0 52 52"><g><g transform="matrix(0,0.9999998807907104,-0.9999998807907104,0,57.999999179155566,-44.22850953170564)"><path d="M58.3142578125,9.330212187499999L58.3142578125,13.5972821875L55.9142578125,13.5972821875C53.2632878125,13.5972821875,51.1142578125,15.7861421875,51.1142578125,18.4862421875L51.1142578125,41.1078421875C51.1142578125,46.5080421875,55.4123278125,50.8857421875,60.7142678125,50.8857421875L77.5142578125,50.8857421875C82.8161578125,50.8857421875,87.1142578125,46.5080421875,87.1142578125,41.1078421875L87.1142578125,18.4862421875C87.1142578125,15.7861421875,84.9652578125,13.5972821875,82.3142578125,13.5972821875L79.9142578125,13.5972821875L79.9142578125,9.330212187499999C79.9142578125,7.9801721875,78.8397578125,6.8857421875,77.5142578125,6.8857421875L60.7142578125,6.8857421875C59.3887778125,6.8857421875,58.3142578125,7.9801721875,58.3142578125,9.330212187499999ZM61.4342578125,13.5972821875L76.7942578125,13.5972821875L76.7942578125,10.063552187500001L61.4342578125,10.063552187500001L61.4342578125,13.5972821875ZM55.9142578125,16.7750921875L60.2114978125,16.7750921875C60.3767478125,16.8111521875,60.5452678125,16.8293321875,60.7142578125,16.8293321875L77.5142578125,16.8293321875C77.6832578125,16.8293321875,77.8517578125,16.8111521875,78.0170578125,16.7750921875L82.3142578125,16.7750921875Q83.0101578125,16.7750921875,83.5021578125,17.2762421875Q83.9942578125,17.7774421875,83.9942578125,18.4862421875L83.9942578125,41.1078421875Q83.9942578125,43.8417421875,82.0963578125,45.7748421875Q80.1983578125,47.7079421875,77.5142578125,47.7079421875L60.7142678125,47.7079421875Q58.0301578125,47.7079421875,56.1322078125,45.7748421875Q54.2342578125,43.8417421875,54.2342578125,41.1078421875L54.2342578125,18.4862421875Q54.2342578125,17.7774421875,54.7263178125,17.2762421875Q55.2183778125,16.7750921875,55.9142578125,16.7750921875ZM63.5548578125,39.8574421875C63.8301578125,40.4364421875,64.4775578125,40.8175421875,65.2007578125,40.8263421875C65.6774578125,40.8204421875,66.1323578125,40.6517421875,66.4660578125,40.3568421875L75.54895781249999,32.5320421875C76.0552578125,32.084942187500005,76.2048578125,31.4195421875,75.92955781250001,30.8405421875C75.6541578125,30.2615421875,75.0067578125,29.8803421875,74.2836578125,29.8715421875L68.2736578125,29.8715421875L72.4760578125,26.2330421875C73.18725781250001,25.6172421875,73.18725781250001,24.6187421875,72.4760578125,24.0029421875C71.7647578125,23.3871421875,70.61145781249999,23.3871421875,69.9002578125,24.0029421875L62.6703578125,30.3019421875C62.1640578125,30.7490421875,62.0141578125,31.4144421875,62.289457812500004,31.9934421875C62.5648578125,32.5724421875,63.2122578125,32.9535421875,63.9353578125,32.9623421875L69.9002578125,32.9623421875L63.9353578125,38.1659421875C63.4290578125,38.6130421875,63.2794578125,39.2784421875,63.5548578125,39.8574421875Z" fill-rule="evenodd" fill="#E9F0EF" fill-opacity="1"/></g><g transform="matrix(0,0.9999998807907104,-0.9999998807907104,0,52.99450506150606,-23.22448276168143)"><path d="M44.1094970703125,16.922069765625L44.1094970703125,20.477959765625002L42.1094970703125,20.477959765625002C39.9003570703125,20.477959765625002,38.1094970703125,22.302009765625,38.1094970703125,24.552079765625002L38.1094970703125,43.403509765625C38.1094970703125,47.903609765625,41.6912170703125,51.551709765625,46.1094970703125,51.551709765625L60.1094970703125,51.551709765625C64.5277970703125,51.551709765625,68.1094970703125,47.903609765625,68.1094970703125,43.403509765625L68.1094970703125,24.552079765625002C68.1094970703125,22.302009765625,66.3185970703125,20.477959765625002,64.1094970703125,20.477959765625002L62.1094970703125,20.477959765625002L62.1094970703125,16.922069765625C62.1094970703125,15.797030765625,61.214097070312505,14.885009765625,60.1094970703125,14.885009765625L46.1094970703125,14.885009765625C45.0049270703125,14.885009765625,44.1094970703125,15.797030765625,44.1094970703125,16.922069765625ZM46.7094970703125,20.477959765625002L59.5094970703125,20.477959765625002L59.5094970703125,17.533179765625L46.7094970703125,17.533179765625L46.7094970703125,20.477959765625002ZM42.1094970703125,23.126139765625L45.6905270703125,23.126139765625C45.8282370703125,23.156189765625,45.9686670703125,23.171329765625,46.1094970703125,23.171329765625L60.1094970703125,23.171329765625C60.2502970703125,23.171329765625,60.3907970703125,23.156189765625,60.5284970703125,23.126139765625L64.1094970703125,23.126139765625Q64.6893970703125,23.126139765625,65.0993970703125,23.543779765625Q65.5094970703125,23.961429765625,65.5094970703125,24.552079765625002L65.5094970703125,43.403509765625Q65.5094970703125,45.681609765625,63.9278970703125,47.292609765625Q62.3461970703125,48.903509765625,60.1094970703125,48.903509765625L46.1094970703125,48.903509765625Q43.8727470703125,48.903509765625,42.2911170703125,47.292609765625Q40.7094970703125,45.681609765625,40.7094970703125,43.403509765625L40.7094970703125,24.552079765625002Q40.7094970703125,23.961429765625,41.1195470703125,23.543779765625Q41.5295970703125,23.126139765625,42.1094970703125,23.126139765625ZM48.4765970703125,42.361409765625C48.7060970703125,42.843909765625,49.2455970703125,43.161509765625,49.8481970703125,43.168909765625C50.245497070312496,43.164009765624996,50.6244970703125,43.023309765625,50.9026970703125,42.777609765625L58.4716970703125,36.256909765625C58.8936970703125,35.884309765625005,59.0183970703125,35.329809765625,58.7888970703125,34.847309765625C58.5593970703125,34.364809765625,58.019897070312496,34.047209765625,57.4172970703125,34.039909765625L52.4089970703125,34.039909765625L55.910997070312504,31.007709765625C56.5036970703125,30.494609765625,56.5036970703125,29.662509765625,55.910997070312504,29.149309765625C55.3181970703125,28.636109765625,54.357197070312495,28.636109765625,53.7644970703125,29.149309765625L47.7395670703125,34.398509765625C47.3176270703125,34.771109765625,47.1927070703125,35.325609765625,47.4221770703125,35.808109765625005C47.6516570703125,36.290609765625,48.1910970703125,36.608209765625,48.7937970703125,36.615509765625L53.7644970703125,36.615509765625L48.7937970703125,40.951809765625C48.371797070312496,41.324409765625,48.2471970703125,41.878909765625,48.4765970703125,42.361409765625Z" fill-rule="evenodd" fill="#0AC9AA" fill-opacity="1"/></g></g></svg>