<svg xmlns="http://www.w3.org/2000/svg" xmlns:xlink="http://www.w3.org/1999/xlink" fill="none" version="1.1" width="49.8095703125" height="42" viewBox="0 0 49.8095703125 42"><g><g><path d="M43.7857,0C47.1125,0,49.8095,2.81429,49.8095,6.28573L49.8095,14.2857C49.8095,15.2325,49.074,16,48.1667,16C46.0496,16,44.3333,17.7909,44.3333,20C44.3333,22.2091,46.0496,24,48.1667,24C49.074,24,49.8095,24.7675,49.8095,25.7143L49.8095,33.7143C49.8095,37.1857,47.1125,40,43.7857,40L12.02379,40C8.69702,40,6,37.1857,6,33.7143L6,25.7144C6,24.7675,6.735545,24.0001,7.64287,24.0001C9.75997,24.0001,11.47621,22.2092,11.47621,20.0001C11.47621,17.7909,9.75997,16,7.64287,16C6.735545,16,6.0000196612,15.2325,6,14.2858L6,6.28573C6,2.81429,8.69702,0,12.02379,0L43.7857,0ZM43.7857,3.42859L12.02379,3.42859C10.51159,3.42859,9.28572,4.70776,9.28572,6.28573L9.28572,12.7703C12.425180000000001,13.544,14.76189,16.4874,14.76189,20C14.76189,23.5126,12.4252,26.4561,9.28568,27.2298L9.28568,33.7143C9.28568,35.2923,10.511569999999999,36.5715,12.02375,36.5715L43.7858,36.5715C45.298,36.5715,46.5238,35.2923,46.5238,33.7143L46.5238,27.2298C43.3844,26.4561,41.0476,23.5126,41.0476,20C41.0476,16.4874,43.3843,13.544,46.5239,12.7703L46.5239,6.28573C46.5239,4.70772,45.298,3.42855,43.7857,3.42859ZM27.9048,12.8572C28.8121,12.8572,29.5476,13.6247,29.5476,14.5715L29.5471,18.5715L33.381,18.5715C34.251000000000005,18.5715,34.9701,19.2791,35.021100000000004,20.1853L35.0238,20.2857C35.0238,21.2325,34.2883,22,33.381,22L29.5476,22L29.5476,26C29.5476,26.9079,28.8695,27.6583,28.0011,27.7115L27.9048,27.7143C26.9974,27.7143,26.2619,26.9468,26.2619,26L26.2619,22L22.4286,22C21.558500000000002,22,20.839399999999998,21.2924,20.7884,20.3862L20.7857,20.2857C20.7857,19.3389,21.5212,18.5714,22.4286,18.5714L26.2614,18.5714L26.2619,14.5714C26.2619,13.6636,26.94,12.9132,27.8085,12.86L27.9048,12.8572Z" fill="#E9F0EF" fill-opacity="1"/></g><g><path d="M30.2286,10C32.89,10,35.0476,12.25143,35.0476,15.02858L35.0476,21.4286C35.0476,22.186,34.4592,22.8,33.7333,22.8C32.0396,22.8,30.6667,24.2327,30.6667,26C30.6667,27.7673,32.0396,29.2,33.7333,29.2C34.4592,29.2,35.0476,29.814,35.0476,30.5714L35.0476,36.9714C35.0476,39.748599999999996,32.89,42,30.2286,42L4.81904,42C2.15762,42,0,39.748599999999996,0,36.9714L0,30.5715C0,29.814,0.588436,29.2001,1.3143,29.2001C3.00797,29.2001,4.38097,27.7673,4.38097,26.0001C4.38097,24.2327,3.00797,22.8,1.3143,22.8C0.588436,22.8,0.0000157289,22.186,0,21.4286L0,15.02858C0,12.25143,2.15762,10,4.81904,10L30.2286,10ZM30.2286,12.74287L4.81904,12.74287C3.60927,12.74287,2.62857,13.766210000000001,2.62857,15.02858L2.62857,20.2162C5.14014,20.8352,7.00951,23.1899,7.00951,26C7.00951,28.8101,5.14016,31.1648,2.62854,31.7838L2.62854,36.9715C2.62854,38.2339,3.60926,39.2572,4.819,39.2572L30.2286,39.2572C31.4384,39.2572,32.4191,38.2339,32.4191,36.9715L32.4191,31.7838C29.9075,31.1648,28.0381,28.8101,28.0381,26C28.0381,23.1899,29.9075,20.8352,32.4191,20.2162L32.4191,15.02858C32.4191,13.76618,31.4384,12.742840000000001,30.2286,12.74287ZM17.5238,20.2857C18.2497,20.2857,18.8381,20.8997,18.8381,21.6572L18.8377,24.8572L21.9048,24.8572C22.6008,24.8572,23.1761,25.423299999999998,23.2169,26.1482L23.2191,26.2286C23.2191,26.986,22.6307,27.6,21.9048,27.6L18.8381,27.6L18.8381,30.8C18.8381,31.5263,18.2956,32.126599999999996,17.6009,32.169200000000004L17.5238,32.1715C16.798,32.1715,16.2095,31.5575,16.2095,30.8L16.2095,27.6L13.1429,27.6C12.4468,27.6,11.8715,27.0339,11.8307,26.309L11.8285,26.2286C11.8285,25.4712,12.417,24.857100000000003,13.1428,24.857100000000003L16.2091,24.857100000000003L16.2095,21.6571C16.2095,20.9309,16.752,20.3305,17.4468,20.288L17.5238,20.2857Z" fill="#0AC9AA" fill-opacity="1"/></g></g></svg>