<svg xmlns="http://www.w3.org/2000/svg" xmlns:xlink="http://www.w3.org/1999/xlink" fill="none" version="1.1" width="18" height="18" viewBox="0 0 18 18"><g style="mix-blend-mode:passthrough"><g><path d="M15.1625,1.5C16.453400000000002,1.5,17.5,2.5553600000000003,17.5,3.85715C17.5,3.85715,17.5,6.85715,17.5,6.85715C17.5,7.21219,17.2146,7.5,16.8625,7.5C16.041,7.5,15.375,8.17157,15.375,9C15.375,9.82843,16.041,10.5,16.8625,10.5C17.2146,10.5,17.5,10.78781,17.5,11.14285C17.5,11.14285,17.5,14.1429,17.5,14.1429C17.5,15.4446,16.453400000000002,16.5,15.1625,16.5C15.1625,16.5,2.83749,16.5,2.83749,16.5C1.54656,16.5,0.5,15.4446,0.5,14.1429C0.5,14.1429,0.5,11.14288,0.5,11.14288C0.5,10.78783,0.785423,10.50003,1.137505,10.50003C1.95903,10.50003,2.62501,9.82845,2.62501,9.000029999999999C2.62501,8.17159,1.95903,7.50002,1.137505,7.50002C0.785423,7.50002,0.50000762939,7.2122,0.5,6.85716C0.5,6.85716,0.5,3.85715,0.5,3.85715C0.5,2.5553600000000003,1.54656,1.5,2.83749,1.5C2.83749,1.5,15.1625,1.5,15.1625,1.5C15.1625,1.5,15.1625,1.5,15.1625,1.5ZM15.1625,2.78572C15.1625,2.78572,2.83749,2.78572,2.83749,2.78572C2.25069,2.78572,1.775,3.26541,1.775,3.85715C1.775,3.85715,1.775,6.28886,1.775,6.28886C2.99325,6.57901,3.89999,7.68279,3.89999,9.00002C3.89999,10.31723,2.99326,11.42102,1.77499,11.7112C1.77499,11.7112,1.77499,14.1429,1.77499,14.1429C1.77499,14.7346,2.25069,15.2143,2.83748,15.2143C2.83748,15.2143,15.1625,15.2143,15.1625,15.2143C15.7493,15.2143,16.225,14.7346,16.225,14.1429C16.225,14.1429,16.225,11.7112,16.225,11.7112C15.0068,11.42102,14.1,10.31723,14.1,9.00002C14.1,7.68279,15.0068,6.57901,16.225,6.28885C16.225,6.28885,16.225,3.85715,16.225,3.85715C16.225,3.2654,15.7493,2.78571,15.1625,2.78571C15.1625,2.78571,15.1625,2.78572,15.1625,2.78572ZM9,6.32144C9.35208,6.32144,9.6375,6.60925,9.6375,6.96429C9.6375,6.96429,9.63729,8.46429,9.63729,8.46429C9.63729,8.46429,11.125,8.46429,11.125,8.46429C11.4626,8.46429,11.7417,8.72968,11.7615,9.069469999999999C11.7615,9.069469999999999,11.7625,9.10715,11.7625,9.10715C11.7625,9.46219,11.4771,9.75,11.125,9.75C11.125,9.75,9.6375,9.75,9.6375,9.75C9.6375,9.75,9.6375,11.25,9.6375,11.25C9.6375,11.5905,9.37437,11.8719,9.03738,11.8918C9.03738,11.8918,9,11.8929,9,11.8929C8.64792,11.8929,8.3625,11.6051,8.3625,11.25002C8.3625,11.25002,8.3625,9.75002,8.3625,9.75002C8.3625,9.75002,6.875,9.75002,6.875,9.75002C6.53739,9.75002,6.25835,9.48465,6.23856,9.14482C6.23856,9.14482,6.23749,9.10715,6.23749,9.10715C6.23749,8.75211,6.52291,8.464279999999999,6.87499,8.464279999999999C6.87499,8.464279999999999,8.36229,8.464279999999999,8.36229,8.464279999999999C8.36229,8.464279999999999,8.362490000000001,6.96428,8.362490000000001,6.96428C8.362490000000001,6.62384,8.62565,6.34244,8.96263,6.32249C8.96263,6.32249,9,6.32144,9,6.32144C9,6.32144,9,6.32144,9,6.32144Z" fill="#303433" fill-opacity="1"/></g><g style="mix-blend-mode:passthrough"></g></g></svg>