<svg xmlns="http://www.w3.org/2000/svg" xmlns:xlink="http://www.w3.org/1999/xlink" fill="none" version="1.1" width="83.8353271484375" height="83.83544921875" viewBox="0 0 83.8353271484375 83.83544921875"><g transform="matrix(0.7071068286895752,0.7071067094802856,-0.7071067094802856,0.7071068286895752,12.83906798393582,-30.996253938923473)"><g transform="matrix(0.7071067094802856,0.7071067094802856,-0.7071067094802856,0.7071067094802856,21.951773028259367,-52.99624981414786)"><path d="M82.14802284240723,2.44447L82.14802284240723,6.71154L79.74802284240722,6.71154C77.09705284240722,6.71154,74.94802284240723,8.9004,74.94802284240723,11.6005L74.94802284240723,34.2221C74.94802284240723,39.6223,79.24609284240722,44,84.54803284240722,44L101.34802284240723,44C106.64992284240722,44,110.94802284240723,39.6223,110.94802284240723,34.2221L110.94802284240723,11.6005C110.94802284240723,8.9004,108.79902284240723,6.71154,106.14802284240723,6.71154L103.74802284240722,6.71154L103.74802284240722,2.44447C103.74802284240722,1.09443,102.67352284240722,0,101.34802284240723,0L84.54802284240722,0C83.22254284240722,0,82.14802284240723,1.09443,82.14802284240723,2.44447ZM85.26802284240722,6.71154L100.62802284240723,6.71154L100.62802284240723,3.17781L85.26802284240722,3.17781L85.26802284240722,6.71154ZM79.74802284240722,9.88935L84.04526284240723,9.88935C84.21051284240723,9.92541,84.37903284240723,9.94359,84.54802284240722,9.94359L101.34802284240723,9.94359C101.51702284240723,9.94359,101.68552284240722,9.92541,101.85082284240723,9.88935L106.14802284240723,9.88935Q106.84392284240722,9.88935,107.33592284240723,10.3905Q107.82802284240722,10.8917,107.82802284240722,11.6005L107.82802284240722,34.2221Q107.82802284240722,36.956,105.93012284240723,38.8891Q104.03212284240723,40.8222,101.34802284240723,40.8222L84.54803284240722,40.8222Q81.86392284240722,40.8222,79.96597284240723,38.8891Q78.06802284240723,36.956,78.06802284240723,34.2221L78.06802284240723,11.6005Q78.06802284240723,10.8917,78.56008284240723,10.3905Q79.05214284240722,9.88935,79.74802284240722,9.88935ZM87.38862284240723,32.9717C87.66392284240723,33.5507,88.31132284240722,33.9318,89.03452284240723,33.9406C89.51122284240722,33.9347,89.96612284240723,33.766,90.29982284240722,33.4711L99.38272284240722,25.6463C99.88902284240723,25.1992,100.03862284240722,24.5338,99.76332284240723,23.9548C99.48792284240723,23.3758,98.84052284240722,22.9946,98.11742284240722,22.9858L92.10742284240723,22.9858L96.30982284240723,19.3473C97.02102284240723,18.7315,97.02102284240723,17.733,96.30982284240723,17.1172C95.59852284240722,16.5014,94.44522284240722,16.5014,93.73402284240723,17.1172L86.50412284240723,23.4162C85.99782284240723,23.8633,85.84792284240723,24.5287,86.12322284240723,25.1077C86.39862284240722,25.6867,87.04602284240723,26.0678,87.76912284240723,26.0766L93.73402284240723,26.0766L87.76912284240723,31.2802C87.26282284240723,31.7273,87.11322284240723,32.3927,87.38862284240723,32.9717Z" fill-rule="evenodd" fill="#E9F0EF" fill-opacity="1"/></g><g transform="matrix(0.7071067094802856,0.7071067094802856,-0.7071067094802856,0.7071067094802856,31.4170756010717,-46.143412467543385)"><path d="M77.4085693359375,16.88911078125L77.4085693359375,20.445000781250002L75.4085693359375,20.445000781250002C73.1994293359375,20.445000781250002,71.4085693359375,22.26905078125,71.4085693359375,24.519120781250002L71.4085693359375,43.37055078125C71.4085693359375,47.87065078125,74.9902893359375,51.51875078125,79.4085693359375,51.51875078125L93.4085693359375,51.51875078125C97.8268693359375,51.51875078125,101.4085693359375,47.87065078125,101.4085693359375,43.37055078125L101.4085693359375,24.519120781250002C101.4085693359375,22.26905078125,99.6176693359375,20.445000781250002,97.4085693359375,20.445000781250002L95.4085693359375,20.445000781250002L95.4085693359375,16.88911078125C95.4085693359375,15.76407178125,94.5131693359375,14.85205078125,93.4085693359375,14.85205078125L79.4085693359375,14.85205078125C78.3039993359375,14.85205078125,77.4085693359375,15.76407178125,77.4085693359375,16.88911078125ZM80.0085693359375,20.445000781250002L92.8085693359375,20.445000781250002L92.8085693359375,17.50022078125L80.0085693359375,17.50022078125L80.0085693359375,20.445000781250002ZM75.4085693359375,23.09318078125L78.9895993359375,23.09318078125C79.1273093359375,23.12323078125,79.2677393359375,23.13837078125,79.4085693359375,23.13837078125L93.4085693359375,23.13837078125C93.5493693359375,23.13837078125,93.6898693359375,23.12323078125,93.8275693359375,23.09318078125L97.4085693359375,23.09318078125Q97.9884693359375,23.09318078125,98.3984693359375,23.51082078125Q98.8085693359375,23.92847078125,98.8085693359375,24.519120781250002L98.8085693359375,43.37055078125Q98.8085693359375,45.64865078125,97.2269693359375,47.25965078125Q95.6452693359375,48.87055078125,93.4085693359375,48.87055078125L79.4085693359375,48.87055078125Q77.1718193359375,48.87055078125,75.5901893359375,47.25965078125Q74.0085693359375,45.64865078125,74.0085693359375,43.37055078125L74.0085693359375,24.519120781250002Q74.0085693359375,23.92847078125,74.4186193359375,23.51082078125Q74.8286693359375,23.09318078125,75.4085693359375,23.09318078125ZM81.7756693359375,42.32845078125C82.0051693359375,42.81095078125,82.5446693359375,43.12855078125,83.1472693359375,43.13595078125C83.5445693359375,43.131050781249996,83.9235693359375,42.99035078125,84.2017693359375,42.74465078125L91.7707693359375,36.22395078125C92.1927693359375,35.851350781250005,92.3174693359375,35.29685078125,92.0879693359375,34.81435078125C91.8584693359375,34.33185078125,91.3189693359375,34.01425078125,90.7163693359375,34.00695078125L85.7080693359375,34.00695078125L89.2100693359375,30.97475078125C89.8027693359375,30.46165078125,89.8027693359375,29.62955078125,89.2100693359375,29.11635078125C88.6172693359375,28.60315078125,87.6562693359375,28.60315078125,87.0635693359375,29.11635078125L81.0386393359375,34.36555078125C80.6166993359375,34.73815078125,80.4917793359375,35.29265078125,80.7212493359375,35.775150781250005C80.9507293359375,36.25765078125,81.4901693359375,36.57525078125,82.09286933593751,36.58255078125L87.0635693359375,36.58255078125L82.09286933593751,40.91885078125C81.6708693359375,41.29145078125,81.5462693359375,41.84595078125,81.7756693359375,42.32845078125Z" fill-rule="evenodd" fill="#0AC9AA" fill-opacity="1"/></g></g></svg>