<svg xmlns="http://www.w3.org/2000/svg" xmlns:xlink="http://www.w3.org/1999/xlink" fill="none" version="1.1" width="20" height="20" viewBox="0 0 20 20"><g style="mix-blend-mode:passthrough"><g style="mix-blend-mode:passthrough"><ellipse cx="10" cy="10" rx="10" ry="10" fill="#F4C913" fill-opacity="1"/></g><g></g><g><g><g><g><path d="M7.985333530426026,13.486L6.815333530426026,14.158L9.995333530426025,16L13.193333530426026,14.158L11.993333530426025,13.486L9.995333530426025,14.644L7.985333530426026,13.486ZM13.985333530426026,12.322L13.985333530426026,10.966000000000001L15.185333530426025,11.644L15.185333530426025,13L13.985333530426026,13.678L12.845333530426025,13L13.985333530426026,12.322ZM8.825333530426025,13L10.025333530426025,12.322L11.165333530426025,13L9.995333530426025,13.678L8.825333530426025,13ZM13.193333530426026,11.836L11.993333530426025,12.508L9.995333530426025,11.35L7.985333530426026,12.514L6.815333530426026,11.836L6.815333530426026,10.48L8.825333530426025,9.322L8.825333530426025,7L10.025333530426025,6.327999999999999L11.165333530426025,7L11.165333530426025,9.322L13.193333530426026,10.48L13.193333530426026,11.836ZM14.027333530426025,7.678L11.993333530426025,6.513999999999999L11.993333530426025,5.1579999999999995L15.197333530426025,7L15.197333530426025,10.678L13.997333530426026,9.994L14.027333530426025,7.678ZM11.993333530426025,7.48L13.193333530426026,8.152000000000001L13.193333530426026,9.52L11.993333530426025,8.841999999999999L11.993333530426025,7.48ZM8.825333530426025,6.0280000000000005L8.825333530426025,4.672L9.995333530426025,4L11.165333530426025,4.672L11.165333530426025,6.0280000000000005L9.995333530426025,5.356L8.825333530426025,6.0280000000000005ZM4.793333530426025,11.644L5.993333530426026,10.966000000000001L5.993333530426026,12.322L7.133333530426025,13L5.993333530426026,13.678L4.793333530426025,13L4.793333530426025,11.644ZM5.993333530426026,10L4.793333530426025,10.672L4.793333530426025,7L7.991333530426026,5.152L7.991333530426026,6.508L5.993333530426026,7.678L5.993333530426026,10ZM7.985333530426026,8.836L6.815333530426026,9.508L6.815333530426026,8.152000000000001L8.015333530426025,7.48L7.985333530426026,8.836Z" fill="#FFFFFF" fill-opacity="1"/></g></g></g></g></g></svg>