<svg xmlns="http://www.w3.org/2000/svg" xmlns:xlink="http://www.w3.org/1999/xlink" fill="none" version="1.1" width="20" height="20" viewBox="0 0 20 20"><g style="mix-blend-mode:passthrough"><g style="mix-blend-mode:passthrough"><ellipse cx="10" cy="10" rx="10" ry="10" fill="#FFFFFF" fill-opacity="1"/></g><g></g><g style="mix-blend-mode:passthrough"><g></g><g style="mix-blend-mode:passthrough"><g><path d="M10.01600106352539,4L9.93411636352539,4.273443L9.93411636352539,12.20812L10.01600106352539,12.28843L13.76488636352539,10.11131L10.01600106352539,4Z" fill="#343434" fill-opacity="1"/></g><g><path d="M10.01603277267456,4L6.2671427726745605,10.11131L10.01603277267456,12.28846L10.01603277267456,8.4372L10.01603277267456,4Z" fill="#8C8C8C" fill-opacity="1"/></g><g><path d="M10.016000531137085,12.985824425964356L9.969857931137085,13.041084425964355L9.969857931137085,15.867594425964356L10.016000531137085,16.000004425964356L13.767137931137086,10.809794425964355L10.016000531137085,12.985824425964356Z" fill="#3C3C3B" fill-opacity="1"/></g><g><path d="M10.01603277267456,15.999975774993896L10.01603277267456,12.985765774993897L6.2671427726745605,10.809735774993896L10.01603277267456,15.999975774993896Z" fill="#8C8C8C" fill-opacity="1"/></g><g><path d="M10.016000747680664,12.28843201751709L13.764830747680664,10.111332017517089L10.016000747680664,8.43723201751709L10.016000747680664,12.28843201751709Z" fill="#141414" fill-opacity="1"/></g><g><path d="M6.2671427726745605,10.111301499938964L10.01597277267456,12.288431499938966L10.01597277267456,8.437201499938965L6.2671427726745605,10.111301499938964Z" fill="#393939" fill-opacity="1"/></g></g></g></g></svg>