<?xml version="1.0" encoding="UTF-8"?><svg id="Logo_elements" xmlns="http://www.w3.org/2000/svg" viewBox="0 0 1078 1366.48"><defs><style>.cls-1{fill:#00e599;fill-rule:evenodd;stroke-width:0px;}</style></defs><g id="X-Mark-Black"><path class="cls-1" d="M984.31,1108.55c47.14,59.56,28.38,147.32-38.99,182.4l-118.79,61.85c-52.78,27.48-117.71,12.5-153.11-35.33l-225.31-304.4-165.41,197.25c-49.05,58.49-140.71,52.81-182.16-11.3l-57.28-88.59c-25.71-39.76-24.01-91.31,4.26-129.3l190.96-256.57L22.48,421.64c-24.27-34.03-29.25-78.18-13.18-116.77l52.71-126.51c28.93-69.44,121.95-81.98,168.23-22.68l221.31,283.55L756.06,46.81c45.1-58.13,131.22-62.87,182.44-10.05l105.37,108.68c43.3,44.66,45.68,114.89,5.49,162.37l-361.12,426.68,296.06,374.05ZM889.65,84.14c-22.41-23.11-60.08-21.04-79.82,4.39l-346.21,446.15c-6.04,7.79-17.8,7.8-23.87.04L176.59,197.55c-14.24-18.25-42.86-14.39-51.76,6.98l-52.71,126.51c-7.03,16.88-4.85,36.19,5.76,51.09l238.38,334.31c3.81,5.35,3.74,12.54-.18,17.81l-213.98,287.51c-11.31,15.19-11.99,35.81-1.7,51.72l57.27,88.59c16.58,25.64,53.24,27.92,72.86,4.52l208.56-248.7c6.29-7.49,17.92-7.14,23.75.72l265.26,358.37c15.49,20.92,43.89,27.48,66.99,15.46l118.79-61.85c29.47-15.35,37.68-53.74,17.06-79.8l-322.95-408.02c-4.47-5.65-4.34-13.66.31-19.16l389.11-459.76c17.58-20.77,16.54-51.5-2.4-71.04l-105.37-108.68Z"/></g></svg>