<svg xmlns="http://www.w3.org/2000/svg" xmlns:xlink="http://www.w3.org/1999/xlink" fill="none" version="1.1" width="20" height="20" viewBox="0 0 20 20"><g style="mix-blend-mode:passthrough"><g style="mix-blend-mode:passthrough"><ellipse cx="10" cy="10" rx="10" ry="10" fill="#04795B" fill-opacity="1"/></g><g></g><g><path d="M10.000459866485595,16C6.764959866485595,16,4.139999866485596,13.31806,4.139999866485596,10.0023C4.139999866485596,8.863430000000001,4.449631866485595,7.80239,4.987911866485596,6.89313L5.4502998664855955,7.36619L5.934989866485596,7.86228C5.620749866485596,8.24804,5.432359866485596,8.73929,5.432359866485596,9.2766C5.432359866485596,10.49354,6.397139866485595,11.48112,7.586199866485596,11.48112C8.115749866485595,11.48112,8.591479866485596,11.28811,8.968269866485596,10.9666L10.005069866485595,12.0274L11.041619866485597,10.9666C11.418409866485597,11.28811,11.898739866485595,11.48112,12.423689866485596,11.48112C13.612989866485595,11.48112,14.577799866485595,10.49354,14.577799866485595,9.2766C14.577799866485595,8.73468,14.389099866485596,8.24804,14.075139866485596,7.86228L15.021999866485595,6.89313C15.560499866485596,7.79802,15.870099866485596,8.85882,15.861199866485595,10.0023C15.861199866485595,13.31345,13.235959866485596,16,10.000459866485595,16ZM12.423689866485596,10.82427C12.069199866485596,10.82427,11.746229866485596,10.704979999999999,11.490429866485595,10.498149999999999L13.626329866485596,8.3123C13.828309866485595,8.57853,13.944939866485596,8.90926,13.944939866485596,9.26738C13.944939866485596,10.13081,13.262869866485596,10.82888,12.423689866485596,10.82427ZM7.590809866485596,10.82888C6.747019866485596,10.82888,6.064959866485596,10.13081,6.069559866485596,9.271989999999999C6.069559866485596,8.90926,6.186189866485596,8.57853,6.388169866485596,8.31691L8.524069866485597,10.50276C8.263899866485595,10.709579999999999,7.940689866485595,10.82888,7.590809866485596,10.82888ZM5.351609866485596,6.35122C5.481579866485596,6.18125,5.620749866485596,6.01612,5.764299866485596,5.85997C6.832369866485596,4.716252,8.335669866485595,4,10.005069866485595,4C11.674219866485597,4,13.182129866485596,4.716252,14.245599866485597,5.85997C14.393699866485596,6.01152,14.532899866485595,6.18125,14.649499866485595,6.34661L10.000459866485595,11.10893L5.351609866485596,6.35122ZM13.608389866485595,6.3100000000000005C12.652579866485596,5.32266,11.378159866485596,4.780748,10.005069866485595,4.780748C8.631729866485596,4.780748,7.361919866485596,5.32266,6.4014998664855955,6.3100000000000005L10.005069866485595,9.9977L13.608389866485595,6.3100000000000005Z" fill-rule="evenodd" fill="#FFFFFF" fill-opacity="1"/></g></g></svg>
