<?xml version="1.0" encoding="utf-8"?>
<!-- Generator: Adobe Illustrator 23.0.0, SVG Export Plug-In . SVG Version: 6.00 Build 0)  -->
<svg version="1.1" id="图层_1" xmlns="http://www.w3.org/2000/svg" xmlns:xlink="http://www.w3.org/1999/xlink" x="0px" y="0px"
	 viewBox="0 0 21 21" style="enable-background:new 0 0 21 21;" xml:space="preserve">
<style type="text/css">
	.st0{fill:none;stroke:#5DC8AC;}
	.st1{fill-rule:evenodd;clip-rule:evenodd;fill:#5DC8AC;}
</style>
<title>ic_usb</title>
<desc>Created with Sketch.</desc>
<g>
	<path id="Rectangle" class="st0" d="M12.2,4.6l4.2,4.2l3.2-3.2c0.6-0.6,0.6-1.5,0-2.1l-2.1-2.1c-0.6-0.6-1.5-0.6-2.1,0L12.2,4.6z"
		/>
	<path class="st0" d="M11.9,4.8l4.2,4.2c0.8,0.8,0.8,2,0,2.8l-7.8,7.8c-0.8,0.8-2,0.8-2.8,0l-4.2-4.2c-0.8-0.8-0.8-2,0-2.8l7.8-7.8
		C9.9,4.1,11.1,4.1,11.9,4.8z"/>
	<path id="Rectangle-2" class="st1" d="M9.1,9.8l2.1,2.1c0.4,0.4,0.4,1,0,1.4l-3.5,3.5c-0.4,0.4-1,0.4-1.4,0l-2.1-2.1
		c-0.4-0.4-0.4-1,0-1.4l3.5-3.5C8.1,9.4,8.7,9.4,9.1,9.8z"/>
	<path class="st1" d="M11.2,7.7l2.1,2.1c0.4,0.4,0.4,1,0,1.4l0,0c-0.4,0.4-1,0.4-1.4,0L9.8,9.1c-0.4-0.4-0.4-1,0-1.4l0,0
		C10.2,7.3,10.8,7.3,11.2,7.7z"/>
</g>
</svg>
