<svg xmlns="http://www.w3.org/2000/svg" xmlns:xlink="http://www.w3.org/1999/xlink" fill="none" version="1.1" width="33" height="32" viewBox="0 0 33 32"><g><rect x="0" y="0" width="33" height="32" rx="16" fill="#0AC7B7" fill-opacity="0.07999999821186066"/><g><g><g><path d="M14.684338660736085,10.080008888249004L21.315908660736085,10.080008888249004C21.926328660736083,10.080008888249004,22.421178660736082,10.574851784729004,22.421178660736082,11.185272784729005L22.421178660736082,17.816852784729004C22.421178660736082,18.427272784729006,21.926328660736083,18.922112784729002,21.315908660736085,18.922112784729002L14.684338660736085,18.922112784729002C14.073911660736083,18.922112784729002,13.579068660736084,18.427272784729006,13.579068660736084,17.816852784729004L13.579068660736084,11.185262784729003C13.579068660736084,10.574845784729003,14.073911660736083,10.080002784729004,14.684338660736085,10.080002784729004L14.684338660736085,10.080008888249004ZM14.699068660736085,17.802112784729005L14.699068660736085,11.200012784729005L21.301178660736085,11.200012784729005L21.301178660736085,17.802112784729005L14.699068660736085,17.802112784729005Z" fill-rule="evenodd" fill="#0AC7B7" fill-opacity="1"/></g><g><path d="M12.626248660736085,14.132502841949464L11.731298660736083,14.132502841949464Q11.691568660736085,14.132502841949464,11.691568660736085,14.172232841949462L11.691568660736085,20.767772841949462Q11.691568660736085,20.807502841949464,11.731298660736083,20.807502841949464L18.327648660736084,20.807502841949464Q18.367378660736083,20.807502841949464,18.367378660736083,20.767772841949462L18.367378660736083,19.866662841949463C18.367378660736083,19.559452841949465,18.616428660736084,19.310412841949464,18.92363866073608,19.310412841949464C19.230838660736083,19.310412841949464,19.479888660736083,19.559452841949465,19.479888660736083,19.866662841949463L19.479888660736083,20.767772841949462Q19.479888660736083,21.245042841949463,19.142398660736085,21.582522841949462Q18.804918660736085,21.92000284194946,18.327648660736084,21.92000284194946L11.731298660736083,21.92000284194946Q11.254031660736084,21.92000284194946,10.916549660736084,21.582522841949462Q10.579068660736084,21.245042841949463,10.579068660736084,20.767772841949462L10.579068660736084,14.172232841949462Q10.579068719941583,13.694964841949464,10.916549660736084,13.357483841949463Q11.254030660736085,13.020002841949463,11.731298660736083,13.020002841949463L12.626248660736085,13.020002841949463C12.933448660736083,13.020002841949463,13.182498660736083,13.269044841949462,13.182498660736083,13.576252841949463C13.182498660736083,13.883460841949463,12.933448660736083,14.132502841949464,12.626248660736085,14.132502841949464Z" fill-rule="evenodd" fill="#0AC7B7" fill-opacity="1"/></g></g></g></g></svg>