<svg xmlns="http://www.w3.org/2000/svg" xmlns:xlink="http://www.w3.org/1999/xlink" fill="none" version="1.1" width="32" height="32" viewBox="0 0 32 32"><defs><clipPath id="master_svg0_1595_00440"><rect x="8" y="8" width="16" height="16" rx="0"/></clipPath></defs><g><rect x="0" y="0" width="32" height="32" rx="16" fill="#F5F9F9" fill-opacity="1"/><g clip-path="url(#master_svg0_1595_00440)"><g><path d="M18.8670890625,18.533251953125C18.0004590625,18.999921953125,17.067119062499998,19.333251953125,16.0004590625,19.333251953125C13.2671190625,19.333251953125,10.8671190625,16.933251953125,10.0671190625,15.999921953125C10.6004590625,15.399921953125,11.7666690625,13.733331953124999,13.499999062499999,13.000001953125L12.6004590625,12.266584953125C10.8671190625,13.199921953125,9.6004560625,14.533251953125,8.9337890625,15.266581953125C8.5337890625,15.733251953125,8.5337890625,16.333251953125,8.9337890625,16.799921953125C10.0004590625,17.933251953125,12.6671190625,20.666581953125,16.0004590625,20.666581953125C17.4671190625,20.666581953125,18.7337890625,20.133251953125,19.8670890625,19.466581953125L18.8670890625,18.533251953125ZM23.0670890625,15.199921953125C22.0004890625,14.066581953125,19.3337890625,11.333251953125,16.0004590625,11.333251953125C15.400459062500001,11.333251953125,14.8004590625,11.399918553125,14.2671190625,11.599918953125L15.499999062499999,12.666501953125C15.6999990625,12.599841953125,15.8004590625,12.666581953125,16.0004590625,12.666581953125C18.7337890625,12.666581953125,21.1337890625,15.066581953125,21.9337890625,15.999921953125C21.6004890625,16.399921953125002,21.0004890625,16.999921953125,20.2670890625,17.599921953125L21.2004890625,18.533251953125C22.0004890625,17.866581953125,22.6670890625,17.199921953125,23.0004890625,16.733251953125C23.4004890625,16.333251953125,23.4004890625,15.666581953125,23.0670890625,15.199921953125Z" fill="#AAB9BF" fill-opacity="1"/></g><g transform="matrix(-1,0,0,1,46.619140625,0)"><path d="M33.5428703125,18.533251953125C32.6762403125,18.999921953125,31.742900312499998,19.333251953125,30.6762403125,19.333251953125C27.9429003125,19.333251953125,25.5429003125,16.933251953125,24.7429003125,15.999921953125C25.2762403125,15.399921953125,26.3858103125,13.733331953124999,28.1191403125,13.000001953125L27.2762403125,12.266584953125C25.5429003125,13.199921953125,24.2762373125,14.533251953125,23.6095703125,15.266581953125C23.2095703125,15.733251953125,23.2095703125,16.333251953125,23.6095703125,16.799921953125C24.6762403125,17.933251953125,27.3429003125,20.666581953125,30.6762403125,20.666581953125C32.142900312500004,20.666581953125,33.4095703125,20.133251953125,34.5428703125,19.466581953125L33.5428703125,18.533251953125ZM37.7428703125,15.199921953125C36.6762703125,14.066581953125,34.0095703125,11.333251953125,30.6762403125,11.333251953125C30.0762403125,11.333251953125,29.6524703125,11.799999953125,29.1191403125,11.999999953125L30.1191403125,12.666501953125C30.3191403125,12.599841953125,30.4762403125,12.666581953125,30.6762403125,12.666581953125C33.4095703125,12.666581953125,35.8095703125,15.066581953125,36.6095703125,15.999921953125C36.2762703125,16.399921953125002,35.6762703125,16.999921953125,34.9428703125,17.599921953125L35.8762703125,18.533251953125C36.6762703125,17.866581953125,37.3428703125,17.199921953125,37.6762703125,16.733251953125C38.0762703125,16.333251953125,38.0762703125,15.666581953125,37.7428703125,15.199921953125Z" fill="#AAB9BF" fill-opacity="1"/></g><g><ellipse cx="16" cy="16" rx="2" ry="2" fill="#AAB9BF" fill-opacity="1"/></g></g></g></svg>