<svg xmlns="http://www.w3.org/2000/svg" xmlns:xlink="http://www.w3.org/1999/xlink" fill="none" version="1.1" width="244.00001525878906" height="170" viewBox="0 0 244.00001525878906 170"><defs><linearGradient x1="0.08604241162538528" y1="0.7131341695785522" x2="0.48223087191581726" y2="0.5223976969718933" id="master_svg0_491_1016"><stop offset="0%" stop-color="#FFF3E5" stop-opacity="0"/><stop offset="75.99999904632568%" stop-color="#FFF3E5" stop-opacity="1"/></linearGradient><linearGradient x1="0.5905077457427979" y1="0.462449312210083" x2="0.9726043939590454" y2="0.37230488657951355" id="master_svg1_491_1092"><stop offset="0%" stop-color="#FFF3E5" stop-opacity="1"/><stop offset="34.99999940395355%" stop-color="#FFF3E5" stop-opacity="0.6299999952316284"/><stop offset="91.00000262260437%" stop-color="#FFF3E5" stop-opacity="0"/></linearGradient></defs><g><g transform="matrix(0.9262462258338928,-0.3769190311431885,0.37973538041114807,0.9250952005386353,-17.94243701053324,12.920637142041414)"><ellipse cx="59.321380615234375" cy="115.7332763671875" rx="35.35668182373047" ry="63.82891082763672" fill="#272823" fill-opacity="1"/></g><g transform="matrix(0.9956274032592773,-0.09312834590673447,0.09369903802871704,0.9956274032592773,-0.9278473435315391,14.601370555758422)"><ellipse cx="188.42409133911133" cy="80.97433853149414" rx="32.44319534301758" ry="63.792850494384766" fill="#272823" fill-opacity="1"/></g><g><path d="M69.0797233100586,28.799610764160157L74.22953031005859,31.785480764160155L79.3596803100586,34.759600764160155L82.26758031005859,36.44429076416016C82.6727803100586,36.678230764160155,83.1915803100586,36.541610764160154,83.42768031005859,36.13880076416015C83.6637803100586,35.736010764160156,83.5280803100586,35.21891076416016,83.1242803100586,34.98266076416016L77.9705403100586,31.994840764160156L72.8541503100586,29.022680764160157L69.94818031005859,27.337994764160158C69.5412843100586,27.080842764160156,69.00133031005859,27.211291154160158,68.7579813100586,27.625540764160156C68.5146333100586,28.039784764160157,68.6650531100586,28.572430764160156,69.0895573100586,28.799620764160156L69.0797233100586,28.799610764160157Z" fill="#9479FC" fill-opacity="1"/></g><g><path d="M94.09779973925781,10.107634465332032L97.0450327392578,16.202634465332032L99.96869273925782,22.272164465332033L101.62110273925781,25.70026446533203C101.86049273925781,26.10086446533203,102.37846273925781,26.235864465332032,102.78427273925782,26.00356446533203C103.17944273925781,25.759864465332033,103.31337273925782,25.25046446533203,103.08881273925782,24.845164465332033L100.14158273925781,18.752154465332033L97.21794273925781,12.68456446533203L95.56553273925782,9.256497465332032C95.32828273925782,8.854321165332031,94.80923273925781,8.71875546533203,94.40432373925782,8.953217465332031C94.00957243925781,9.196145465332032,93.87488673925782,9.70430546533203,94.0978117392578,10.109604465332032L94.09779973925781,10.107634465332032Z" fill="#9479FC" fill-opacity="1"/></g><g><path d="M129.39190205810547,0.774373L128.15407205810547,8.03749L126.92015305810547,15.2771L126.22461017810546,19.3509C126.18603085810547,19.8162,126.53181705810547,20.2252,126.99875105810547,20.2666C127.46217205810547,20.2935,127.86588205810547,19.955,127.91828205810548,19.4957L129.15612205810547,12.2326L130.39003205810548,4.99293L131.08558205810547,0.917208C131.12414205810546,0.451952,130.77837205810548,0.0429363,130.31144205810546,0.00149281C129.84802205810547,-0.0253629,129.44431205810548,0.313103,129.39190205810547,0.772417L129.39190205810547,0.774373Z" fill="#9479FC" fill-opacity="1"/></g><g><path d="M148.1068396484375,24.44603903656006L152.0109396484375,20.07094903656006L155.9130696484375,15.695869036560058L158.1273896484375,13.214819036560058C158.4372896484375,12.84209903656006,158.3712896484375,12.287079036560058,157.9825896484375,11.996763036560058C157.5938896484375,11.706441036560058,157.0402896484375,11.798726336560058,156.76778964843749,12.199308036560058L152.8636596484375,16.57244903656006L148.9615296484375,20.94753903656006L146.7314606484375,23.43053903656006C146.4501936484375,23.80443903656006,146.5267521484375,24.33453903656006,146.9023996484375,24.61433903656006C147.2786706484375,24.87563903656006,147.7938596484375,24.80203903656006,148.0812896484375,24.44603903656006L148.1068396484375,24.44603903656006Z" fill="#9479FC" fill-opacity="1"/></g><g><g><path d="M221.62068078279495,106.64729279279709L223.55598078279496,107.23429079279708C220.40051078279495,114.92200279279709,218.62433078279494,117.3717927927971,214.39799078279495,119.95259279279709L212.46068078279495,119.36559279279709C216.68898078279494,116.7788927927971,218.46516078279495,114.33501279279709,221.62068078279495,106.64729279279709Z" fill="#000000" fill-opacity="1"/></g><g><path d="M221.83483976085205,105.6709213256836L223.77214956085206,106.25987832568359L223.74857956085205,106.7470813256836L221.81322956085205,106.1581273256836L221.83483976085205,105.6709213256836Z" fill="#000000" fill-opacity="1"/></g><g><path d="M223.55602297424318,107.23624979279708C223.50690297424316,108.34959279279708,223.47546297424316,109.36509279279709,223.46565297424317,110.30037279279709L223.23969297424316,110.23189279279708L222.99999297424316,110.15754279279709L222.75045297424316,110.08318279279709L222.49698397424316,110.00491279279709L222.24548097424315,109.9286027927971L221.99594497424317,109.85229279279709L221.75624197424315,109.77989279279709L221.53028297424316,109.71141279279709C221.53028297424316,108.77613279279709,221.57153657424317,107.75475279279709,221.62065707424316,106.64729279279709L223.55602297424318,107.23624979279708Z" fill="#FFFFFF" fill-opacity="1"/></g><g><path d="M212.46068078279495,119.35775947570801L214.39799078279495,119.944757475708C217.19393078279495,123.848299475708,217.78731078279495,126.74806947570801,217.43167078279495,134.964059475708L215.49632078279495,134.377059475708C215.85197078279495,126.17084947570801,215.25859078279495,123.26129947570801,212.46068078279495,119.35775947570801Z" fill="#000000" fill-opacity="1"/></g><g><path d="M215.4648779514618,134.89560508728027L217.40024595146178,135.48455008728027L217.2155459514618,135.94045508728027L215.2801959514618,135.35149808728028L215.4648779514618,134.89560508728027Z" fill="#000000" fill-opacity="1"/></g><g><path d="M223.68571547058104,115.11767959594727L221.75036647058104,114.53067959594726C221.56486887058105,112.93129959594727,221.49133197058106,111.32097959594726,221.53030697058105,109.71142959594727L223.46565547058105,110.29842759594726C223.42653547058106,111.90798959594727,223.50004547058106,113.51830959594727,223.68571547058104,115.11767959594727Z" fill="#FFFFFF" fill-opacity="1"/></g><g><path d="M223.6857123690796,115.11768151745605L223.6857123690796,115.16463951745605L223.45778236907958,115.09420251745605L223.22005236907958,115.02180751745605L222.9705123690796,114.94549451745605L222.7170433690796,114.86918151745606L222.4635733690796,114.79286951745605L222.2160043690796,114.71655651745606L221.97630136907958,114.64416151745606L221.7503423690796,114.57372431745605L221.7503423690796,114.53068351745605L223.6857123690796,115.11768151745605Z" fill="#FFFFFF" fill-opacity="1"/></g><g><path d="M218.64397158432007,132.13474847302246C218.25100158432008,132.99372047302245,217.85804158432006,133.93096047302245,217.43757158432007,134.96603047302247L215.50222158432007,134.37903047302245C215.92466358432006,133.34396047302246,216.32547058432007,132.40475647302247,216.70862158432007,131.54775047302246L218.64397158432007,132.13474847302246Z" fill="#FFFFFF" fill-opacity="1"/></g><g><path d="M218.64396855102538,132.13084332006835L218.4180085510254,132.06236532006835L218.1783085510254,131.98996932006835L217.9287685510254,131.91365732006835L217.6615595510254,131.84516732006836L217.41005655102538,131.76689532006836L217.1605205510254,131.69254132006836L216.92081755102538,131.61818762006837L216.6948585510254,131.54970932006836L218.64396855102538,132.13084332006835Z" fill="#FFFFFF" fill-opacity="1"/></g><g><path d="M223.69159179840088,115.16463964007568C223.7466117984009,115.58141264007568,223.8114417984009,115.97860264007568,223.8880717984009,116.36211264007568L221.95272379840088,115.77511264007569C221.87412679840088,115.38378464007569,221.80929579840088,114.99245264007568,221.75624179840088,114.57568264007568L223.69159179840088,115.16463964007568Z" fill="#FFFFFF" fill-opacity="1"/></g><g><path d="M218.64397531661987,132.13084303222655L218.63022531661989,132.13084303222655L218.40623531661987,132.06236303222656L218.16849531661987,131.98996303222657L217.92092531661987,131.91561303222656L217.66942631661988,131.83734303222656L217.41792331661986,131.76103303222655L217.17035331661987,131.68667303222657L216.93261831661988,131.61428303222655L216.70862531661987,131.54580303222656C217.31546131661986,130.15318303222656,218.00434531661986,128.79746303222657,218.77168531661988,127.48573303222656L220.70703531661988,128.07273103222656C219.93964531661987,129.38376303222657,219.25075531661986,130.73883303222655,218.64397531661987,132.13084303222655Z" fill="#FFFFFF" fill-opacity="1"/></g><g><path d="M220.89564776000975,127.75770394824218C220.83081776000978,127.86141194824219,220.76596776000977,127.96510894824219,220.69916776000977,128.0727229482422L220.47320776000976,128.0022859482422L220.23350776000976,127.92989094824219L219.98396776000976,127.85357794824219L219.73049876000977,127.77726494824219L219.47899576000975,127.70095294824219L219.22945976000977,127.62463994824219L218.98975676000975,127.55224494824219L218.76379776000977,127.48180794824219C218.82666156000977,127.37615194824218,218.89151576000975,127.27244394824218,218.96027976000977,127.16874694824219L220.89564776000975,127.75770394824218Z" fill="#FFFFFF" fill-opacity="1"/></g><g><path d="M224.14547252349854,117.39717991088867L224.11009252349854,117.39717991088867L224.07081252349855,117.38544991088867L224.03152252349852,117.37174991088867L223.99027252349853,117.36000991088868L223.95098252349854,117.34826991088867L223.90973252349855,117.33652991088867L223.87240252349852,117.32478991088867L223.83509252349853,117.31304991088867L223.63860252349855,117.25434991088868L223.44212252349854,117.19369991088867L223.23384252349854,117.13107991088867L223.02165252349855,117.06454991088867L222.80748952349853,116.99997991088867L222.59920652349854,116.93735991088867L222.40272452349853,116.87670991088868L222.20624252349853,116.81800991088868Q222.06478052349854,116.31906291088868,221.95867252349854,115.78293991088867L223.89402252349853,116.36993791088867Q224.00008252349855,116.90019991088867,224.14547252349854,117.39717991088867Z" fill="#FFFFFF" fill-opacity="1"/></g><g><path d="M224.14547494232178,117.39718358538818C224.20049494232177,117.59284858538818,224.25745494232177,117.78851558538818,224.31837494232178,117.96852658538819L224.09242494232177,117.90004658538818L223.85271494232177,117.82764658538818L223.60514494232177,117.75133758538819L223.35167494232178,117.67502558538818L223.09820894232178,117.59675458538818L222.84867194232177,117.52240058538818L222.60896994232178,117.44804658538818L222.38300994232176,117.37956758538819C222.32208894232178,117.18390158538818,222.26315894232178,117.00193358538819,222.21010494232178,116.80822658538818L224.14547494232178,117.39718358538818Z" fill="#FFFFFF" fill-opacity="1"/></g><g><path d="M220.8956442893982,127.75770295593261L220.8543942893982,127.74596295593261L220.8052742893982,127.73618295593262L220.7600842893982,127.72248295593262L220.7168642893982,127.70878295593262L220.6716842893982,127.69509295593262L220.62846428939818,127.68139295593262L220.5852442893982,127.66965295593262L220.5459542893982,127.65595295593262L220.3494742893982,127.59921295593261L220.1529842893982,127.54051295593261L219.9565042893982,127.47790295593262L219.7482232893982,127.41333295593262L219.5399412893982,127.35071295593262L219.3434592893982,127.28810295593262L219.1469762893982,127.22744295593262L218.9504942893982,127.17070295593261C219.3571782893982,126.51283295593262,219.80746528939818,125.88268295593262,220.2983642893982,125.28448295593262L222.2337042893982,125.87148095593261C221.74549428939818,126.46948295593262,221.2984742893982,127.09965295593261,220.8956442893982,127.75770295593261Z" fill="#FFFFFF" fill-opacity="1"/></g><g><path d="M222.27495809295655,125.8303949119873L222.24154809295655,125.8714889119873L222.01558809295653,125.8030099119873L221.77588809295654,125.7306149119873L221.52634809295654,125.6543019119873L221.27287909295654,125.5779899119873L221.01940909295655,125.4997189119873L220.77184009295655,125.4253649119873L220.53213709295653,125.3510099119873L220.30617809295654,125.28253211198731L220.33958869295654,125.2414379119873L222.27495809295655,125.8303949119873Z" fill="#FFFFFF" fill-opacity="1"/></g><g><path d="M225.8725554916382,121.19898839111328L223.93721549163817,120.61198839111329C223.27813949163817,119.60570839111328,222.74997349163817,118.52021839111327,222.36535549163818,117.38153839111328L224.30070549163818,117.96853639111328C224.6853154916382,119.10721839111328,225.21348549163818,120.19270839111329,225.8725554916382,121.19898839111328Z" fill="#FFFFFF" fill-opacity="1"/></g><g><path d="M225.87255910217286,121.19898431323242L225.91970910217285,121.27137931323242L225.69374910217286,121.20290131323242L225.45404910217286,121.12854731323242L225.20450910217286,121.05419331323242L224.95104910217285,120.97592131323242L224.69757410217287,120.89960931323242L224.45000510217284,120.82329631323242L224.21030210217285,120.75090131323242L223.98434290217284,120.68242281323242L223.93718910217285,120.61002731323242L225.87255910217286,121.19898431323242Z" fill="#FFFFFF" fill-opacity="1"/></g><g><path d="M222.27496296081543,125.8303990411377L220.33961296081543,125.24339904113769C221.24815196081542,124.1589190411377,222.30662296081542,123.20830004113769,223.48333296081543,122.4199390411377L225.41867296081543,123.00693704113769C224.24239296081544,123.7958790411377,223.18402296081544,124.74643904113769,222.27496296081543,125.8303990411377Z" fill="#FFFFFF" fill-opacity="1"/></g><g><path d="M225.48940793029786,122.96192567370605L225.42260793029786,123.00692467370605L225.19664793029784,122.93844667370605L224.95694793029784,122.86409267370605L224.70740793029785,122.78973867370605L224.45393893029785,122.71146667370606L224.20046893029786,122.63515467370605L223.95289993029786,122.55884167370606L223.71319693029784,122.48644667370606L223.48723793029785,122.41796807370605C223.50870423029784,122.40184567370605,223.53100993029784,122.38682197370605,223.55403513029785,122.37296867370605L225.48940793029786,122.96192567370605Z" fill="#FFFFFF" fill-opacity="1"/></g><g><path d="M224.8547706604004,121.62553405761719L226.7901206604004,122.21449105761718L226.8569406604004,122.30448905761719L224.9196011604004,121.71553275761718L224.8547706604004,121.62553405761719Z" fill="#000000" fill-opacity="1"/></g><g><path d="M224.9196007343994,121.71553421020508L226.85693963439942,122.30449121020507L226.75672963439942,122.36318821020508L224.8213596343994,121.77424361020508L224.9196007343994,121.71553421020508Z" fill="#000000" fill-opacity="1"/></g><g><path d="M225.91381698760986,121.27920247540283C226.11029698760987,121.60205647540283,226.34409698760987,121.92881447540283,226.58382698760985,122.25753447540284L224.64847798760985,121.67053447540283Q224.28892398760988,121.17158847540283,223.97846698760986,120.69220447540283L225.91381698760986,121.27920247540283Z" fill="#FFFFFF" fill-opacity="1"/></g><g><path d="M225.48940697235108,122.96192710235596L225.44814697235108,122.94822710235596L225.40296697235107,122.93452710235596L225.35777697235108,122.92082710235596L225.31258697235108,122.90713710235596L225.26543697235107,122.89343710235596L225.22024697235108,122.87973710235596L225.1770269723511,122.86603710235596L225.13577697235107,122.85429710235596L224.95109697235108,122.79755710235595L224.75460697235107,122.73690710235596L224.5581279723511,122.67624710235596L224.34984497235106,122.61363410235596L224.15336297235106,122.54906110235596L223.9568809723511,122.48840510235596L223.76039897235108,122.42774910235596L223.57571697235107,122.37295710235595C223.92349397235108,122.13425010235596,224.28894797235108,121.90140710235596,224.67601697235108,121.66464710235596L226.61135697235108,122.25164510235595C226.2026369723511,122.49037610235595,225.83717697235107,122.72321710235596,225.48940697235108,122.96192710235596Z" fill="#FFFFFF" fill-opacity="1"/></g><g><path d="M221.62068078279495,106.64729279279709C221.26309078279496,114.86526279279708,221.85645078279495,117.76109279279709,224.65438078279496,121.66469279279708C220.42605078279496,124.23959279279708,218.64985078279494,126.6893927927971,215.49632078279495,134.3829927927971C215.85196078279495,126.1649927927971,215.25858078279495,123.26719279279709,212.46068078279495,119.36359279279709C216.68898078279494,116.7788927927971,218.46516078279495,114.33501279279709,221.62068078279495,106.64729279279709Z" fill="#AD8DF8" fill-opacity="1"/></g><g><path d="M221.81322959326172,106.158127784729L223.7485755932617,106.745125784729C223.35561559326172,115.338767784729,223.9136155932617,118.230727784729,226.79011559326173,122.202727784729L224.8547755932617,121.615727784729C221.98416859326173,117.64372778472901,221.4104315932617,114.751787784729,221.81322959326172,106.158127784729Z" fill="#000000" fill-opacity="1"/></g><g><path d="M224.82135760543824,121.77424430847168L226.75667760543823,122.36124230847167C222.43409760543824,124.98121430847168,220.66575760543824,127.43290430847168,217.40022760543823,135.4826443084717L215.46487760543823,134.89564430847167C218.74024760543824,126.84590430847167,220.48697760543823,124.39224430847167,224.82135760543824,121.77424430847168Z" fill="#000000" fill-opacity="1"/></g><g><path d="M224.8547345703125,121.62554846432805L224.9215345703125,121.71554846432805L224.8213345703125,121.77424846432805C220.4869545703125,124.39224846432805,218.7304145703125,126.84594846432805,215.4648745703125,134.89564846432805L215.2801945703125,135.35154846432806L215.3018045703125,134.86434846432806C215.6947745703125,126.27064846432805,215.1367645703125,123.38064846432805,212.2602650703125,119.40664846432804L212.1954345703125,119.31474846432805L212.2936756703125,119.25604846432805C216.6280845703125,116.63804846432805,218.3846245703125,114.18632846432806,221.6501545703125,106.14641246432805L221.8348445703125,105.68854846432805L221.8132245703125,106.17575446432805C221.4104345703125,114.75178846432806,221.9841645703125,117.64374846432806,224.8547345703125,121.62554846432805ZM215.5002545703125,134.37704846432806C218.6439745703125,126.68934846432805,220.4299845703125,124.23964846432806,224.6583345703125,121.65874846432806C221.8603845703125,117.74544846432805,221.2670045703125,114.85743846432806,221.6246145703125,106.64142946432806C218.4690945703125,114.32913846432805,216.6929145703125,116.77884846432805,212.4646145703125,119.35974846432805C215.2625145703125,123.27304846432804,215.8558945703125,126.16304846432806,215.5002545703125,134.37904846432804" fill="#000000" fill-opacity="1"/></g></g><g><g><path d="M11.293802993164062,76.72492832946777L9.285752693164062,76.98912832946777C8.949769993164063,68.69092832946777,9.543143993164062,65.72853832946777,12.315512993164063,61.637155329467774L14.323562993164064,61.37692832946777C11.551192993164062,65.46439832946777,10.957822993164063,68.42090832946778,11.293802993164062,76.72492832946777Z" fill="#000000" fill-opacity="1"/></g><g><path d="M11.505998262939453,77.70134331616211L9.499915262939453,77.96549931616211L9.317188262939453,77.51349931616211L11.323268262939454,77.24935531616211L11.505998262939453,77.70134331616211Z" fill="#000000" fill-opacity="1"/></g><g><path d="M9.2857552243042,76.98911427978516C8.8652762243042,75.95599427978516,8.4703512243042,75.01875427978516,8.0891752243042,74.16565327978516L8.324956224304199,74.13435227978516L8.5725262243042,74.10109227978515L8.8299172243042,74.06783227978515L9.0932052243042,74.03261427978515L9.3564852243042,73.99739537978516L9.613875224304198,73.96413547978516L9.8614452243042,73.93087557978515L10.0972252243042,73.89957427978516C10.476435224304199,74.75463427978515,10.871375224304199,75.69187427978515,11.291835224304199,76.72499427978515L9.2857552243042,76.98911427978516Z" fill="#FFFFFF" fill-opacity="1"/></g><g><path d="M14.323550289154053,61.3768979265213L12.317480289154053,61.6410979265213C8.144200289154053,59.248097926521304,6.395510289154053,56.8570379265213,3.2930502891540527,49.2358419265213L5.299130289154053,48.9716979265213C8.401580289154053,56.5889879265213,10.150270289154053,58.9799979265213,14.323550289154053,61.3768979265213Z" fill="#000000" fill-opacity="1"/></g><g><path d="M5.110505832824707,48.482582336914064L3.104422732824707,48.74673833691406L3.080845832824707,48.255614336914064L5.086925832824707,47.99147033691406L5.110505832824707,48.482582336914064Z" fill="#000000" fill-opacity="1"/></g><g><path d="M5.882678508758545,69.87274476940918L7.888758508758545,69.60664176940918C8.723608508758545,70.98541176940918,9.462168508758545,72.41978176940918,10.099188508758544,73.89955176940919L8.091138508758545,74.16565176940918C7.455908508758545,72.68538176940918,6.717967508758544,71.25094176940918,5.882678508758545,69.87274476940918Z" fill="#FFFFFF" fill-opacity="1"/></g><g><path d="M5.8826781954711915,69.87274452539063L5.859101295471191,69.83360852539063L6.092915295471191,69.80230752539063L6.340485295471192,69.77100652539062L6.599843295471191,69.73578752539062L6.861161295471192,69.70056952539062L7.124451295471191,69.66730962539063L7.381841295471191,69.63209112539063L7.631371295471191,69.60078982539062L7.865181295471191,69.56948852539062L7.888761295471191,69.60666552539062L5.8826781954711915,69.87274452539063Z" fill="#FFFFFF" fill-opacity="1"/></g><g><path d="M3.375568813433838,52.30585280900955C3.3657471134338377,51.366662809009554,3.338236713433838,50.34919280900955,3.293043613433838,49.231936809009554L5.299123613433838,48.96779280900955C5.344323613433838,50.08309280900955,5.371823613433838,51.10250280900955,5.381653613433838,52.04171280900955L3.375568813433838,52.30585280900955Z" fill="#FFFFFF" fill-opacity="1"/></g><g><path d="M3.3755688667297363,52.309759413482666L3.6093828667297365,52.27845841348267L3.856952866729736,52.24519841348267L4.116310866729736,52.21193841348266L4.3736958667297365,52.180625413482666L4.636978866729736,52.14736541348267L4.894368866729736,52.11214701348267L5.143898866729736,52.078887113482665L5.377718866729737,52.049532413482666L3.3755688667297363,52.309759413482666Z" fill="#FFFFFF" fill-opacity="1"/></g><g><path d="M5.859102082580566,69.83360711486816C5.633148082580567,69.47749211486817,5.407195082580566,69.14095311486817,5.177308082580566,68.82592111486817L7.185358082580566,68.56177711486816C7.4152480825805664,68.87679611486817,7.6411980825805665,69.21139011486817,7.865188082580566,69.56945711486816L5.859102082580566,69.83360711486816Z" fill="#FFFFFF" fill-opacity="1"/></g><g><path d="M3.3755692379150393,52.30975996420288L3.391285237915039,52.30975996420288L3.625100237915039,52.28040496420288L3.8707022379150393,52.24714496420288L4.126127237915039,52.21388496420288L4.387443237915039,52.17866696420288L4.648763237915039,52.14540706420288L4.904193237915039,52.11018856420288L5.1497932379150395,52.07888726420288L5.38360323791504,52.04758596420288C5.412103237915039,53.56495596420288,5.35108323791504,55.08266596420288,5.200883237915039,56.592905964202885L3.194803237915039,56.85704596420288C3.345427237915039,55.34617596420288,3.405790237915039,53.82774596420288,3.3755692379150393,52.30975996420288Z" fill="#FFFFFF" fill-opacity="1"/></g><g><path d="M3.1476492881774902,57.22098408569336C3.1633651881774902,57.099672085693356,3.17712038817749,56.97836008569336,3.1908755881774904,56.85704808569336L3.4266562881774902,56.82574708569336L3.6742262881774903,56.79248708569336L3.93161728817749,56.75922708569336L4.19489928817749,56.72400908569336L4.45818928817749,56.68879018569336L4.715579288177491,56.65553028569336L4.96314928817749,56.62227038569336L5.1989292881774904,56.59096908569336C5.1851792881774905,56.71424008569336,5.169459288177491,56.83555208569336,5.153739288177491,56.95490508569336L3.1476492881774902,57.22098408569336Z" fill="#FFFFFF" fill-opacity="1"/></g><g><path d="M4.521058082580566,67.98652884020996L4.558390182580567,67.98652884020996L4.597688982580566,67.98652884020996L4.638949082580567,67.98652884020996L4.680208082580567,67.98652884020996L4.7234340825805665,67.98652884020996L4.764694082580567,67.98652884020996L4.803993082580567,67.98652884020996L4.841325082580567,67.98652884020996L5.037807082580566,67.96109184020996L5.246078082580566,67.93369584020996L5.464170082580567,67.90629984020997L5.684228082580566,67.87694484020996L5.904288082580567,67.84759014020996L6.120418082580566,67.81823554020995L6.330658082580566,67.79083934020996L6.527138082580566,67.76540184020996C6.751128082580566,68.02954584020996,6.969228082580567,68.30935884020997,7.185358082580566,68.60480484020997L5.177308082580566,68.86895184020996Q4.857041082580566,68.38176684020996,4.521058082580566,67.98652884020996Z" fill="#FFFFFF" fill-opacity="1"/></g><g><path d="M4.521058242645264,67.98653258325196C4.389412242645264,67.83196158325195,4.257772242645264,67.68325258325196,4.128093242645264,67.53846158325196L4.361907242645263,67.50716058325196L4.611438242645264,67.47390058325195L4.868829242645264,67.44064058325195L5.130143242645264,67.40542258325195L5.393433242645264,67.37216268325196L5.650823242645264,67.33694418325196L5.900353242645264,67.30564288325195L6.1341732426452635,67.27434158325195C6.267773242645264,67.41913258325195,6.3994232426452635,67.56784058325195,6.527133242645263,67.72241258325195L4.521058242645264,67.98653258325196Z" fill="#FFFFFF" fill-opacity="1"/></g><g><path d="M3.147649491317749,57.22098479589844L3.188908491317749,57.22098479589844L3.234101491317749,57.22098479589844L3.279294491317749,57.22098479589844L3.324487491317749,57.22098479589844L3.371641491317749,57.22098479589844L3.416834491317749,57.22098479589844L3.4600614913177488,57.22098479589844L3.501320491317749,57.22098479589844L3.697802491317749,57.19554679589844L3.894281491317749,57.168150795898434L4.106481491317749,57.14075479589844L4.322611491317749,57.111399795898436L4.538751491317749,57.084004095898436L4.750941491317749,57.05464939589844L4.947431491317749,57.02725329589844L5.143911491317748,57.00181579589844C5.050421491317749,57.751171795898436,4.907991491317749,58.49367579589844,4.717541491317749,59.22460579589844L2.709491491317749,59.48874579589844C2.906729491317749,58.74353579589844,3.053119491317749,57.98588979589844,3.147649491317749,57.22098479589844Z" fill="#FFFFFF" fill-opacity="1"/></g><g><path d="M2.6957364082336426,59.54549728155518C2.7012348882336426,59.52813328155518,2.7058279082336427,59.51050628155517,2.7094916082336424,59.492663281555174L2.9452724082336426,59.461362281555175L3.1928424082336426,59.430061281555176L3.4502334082336423,59.39484228155518L3.7135164082336427,59.36158328155518L3.9768064082336423,59.32636438155517L4.234196408233642,59.293104481555176L4.481766408233643,59.25984458155518L4.717546408233643,59.228543281555176C4.717546408233643,59.24615848155518,4.7077264082336425,59.263761781555175,4.701826408233643,59.279418381555175L2.6957364082336426,59.54549728155518Z" fill="#FFFFFF" fill-opacity="1"/></g><g><path d="M1.3557322025299072,65.24720865148926L3.361812202529907,64.98306465148926C4.378842202529907,65.62629965148926,5.309182202529907,66.39629465148926,6.130252202529907,67.27431465148926L4.124162202529908,67.53846465148926C3.303092202529907,66.66043465148925,2.3727522025299073,65.89044465148926,1.3557322025299072,65.24720865148926Z" fill="#FFFFFF" fill-opacity="1"/></g><g><path d="M1.3557321822738648,65.24720678405761L1.2830346822738647,65.20024878405762L1.5188156822738648,65.16894678405762L1.7663856822738646,65.13568778405762L2.0159096822738647,65.09458078405761L2.279194682273865,65.05936278405761L2.542484682273865,65.02610288405762L2.799874682273865,64.99088438405762L3.0474446822738646,64.95958308405761L3.2832246822738647,64.92828178405762L3.353954682273865,64.97523968405761L1.3557321822738648,65.24720678405761Z" fill="#FFFFFF" fill-opacity="1"/></g><g><path d="M2.695732185935974,59.545497149780275L4.701822185935974,59.27939414978027C4.327962185935974,60.64319414978027,3.760982185935974,61.947024149780276,3.017962185935974,63.151624149780275L1.0118821859359741,63.41576414978027C1.7540991859359742,62.21145414978027,2.321032185935974,60.908384149780275,2.695732185935974,59.545497149780275Z" fill="#FFFFFF" fill-opacity="1"/></g><g><path d="M0.9706225991249084,63.48425610449219L1.0118821991249085,63.415777104492186L1.2456965991249085,63.38447610449219L1.4952265991249085,63.35121610449219L1.7526175991249084,63.31795610449219L2.0139325991249084,63.28273810449219L2.2772225991249084,63.249478204492185L2.5346125991249084,63.214259704492186L2.7841425991249085,63.18295840449219L3.0179625991249086,63.15165710449219L2.9767025991249083,63.22013540449219L0.9706225991249084,63.48425610449219Z" fill="#FFFFFF" fill-opacity="1"/></g><g><path d="M2.10433,64.43714693632812L0.0982411,64.70324973632812L0,64.64845773632813L2.00609,64.38235473632812L2.10433,64.43714693632812Z" fill="#000000" fill-opacity="1"/></g><g><path d="M2.00609,64.3823566043457L0,64.6484597043457L0.0648425,64.5545437043457L2.07289,64.2884407043457L2.00609,64.3823566043457Z" fill="#000000" fill-opacity="1"/></g><g><path d="M1.2830254580879212,65.20024107336425Q0.7996844580879211,64.88912707336426,0.26328545808792114,64.58194207336426L2.269375458087921,64.31192207336426C2.626975458087921,64.51736907336426,2.966885458087921,64.72086907336426,3.291085458087921,64.93022107336425L1.2830254580879212,65.20024107336425Z" fill="#FFFFFF" fill-opacity="1"/></g><g><path d="M0.9706229486961365,63.484254067382814L1.0118819486961366,63.484254067382814L1.0590359486961365,63.484254067382814L1.1061899486961364,63.484254067382814L1.1533439486961363,63.484254067382814L1.2004979486961365,63.484254067382814L1.2476509486961365,63.484254067382814L1.2948059486961365,63.484254067382814L1.3360659486961364,63.484254067382814L1.5325459486961366,63.45881706738281L1.7290259486961366,63.431421067382814L1.9392659486961366,63.40402506738281L2.1553959486961363,63.374670067382816L2.3695659486961365,63.34727386738281L2.5797959486961366,63.31987766738281L2.7762859486961364,63.292481567382815L2.9727659486961366,63.26704406738281C2.7546759486961365,63.62707506738281,2.5188959486961364,63.991011067382814,2.2654259486961363,64.36472406738281L0.2593459486961365,64.62887406738281C0.5167489486961365,64.20820906738281,0.7525299486961365,63.844273067382815,0.9706229486961365,63.484254067382814Z" fill="#FFFFFF" fill-opacity="1"/></g><g><path d="M11.293803416900635,76.72499280900955C8.193313416900635,69.09399280900955,6.442653416900635,66.71279280900956,2.2693734169006348,64.31779280900955C5.041733416900635,60.22839280900955,5.637073416900635,57.273812809009556,5.299133416900634,48.96779280900955C8.401583416900635,56.58898280900955,10.150283416900635,58.97999280900955,14.323573416900635,61.37299280900955C11.551193416900635,65.46439280900955,10.957813416900635,68.42089280900956,11.293803416900635,76.72499280900955Z" fill="#FFFFFF" fill-opacity="1"/></g><g><path d="M11.323241113126278,77.24934714050293L9.317191113126277,77.51354714050294C6.096851113126278,69.53032714050293,4.375661113126278,67.14319714050293,0.09824111312627792,64.70129114050293L2.104321113126278,64.43714714050293C6.381741113126278,66.86927714050293,8.106861113126278,69.26422714050292,11.323241113126278,77.24934714050293Z" fill="#000000" fill-opacity="1"/></g><g><path d="M2.0728892295527457,64.28844486918449L0.06680922955274582,64.5545448691845C2.915799229552746,60.3790448691845,3.483639229552746,57.42447486918449,3.1044192295527457,48.746688869184496L5.110509229552746,48.482544869184494C5.489709229552746,57.15837486918449,4.921879229552746,60.112944869184496,2.0728892295527457,64.28844486918449Z" fill="#000000" fill-opacity="1"/></g><g><path d="M2.1043291184173585,64.43710930175781L2.0060880184173584,64.3824093017578L2.0728912184173582,64.28840930175781C4.921888018417358,60.11290930175781,5.489718018417358,57.158369301757816,5.110508018417359,48.48253330175781L5.088898018417359,47.99140930175781L5.269658018417358,48.44339730175781C8.489998018417358,56.42656930175781,10.211188018417358,58.81370930175781,14.488588018417358,61.25360930175781L14.586888018417358,61.310409301757815L14.521988018417359,61.40430930175781C11.671058018417359,65.57790930175781,11.105188018417358,68.53240930175781,11.482438018417358,77.20830930175781L11.506008018417358,77.70130930175782L11.323288018417358,77.24930930175782C8.106858018417359,69.26420930175782,6.381748018417358,66.86930930175781,2.1043291184173585,64.43710930175781ZM5.299128018417358,48.967793301757816C5.637078018417359,57.26403930175781,5.041738018417359,60.228409301757814,2.271340018417358,64.31780930175782C6.442658018417358,66.71270930175781,8.193308018417358,69.10180930175781,11.293808018417359,76.72500930175781C10.957828018417358,68.42680930175781,11.551198018417358,65.46440930175781,14.32358801841736,61.37300930175781C10.150288018417358,58.98000930175781,8.401598018417358,56.58897930175781,5.299128018417358,48.967793301757816Z" fill="#000000" fill-opacity="1"/></g></g><g><g><path d="M27.723410646209718,38.74617672279358L26.556300646209717,39.43490672279358L24.023650646209717,34.93068672279358L25.190750646209718,34.24389672279358L27.723410646209718,38.74617672279358Z" fill="#000000" fill-opacity="1"/></g><g><path d="M32.27393397796631,41.190043858642575L31.10683397796631,41.878773858642575L26.55630397796631,39.43490985864258L27.72340397796631,38.74617385864258L32.27393397796631,41.190043858642575Z" fill="#000000" fill-opacity="1"/></g><g><path d="M32.68065614196777,41.188082218170166L31.513556141967772,41.87683021817016L26.772436141967773,44.51832221817017L27.939536141967775,43.82957221817016L32.68065614196777,41.188082218170166Z" fill="#000000" fill-opacity="1"/></g><g><path d="M32.27394086303711,41.190041065216064L31.10683086303711,41.87877706521606L26.62704086303711,44.375481065216064L27.79414086303711,43.68869106521606L32.27394086303711,41.190041065216064Z" fill="#FFFFFF" fill-opacity="1"/></g><g><path d="M22.785804795837404,38.77551672279358L21.618704795837402,39.46230672279358L24.023654795837402,34.93068672279358L25.190754795837403,34.24389672279358L22.785804795837404,38.77551672279358Z" fill="#FFFFFF" fill-opacity="1"/></g><g><path d="M22.638443517303468,38.632679493408205L21.471343517303467,39.31946949340821L24.01775351730347,34.5236974934082L25.184863517303466,33.8349494934082L22.638443517303468,38.632679493408205Z" fill="#000000" fill-opacity="1"/></g><g><path d="M25.389194535827638,48.21835637084961L24.222094535827637,48.90710637084961L26.627044535827636,44.37547637084961L27.794144535827638,43.68868637084961L25.389194535827638,48.21835637084961Z" fill="#000000" fill-opacity="1"/></g><g><path d="M25.389195204467775,48.21836257293701L24.222095204467774,48.90711257293701L21.687475204467773,44.40483057293701L22.854575204467775,43.71608257293701L25.389195204467775,48.21836257293701Z" fill="#FFFFFF" fill-opacity="1"/></g><g><path d="M25.39509715637207,48.625344375305176L24.22798715637207,49.31408437530518L21.54600715637207,44.54766237530517L22.71310715637207,43.858914375305176L25.39509715637207,48.625344375305176Z" fill="#000000" fill-opacity="1"/></g><g><path d="M22.78581264796257,38.77551603317261L21.61870264796257,39.46230603317261L17.13891264796257,41.95900603317261L18.30601264796257,41.27025603317261L22.78581264796257,38.77551603317261Z" fill="#000000" fill-opacity="1"/></g><g><path d="M22.85458264796257,43.7160879498291L21.687472647962572,44.4048279498291L17.13891264796257,41.9590059498291L18.30601264796257,41.2702579498291L22.85458264796257,43.7160879498291Z" fill="#FFFFFF" fill-opacity="1"/></g><g><path d="M25.19075763725281,34.24389672279358L27.723407637252805,38.74617672279358L32.27391763725281,41.19003672279358L27.794147637252806,43.68868672279358L25.389197637252806,48.21839672279358L22.85457763725281,43.71608672279358L18.306017637252808,41.270256722793576L22.78580763725281,38.77551672279358L25.19075763725281,34.24389672279358Z" fill="#C9FB55" fill-opacity="1"/></g><g><path d="M27.866844667510986,38.6013694934082L32.68066466751099,41.1880694934082L27.939564667510986,43.829559493408205L25.397064667510985,48.6253494934082L22.715074667510986,43.858949493408204L17.901264667510986,41.274179493408205L22.646304667510986,38.632679493408205L25.200574667510985,33.8349494934082L27.866844667510986,38.6013694934082ZM27.794144667510984,43.688689493408205L32.27396466751099,41.1900394934082L27.723404667510984,38.7461694934082L25.190754667510987,34.2458554934082L22.785814667510987,38.7794294934082L18.306017667510986,41.274179493408205L22.854584667510984,43.7199994934082L25.389204667510988,48.22034949340821L27.794144667510984,43.688689493408205Z" fill="#000000" fill-opacity="1"/></g><g><path d="M22.713112993164064,43.858916796875L21.546002993164063,44.547666796875L16.732192993164062,41.960964796875L17.899292993164064,41.272216796875L22.713112993164064,43.858916796875Z" fill="#000000" fill-opacity="1"/></g></g><g><g><path d="M239.04471355056762,110.06166031071663L237.87762355056762,110.74845031071663L235.34496355056763,106.24617631071663L236.51205355056763,105.55744031071663L239.04471355056762,110.06166031071663Z" fill="#000000" fill-opacity="1"/></g><g><path d="M243.5952516506958,112.50553410446167L242.4281616506958,113.19232410446168L237.8776216506958,110.74845410446167L239.0447116506958,110.06166410446167L243.5952516506958,112.50553410446167Z" fill="#000000" fill-opacity="1"/></g><g><path d="M244.00001809265137,112.50358438491821L242.83289809265136,113.19036238491822L238.09374809265137,115.83185438491822L239.26086809265138,115.1431143849182L244.00001809265137,112.50358438491821Z" fill="#000000" fill-opacity="1"/></g><g><path d="M243.59524538360597,112.505530834198L242.42815538360597,113.192320834198L237.94638538360596,115.690980834198L239.11350538360597,115.002230834198L243.59524538360597,112.505530834198Z" fill="#FFFFFF" fill-opacity="1"/></g><g><path d="M234.10514599212647,110.08906031071663L232.93805599212646,110.77781031071663L235.34496599212648,106.24617631071663L236.51205599212648,105.55744031071663L234.10514599212647,110.08906031071663Z" fill="#FFFFFF" fill-opacity="1"/></g><g><path d="M233.95975119003296,109.94623166015624L232.79266119003296,110.63496166015625L235.33906119003296,105.83724166015625L236.50618119003295,105.15045166015625L233.95975119003296,109.94623166015624Z" fill="#000000" fill-opacity="1"/></g><g><path d="M236.7105026853943,119.53386064422608L235.5434126853943,120.22065064422607L237.9463826853943,115.69097864422608L239.11350268539428,115.00223064422607L236.7105026853943,119.53386064422608Z" fill="#000000" fill-opacity="1"/></g><g><path d="M236.71050715515136,119.53386473968506L235.54341715515136,120.22065473968506L233.00878715515137,115.71837473968506L234.17590715515138,115.03158473968506L236.71050715515136,119.53386473968506Z" fill="#FFFFFF" fill-opacity="1"/></g><g><path d="M236.7164053059387,119.94083654205322L235.54931530593873,120.62762654205322L232.86732530593872,115.86316454205323L234.03441530593872,115.17441654205322L236.7164053059387,119.94083654205322Z" fill="#000000" fill-opacity="1"/></g><g><path d="M234.10514857857703,110.08905982971191L232.93805857857703,110.77780782971192L228.46021857857704,113.27450982971192L229.62733857857705,112.58575982971192L234.10514857857703,110.08905982971191Z" fill="#000000" fill-opacity="1"/></g><g><path d="M234.17590857857704,115.03159011657715L233.00878857857705,115.71838011657715L228.46021857857704,113.27450811657715L229.62733857857705,112.58576011657715L234.17590857857704,115.03159011657715Z" fill="#FFFFFF" fill-opacity="1"/></g><g><path d="M236.51205542919158,105.55744031071663L239.0447154291916,110.06166031071663L243.59523542919158,112.50553031071662L239.11350542919158,115.00223031071663L236.71050542919158,119.53384031071663L234.1759054291916,115.03159031071662L229.6273354291916,112.58576031071662L234.1051454291916,110.08906031071663L236.51205542919158,105.55744031071663Z" fill="#FFFFFF" fill-opacity="1"/></g><g><path d="M239.18620409122468,109.91687166015625L243.99999409122466,112.50357166015625L239.26089409122466,115.14310166015625L236.70659409122467,119.94085166015626L234.02460409122466,115.17445166015625L229.21079409122467,112.58772166015625L233.94994409122467,109.94623166015624L236.50421409122467,105.15045166015625L239.18620409122468,109.91687166015625ZM239.11546409122468,115.00419166015625L243.59529409122467,112.50749166015625L239.04474409122466,110.06362166015624L236.51208409122466,105.56330366015625L234.10517409122468,110.09492166015625L229.62733509122467,112.59162166015625L234.17590409122468,115.03745166015625L236.71052409122467,119.53775166015625L239.11546409122468,115.00615166015625" fill="#000000" fill-opacity="1"/></g><g><path d="M234.03441418945312,115.17441896362304L232.86732418945311,115.86316896362305L228.05154418945312,113.27645496362305L229.22060418945313,112.58771896362305L234.03441418945312,115.17441896362304Z" fill="#000000" fill-opacity="1"/></g></g><g><path d="M110.14837447509765,49.64000569335938L110.14837447509765,49.66152569335937C110.22897447509766,49.28193569335937,110.75557447509766,46.92219569335938,112.99547447509767,45.716895693359376C113.07007447509766,45.677765693359376,114.84237447509766,44.75813569335938,116.87597447509765,45.23555569335937C119.50887447509766,45.85190569335938,121.59157447509766,48.59318569335937,122.08667447509765,52.12104569335938C122.03557447509766,51.614275693359374,121.98447447509766,50.24656569335937,122.93547447509765,49.09996569335937C123.96307447509766,47.86139569335938,125.86507447509766,47.21374569335938,127.46437447509766,47.97292569335937C129.06377447509766,48.73210569335937,129.45677447509766,50.53419569335937,129.49607447509766,50.74746569335937L144.45417447509766,103.63798569335938C144.35597447509764,105.25998569335937,143.73907447509765,112.32158569335938,137.81117447509766,117.96848569335937C132.48647447509765,123.04218569335937,126.26787447509766,123.74848569335937,124.47397447509766,123.88738569335938L78.39687447509766,136.08328569335936L57.542274475097656,99.36458569335937L80.94527447509765,93.26768569335937C80.80187447509766,92.87628569335938,79.66227447509766,89.52068569335938,81.61137447509765,86.81068569335937C82.91987447509766,84.99298569335937,84.86507447509766,84.49208569335937,85.37987447509765,84.35898569335937C89.02457447509765,83.42178569335937,93.45137447509765,85.72868569335938,96.70907447509765,90.00978569335938C96.67167447509766,89.86108569335937,96.63827447509766,89.71048569335937,96.60097447509766,89.56368569335937Q92.98767447509766,74.51498569335938,89.37437447509765,59.464385693359375C88.44697447509765,57.21228569335938,88.90677447509765,54.705785693359374,90.46487447509766,53.24613569335938C92.50237447509765,51.32468569335938,96.23547447509765,51.41469569335938,98.59327447509766,53.90948569335937C97.14717447509766,50.53419569335937,97.80737447509765,46.92024569335938,100.06887447509766,44.994895693359375C100.29877447509766,44.799225693359375,102.33627447509765,43.122369693359374,104.99867447509766,43.62523279335937C107.61377447509766,44.122225693359375,109.73577447509766,46.519135693359374,110.14837447509765,49.64000569335938Z" fill="url(#master_svg0_491_1016)" fill-opacity="1"/></g><g><path d="M78.26897447509765,135.59988569335937L124.39387447509766,123.39238569335937L124.43927447509766,123.38888569335937Q127.06197447509766,123.18578569335938,129.66197447509765,122.30488569335938Q134.12677447509765,120.79228569335937,137.47017447509765,117.60658569335938Q141.16957447509765,114.08258569335938,142.84927447509767,109.13318569335938Q143.79277447509764,106.35308569335938,143.95907447509765,103.60768569335937L144.45817447509765,103.63798569335938L143.97697447509768,103.77398569335938L129.01247447509766,50.86106569335938L129.00827447509766,50.83809569335938Q128.91777447509764,50.34716569335937,128.62737447509767,49.79898569335938Q128.11607447509766,48.83384569335938,127.25397447509765,48.42461569335938Q126.26337447509766,47.954425693359376,125.12247447509766,48.269275693359376Q124.02767447509765,48.571405693359374,123.32427447509765,49.41922569335937Q122.42957447509765,50.49794569335938,122.58807447509766,52.070895693359375L121.59547447509766,52.190545693359375Q121.24257447509765,49.67578569335937,119.88837447509766,47.88842569335937Q118.56667447509766,46.14395569335937,116.76597447509766,45.722395693359374Q115.60677447509767,45.450255693359374,114.32527447509766,45.76783569335937Q113.66877447509765,45.93054569335938,113.23147447509766,46.15975569335937Q111.94767447509766,46.85063569335937,111.20697447509767,48.234755693359375Q110.80807447509765,48.98015569335938,110.64147447509765,49.765315693359376L109.65237447509766,54.42618569335937L109.65237447509766,49.64000569335938L110.15237447509766,49.64000569335938L109.65667447509766,49.70553569335937Q109.36907447509765,47.52989569335938,108.02477447509766,45.975755693359375Q106.71327447509765,44.45952169335938,104.90537447509766,44.11646669335938Q103.37457447509766,43.82731869335937,101.82187447509766,44.506234693359374Q100.98387447509765,44.87265569335938,100.39297447509766,45.375645693359374Q98.82227447509766,46.712905693359374,98.43357447509766,48.99248569335938Q98.03427447509765,51.33507569335937,99.05287447509765,53.712485693359376L100.15887447509766,56.29388569335937L98.22987447509766,54.252885693359374Q96.63377447509765,52.56401569335937,94.37727447509766,52.42070569335937Q92.21457447509766,52.283355693359375,90.80787447509766,53.609885693359374Q89.75517447509765,54.59608569335938,89.47977447509766,56.14558569335938Q89.19907447509766,57.72558569335938,89.83667447509765,59.27398569335938L89.85147447509766,59.30988569335938L97.08717447509765,89.44698569335938Q97.10617447509765,89.52138569335938,97.14417447509766,89.68178569335937Q97.17707447509765,89.82068569335937,97.19397447509766,89.88808569335937L97.78777447509765,92.25318569335937L96.31117447509766,90.31258569335938Q93.91567447509766,87.16448569335938,90.96417447509765,85.67378569335938Q88.03257447509766,84.19308569335936,85.50437447509765,84.84318569335937L85.50307447509766,84.84358569335937Q83.21837447509766,85.43408569335938,82.01717447509766,87.10278569335938Q80.88637447509765,88.67498569335937,80.99297447509765,90.88458569335938Q81.05197447509765,92.10578569335937,81.41477447509766,93.09558569335937L81.60427447509765,93.61268569335937L57.668327475097655,99.84848569335938L57.41622147509766,98.88078569335937L80.81917447509765,92.78378569335938L80.94527447509765,93.26768569335937L80.47577447509765,93.43968569335937Q80.06047447509766,92.30658569335938,79.99417447509765,90.93278569335938Q79.87077447509765,88.37448569335938,81.20557447509765,86.51858569335937Q82.61807447509766,84.55638569335937,85.25277447509765,83.87538569335938L85.25537447509765,83.87478569335937Q88.14767447509766,83.13098569335938,91.41497447509767,84.78118569335938Q94.57197447509765,86.37568569335937,97.10697447509766,89.70698569335937L96.70907447509765,90.00978569335938L96.22407447509767,90.13158569335937Q96.20547447509766,90.05738569335938,96.17107447509765,89.91238569335937Q96.13497447509766,89.75998569335937,96.11477447509765,89.68038569335937L88.88817447509766,59.58108569335937L89.37437447509765,59.464385693359375L88.91197447509765,59.65478569335937Q88.16357447509766,57.83728569335938,88.49527447509766,55.970585693359375Q88.82877447509766,54.093685693359376,90.12177447509765,52.882365693359375Q91.84447447509766,51.25784569335937,94.44067447509767,51.422725693359375Q97.09007447509765,51.590975693359375,98.95667447509766,53.56598569335937L98.59327447509766,53.90948569335937L98.13367447509765,54.10638569335937Q96.99897447509765,51.45778569335938,97.44787447509765,48.824435693359376Q97.89747447509765,46.18688569335937,99.74477447509766,44.614145693359376Q100.44807447509766,44.01552669335938,101.42127447509765,43.58999699335938Q103.25677447509766,42.78739369335938,105.09187447509765,43.133997693359376Q107.24177447509766,43.541970693359374,108.78107447509765,45.321565693359375Q110.32117447509765,47.10208569335938,110.64807447509766,49.57446569335937L110.65237447509766,49.607095693359376L110.65237447509766,49.66152569335937L110.15237447509766,49.66152569335937L109.66327447509767,49.55772569335937Q109.85937447509767,48.633595693359375,110.32527447509766,47.76294569335938Q111.20817447509765,46.112935693359375,112.76727447509765,45.274045693359376Q113.31127447509766,44.988895693359375,114.08477447509765,44.79719569335938Q115.60037447509765,44.42157569335937,116.99387447509766,44.748725693359376Q119.14587447509766,45.25251569335938,120.68547447509766,47.28454569335938Q122.19667447509765,49.27922569335937,122.58577447509765,52.051555693359376L122.09057447509765,52.12104569335938L121.59317447509765,52.17119569335937Q121.39257447509766,50.18175569335938,122.55457447509765,48.78070569335937Q123.45867447509765,47.69104569335938,124.85647447509766,47.30530569335937Q126.35607447509766,46.891475693359375,127.68277447509766,47.521225693359376Q128.84447447509766,48.07265569335937,129.51097447509767,49.33084569335938Q129.87337447509765,50.01483569335937,129.99167447509765,50.65684569335937L129.49997447509764,50.74746569335937L129.98107447509767,50.61139569335938L144.96237447509765,103.58348569335938L144.95727447509768,103.66818569335938Q144.78287447509766,106.54748569335938,143.79617447509764,109.45458569335938Q142.03737447509764,114.63688569335937,138.15997447509767,118.33048569335938Q134.65667447509765,121.66858569335938,129.98287447509767,123.25208569335938Q127.26417447509766,124.17308569335937,124.51647447509765,124.38588569335937L124.47787447509765,123.88738569335938L124.60577447509766,124.37078569335938L78.52477447509766,136.56668569335937L78.26897447509765,135.59988569335937Z" fill="#000000" fill-opacity="1"/></g><g><path d="M117.23359070800781,90.4069780883789C113.76567070800782,87.4993780883789,110.73003170800781,84.7326780883789,111.23694710800781,81.6783780883789C111.61418970800781,79.39887808837891,113.89536070800781,77.2954780883789,116.13918070800781,77.0351780883789C117.93110070800782,76.83957808837891,119.8291207080078,78.1798780883789,123.62905070800781,80.88007808837891C125.05555070800781,81.89357808837892,126.31105070800781,82.94827808837891,126.52915070800782,83.13217808837891C127.49385070800781,83.9461780883789,128.2837507080078,84.67797808837891,128.8731507080078,85.2492780883789Q125.39155070800781,68.2086780883789,121.91375070800781,51.16620808837891C121.83915070800781,50.246578088378904,121.79985070800781,48.121648088378905,123.19685070800782,46.74220808837891Q124.67045070800782,45.286448088378904,127.48405070800781,45.48798408837891C135.8345507080078,46.08868008837891,139.0450507080078,79.2775780883789,144.3068507080078,103.82187808837891C144.48965070800782,104.6671780883789,144.83935070800783,106.2774780883789,143.9885507080078,107.0973780883789C140.8094507080078,110.1692780883789,125.57625070800782,97.40797808837891,117.23359070800781,90.4069780883789Z" fill="#1C2D15" fill-opacity="1"/></g><g><path d="M215.78512862548828,102.87488031311035C203.8503286254883,106.71158031311035,191.5643286254883,109.36598031311036,179.10582862548827,110.79928031311036C170.16392862548827,111.83048031311036,165.5800286254883,112.33138031311036,160.2435286254883,111.44898031311035C152.55522862548827,110.17908031311035,143.33032862548828,103.12528031311035,124.71563862548828,89.71438031311035C120.73883862548828,86.84588031311034,115.82481462548829,83.20258031311036,116.34745202548828,79.08578031311035C116.66181862548828,76.62628031311036,118.86438862548827,74.44458031311035,121.14161862548828,73.73818031311035C124.31873862548828,72.75988031311036,127.32102862548828,74.74588031311035,131.1425286254883,77.27388031311035C132.1654286254883,77.94998031311036,133.13492862548827,78.70288031311034,134.04262862548828,79.52598031311035C136.56552862548827,81.82508031311035,137.2964286254883,82.96778031311035,137.5695286254883,82.82888031311035C138.69342862548828,82.27118031311035,131.38422862548828,59.86358031311035,128.6158286254883,46.91438031311036C128.3093286254883,45.48018031311035,127.70802862548828,42.46688031311035,129.38602862548828,40.50438031311035C130.8734286254883,38.76097031311035,134.16442862548828,37.84134031311035,136.41612862548828,39.11708031311035C136.8882286254883,39.38723031311035,137.30642862548828,39.741380313110355,137.6500286254883,40.16193031311035C136.04082862548827,36.847350313110354,136.72072862548828,33.21188031311035,138.96452862548827,31.446970313110352C140.33992862548828,30.35906631311035,142.57002862548828,29.797505313110353,144.47982862548827,30.54299231311035C145.97302862548827,31.12999031311035,146.76682862548827,32.303990313110354,147.38572862548827,33.23340031311035C148.2579286254883,34.550630313110354,148.7972286254883,36.05838031311035,148.95762862548827,37.62806031311035C148.92622862548828,37.21912031311035,148.8083286254883,34.301730313110355,151.2270286254883,32.51530031311035C152.66912862548827,31.44501031311035,154.92282862548828,31.018459313110352,156.66762862548828,31.77764031311035C160.34572862548828,33.37232031311035,160.76422862548827,39.53189031311035,161.81542862548827,39.35970031311035C162.33802862548828,39.26970031311035,162.0354286254883,37.77090031311035,163.02572862548828,36.54015031311035C164.4011286254883,34.835910313110354,167.56052862548827,34.54241031311035,169.45272862548828,35.25267031311035C172.8223286254883,36.51472031311035,173.47862862548828,41.41808031311035,174.97582862548828,48.96688031311035C175.93662862548828,53.80768031311035,177.3925286254883,60.485780313110354,179.56172862548829,68.52178031311036L214.5630286254883,59.28238031311035" fill="url(#master_svg1_491_1092)" fill-opacity="1"/></g><g><path d="M214.69062862548827,59.76588031311035L179.20852862548827,69.13208031311035L179.0789286254883,68.65208031311036Q176.41242862548827,58.773480313110355,174.48532862548828,49.06428031311035Q174.35512862548828,48.407880313110354,174.1108286254883,47.152080313110346Q173.51112862548828,44.06988031311035,173.2116286254883,42.75838031311035Q172.73012862548828,40.64988031311035,172.24062862548828,39.33725031311035Q171.15412862548828,36.42383031311035,169.27732862548828,35.72091031311035Q167.8777286254883,35.19554031311035,166.1268286254883,35.48431031311035Q164.27372862548827,35.789910313110354,163.41482862548827,36.85417031311035Q162.94912862548827,37.433020313110354,162.7040286254883,38.62782031311035Q162.60702862548828,39.10099031311035,162.5319286254883,39.287940313110354Q162.33542862548828,39.77752031311035,161.9002286254883,39.85245031311035Q161.27282862548827,39.95524031311035,160.82162862548827,39.09133031311035Q160.62842862548828,38.72147031311035,160.2245286254883,37.62754031311035Q159.4573286254883,35.54964031311035,158.84962862548826,34.532570313110355Q157.83042862548828,32.82676031311035,156.46872862548827,32.23639031311035Q155.3280286254883,31.740030313110353,153.9086286254883,31.95479031311035Q152.54282862548828,32.161460313110354,151.5250286254883,32.91681031311035Q150.13102862548828,33.94637031311035,149.65642862548827,35.71764031311035Q149.3889286254883,36.716060313110354,149.45612862548828,37.58972031311035L148.4602286254883,37.678900313110354Q148.22852862548828,35.41198031311035,146.96882862548827,33.50943031311035Q146.34122862548827,32.56701031311035,145.89952862548827,32.10557031311035Q145.18222862548828,31.35635031311035,144.29682862548827,31.008330313110353Q143.05952862548827,30.525354313110352,141.61472862548828,30.798742313110353Q140.26782862548828,31.053594313110352,139.27472862548828,31.839120313110353Q137.7176286254883,33.06390031311035,137.35602862548828,35.303030313110355Q136.97932862548828,37.63559031311035,138.09982862548827,39.94356031311035L139.96482862548828,43.78488031311035L137.26292862548829,40.47828031311035Q136.8015286254883,39.913750313110356,136.16782862548828,39.55103031311035Q134.70672862548827,38.72324031311035,132.72352862548829,39.16650031311035Q130.8220286254883,39.59150031311035,129.7664286254883,40.82888031311035Q128.79162862548827,41.96898031311035,128.75662862548828,43.916480313110355Q128.7357286254883,45.08308031311035,129.1047286254883,46.809880313110355Q130.3453286254883,52.61258031311036,134.40232862548828,67.12318031311035Q136.63592862548828,75.11208031311035,137.3359286254883,77.93178031311035Q137.8939286254883,80.17928031311035,138.08182862548827,81.35928031311036Q138.1887286254883,82.03048031311036,138.1859286254883,82.41688031311035Q138.18122862548827,83.08348031311036,137.79172862548828,83.27678031311035Q137.3959286254883,83.47818031311036,136.90412862548828,83.04998031311035Q136.7263286254883,82.89508031311036,136.19482862548827,82.33948031311036Q134.88272862548828,80.96808031311035,133.70582862548827,79.89558031311034Q132.37152862548828,78.68548031311036,130.86692862548827,77.69108031311035Q127.28822862548829,75.32368031311034,125.70498862548828,74.65138031311035Q123.25440862548828,73.61078031311035,121.28876862548827,74.21608031311035Q119.64765862548828,74.72508031311035,118.37472862548829,76.09498031311036Q117.05184362548827,77.51848031311036,116.84341662548829,79.14918031311035Q116.52668962548829,81.64408031311035,119.21026862548828,84.52758031311035Q120.90691862548829,86.35058031311036,125.00812862548828,89.30888031311035Q126.56282862548828,90.42898031311034,129.4780286254883,92.53468031311036Q136.85272862548828,97.86198031311035,139.9472286254883,100.03598031311036Q144.9043286254883,103.51858031311035,148.21412862548829,105.57958031311036Q151.9804286254883,107.92488031311035,154.82682862548828,109.20198031311035Q157.80912862548828,110.54008031311035,160.32502862548827,110.95558031311035Q163.9530286254883,111.55558031311035,168.2981286254883,111.34238031311035Q171.31752862548828,111.19418031311035,179.04852862548827,110.30258031311035Q197.73362862548828,108.15268031311035,215.6321286254883,102.39888031311035L215.93812862548828,103.35088031311035Q197.9457286254883,109.13508031311035,179.1631286254883,111.29608031311035Q171.39952862548827,112.19138031311036,168.34712862548827,112.34118031311036Q163.89532862548828,112.55958031311035,160.1620286254883,111.94228031311034Q157.5181286254883,111.50558031311036,154.4174286254883,110.11428031311036Q151.50932862548828,108.80958031311035,147.68552862548827,106.42838031311035Q144.35232862548827,104.35288031311035,139.37232862548828,100.85418031311035Q136.27222862548828,98.67628031311035,128.8924286254883,93.34538031311035Q125.97723862548828,91.23948031311035,124.42313862548828,90.11988031311034Q120.24201862548829,87.10398031311036,118.47823862548829,85.20888031311034Q115.47568662548828,81.98258031311036,115.85148662548828,79.02238031311035Q116.10064062548828,77.07308031311035,117.64219862548828,75.41418031311035Q119.09666862548828,73.84898031311036,120.99447862548828,73.26038031311035Q123.30913862548829,72.54758031311036,126.09585862548828,73.73098031311035Q127.76352862548828,74.43908031311035,131.41822862548827,76.85678031311035Q132.9867286254883,77.89338031311036,134.3794286254883,79.15648031311035Q135.5816286254883,80.25208031311035,136.91742862548827,81.64818031311034Q137.41742862548827,82.17088031311036,137.5609286254883,82.29578031311036Q137.63152862548827,82.35728031311035,137.64812862548828,82.36518031311036Q137.50832862548828,82.29898031311035,137.34722862548827,82.38098031311034Q137.5954286254883,82.25778031311035,133.43922862548828,67.39248031311035Q129.37392862548828,52.85198031311035,128.1268286254883,47.01888031311035Q127.73382862548829,45.17988031311035,127.75682862548828,43.898480313110355Q127.79822862548828,41.59208031311035,129.00562862548827,40.17983031311035Q130.27802862548828,38.68842031311035,132.5054286254883,38.19058031311035Q134.86452862548828,37.663300313110355,136.6645286254883,38.68312031311035Q137.45882862548828,39.13774031311035,138.0372286254883,39.845560313110354L137.6500286254883,40.16193031311035L137.20022862548828,40.38028031311035Q135.94182862548828,37.78810031311035,136.36882862548828,35.143620313110354Q136.79262862548828,32.51919031311035,138.6543286254883,31.05481631311035Q139.84032862548827,30.11674411311035,141.42882862548828,29.81617631311035Q143.15572862548828,29.489411313110352,144.66272862548828,30.07765431311035Q145.75252862548828,30.50606531311035,146.6218286254883,31.414010313110353Q147.12462862548827,31.93924031311035,147.8026286254883,32.95737031311035Q149.19832862548827,35.06529031311035,149.4550286254883,37.57722031311035L148.95762862548827,37.62806031311035L148.4591286254883,37.666390313110355Q148.37882862548827,36.62232031311035,148.6905286254883,35.45884031311035Q149.25562862548827,33.34976031311035,150.9290286254883,32.11379031311035Q152.1468286254883,31.20998031311035,153.75902862548827,30.96604631311035Q155.46302862548828,30.70821831311035,156.86642862548828,31.31891031311035Q158.52362862548827,32.037380313110354,159.70802862548828,34.019650313110354Q160.3633286254883,35.116290313110355,161.16262862548828,37.28117031311035Q161.54432862548828,38.31511031311035,161.70802862548828,38.62836031311035Q161.80962862548827,38.82298031311035,161.8777286254883,38.88777031311035Q161.8374286254883,38.84943031311035,161.7305286254883,38.866960313110354Q161.6508286254883,38.88069031311035,161.5994286254883,38.935550313110355L161.6040286254883,38.91535031311035Q161.64552862548828,38.81193031311035,161.7244286254883,38.426930313110354Q162.0181286254883,36.99485031311035,162.63662862548827,36.22614031311035Q163.7349286254883,34.86527031311035,165.96402862548828,34.49763031311035Q167.9788286254883,34.165360313110355,169.6280286254883,34.78444031311035Q171.9317286254883,35.64726031311035,173.1776286254883,38.98782031311035Q173.6902286254883,40.36258031311035,174.18652862548828,42.53578031311035Q174.48962862548828,43.862980313110356,175.09242862548828,46.96108031311035Q175.33622862548827,48.21418031311035,175.46622862548827,48.86958031311035Q177.38662862548827,58.54548031311035,180.04442862548828,68.39148031311035L179.56172862548829,68.52178031311036L179.43402862548828,68.03828031311035L214.43542862548827,58.79898031311035L214.69062862548827,59.76588031311035Z" fill="#000000" fill-opacity="1"/></g><g transform="matrix(-0.25355398654937744,-0.9673212766647339,0.9678213000297546,-0.25163862109184265,57.590159690577366,195.78992857991875)"><line x1="104.41190338134766" y1="75.23278045654297" x2="127.00061416625977" y2="75.23278045654297" fill-opacity="0" stroke-opacity="1" stroke="#000000" fill="none" stroke-width="1"/></g><g transform="matrix(-0.19477228820323944,-0.980848491191864,0.9811622500419617,-0.1931854784488678,68.0062686150419,195.3723139434744)"><line x1="114.2550277709961" y1="69.31768035888672" x2="134.84421348571777" y2="69.31768035888672" fill-opacity="0" stroke-opacity="1" stroke="#000000" fill="none" stroke-width="1"/></g><g transform="matrix(0.28127050399780273,0.9596285223960876,-0.9602678418159485,0.27907997369766235,138.29650961254697,-102.9886789765776)"><line x1="137.94871520996094" y1="40.26852035522461" x2="168.27180290222168" y2="40.26852035522461" fill-opacity="0" stroke-opacity="1" stroke="#000000" fill="none" stroke-width="1"/></g><g transform="matrix(0.27011820673942566,0.962827205657959,-0.9634262919425964,0.2679734230041504,144.93678718290403,-115.77478627715755)"><line x1="148.87281799316406" y1="37.154388427734375" x2="177.13032341003418" y2="37.154388427734375" fill-opacity="0" stroke-opacity="1" stroke="#000000" fill="none" stroke-width="1"/></g><g transform="matrix(0.18661165237426758,0.9824337363243103,-0.9827216863632202,0.1850890815258026,170.24574700417088,-126.79825600177469)"><line x1="161.72869873046875" y1="38.877891540527344" x2="184.36591339111328" y2="38.877891540527344" fill-opacity="0" stroke-opacity="1" stroke="#000000" fill="none" stroke-width="1"/></g><g><path d="M126.66238198242188,107.72928217773438Q126.27868198242187,108.39948217773437,125.60888198242188,109.27908217773438Q124.40388198242186,110.86158217773438,122.92868198242188,112.17438217773437Q118.31988198242188,116.27618217773437,112.63798198242188,116.47828217773437Q108.65978198242188,116.62058217773438,104.93558198242188,114.79858217773437Q102.82488198242187,113.76598217773437,101.12498198242187,112.27928217773437L80.60911298242188,93.64560417773437L81.28145098242187,92.90536017773438L101.78328198242187,111.52648217773438Q103.38348198242187,112.92598217773437,105.37508198242188,113.90028217773437Q108.87428198242188,115.61228217773437,112.60238198242187,115.47888217773438Q117.92418198242189,115.28958217773437,122.26388198242188,111.42738217773437Q123.66678198242187,110.17888217773438,124.81328198242187,108.67328217773438Q125.44338198242187,107.84568217773437,125.79468198242188,107.23238217773438L126.66238198242188,107.72928217773438Z" fill="#000000" fill-opacity="1"/></g></g></svg>