<svg xmlns="http://www.w3.org/2000/svg" xmlns:xlink="http://www.w3.org/1999/xlink" fill="none" version="1.1" width="14.700004771351814" height="15.199996188282967" viewBox="0 0 14.700004771351814 15.199996188282967"><g><path d="M14.424300001490115,0.2795640014901161C14.647000001490117,0.507263001490116,14.657900001490116,0.8687660014901161,14.457500001490116,1.109760001490116C14.457500001490116,1.109760001490116,14.424300001490115,1.1465400014901161,14.424300001490115,1.1465400014901161C14.424300001490115,1.1465400014901161,12.268600001490116,3.3502300014901163,12.268600001490116,3.3502300014901163C12.268600001490116,3.3502300014901163,12.282000001490117,3.363200001490116,12.282000001490117,3.363200001490116C12.282000001490117,3.363200001490116,13.977900001490116,5.097140001490116,13.977900001490116,5.097140001490116C14.206300001490115,5.329480001490116,14.214300001490116,5.704870001490116,13.996000001490117,5.947140001490116C13.777600001490116,6.189410001490116,13.411000001490116,6.211910001490116,13.165900001490115,5.998090001490116C13.165900001490115,5.998090001490116,13.129900001490116,5.964120001490116,13.129900001490116,5.964120001490116C13.129900001490116,5.964120001490116,11.434000001490116,4.230170001490116,11.434000001490116,4.230170001490116C11.434000001490116,4.230170001490116,11.421700001490116,4.216160001490116,11.421700001490116,4.216160001490116C11.421700001490116,4.216160001490116,9.821350001490115,5.852720001490116,9.821350001490115,5.852720001490116C9.821350001490115,5.852720001490116,9.780230001490116,5.890550001490116,9.780230001490116,5.890550001490116C11.593000001490116,8.092850001490117,11.485700001490116,11.385200001490116,9.458180001490117,13.458300001490116C7.317560001490116,15.647200001490116,3.846600001490116,15.647200001490116,1.7059900014901161,13.458300001490116C-0.43532899850988394,11.269600001490117,-0.43532899850988394,7.720820001490116,1.705980001490116,5.532220001490116C3.675290001490116,3.518390001490116,6.770760001490116,3.357240001490116,8.920280001490116,5.048810001490116C8.920280001490116,5.048810001490116,8.940150001490116,5.022900001490116,8.940150001490116,5.022900001490116C8.940150001490116,5.022900001490116,8.973390001490117,4.985750001490116,8.973390001490117,4.985750001490116C8.973390001490117,4.985750001490116,13.576300001490116,0.2795640014901161,13.576300001490116,0.2795640014901161C13.810500001490116,0.04014550149011612,14.190100001490116,0.04014550149011612,14.424300001490115,0.2795640014901161C14.424300001490115,0.2795640014901161,14.424300001490115,0.2795640014901161,14.424300001490115,0.2795640014901161ZM2.553940001490116,6.399180001490116C0.8813330014901162,8.108960001490116,0.8813330014901162,10.881500001490116,2.553940001490116,12.591300001490117C4.2262100014901165,14.301400001490116,6.937950001490116,14.301400001490116,8.610220001490116,12.591300001490117C10.282800001490116,10.881500001490116,10.282800001490116,8.108960001490116,8.610220001490116,6.399180001490116C6.937950001490116,4.689060001490116,4.2262100014901165,4.689060001490116,2.553940001490116,6.399180001490116C2.553940001490116,6.399180001490116,2.553940001490116,6.399180001490116,2.553940001490116,6.399180001490116Z" fill="#B9BABE" fill-opacity="1"/><path d="M8.538720001490116,6.469090001490116Q7.313940001490116,5.2165900014901165,5.582080001490116,5.2165900014901165Q3.8502200014901162,5.2165900014901165,2.6254400014901162,6.469090001490116Q1.399480001490116,7.722300001490116,1.399480001490116,9.495240001490115Q1.399480001490116,11.268200001490117,2.625420001490116,12.521400001490116Q3.850210001490116,13.773900001490116,5.582080001490116,13.773900001490116Q7.313940001490116,13.773900001490116,8.538720001490116,12.521400001490116Q9.764670001490115,11.268200001490117,9.764670001490115,9.495240001490115Q9.764670001490115,7.722280001490116,8.538740001490115,6.469110001490116L8.538720001490116,6.469090001490116ZM8.681700001490116,6.3292500014901165Q9.964670001490116,7.640730001490116,9.964670001490116,9.495240001490115Q9.964670001490116,11.349700001490117,8.681720001490117,12.661200001490116Q7.398100001490116,13.973900001490117,5.582080001490116,13.973900001490117Q3.766060001490116,13.973900001490117,2.482460001490116,12.661200001490116Q1.1994800014901161,11.349800001490117,1.1994800014901161,9.495240001490115Q1.1994900014901162,7.640740001490117,2.482440001490116,6.329260001490116Q3.766060001490116,5.016590001490116,5.582080001490116,5.016590001490116Q7.398110001490116,5.016600001490116,8.681720001490117,6.329260001490116L8.681700001490116,6.3292500014901165ZM13.504800001490116,0.2096430014901161Q13.709900001490116,1.4901161138336505e-9,14.000300001490116,1.4901161138336505e-9Q14.290700001490116,1.4901161138336505e-9,14.495800001490116,0.20964400149011614Q14.689200001490116,0.4073800014901161,14.699500001490117,0.6859700014901161Q14.709800001490116,0.9628350014901161,14.534400001490116,1.1737000014901162L14.533100001490116,1.1752800014901161L14.497200001490116,1.2150500014901162L12.340100001490116,3.420160001490116L12.268600001490116,3.3502300014901163L12.338200001490117,3.278460001490116L12.352500001490116,3.2923300014901162L14.049400001490117,5.027220001490116Q14.248300001490117,5.229590001490116,14.254400001490117,5.516290001490116Q14.260500001490117,5.802940001490116,14.070200001490116,6.014090001490116Q13.879100001490116,6.226150001490116,13.597100001490116,6.243460001490116Q13.314900001490116,6.260780001490116,13.100100001490116,6.073450001490116L13.098700001490116,6.072150001490116L13.059800001490116,6.035460001490116L11.360700001490116,4.298220001490116L11.346600001490117,4.282230001490116L11.421700001490116,4.216160001490116L11.493200001490116,4.286070001490116L9.891000001490116,5.924530001490116L9.847930001490116,5.964140001490116L9.780230001490116,5.890550001490116L9.857440001490117,5.827000001490116Q11.246700001490115,7.514770001490116,11.159200001490117,9.726840001490116Q11.071300001490116,11.952000001490116,9.529670001490116,13.528200001490116Q7.8948000014901165,15.200000001490116,5.582080001490116,15.200000001490116Q3.269370001490116,15.200000001490116,1.634490001490116,13.528200001490116Q0.0000015014901161153338,11.857600001490116,1.4901161138336505e-9,9.495240001490115Q-0.0000019985098838742887,7.132880001490116,1.634500001490116,5.462280001490116Q3.1299200014901163,3.933050001490116,5.239310001490116,3.801180001490116Q7.330460001490116,3.6704500014901162,8.982120001490117,4.970230001490116L8.920280001490116,5.048810001490116L8.840920001490115,4.987970001490116L8.863100001490116,4.959040001490116L8.900340001490116,4.917420001490116L13.504800001490116,0.2096410014901161L13.504800001490116,0.2096430014901161ZM13.647800001490117,0.3494860014901161L9.044880001490116,5.055670001490116L8.973390001490117,4.985750001490116L9.047910001490116,5.052420001490116L9.014680001490117,5.089570001490116L8.940150001490116,5.022900001490116L9.019510001490117,5.083740001490116L8.938020001490116,5.190030001490116L8.858440001490116,5.127400001490116Q7.266760001490116,3.874820001490116,5.251790001490116,4.000790001490117Q3.219150001490116,4.127870001490116,1.777460001490116,5.602150001490116Q0.1999985014901161,7.214460001490116,0.20000000149011612,9.495240001490115Q0.2000020014901161,11.776000001490116,1.777490001490116,13.388400001490115Q3.353520001490116,15.000000001490116,5.582080001490116,15.000000001490116Q7.810630001490116,15.000000001490116,9.386690001490116,13.388300001490116Q10.874500001490116,11.867200001490117,10.959400001490117,9.718940001490116Q11.043800001490116,7.583030001490116,9.703020001490117,5.954100001490116L9.642870001490117,5.8810300014901165L9.753640001490115,5.779130001490116L9.821350001490115,5.852720001490116L9.749850001490117,5.782810001490116L11.425500001490116,4.069180001490116L11.509100001490117,4.164100001490116L11.434000001490116,4.230170001490116L11.505500001490116,4.160250001490116L13.201400001490116,5.894200001490116L13.129900001490116,5.964120001490116L13.198600001490115,5.891420001490116L13.234500001490115,5.925390001490116L13.165900001490115,5.998090001490116L13.231600001490117,5.922730001490116Q13.384500001490116,6.056130001490116,13.584800001490116,6.043840001490116Q13.785300001490116,6.0315300014901165,13.921700001490116,5.880200001490116Q14.058900001490116,5.727940001490116,14.054500001490116,5.5205500014901165Q14.050100001490117,5.313200001490116,13.906400001490116,5.167070001490116L12.210500001490116,3.433120001490116L12.282000001490117,3.363200001490116L12.212300001490116,3.434980001490116L12.126900001490116,3.352090001490116L14.352800001490117,1.076610001490116L14.424300001490115,1.1465400014901161L14.350100001490116,1.0794960014901163L14.383300001490117,1.0427140014901162L14.457500001490116,1.109760001490116L14.380600001490116,1.0458130014901161Q14.680800001490116,0.6848720014901161,14.352800001490117,0.34948300149011613Q14.206600001490116,0.20000000149011612,14.000300001490116,0.20000000149011612Q13.794000001490117,0.20000000149011612,13.647800001490117,0.34948400149011616L13.647800001490117,0.3494860014901161Z" fill="#B9BABE" fill-opacity="1"/></g></svg>