<svg xmlns="http://www.w3.org/2000/svg" xmlns:xlink="http://www.w3.org/1999/xlink" fill="none" version="1.1" width="14.000015258789062" height="14" viewBox="0 0 14.000015258789062 14"><g><path d="M6.30002,0C4.367,0,2.80003,1.567,2.80003,3.5C2.80003,3.5,2.80003,4.19999,2.80003,4.19999C1.25362,4.19999,0,5.45359,0,7.00002C0,7.00002,0,11.2,0,11.2C0,12.7464,1.25362,14,2.80003,14C2.80003,14,11.2,14,11.2,14C12.7464,14,14,12.7464,14,11.2C14,11.2,14,7.00002,14,7.00002C14,5.45359,12.7464,4.19999,11.2,4.19999C11.2,4.19999,11.2,3.5,11.2,3.5C11.2,1.567,9.63301,0,7.70002,0C7.70002,0,6.30002,0,6.30002,0C6.30002,0,6.30002,0,6.30002,0ZM2.80003,5.59999C2.80003,5.59999,11.2,5.59999,11.2,5.59999C11.9732,5.59999,12.6,6.2268,12.6,6.99999C12.6,6.99999,12.6,11.2,12.6,11.2C12.6,11.9732,11.9732,12.6,11.2,12.6C11.2,12.6,2.80003,12.6,2.80003,12.6C2.02682,12.6,1.40002,11.9732,1.40002,11.2C1.40002,11.2,1.40002,6.99999,1.40002,6.99999C1.40002,6.2268,2.02682,5.59999,2.80003,5.59999C2.80003,5.59999,2.80003,5.59999,2.80003,5.59999ZM4.20003,3.5C4.20003,2.34019,5.14021,1.39999,6.30002,1.39999C6.30002,1.39999,7.70002,1.39999,7.70002,1.39999C8.85979,1.39999,9.80001,2.34019,9.80001,3.5C9.80001,3.5,9.80001,4.19999,9.80001,4.19999C9.80001,4.19999,4.2,4.19999,4.2,4.19999C4.2,4.19999,4.2,3.5,4.2,3.5C4.2,3.5,4.20003,3.5,4.20003,3.5ZM6.30002,7.7C5.91341,7.7,5.60003,8.0134,5.60003,8.39999C5.60003,8.7866,5.91341,9.10001,6.30002,9.10001C6.30002,9.10001,7.70002,9.10001,7.70002,9.10001C8.0866,9.10001,8.40002,8.7866,8.40002,8.39999C8.40002,8.0134,8.0866,7.7,7.70002,7.7C7.70002,7.7,6.30002,7.7,6.30002,7.7C6.30002,7.7,6.30002,7.7,6.30002,7.7Z" fill="#B9BABE" fill-opacity="1"/></g></svg>