<svg xmlns="http://www.w3.org/2000/svg" xmlns:xlink="http://www.w3.org/1999/xlink" fill="none" version="1.1" width="30" height="30" viewBox="0 0 30 30"><g style="mix-blend-mode:passthrough"><g style="mix-blend-mode:passthrough" transform="matrix(-1,0,0,-1,60,60)"><ellipse cx="45" cy="45" rx="15" ry="15" fill="#FCFDFF" fill-opacity="1"/></g><g transform="matrix(-1,0,0,-1,46.666664123535156,43.33333206176758)"><path d="M36.91573206176758,21.716581630883788L24.106355061767577,25.65650603088379C23.215009061767578,25.93072603088379,23.05289806176758,27.12236603088379,23.83871406176758,27.624756030883788L27.623312061767578,30.044076030883787C28.02728206176758,30.30225603088379,28.55224206176758,30.267486030883788,28.91862206176758,29.95828603088379L33.64223206176758,25.97230603088379C33.89823206176758,25.756246030883787,34.24383206176758,26.10152603088379,34.02773206176758,26.357856030883788L30.04208206176758,31.08228603088379C29.732932061767578,31.44861603088379,29.69826206176758,31.973566030883788,29.956552061767578,32.37736603088379L32.37532206176758,36.16146603088379C32.87744206176758,36.94706603088379,34.06933206176758,36.78496603088379,34.343532061767576,35.893866030883785L38.28343206176758,23.08453603088379C38.54163206176758,22.24476403088379,37.75523206176758,21.45841203088379,36.91573206176758,21.716581630883788Z" fill="#363940" fill-opacity="1"/></g></g></svg>