<svg xmlns="http://www.w3.org/2000/svg" xmlns:xlink="http://www.w3.org/1999/xlink" fill="none" version="1.1" width="198" height="198" viewBox="0 0 198 198"><defs><linearGradient x1="-0.1011556014418602" y1="1" x2="0.9796006679534912" y2="0" id="master_svg0_66_7803"><stop offset="0%" stop-color="#AD8DF8" stop-opacity="1"/><stop offset="99.99998807907104%" stop-color="#06CCAB" stop-opacity="1"/></linearGradient><linearGradient x1="-0.1011556014418602" y1="1" x2="0.9796006679534912" y2="0" id="master_svg1_66_7803"><stop offset="0%" stop-color="#AD8DF8" stop-opacity="1"/><stop offset="99.99998807907104%" stop-color="#06CCAB" stop-opacity="1"/></linearGradient><linearGradient x1="-0.1011556014418602" y1="1" x2="0.9796006679534912" y2="0" id="master_svg2_66_7803"><stop offset="0%" stop-color="#AD8DF8" stop-opacity="1"/><stop offset="99.99998807907104%" stop-color="#06CCAB" stop-opacity="1"/></linearGradient><linearGradient x1="-0.1011556014418602" y1="1" x2="0.9796006679534912" y2="0" id="master_svg3_66_7803"><stop offset="0%" stop-color="#AD8DF8" stop-opacity="1"/><stop offset="99.99998807907104%" stop-color="#06CCAB" stop-opacity="1"/></linearGradient></defs><g style="mix-blend-mode:passthrough"><g transform="matrix(-1,0,0,1,392,0)"><path d="M220,4L200,4Q199.17157,4,198.58579,4.585789999999999Q198,5.17157,198,6L198,26L194,26L194,6Q194,3.51472,195.757359,1.7573590000000001Q197.51472,0,200,0L220,0L220,4ZM222,2Q222,2.0982537,221.9904,2.196034Q221.9807,2.293815,221.9616,2.390181Q221.9424,2.486546,221.9139,2.580569Q221.8854,2.674592,221.8478,2.765367Q221.8102,2.856141,221.7638,2.942793Q221.7175,3.0294499999999998,221.6629,3.11114Q221.60829999999999,3.19284,221.546,3.26879Q221.4837,3.34474,221.4142,3.4142099999999997Q221.3447,3.48369,221.2688,3.54602Q221.1928,3.6083499999999997,221.1111,3.66294Q221.0294,3.71753,220.9428,3.76384Q220.8561,3.8101599999999998,220.7654,3.84776Q220.6746,3.88536,220.5806,3.91388Q220.4865,3.9424,220.3902,3.96157Q220.2938,3.98074,220.196,3.99037Q220.0983,4,220,4Q219.9017,4,219.804,3.99037Q219.7062,3.98074,219.6098,3.96157Q219.5135,3.9424,219.4194,3.91388Q219.3254,3.88536,219.2346,3.84776Q219.1439,3.8101599999999998,219.0572,3.76384Q218.9706,3.71753,218.8889,3.66294Q218.8072,3.6083499999999997,218.7312,3.54602Q218.6553,3.48369,218.5858,3.4142099999999997Q218.5163,3.34474,218.454,3.26879Q218.3916,3.19284,218.3371,3.11114Q218.2825,3.0294499999999998,218.2362,2.942793Q218.1898,2.856141,218.1522,2.765367Q218.1146,2.674592,218.0861,2.580569Q218.0576,2.486546,218.0384,2.390181Q218.0193,2.293815,218.0096,2.196034Q218,2.0982537,218,2Q218,1.9017463000000001,218.0096,1.803966Q218.0193,1.706185,218.0384,1.6098189999999999Q218.0576,1.513454,218.0861,1.4194309999999999Q218.1146,1.325408,218.1522,1.234633Q218.1898,1.143859,218.2362,1.057207Q218.2825,0.97055,218.3371,0.88886Q218.3916,0.8071600000000001,218.454,0.7312099999999999Q218.5163,0.65526,218.5858,0.58579Q218.6553,0.51631,218.7312,0.45398000000000005Q218.8072,0.39165000000000005,218.8889,0.3370599999999999Q218.9706,0.28247,219.0572,0.23615999999999993Q219.1439,0.18984,219.2346,0.15223999999999993Q219.3254,0.11464000000000008,219.4194,0.08611999999999997Q219.5135,0.057600000000000096,219.6098,0.038429999999999964Q219.7062,0.019260000000000055,219.804,0.009630000000000027Q219.9017,0,220,0Q220.0983,0,220.196,0.009630000000000027Q220.2938,0.019260000000000055,220.3902,0.038429999999999964Q220.4865,0.057600000000000096,220.5806,0.08611999999999997Q220.6746,0.11464000000000008,220.7654,0.15223999999999993Q220.8561,0.18984,220.9428,0.23615999999999993Q221.0294,0.28247,221.1111,0.3370599999999999Q221.1928,0.39165000000000005,221.2688,0.45398000000000005Q221.3447,0.51631,221.4142,0.58579Q221.4837,0.65526,221.546,0.7312099999999999Q221.60829999999999,0.8071600000000001,221.6629,0.88886Q221.7175,0.97055,221.7638,1.057207Q221.8102,1.143859,221.8478,1.234633Q221.8854,1.325408,221.9139,1.4194309999999999Q221.9424,1.513454,221.9616,1.6098189999999999Q221.9807,1.706185,221.9904,1.803966Q222,1.9017463000000001,222,2ZM198,26Q198,26.0983,197.99037,26.196Q197.98074,26.2938,197.96157,26.3902Q197.9424,26.4865,197.91388,26.5806Q197.88536,26.6746,197.84776,26.7654Q197.81016,26.8561,197.76384,26.9428Q197.71753,27.0294,197.66294,27.1111Q197.60835,27.1928,197.54602,27.2688Q197.48369,27.3447,197.41421,27.4142Q197.34474,27.4837,197.26879,27.546Q197.19284,27.6083,197.11114,27.6629Q197.02945,27.7175,196.942793,27.7638Q196.856141,27.8102,196.765367,27.8478Q196.674592,27.8854,196.580569,27.9139Q196.486546,27.9424,196.390181,27.9616Q196.293815,27.9807,196.196034,27.9904Q196.0982537,28,196,28Q195.9017463,28,195.803966,27.9904Q195.706185,27.9807,195.609819,27.9616Q195.513454,27.9424,195.419431,27.9139Q195.325408,27.8854,195.234633,27.8478Q195.143859,27.8102,195.057207,27.7638Q194.97055,27.7175,194.88886,27.6629Q194.80716,27.6083,194.73121,27.546Q194.65526,27.4837,194.58579,27.4142Q194.51631,27.3447,194.45398,27.2688Q194.39165,27.1928,194.33706,27.1111Q194.28247,27.0294,194.23616,26.9428Q194.18984,26.8561,194.15224,26.7654Q194.11464,26.6746,194.08612,26.5806Q194.0576,26.4865,194.03843,26.3902Q194.01926,26.2938,194.00963,26.196Q194,26.0983,194,26Q194,25.9017,194.00963,25.804Q194.01926,25.7062,194.03843,25.6098Q194.0576,25.5135,194.08612,25.4194Q194.11464,25.3254,194.15224,25.2346Q194.18984,25.1439,194.23616,25.0572Q194.28247,24.9706,194.33706,24.8889Q194.39165,24.8072,194.45398,24.7312Q194.51631,24.6553,194.58579,24.5858Q194.65526,24.5163,194.73121,24.454Q194.80716,24.3916,194.88886,24.3371Q194.97055,24.2825,195.057207,24.2362Q195.143859,24.1898,195.234633,24.1522Q195.325408,24.1146,195.419431,24.0861Q195.513454,24.0576,195.609819,24.0384Q195.706185,24.0193,195.803966,24.0096Q195.9017463,24,196,24Q196.0982537,24,196.196034,24.0096Q196.293815,24.0193,196.390181,24.0384Q196.486546,24.0576,196.580569,24.0861Q196.674592,24.1146,196.765367,24.1522Q196.856141,24.1898,196.942793,24.2362Q197.02945,24.2825,197.11114,24.3371Q197.19284,24.3916,197.26879,24.454Q197.34474,24.5163,197.41421,24.5858Q197.48369,24.6553,197.54602,24.7312Q197.60835,24.8072,197.66294,24.8889Q197.71753,24.9706,197.76384,25.0572Q197.81016,25.1439,197.84776,25.2346Q197.88536,25.3254,197.91388,25.4194Q197.9424,25.5135,197.96157,25.6098Q197.98074,25.7062,197.99037,25.804Q198,25.9017,198,26Z" fill="url(#master_svg0_66_7803)" fill-opacity="1"/></g><g><path d="M26,4L6,4Q5.17157,4,4.585789999999999,4.585789999999999Q4,5.17157,4,6L4,26L0,26L0,6Q0,3.51472,1.7573590000000001,1.7573590000000001Q3.51472,0,6,0L26,0L26,4ZM28,2Q28,2.0982537,27.9904,2.196034Q27.9807,2.293815,27.9616,2.390181Q27.9424,2.486546,27.9139,2.580569Q27.8854,2.674592,27.8478,2.765367Q27.8102,2.856141,27.7638,2.942793Q27.7175,3.0294499999999998,27.6629,3.11114Q27.6083,3.19284,27.546,3.26879Q27.4837,3.34474,27.4142,3.4142099999999997Q27.3447,3.48369,27.2688,3.54602Q27.1928,3.6083499999999997,27.1111,3.66294Q27.0294,3.71753,26.9428,3.76384Q26.8561,3.8101599999999998,26.7654,3.84776Q26.6746,3.88536,26.5806,3.91388Q26.4865,3.9424,26.3902,3.96157Q26.2938,3.98074,26.196,3.99037Q26.0983,4,26,4Q25.9017,4,25.804,3.99037Q25.7062,3.98074,25.6098,3.96157Q25.5135,3.9424,25.4194,3.91388Q25.3254,3.88536,25.2346,3.84776Q25.1439,3.8101599999999998,25.0572,3.76384Q24.9706,3.71753,24.8889,3.66294Q24.8072,3.6083499999999997,24.7312,3.54602Q24.6553,3.48369,24.5858,3.4142099999999997Q24.5163,3.34474,24.454,3.26879Q24.3916,3.19284,24.3371,3.11114Q24.2825,3.0294499999999998,24.2362,2.942793Q24.1898,2.856141,24.1522,2.765367Q24.1146,2.674592,24.0861,2.580569Q24.0576,2.486546,24.0384,2.390181Q24.0193,2.293815,24.0096,2.196034Q24,2.0982537,24,2Q24,1.9017463000000001,24.0096,1.803966Q24.0193,1.706185,24.0384,1.6098189999999999Q24.0576,1.513454,24.0861,1.4194309999999999Q24.1146,1.325408,24.1522,1.234633Q24.1898,1.143859,24.2362,1.057207Q24.2825,0.97055,24.3371,0.88886Q24.3916,0.8071600000000001,24.454,0.7312099999999999Q24.5163,0.65526,24.5858,0.58579Q24.6553,0.51631,24.7312,0.45398000000000005Q24.8072,0.39165000000000005,24.8889,0.3370599999999999Q24.9706,0.28247,25.0572,0.23615999999999993Q25.1439,0.18984,25.2346,0.15223999999999993Q25.3254,0.11464000000000008,25.4194,0.08611999999999997Q25.5135,0.057600000000000096,25.6098,0.038429999999999964Q25.7062,0.019260000000000055,25.804,0.009630000000000027Q25.9017,0,26,0Q26.0983,0,26.196,0.009630000000000027Q26.2938,0.019260000000000055,26.3902,0.038429999999999964Q26.4865,0.057600000000000096,26.5806,0.08611999999999997Q26.6746,0.11464000000000008,26.7654,0.15223999999999993Q26.8561,0.18984,26.9428,0.23615999999999993Q27.0294,0.28247,27.1111,0.3370599999999999Q27.1928,0.39165000000000005,27.2688,0.45398000000000005Q27.3447,0.51631,27.4142,0.58579Q27.4837,0.65526,27.546,0.7312099999999999Q27.6083,0.8071600000000001,27.6629,0.88886Q27.7175,0.97055,27.7638,1.057207Q27.8102,1.143859,27.8478,1.234633Q27.8854,1.325408,27.9139,1.4194309999999999Q27.9424,1.513454,27.9616,1.6098189999999999Q27.9807,1.706185,27.9904,1.803966Q28,1.9017463000000001,28,2ZM4,26Q4,26.0983,3.99037,26.196Q3.98074,26.2938,3.96157,26.3902Q3.9424,26.4865,3.91388,26.5806Q3.88536,26.6746,3.84776,26.7654Q3.8101599999999998,26.8561,3.76384,26.9428Q3.71753,27.0294,3.66294,27.1111Q3.6083499999999997,27.1928,3.54602,27.2688Q3.48369,27.3447,3.4142099999999997,27.4142Q3.34474,27.4837,3.26879,27.546Q3.19284,27.6083,3.11114,27.6629Q3.0294499999999998,27.7175,2.942793,27.7638Q2.856141,27.8102,2.765367,27.8478Q2.674592,27.8854,2.580569,27.9139Q2.486546,27.9424,2.390181,27.9616Q2.293815,27.9807,2.196034,27.9904Q2.0982537,28,2,28Q1.9017463000000001,28,1.803966,27.9904Q1.706185,27.9807,1.6098189999999999,27.9616Q1.513454,27.9424,1.4194309999999999,27.9139Q1.325408,27.8854,1.234633,27.8478Q1.143859,27.8102,1.057207,27.7638Q0.97055,27.7175,0.88886,27.6629Q0.8071600000000001,27.6083,0.7312099999999999,27.546Q0.65526,27.4837,0.58579,27.4142Q0.51631,27.3447,0.45398000000000005,27.2688Q0.39165000000000005,27.1928,0.3370599999999999,27.1111Q0.28247,27.0294,0.23615999999999993,26.9428Q0.18984,26.8561,0.15223999999999993,26.7654Q0.11464000000000008,26.6746,0.08611999999999997,26.5806Q0.057600000000000096,26.4865,0.038429999999999964,26.3902Q0.019260000000000055,26.2938,0.009630000000000027,26.196Q0,26.0983,0,26Q0,25.9017,0.009630000000000027,25.804Q0.019260000000000055,25.7062,0.038429999999999964,25.6098Q0.057600000000000096,25.5135,0.08611999999999997,25.4194Q0.11464000000000008,25.3254,0.15223999999999993,25.2346Q0.18984,25.1439,0.23615999999999993,25.0572Q0.28247,24.9706,0.3370599999999999,24.8889Q0.39165000000000005,24.8072,0.45398000000000005,24.7312Q0.51631,24.6553,0.58579,24.5858Q0.65526,24.5163,0.7312099999999999,24.454Q0.8071600000000001,24.3916,0.88886,24.3371Q0.97055,24.2825,1.057207,24.2362Q1.143859,24.1898,1.234633,24.1522Q1.325408,24.1146,1.4194309999999999,24.0861Q1.513454,24.0576,1.6098189999999999,24.0384Q1.706185,24.0193,1.803966,24.0096Q1.9017463000000001,24,2,24Q2.0982537,24,2.196034,24.0096Q2.293815,24.0193,2.390181,24.0384Q2.486546,24.0576,2.580569,24.0861Q2.674592,24.1146,2.765367,24.1522Q2.856141,24.1898,2.942793,24.2362Q3.0294499999999998,24.2825,3.11114,24.3371Q3.19284,24.3916,3.26879,24.454Q3.34474,24.5163,3.4142099999999997,24.5858Q3.48369,24.6553,3.54602,24.7312Q3.6083499999999997,24.8072,3.66294,24.8889Q3.71753,24.9706,3.76384,25.0572Q3.8101599999999998,25.1439,3.84776,25.2346Q3.88536,25.3254,3.91388,25.4194Q3.9424,25.5135,3.96157,25.6098Q3.98074,25.7062,3.99037,25.804Q4,25.9017,4,26Z" fill="url(#master_svg1_66_7803)" fill-opacity="1"/></g><g transform="matrix(-1,0,0,-1,392,392)"><path d="M220,198L200,198Q199.17157,198,198.58579,198.58579Q198,199.17157,198,200L198,220L194,220L194,200Q194,197.51472,195.757359,195.757359Q197.51472,194,200,194L220,194L220,198ZM222,196Q222,196.0982537,221.9904,196.196034Q221.9807,196.293815,221.9616,196.390181Q221.9424,196.486546,221.9139,196.580569Q221.8854,196.674592,221.8478,196.765367Q221.8102,196.856141,221.7638,196.942793Q221.7175,197.02945,221.6629,197.11114Q221.60829999999999,197.19284,221.546,197.26879Q221.4837,197.34474,221.4142,197.41421Q221.3447,197.48369,221.2688,197.54602Q221.1928,197.60835,221.1111,197.66294Q221.0294,197.71753,220.9428,197.76384Q220.8561,197.81016,220.7654,197.84776Q220.6746,197.88536,220.5806,197.91388Q220.4865,197.9424,220.3902,197.96157Q220.2938,197.98074,220.196,197.99037Q220.0983,198,220,198Q219.9017,198,219.804,197.99037Q219.7062,197.98074,219.6098,197.96157Q219.5135,197.9424,219.4194,197.91388Q219.3254,197.88536,219.2346,197.84776Q219.1439,197.81016,219.0572,197.76384Q218.9706,197.71753,218.8889,197.66294Q218.8072,197.60835,218.7312,197.54602Q218.6553,197.48369,218.5858,197.41421Q218.5163,197.34474,218.454,197.26879Q218.3916,197.19284,218.3371,197.11114Q218.2825,197.02945,218.2362,196.942793Q218.1898,196.856141,218.1522,196.765367Q218.1146,196.674592,218.0861,196.580569Q218.0576,196.486546,218.0384,196.390181Q218.0193,196.293815,218.0096,196.196034Q218,196.0982537,218,196Q218,195.9017463,218.0096,195.803966Q218.0193,195.706185,218.0384,195.609819Q218.0576,195.513454,218.0861,195.419431Q218.1146,195.325408,218.1522,195.234633Q218.1898,195.143859,218.2362,195.057207Q218.2825,194.97055,218.3371,194.88886Q218.3916,194.80716,218.454,194.73121Q218.5163,194.65526,218.5858,194.58579Q218.6553,194.51631,218.7312,194.45398Q218.8072,194.39165,218.8889,194.33706Q218.9706,194.28247,219.0572,194.23616Q219.1439,194.18984,219.2346,194.15224Q219.3254,194.11464,219.4194,194.08612Q219.5135,194.0576,219.6098,194.03843Q219.7062,194.01926,219.804,194.00963Q219.9017,194,220,194Q220.0983,194,220.196,194.00963Q220.2938,194.01926,220.3902,194.03843Q220.4865,194.0576,220.5806,194.08612Q220.6746,194.11464,220.7654,194.15224Q220.8561,194.18984,220.9428,194.23616Q221.0294,194.28247,221.1111,194.33706Q221.1928,194.39165,221.2688,194.45398Q221.3447,194.51631,221.4142,194.58579Q221.4837,194.65526,221.546,194.73121Q221.60829999999999,194.80716,221.6629,194.88886Q221.7175,194.97055,221.7638,195.057207Q221.8102,195.143859,221.8478,195.234633Q221.8854,195.325408,221.9139,195.419431Q221.9424,195.513454,221.9616,195.609819Q221.9807,195.706185,221.9904,195.803966Q222,195.9017463,222,196ZM198,220Q198,220.0983,197.99037,220.196Q197.98074,220.2938,197.96157,220.3902Q197.9424,220.4865,197.91388,220.5806Q197.88536,220.6746,197.84776,220.7654Q197.81016,220.8561,197.76384,220.9428Q197.71753,221.0294,197.66294,221.1111Q197.60835,221.1928,197.54602,221.2688Q197.48369,221.3447,197.41421,221.4142Q197.34474,221.4837,197.26879,221.546Q197.19284,221.60829999999999,197.11114,221.6629Q197.02945,221.7175,196.942793,221.7638Q196.856141,221.8102,196.765367,221.8478Q196.674592,221.8854,196.580569,221.9139Q196.486546,221.9424,196.390181,221.9616Q196.293815,221.9807,196.196034,221.9904Q196.0982537,222,196,222Q195.9017463,222,195.803966,221.9904Q195.706185,221.9807,195.609819,221.9616Q195.513454,221.9424,195.419431,221.9139Q195.325408,221.8854,195.234633,221.8478Q195.143859,221.8102,195.057207,221.7638Q194.97055,221.7175,194.88886,221.6629Q194.80716,221.60829999999999,194.73121,221.546Q194.65526,221.4837,194.58579,221.4142Q194.51631,221.3447,194.45398,221.2688Q194.39165,221.1928,194.33706,221.1111Q194.28247,221.0294,194.23616,220.9428Q194.18984,220.8561,194.15224,220.7654Q194.11464,220.6746,194.08612,220.5806Q194.0576,220.4865,194.03843,220.3902Q194.01926,220.2938,194.00963,220.196Q194,220.0983,194,220Q194,219.9017,194.00963,219.804Q194.01926,219.7062,194.03843,219.6098Q194.0576,219.5135,194.08612,219.4194Q194.11464,219.3254,194.15224,219.2346Q194.18984,219.1439,194.23616,219.0572Q194.28247,218.9706,194.33706,218.8889Q194.39165,218.8072,194.45398,218.7312Q194.51631,218.6553,194.58579,218.5858Q194.65526,218.5163,194.73121,218.454Q194.80716,218.3916,194.88886,218.3371Q194.97055,218.2825,195.057207,218.2362Q195.143859,218.1898,195.234633,218.1522Q195.325408,218.1146,195.419431,218.0861Q195.513454,218.0576,195.609819,218.0384Q195.706185,218.0193,195.803966,218.0096Q195.9017463,218,196,218Q196.0982537,218,196.196034,218.0096Q196.293815,218.0193,196.390181,218.0384Q196.486546,218.0576,196.580569,218.0861Q196.674592,218.1146,196.765367,218.1522Q196.856141,218.1898,196.942793,218.2362Q197.02945,218.2825,197.11114,218.3371Q197.19284,218.3916,197.26879,218.454Q197.34474,218.5163,197.41421,218.5858Q197.48369,218.6553,197.54602,218.7312Q197.60835,218.8072,197.66294,218.8889Q197.71753,218.9706,197.76384,219.0572Q197.81016,219.1439,197.84776,219.2346Q197.88536,219.3254,197.91388,219.4194Q197.9424,219.5135,197.96157,219.6098Q197.98074,219.7062,197.99037,219.804Q198,219.9017,198,220Z" fill="url(#master_svg2_66_7803)" fill-opacity="1"/></g><g transform="matrix(1,0,0,-1,0,392)"><path d="M26,198L6,198Q5.17157,198,4.585789999999999,198.58579Q4,199.17157,4,200L4,220L0,220L0,200Q0,197.51472,1.7573590000000001,195.757359Q3.51472,194,6,194L26,194L26,198ZM28,196Q28,196.0982537,27.9904,196.196034Q27.9807,196.293815,27.9616,196.390181Q27.9424,196.486546,27.9139,196.580569Q27.8854,196.674592,27.8478,196.765367Q27.8102,196.856141,27.7638,196.942793Q27.7175,197.02945,27.6629,197.11114Q27.6083,197.19284,27.546,197.26879Q27.4837,197.34474,27.4142,197.41421Q27.3447,197.48369,27.2688,197.54602Q27.1928,197.60835,27.1111,197.66294Q27.0294,197.71753,26.9428,197.76384Q26.8561,197.81016,26.7654,197.84776Q26.6746,197.88536,26.5806,197.91388Q26.4865,197.9424,26.3902,197.96157Q26.2938,197.98074,26.196,197.99037Q26.0983,198,26,198Q25.9017,198,25.804,197.99037Q25.7062,197.98074,25.6098,197.96157Q25.5135,197.9424,25.4194,197.91388Q25.3254,197.88536,25.2346,197.84776Q25.1439,197.81016,25.0572,197.76384Q24.9706,197.71753,24.8889,197.66294Q24.8072,197.60835,24.7312,197.54602Q24.6553,197.48369,24.5858,197.41421Q24.5163,197.34474,24.454,197.26879Q24.3916,197.19284,24.3371,197.11114Q24.2825,197.02945,24.2362,196.942793Q24.1898,196.856141,24.1522,196.765367Q24.1146,196.674592,24.0861,196.580569Q24.0576,196.486546,24.0384,196.390181Q24.0193,196.293815,24.0096,196.196034Q24,196.0982537,24,196Q24,195.9017463,24.0096,195.803966Q24.0193,195.706185,24.0384,195.609819Q24.0576,195.513454,24.0861,195.419431Q24.1146,195.325408,24.1522,195.234633Q24.1898,195.143859,24.2362,195.057207Q24.2825,194.97055,24.3371,194.88886Q24.3916,194.80716,24.454,194.73121Q24.5163,194.65526,24.5858,194.58579Q24.6553,194.51631,24.7312,194.45398Q24.8072,194.39165,24.8889,194.33706Q24.9706,194.28247,25.0572,194.23616Q25.1439,194.18984,25.2346,194.15224Q25.3254,194.11464,25.4194,194.08612Q25.5135,194.0576,25.6098,194.03843Q25.7062,194.01926,25.804,194.00963Q25.9017,194,26,194Q26.0983,194,26.196,194.00963Q26.2938,194.01926,26.3902,194.03843Q26.4865,194.0576,26.5806,194.08612Q26.6746,194.11464,26.7654,194.15224Q26.8561,194.18984,26.9428,194.23616Q27.0294,194.28247,27.1111,194.33706Q27.1928,194.39165,27.2688,194.45398Q27.3447,194.51631,27.4142,194.58579Q27.4837,194.65526,27.546,194.73121Q27.6083,194.80716,27.6629,194.88886Q27.7175,194.97055,27.7638,195.057207Q27.8102,195.143859,27.8478,195.234633Q27.8854,195.325408,27.9139,195.419431Q27.9424,195.513454,27.9616,195.609819Q27.9807,195.706185,27.9904,195.803966Q28,195.9017463,28,196ZM4,220Q4,220.0983,3.99037,220.196Q3.98074,220.2938,3.96157,220.3902Q3.9424,220.4865,3.91388,220.5806Q3.88536,220.6746,3.84776,220.7654Q3.8101599999999998,220.8561,3.76384,220.9428Q3.71753,221.0294,3.66294,221.1111Q3.6083499999999997,221.1928,3.54602,221.2688Q3.48369,221.3447,3.4142099999999997,221.4142Q3.34474,221.4837,3.26879,221.546Q3.19284,221.60829999999999,3.11114,221.6629Q3.0294499999999998,221.7175,2.942793,221.7638Q2.856141,221.8102,2.765367,221.8478Q2.674592,221.8854,2.580569,221.9139Q2.486546,221.9424,2.390181,221.9616Q2.293815,221.9807,2.196034,221.9904Q2.0982537,222,2,222Q1.9017463000000001,222,1.803966,221.9904Q1.706185,221.9807,1.6098189999999999,221.9616Q1.513454,221.9424,1.4194309999999999,221.9139Q1.325408,221.8854,1.234633,221.8478Q1.143859,221.8102,1.057207,221.7638Q0.97055,221.7175,0.88886,221.6629Q0.8071600000000001,221.60829999999999,0.7312099999999999,221.546Q0.65526,221.4837,0.58579,221.4142Q0.51631,221.3447,0.45398000000000005,221.2688Q0.39165000000000005,221.1928,0.3370599999999999,221.1111Q0.28247,221.0294,0.23615999999999993,220.9428Q0.18984,220.8561,0.15223999999999993,220.7654Q0.11464000000000008,220.6746,0.08611999999999997,220.5806Q0.057600000000000096,220.4865,0.038429999999999964,220.3902Q0.019260000000000055,220.2938,0.009630000000000027,220.196Q0,220.0983,0,220Q0,219.9017,0.009630000000000027,219.804Q0.019260000000000055,219.7062,0.038429999999999964,219.6098Q0.057600000000000096,219.5135,0.08611999999999997,219.4194Q0.11464000000000008,219.3254,0.15223999999999993,219.2346Q0.18984,219.1439,0.23615999999999993,219.0572Q0.28247,218.9706,0.3370599999999999,218.8889Q0.39165000000000005,218.8072,0.45398000000000005,218.7312Q0.51631,218.6553,0.58579,218.5858Q0.65526,218.5163,0.7312099999999999,218.454Q0.8071600000000001,218.3916,0.88886,218.3371Q0.97055,218.2825,1.057207,218.2362Q1.143859,218.1898,1.234633,218.1522Q1.325408,218.1146,1.4194309999999999,218.0861Q1.513454,218.0576,1.6098189999999999,218.0384Q1.706185,218.0193,1.803966,218.0096Q1.9017463000000001,218,2,218Q2.0982537,218,2.196034,218.0096Q2.293815,218.0193,2.390181,218.0384Q2.486546,218.0576,2.580569,218.0861Q2.674592,218.1146,2.765367,218.1522Q2.856141,218.1898,2.942793,218.2362Q3.0294499999999998,218.2825,3.11114,218.3371Q3.19284,218.3916,3.26879,218.454Q3.34474,218.5163,3.4142099999999997,218.5858Q3.48369,218.6553,3.54602,218.7312Q3.6083499999999997,218.8072,3.66294,218.8889Q3.71753,218.9706,3.76384,219.0572Q3.8101599999999998,219.1439,3.84776,219.2346Q3.88536,219.3254,3.91388,219.4194Q3.9424,219.5135,3.96157,219.6098Q3.98074,219.7062,3.99037,219.804Q4,219.9017,4,220Z" fill="url(#master_svg3_66_7803)" fill-opacity="1"/></g></g></svg>