<svg xmlns="http://www.w3.org/2000/svg" xmlns:xlink="http://www.w3.org/1999/xlink" fill="none" version="1.1" width="30" height="30" viewBox="0 0 30 30"><g style="mix-blend-mode:passthrough"><g style="mix-blend-mode:passthrough"><ellipse cx="15" cy="15" rx="15" ry="15" fill="#06CCAB" fill-opacity="1"/></g><g transform="matrix(0.9999998807907104,0,0,0.9999998807907104,7.94728578057402e-7,9.934107083608978e-7)"><path d="M20.249066507720947,8.383248615441895L7.4396895077209475,12.323173015441895C6.548343507720947,12.597393015441895,6.386232507720948,13.789033015441895,7.172048507720947,14.291423015441895L10.956646507720947,16.710743015441892C11.360616507720948,16.968923015441895,11.885576507720948,16.934153015441893,12.251956507720948,16.624953015441896L16.97556650772095,12.638973015441895C17.23156650772095,12.422913015441894,17.577166507720946,12.768193015441895,17.36106650772095,13.024523015441893L13.375416507720947,17.748953015441895C13.066266507720947,18.115283015441896,13.031596507720948,18.640233015441893,13.289886507720947,19.044033015441894L15.708656507720947,22.828133015441892C16.210776507720947,23.613733015441895,17.402666507720948,23.451633015441892,17.676866507720945,22.560533015441894L21.616766507720946,9.751203015441895C21.87496650772095,8.911431015441895,21.088566507720948,8.125079015441894,20.249066507720947,8.383248615441895Z" fill="#363940" fill-opacity="1"/></g></g></svg>