<svg xmlns="http://www.w3.org/2000/svg" xmlns:xlink="http://www.w3.org/1999/xlink" fill="none" version="1.1" width="33" height="32" viewBox="0 0 33 32"><g><rect x="0" y="0" width="33" height="32" rx="16" fill="#11BAAC" fill-opacity="1"/><g><g><g><g><path d="M13.078946590423584,13.078952693943585L11.684216590423585,13.078952693943585L11.684216590423585,13.078946590423584C11.073789590423583,13.078946590423584,10.578946590423584,13.573789590423583,10.578946590423584,14.184206590423583L10.578946590423584,20.815796590423584C10.578946590423584,21.426216590423586,11.073789590423583,21.921056590423582,11.684216590423585,21.921056590423582L18.315786590423585,21.921056590423582C18.926206590423583,21.921056590423582,19.421056590423582,21.426216590423586,19.421056590423582,20.815796590423584L19.421056590423582,19.421056590423582L14.184216590423585,19.421056590423582C13.573786590423584,19.421056590423582,13.078946590423584,18.926216590423586,13.078946590423584,18.315796590423584L13.078946590423584,13.078952693943585Z" fill-rule="evenodd" fill="#FCFDFF" fill-opacity="1"/></g><g><path d="M14.684216590423585,10.078952693943585C14.684216590423585,10.078952693943585,21.315786590423585,10.078952693943585,21.315786590423585,10.078952693943585C21.926206590423583,10.078952693943585,22.421056590423582,10.573795590423584,22.421056590423582,11.184216590423585C22.421056590423582,11.184216590423585,22.421056590423582,17.815796590423584,22.421056590423582,17.815796590423584C22.421056590423582,18.426216590423586,21.926206590423583,18.921056590423582,21.315786590423585,18.921056590423582C21.315786590423585,18.921056590423582,14.684216590423585,18.921056590423582,14.684216590423585,18.921056590423582C14.073789590423583,18.921056590423582,13.578946590423584,18.426216590423586,13.578946590423584,17.815796590423584C13.578946590423584,17.815796590423584,13.578946590423584,11.184206590423583,13.578946590423584,11.184206590423583C13.578946590423584,10.573789590423583,14.073789590423583,10.078946590423584,14.684216590423585,10.078946590423584C14.684216590423585,10.078946590423584,14.684216590423585,10.078952693943585,14.684216590423585,10.078952693943585Z" fill="#FCFDFF" fill-opacity="1"/></g></g></g></g></g></svg>