<svg xmlns="http://www.w3.org/2000/svg" xmlns:xlink="http://www.w3.org/1999/xlink" fill="none" version="1.1" width="32" height="32" viewBox="0 0 32 32"><defs><clipPath id="master_svg0_1593_00039"><rect x="8" y="8" width="16" height="16" rx="0"/></clipPath></defs><g><rect x="0" y="0" width="32" height="32" rx="16" fill="#FCFDFF" fill-opacity="1"/><g clip-path="url(#master_svg0_1593_00039)"><g><path d="M18.8670890625,18.533251953125C18.0004590625,18.999921953125,17.067119062499998,19.333251953125,16.0004590625,19.333251953125C13.2671190625,19.333251953125,10.8671190625,16.933251953125,10.0671190625,15.999921953125C10.6004590625,15.399921953125,11.9337890625,13.999921953125,13.6671190625,13.266581953125L12.6004590625,12.266584953125C10.8671190625,13.199921953125,9.6004560625,14.533251953125,8.9337890625,15.266581953125C8.5337890625,15.733251953125,8.5337890625,16.333251953125,8.9337890625,16.799921953125C10.0004590625,17.933251953125,12.6671190625,20.666581953125,16.0004590625,20.666581953125C17.4671190625,20.666581953125,18.7337890625,20.133251953125,19.8670890625,19.466581953125L18.8670890625,18.533251953125ZM23.0670890625,15.199921953125C22.0004890625,14.066581953125,19.3337890625,11.333251953125,16.0004590625,11.333251953125C15.400459062500001,11.333251953125,14.8004590625,11.399918553125,14.2671190625,11.599918953125L15.400459062500001,12.733251953125C15.6004590625,12.666581953125,15.8004590625,12.666581953125,16.0004590625,12.666581953125C18.7337890625,12.666581953125,21.1337890625,15.066581953125,21.9337890625,15.999921953125C21.6004890625,16.399921953125002,21.0004890625,16.999921953125,20.2670890625,17.599921953125L21.2004890625,18.533251953125C22.0004890625,17.866581953125,22.6670890625,17.199921953125,23.0004890625,16.733251953125C23.4004890625,16.333251953125,23.4004890625,15.666581953125,23.0670890625,15.199921953125Z" fill="#363940" fill-opacity="1"/></g><g><path d="M16.6,16.19990234375C16.53333,16.46657234375,16.26667,16.66657234375,16,16.66657234375C15.6,16.66657234375,15.33333,16.39990234375,15.33333,15.99990234375C15.33333,15.73323234375,15.53333,15.46657234375,15.8,15.39990234375L14.8,14.39990234375C14.333333,14.79990234375,14,15.33323534375,14,15.99990234375C14,17.13323234375,14.866667,17.99990234375,16,17.99990234375C16.66667,17.99990234375,17.2,17.66657234375,17.6,17.19990234375L16.6,16.19990234375Z" fill="#363940" fill-opacity="1"/></g><g><path d="M19.799736250000002,20.733320390625L11.26640625,12.199980390625C10.99973965,11.933317390625,10.99973965,11.533317390625,11.26640625,11.266650390625C11.53307325,10.999983790625,11.93307325,10.999983790625,12.19973625,11.266650390625L20.66640625,19.733320390625C20.93307625,19.999980390624998,20.93307625,20.399980390625,20.66640625,20.666650390625C20.46640625,20.999980390624998,19.999736249999998,20.999980390624998,19.799736250000002,20.733320390625Z" fill="#363940" fill-opacity="1"/></g></g></g></svg>