<svg xmlns="http://www.w3.org/2000/svg" xmlns:xlink="http://www.w3.org/1999/xlink" fill="none" version="1.1" width="5.4999918937683105" height="10.000000953674316" viewBox="0 0 5.4999918937683105 10.000000953674316"><g><path d="M0.640617,9.99999C0.458381,9.99999,0.336906,9.93731,0.215416,9.81196C-0.0275502,9.56124,0.0331798,9.18518,0.276161,8.93447C0.276161,8.93447,4.16366,5.29916,4.16366,5.29916C4.28515,5.17381,4.34588,5.04846,4.34588,4.9231C4.34588,4.79775,4.28515,4.67239,4.16366,4.54704C4.16366,4.54704,0.215416,1.09976,0.215416,1.09976C-0.0275502,0.849053,-0.0882954,0.472993,0.15467,0.222283C0.397651,-0.0284337,0.762107,-0.0911092,1.00507,0.159608C1.00507,0.159608,4.89254,3.60687,4.89254,3.60687C5.25704,3.92026,5.49999,4.42169,5.49999,4.9231C5.49999,5.42453,5.31774,5.86327,4.9533,6.23934C4.9533,6.23934,1.0658,9.87464,1.0658,9.87464C0.944328,9.93732,0.762107,10,0.640617,10C0.640617,10,0.640617,9.99999,0.640617,9.99999Z" fill="#738993" fill-opacity="1"/></g></svg>