<svg xmlns="http://www.w3.org/2000/svg" xmlns:xlink="http://www.w3.org/1999/xlink" fill="none" version="1.1" width="16" height="16" viewBox="0 0 16 16"><g><g><g><path d="M6.184094520111084,2.0800026893659473L12.815664520111085,2.0800026893659473C13.426084520111084,2.0800026893659473,13.920934520111084,2.574845585845947,13.920934520111084,3.1852665858459472L13.920934520111084,9.816846585845948C13.920934520111084,10.427266585845947,13.426084520111084,10.922106585845947,12.815664520111085,10.922106585845947L6.184094520111084,10.922106585845947C5.573667520111084,10.922106585845947,5.078824520111084,10.427266585845947,5.078824520111084,9.816846585845948L5.078824520111084,3.185256585845947C5.078824520111084,2.574839585845947,5.573667520111084,2.0799965858459473,6.184094520111084,2.0799965858459473L6.184094520111084,2.0800026893659473ZM6.198824520111084,9.802106585845948L6.198824520111084,3.200006585845947L12.800934520111085,3.200006585845947L12.800934520111085,9.802106585845948L6.198824520111084,9.802106585845948Z" fill-rule="evenodd" fill="#2A3331" fill-opacity="1"/></g><g><path d="M4.126248660736084,6.132502841949463L3.2312986607360843,6.132502841949463Q3.191568660736084,6.132502841949463,3.191568660736084,6.172232841949463L3.191568660736084,12.767772841949462Q3.191568660736084,12.807502841949463,3.2312986607360843,12.807502841949463L9.827648660736084,12.807502841949463Q9.867378660736083,12.807502841949463,9.867378660736083,12.767772841949462L9.867378660736083,11.866662841949463C9.867378660736083,11.559452841949463,10.116428660736084,11.310412841949463,10.423638660736083,11.310412841949463C10.730838660736085,11.310412841949463,10.979888660736083,11.559452841949463,10.979888660736083,11.866662841949463L10.979888660736083,12.767772841949462Q10.979888660736083,13.245042841949463,10.642398660736085,13.582522841949462Q10.304918660736083,13.920002841949463,9.827648660736084,13.920002841949463L3.2312986607360843,13.920002841949463Q2.754031660736084,13.920002841949463,2.416549660736084,13.582522841949462Q2.079068660736084,13.245042841949463,2.079068660736084,12.767772841949462L2.079068660736084,6.172232841949463Q2.079068719941584,5.694964841949463,2.416549660736084,5.357483841949463Q2.754030660736084,5.020002841949463,3.2312986607360843,5.020002841949463L4.126248660736084,5.020002841949463C4.433448660736084,5.020002841949463,4.6824986607360835,5.269044841949463,4.6824986607360835,5.576252841949463C4.6824986607360835,5.8834608419494625,4.433448660736084,6.132502841949463,4.126248660736084,6.132502841949463Z" fill-rule="evenodd" fill="#2A3331" fill-opacity="1"/></g></g></g></svg>