<svg xmlns="http://www.w3.org/2000/svg" xmlns:xlink="http://www.w3.org/1999/xlink" fill="none" version="1.1" width="12" height="12" viewBox="0 0 12 12"><g><g><g><path d="M2.5332,3.0400056699158693L1.12,3.0400056699158693L1.12,3.039999485015869C0.501441,3.039999485015869,0,3.541440485015869,0,4.159999485015869L0,10.879999485015869C0,11.498569485015869,0.501441,12.00000948501587,1.12,12.00000948501587L7.84,12.00000948501587C8.45856,12.00000948501587,8.96,11.498569485015869,8.96,10.879999485015869L8.96,9.46679948501587L3.65321,9.46679948501587C3.03464,9.46679948501587,2.5332,8.96535948501587,2.5332,8.346799485015868L2.5332,3.0400056699158693Z" fill-rule="evenodd" fill="#A9B5BA" fill-opacity="1"/></g><g><path d="M4.159999485015869,-1.3983056640625144e-8C4.159999485015869,-1.3983056640625144e-8,10.879999485015869,-1.3983056640625144e-8,10.879999485015869,-1.3983056640625144e-8C11.49855948501587,-1.3983056640625144e-8,11.99999948501587,0.5014408011169433,11.99999948501587,1.1200038011169433C11.99999948501587,1.1200038011169433,11.99999948501587,7.839993801116943,11.99999948501587,7.839993801116943C11.99999948501587,8.458563801116943,11.49855948501587,8.960003801116944,10.879999485015869,8.960003801116944C10.879999485015869,8.960003801116944,4.159999485015869,8.960003801116944,4.159999485015869,8.960003801116944C3.541440485015869,8.960003801116944,3.039999485015869,8.458563801116943,3.039999485015869,7.839993801116943C3.039999485015869,7.839993801116943,3.039999485015869,1.1199938011169435,3.039999485015869,1.1199938011169435C3.039999485015869,0.5014348011169434,3.541440485015869,-0.000006198883056640625,4.159999485015869,-0.000006198883056640625C4.159999485015869,-0.000006198883056640625,4.159999485015869,-1.3983056640625144e-8,4.159999485015869,-1.3983056640625144e-8Z" fill="#A9B5BA" fill-opacity="1"/></g></g></g></svg>