<svg xmlns="http://www.w3.org/2000/svg" xmlns:xlink="http://www.w3.org/1999/xlink" fill="none" version="1.1" width="15.400000005960464" height="15.399992376565933" viewBox="0 0 15.400000005960464 15.399992376565933"><g><path d="M5.528960002980233,0.20000763237023225C5.528960002980233,0.20000763237023225,13.818400002980232,0.20000763237023225,13.818400002980232,0.20000763237023225C14.581400002980232,0.20000763237023225,15.200000002980232,0.8185610029802323,15.200000002980232,1.5815900029802323C15.200000002980232,1.5815900029802323,15.200000002980232,9.871050002980231,15.200000002980232,9.871050002980231C15.200000002980232,10.634100002980233,14.581400002980232,11.252600002980232,13.818400002980232,11.252600002980232C13.818400002980232,11.252600002980232,5.528960002980233,11.252600002980232,5.528960002980233,11.252600002980232C4.765930002980232,11.252600002980232,4.147370002980232,10.634100002980233,4.147370002980232,9.871050002980231C4.147370002980232,9.871050002980231,4.147370002980232,1.5815800029802323,4.147370002980232,1.5815800029802323C4.147370002980232,0.8185530029802323,4.765930002980232,0.20000000298023224,5.528960002980233,0.20000000298023224C5.528960002980233,0.20000000298023224,5.528960002980233,0.20000763237023225,5.528960002980233,0.20000763237023225ZM5.528960002980233,1.3842200029802323C5.419950002980232,1.3842200029802323,5.331580002980232,1.4725800029802323,5.331580002980232,1.5815900029802323C5.331580002980232,1.5815900029802323,5.331580002980232,9.871050002980231,5.331580002980232,9.871050002980231C5.331580002980232,9.980060002980233,5.419950002980232,10.068420002980233,5.528960002980233,10.068420002980233C5.528960002980233,10.068420002980233,13.818400002980232,10.068420002980233,13.818400002980232,10.068420002980233C13.927400002980232,10.068420002980233,14.015800002980232,9.980060002980233,14.015800002980232,9.871050002980231C14.015800002980232,9.871050002980231,14.015800002980232,1.5815800029802323,14.015800002980232,1.5815800029802323C14.015800002980232,1.4725700029802322,13.927400002980232,1.3842100029802322,13.818400002980232,1.3842100029802322C13.818400002980232,1.3842100029802322,5.528960002980233,1.3842100029802322,5.528960002980233,1.3842100029802322C5.528960002980233,1.3842100029802322,5.528960002980233,1.3842200029802323,5.528960002980233,1.3842200029802323ZM10.068420002980233,12.436800002980233C10.068420002980233,12.109800002980233,10.333500002980232,11.844700002980233,10.660500002980232,11.844700002980233C10.987500002980232,11.844700002980233,11.252600002980232,12.109800002980233,11.252600002980232,12.436800002980233C11.252600002980232,12.436800002980233,11.252600002980232,13.818400002980232,11.252600002980232,13.818400002980232C11.252600002980232,14.581400002980232,10.634100002980233,15.200000002980232,9.871050002980231,15.200000002980232C9.871050002980231,15.200000002980232,1.5815800029802323,15.200000002980232,1.5815800029802323,15.200000002980232C0.8185530029802323,15.200000002980232,0.20000000298023224,14.581400002980232,0.20000000298023224,13.818400002980232C0.20000000298023224,13.818400002980232,0.20000000298023224,5.528960002980233,0.20000000298023224,5.528960002980233C0.20000000298023224,4.765930002980232,0.8185530029802323,4.147370002980232,1.5815800029802323,4.147370002980232C1.5815800029802323,4.147370002980232,2.9631500029802322,4.147370002980232,2.9631500029802322,4.147370002980232C3.2901600029802323,4.147370002980232,3.555260002980232,4.412470002980232,3.555260002980232,4.739470002980232C3.555260002980232,5.066490002980232,3.2901600029802323,5.331580002980232,2.9631500029802322,5.331580002980232C2.9631500029802322,5.331580002980232,1.5815800029802323,5.331580002980232,1.5815800029802323,5.331580002980232C1.4725700029802322,5.331580002980232,1.3842100029802322,5.419950002980232,1.3842100029802322,5.528960002980233C1.3842100029802322,5.528960002980233,1.3842100029802322,13.818400002980232,1.3842100029802322,13.818400002980232C1.3842100029802322,13.927400002980232,1.4725700029802322,14.015800002980232,1.5815800029802323,14.015800002980232C1.5815800029802323,14.015800002980232,9.871040002980232,14.015800002980232,9.871040002980232,14.015800002980232C9.980040002980232,14.015800002980232,10.068420002980233,13.927400002980232,10.068420002980233,13.818400002980232C10.068420002980233,13.818400002980232,10.068420002980233,12.436800002980233,10.068420002980233,12.436800002980233C10.068420002980233,12.436800002980233,10.068420002980233,12.436800002980233,10.068420002980233,12.436800002980233Z" fill="#06CCAB" fill-opacity="1"/><path d="M5.528960002980233,1.184212002980232L13.818400002980232,1.184212002980232Q13.983000002980232,1.184212002980232,14.099400002980232,1.3005900029802322Q14.215800002980233,1.4169700029802323,14.215800002980233,1.5815800029802323L14.215800002980233,9.871050002980231Q14.215800002980233,10.268400002980233,13.818400002980232,10.268400002980233L5.528960002980233,10.268400002980233Q5.3643600029802325,10.268400002980233,5.2479700029802325,10.152040002980232Q5.1315800029802325,10.035650002980232,5.1315800029802325,9.871050002980231L5.1315800029802325,1.5815900029802323Q5.1315800029802325,1.4169900029802323,5.2479700029802325,1.3006100029802323Q5.3643600029802325,1.1842190029802322,5.528960002980233,1.1842190029802322L5.528960002980233,1.5842200029802322Q5.531580002980232,1.5842200029802322,5.531580002980232,1.5815900029802323L5.531580002980232,9.871050002980231Q5.531580002980232,9.868420002980232,5.528960002980233,9.868420002980232L13.818400002980232,9.868420002980232Q13.817300002980232,9.868420002980232,13.816600002980232,9.869190002980233Q13.815800002980232,9.869960002980232,13.815800002980232,9.871050002980231L13.815800002980232,1.5815800029802323Q13.815800002980232,1.5842100029802322,13.818400002980232,1.5842100029802322L5.528960002980233,1.5842100029802322L5.528960002980233,1.184212002980232ZM5.528960002980233,0.40000000298023225Q5.039530002980232,0.40000000298023225,4.693450002980232,0.7460760029802322Q4.347370002980232,1.0921510029802324,4.347370002980232,1.5815800029802323L4.347370002980232,9.871050002980231Q4.347370002980232,10.360500002980233,4.693450002980232,10.706600002980233Q5.039530002980232,11.052600002980233,5.528960002980233,11.052600002980233L13.818400002980232,11.052600002980233Q14.307800002980231,11.052600002980233,14.653900002980233,10.706600002980233Q15.000000002980233,10.360500002980233,15.000000002980233,9.871050002980231L15.000000002980233,1.5815900029802323Q15.000000002980233,1.0921620029802321,14.653900002980233,0.7460840029802323Q14.307800002980231,0.4000080029802322,13.818400002980232,0.4000080029802322L5.528960002980233,0.4000080029802322L5.528960002980233,0.000008002980232235668L13.818400002980232,0.000008002980232235668Q14.473500002980233,0.000008002980232235668,14.936800002980233,0.4632420029802322Q15.400000002980232,0.9264760029802322,15.400000002980232,1.5815900029802323L15.400000002980232,9.871050002980231Q15.400000002980232,10.526200002980232,14.936800002980233,10.989400002980233Q14.473500002980233,11.452600002980232,13.818400002980232,11.452600002980232L5.528960002980233,11.452600002980232Q4.8738400029802325,11.452600002980232,4.410610002980232,10.989400002980233Q3.9473700029802323,10.526200002980232,3.9473700029802323,9.871050002980231L3.9473700029802323,1.5815800029802323Q3.9473700029802323,0.9264650029802323,4.410610002980232,0.46323300298023223Q4.8738400029802325,2.980232227667301e-9,5.528960002980233,2.980232227667301e-9L5.528960002980233,0.40000000298023225ZM9.868420002980232,13.818400002980232L9.868420002980232,12.436800002980233Q9.868420002980232,12.108700002980232,10.100420002980233,11.876700002980233Q10.332400002980233,11.644700002980231,10.660500002980232,11.644700002980231Q10.988600002980233,11.644700002980231,11.220600002980232,11.876700002980233Q11.452600002980232,12.108700002980232,11.452600002980232,12.436800002980233L11.452600002980232,13.818400002980232Q11.452600002980232,14.473500002980233,10.989400002980233,14.936800002980233Q10.526200002980232,15.400000002980232,9.871050002980231,15.400000002980232L1.5815800029802323,15.400000002980232Q0.9264660029802322,15.400000002980232,0.46323300298023223,14.936800002980233Q2.980232227667301e-9,14.473500002980233,2.980232227667301e-9,13.818400002980232L2.980232227667301e-9,5.528960002980233Q2.980232227667301e-9,4.8738400029802325,0.46323300298023223,4.410610002980232Q0.9264650029802323,3.9473700029802323,1.5815800029802323,3.9473700029802323L2.9631500029802322,3.9473700029802323Q3.2912500029802323,3.9473700029802323,3.523260002980232,4.179380002980232Q3.7552600029802323,4.411380002980232,3.7552600029802323,4.739470002980232Q3.7552600029802323,5.0675800029802325,3.523260002980232,5.299580002980232Q3.2912600029802324,5.531580002980232,2.9631500029802322,5.531580002980232L1.5815800029802323,5.531580002980232Q1.5842100029802322,5.531580002980232,1.5842100029802322,5.528960002980233L1.5842100029802322,13.818400002980232Q1.5842100029802322,13.815800002980232,1.5815800029802323,13.815800002980232L9.871040002980232,13.815800002980232Q9.869950002980232,13.815800002980232,9.869190002980233,13.816600002980232Q9.868420002980232,13.817300002980232,9.868420002980232,13.818400002980232ZM10.268400002980233,13.818400002980232Q10.268400002980233,14.215800002980233,9.871040002980232,14.215800002980233L1.5815800029802323,14.215800002980233Q1.4169700029802323,14.215800002980233,1.3005900029802322,14.099400002980232Q1.184212002980232,13.983000002980232,1.184212002980232,13.818400002980232L1.184212002980232,5.528960002980233Q1.184212002980232,5.3643600029802325,1.3005900029802322,5.2479700029802325Q1.4169700029802323,5.1315800029802325,1.5815800029802323,5.1315800029802325L2.9631500029802322,5.1315800029802325Q3.3552600029802324,5.1315800029802325,3.3552600029802324,4.739470002980232Q3.3552600029802324,4.577060002980232,3.2404200029802324,4.462220002980232Q3.1255700029802322,4.347370002980232,2.9631500029802322,4.347370002980232L1.5815800029802323,4.347370002980232Q1.0921510029802324,4.347370002980232,0.7460760029802322,4.693450002980232Q0.40000000298023225,5.039530002980232,0.40000000298023225,5.528960002980233L0.40000000298023225,13.818400002980232Q0.40000000298023225,14.307800002980231,0.7460760029802322,14.653900002980233Q1.0921530029802322,15.000000002980233,1.5815800029802323,15.000000002980233L9.871050002980231,15.000000002980233Q10.360500002980233,15.000000002980233,10.706600002980233,14.653900002980233Q11.052600002980233,14.307800002980231,11.052600002980233,13.818400002980232L11.052600002980233,12.436800002980233Q11.052600002980233,12.044700002980232,10.660500002980232,12.044700002980232Q10.498100002980232,12.044700002980232,10.383300002980231,12.159600002980232Q10.268400002980233,12.274400002980233,10.268400002980233,12.436800002980233L10.268400002980233,13.818400002980232Z" fill="#06CCAB" fill-opacity="1"/></g></svg>