<svg xmlns="http://www.w3.org/2000/svg" xmlns:xlink="http://www.w3.org/1999/xlink" fill="none" version="1.1" width="24" height="24" viewBox="0 0 24 24"><g><g><g><path d="M19.83868984375,14.45259946899414C19.49858984375,15.541499468994141,18.94268984375,16.53229946899414,18.21668984375,17.37599946899414C17.30108984375,16.77429946899414,16.27098984375,16.30669946899414,15.16568984375,15.98949946899414C15.34888984375,14.943099468994141,15.46328984375,13.798499468994141,15.48948984375,12.58859946899414L21.37888984375,12.58859946899414C21.39198984375,12.39240946899414,21.39848984375,12.196209468994141,21.39848984375,11.99999946899414C21.39848984375,11.80052946899414,21.38868984375,11.601049468994141,21.37888984375,11.40484946899414L20.18858984375,11.40484946899414L20.18858984375,11.411389468994141L15.48948984375,11.411389468994141C15.46328984375,10.19818946899414,15.34888984375,9.05366946899414,15.16568984375,8.01050946899414C16.27098984375,7.693309468994141,17.30108984375,7.22568946899414,18.21668984375,6.623999468994141C18.94268984375,7.467679468994141,19.49858984375,8.45523946899414,19.83538984375,9.54090946899414L21.07478984375,9.54090946899414C19.99238984375,5.51871946899414,16.32328984375,2.5592994689941406,11.96105984375,2.5592994689941406C7.59877984375,2.5592994689941406,3.9297598437500003,5.51871946899414,2.84736684375,9.54090946899414L4.08671984375,9.54090946899414C4.4235398437499995,8.45523946899414,4.97945984375,7.467679468994141,5.70213984375,6.623999468994141C6.61775984375,7.22568946899414,7.64782984375,7.690039468994141,8.75638984375,8.00723946899414C8.573269843750001,9.05366946899414,8.45880984375,10.19818946899414,8.43264984375,11.411389468994141L3.72701984375,11.411389468994141L3.72701984375,11.40484946899414L2.53671024375,11.40484946899414C2.52362999375,11.601049468994141,2.51708984375,11.80052946899414,2.51708984375,11.99999946899414C2.51708984375,12.199479468994141,2.52362999375,12.39567946899414,2.53671024375,12.58859946899414L8.429379843749999,12.58859946899414C8.45553984375,13.80179946899414,8.56999984375,14.946299468994141,8.75311984375,15.992799468994141C7.64455984375,16.309999468994143,6.61448984375,16.77429946899414,5.69886984375,17.37599946899414C4.97290984375,16.53229946899414,4.41699984375,15.541499468994141,4.08018984375,14.45259946899414L2.84082684375,14.45259946899414C3.91994984375,18.47469946899414,7.59223984375,21.44069946899414,11.95778984375,21.44069946899414C16.32328984375,21.44069946899414,19.99238984375,18.477999468994142,21.07478984375,14.45259946899414L19.83868984375,14.45259946899414ZM17.36648984375,5.76723946899414C16.624189843750003,6.225049468994141,15.80008984375,6.591299468994141,14.92378984375,6.84963946899414C14.63598984375,5.67567946899414,14.25338984375,4.688119468994141,13.80538984375,3.955619468994141C15.14608984375,4.259739468994141,16.36258984375,4.894129468994141,17.36648984375,5.76723946899414ZM9.60987984375,11.40811946899414C9.63603984375,10.23415946899414,9.74394984375,9.187739468994142,9.90418984375,8.275389468994142C10.57127984375,8.39310946899414,11.25471984375,8.45850946899414,11.96105984375,8.45850946899414C12.66408984375,8.45850946899414,13.35088984375,8.396379468994141,14.01788984375,8.27865946899414C14.17488984375,9.19100946899414,14.28278984375,10.23742946899414,14.31228984375,11.411389468994141L9.60987984375,11.411389468994141L9.60987984375,11.40811946899414ZM14.30568984375,12.58859946899414C14.27958984375,13.75929946899414,14.17158984375,14.808999468994141,14.01138984375,15.721299468994141C13.34758984375,15.60359946899414,12.66088984375,15.541499468994141,11.95778984375,15.541499468994141C11.25471984375,15.541499468994141,10.56800984375,15.60689946899414,9.90090984375,15.72459946899414C9.74394984375,14.81229946899414,9.63603984375,13.76579946899414,9.60660984375,12.591899468994141L14.30568984375,12.591899468994141L14.30568984375,12.58859946899414ZM11.95778984375,3.739799468994141C12.39270984375,3.739799468994141,13.22328984375,4.903939468994141,13.77598984375,7.121049468994141C13.18728984375,7.222419468994141,12.58238984375,7.278019468994141,11.95778984375,7.278019468994141C11.33647984375,7.278019468994141,10.72823984375,7.222419468994141,10.142899843750001,7.121049468994141C10.69553984375,4.903939468994141,11.52613984375,3.739799468994141,11.95778984375,3.739799468994141ZM6.55235984375,5.76723946899414C7.55626984375,4.894129468994141,8.77273984375,4.263009468994141,10.11019984375,3.955619468994141C9.662199843749999,4.688119468994141,9.279599843749999,5.67567946899414,8.99183984375,6.84963946899414C8.11872984375,6.591299468994141,7.29793984375,6.225049468994141,6.55235984375,5.76723946899414ZM6.55235984375,18.23279946899414C7.29466984375,17.77499946899414,8.11544984375,17.40869946899414,8.99183984375,17.15039946899414C9.279599843749999,18.32109946899414,9.662199843749999,19.31189946899414,10.11019984375,20.04439946899414C8.77273984375,19.736999468994142,7.55953984375,19.105899468994142,6.55235984375,18.23279946899414ZM11.95778984375,20.26019946899414C11.52286984375,20.26019946899414,10.69226984375,19.09609946899414,10.142899843750001,16.878899468994142C10.73151984375,16.77759946899414,11.33647984375,16.72199946899414,11.95778984375,16.72199946899414C12.57908984375,16.72199946899414,13.18728984375,16.77759946899414,13.77598984375,16.878899468994142C13.22328984375,19.09609946899414,12.39270984375,20.26019946899414,11.95778984375,20.26019946899414ZM13.80538984375,20.04439946899414C14.25338984375,19.31189946899414,14.63928984375,18.32429946899414,14.92378984375,17.15039946899414C15.80338984375,17.40869946899414,16.62088984375,17.771699468994143,17.36648984375,18.229499468994142C16.36258984375,19.10259946899414,15.14608984375,19.736999468994142,13.80538984375,20.04439946899414Z" fill="#7D9299" fill-opacity="1"/></g><g><path d="M4.41331,12.04204818359375Q4.41331,12.10132818359375,4.407500000000001,12.16031818359375Q4.40169,12.21930818359375,4.39013,12.27744818359375Q4.37856,12.33558818359375,4.3613599999999995,12.39231818359375Q4.34415,12.44904818359375,4.32146,12.50380818359375Q4.29878,12.55857818359375,4.27083,12.61085818359375Q4.24289,12.66313818359375,4.209960000000001,12.712428183593751Q4.177020000000001,12.76171818359375,4.139419999999999,12.80753818359375Q4.10181,12.85336818359375,4.05989,12.89527818359375Q4.01798,12.93719818359375,3.97215,12.97480818359375Q3.92633,13.01240818359375,3.87704,13.04534818359375Q3.82775,13.07827818359375,3.7754700000000003,13.10621818359375Q3.7231899999999998,13.13416818359375,3.6684200000000002,13.15684818359375Q3.6136600000000003,13.179538183593749,3.55693,13.19674818359375Q3.5002,13.21394818359375,3.4420599999999997,13.22551818359375Q3.38392,13.23707818359375,3.32493,13.24288818359375Q3.26594,13.24869818359375,3.2066600000000003,13.24869818359375Q3.14738,13.24869818359375,3.08838,13.24288818359375Q3.0293900000000002,13.23707818359375,2.97125,13.22551818359375Q2.91311,13.21394818359375,2.856383,13.19674818359375Q2.799656,13.179538183593749,2.744889,13.15684818359375Q2.690122,13.13416818359375,2.637843,13.10621818359375Q2.585563,13.07827818359375,2.536274,13.04534818359375Q2.486985,13.01240818359375,2.441162,12.97480818359375Q2.395338,12.93719818359375,2.353422,12.89527818359375Q2.311505,12.85336818359375,2.273899,12.80753818359375Q2.236292,12.76171818359375,2.203358,12.712428183593751Q2.170425,12.66313818359375,2.142481,12.61085818359375Q2.114536,12.55857818359375,2.0918513,12.50380818359375Q2.0691661,12.44904818359375,2.0519582,12.39231818359375Q2.0347504,12.33558818359375,2.0231856,12.27744818359375Q2.0116208,12.21930818359375,2.00581038,12.16031818359375Q2,12.10132818359375,2,12.04204818359375Q2,11.98276818359375,2.00581038,11.92376818359375Q2.0116208,11.86477818359375,2.0231856,11.80663818359375Q2.0347504,11.74849818359375,2.0519582,11.69177118359375Q2.0691661,11.63504418359375,2.0918513,11.58027718359375Q2.114536,11.52551018359375,2.142481,11.47323118359375Q2.170425,11.42095118359375,2.203358,11.37166218359375Q2.236292,11.32237318359375,2.273899,11.27655018359375Q2.311505,11.23072618359375,2.353422,11.18881018359375Q2.395338,11.14689318359375,2.441162,11.10928718359375Q2.486985,11.07168018359375,2.536274,11.03874618359375Q2.585563,11.00581318359375,2.637843,10.97786918359375Q2.690122,10.94992418359375,2.744889,10.92723948359375Q2.799656,10.90455428359375,2.856383,10.88734638359375Q2.91311,10.87013858359375,2.97125,10.85857378359375Q3.0293900000000002,10.84700898359375,3.08838,10.84119856359375Q3.14738,10.83538818359375,3.2066600000000003,10.83538818359375Q3.26594,10.83538818359375,3.32493,10.84119856359375Q3.38392,10.84700898359375,3.4420599999999997,10.85857378359375Q3.5002,10.87013858359375,3.55693,10.88734638359375Q3.6136600000000003,10.90455428359375,3.6684200000000002,10.92723948359375Q3.7231899999999998,10.94992418359375,3.7754700000000003,10.97786918359375Q3.82775,11.00581318359375,3.87704,11.03874618359375Q3.92633,11.07168018359375,3.97215,11.10928718359375Q4.01798,11.14689318359375,4.05989,11.18881018359375Q4.10181,11.23072618359375,4.139419999999999,11.27655018359375Q4.177020000000001,11.32237318359375,4.209960000000001,11.37166218359375Q4.24289,11.42095118359375,4.27083,11.47323118359375Q4.29878,11.52551018359375,4.32146,11.58027718359375Q4.34415,11.63504418359375,4.3613599999999995,11.69177118359375Q4.37856,11.74849818359375,4.39013,11.80663818359375Q4.40169,11.86477818359375,4.407500000000001,11.92376818359375Q4.41331,11.98276818359375,4.41331,12.04204818359375Z" fill="#7D9299" fill-opacity="1"/></g><g><path d="M22.0002240625,12.04232665649414Q22.0002240625,12.101606656494141,21.9944140625,12.16059665649414Q21.9886040625,12.21958665649414,21.9770440625,12.27772665649414Q21.9654740625,12.33586665649414,21.9482740625,12.39259665649414Q21.9310640625,12.44932665649414,21.908374062500002,12.50408665649414Q21.8856940625,12.558856656494141,21.8577440625,12.611136656494141Q21.8298040625,12.66341665649414,21.7968740625,12.712706656494142Q21.7639340625,12.76199665649414,21.7263340625,12.80781665649414Q21.6887240625,12.85364665649414,21.6468040625,12.89555665649414Q21.6048940625,12.937476656494141,21.5590640625,12.97508665649414Q21.5132440625,13.012686656494141,21.4639540625,13.045626656494141Q21.4146640625,13.07855665649414,21.3623840625,13.10649665649414Q21.3101040625,13.134446656494141,21.2553340625,13.15712665649414Q21.2005740625,13.17981665649414,21.1438440625,13.19702665649414Q21.0871140625,13.21422665649414,21.0289740625,13.22579665649414Q20.9708340625,13.237356656494141,20.9118440625,13.243166656494141Q20.8528540625,13.24897665649414,20.7935740625,13.24897665649414Q20.7342940625,13.24897665649414,20.6752940625,13.243166656494141Q20.6163040625,13.237356656494141,20.5581640625,13.22579665649414Q20.5000240625,13.21422665649414,20.4432970625,13.19702665649414Q20.3865700625,13.17981665649414,20.3318030625,13.15712665649414Q20.2770360625,13.134446656494141,20.2247570625,13.10649665649414Q20.1724770625,13.07855665649414,20.1231880625,13.045626656494141Q20.0738990625,13.012686656494141,20.0280760625,12.97508665649414Q19.9822520625,12.937476656494141,19.9403360625,12.89555665649414Q19.8984190625,12.85364665649414,19.8608130625,12.80781665649414Q19.8232060625,12.76199665649414,19.7902720625,12.712706656494142Q19.7573390625,12.66341665649414,19.7293950625,12.611136656494141Q19.7014500625,12.558856656494141,19.6787653625,12.50408665649414Q19.6560801625,12.44932665649414,19.6388722625,12.39259665649414Q19.6216644625,12.33586665649414,19.6100996625,12.27772665649414Q19.5985348625,12.21958665649414,19.5927244425,12.16059665649414Q19.5869140625,12.101606656494141,19.5869140625,12.04232665649414Q19.5869140625,11.98304665649414,19.5927244425,11.924046656494141Q19.5985348625,11.86505665649414,19.6100996625,11.80691665649414Q19.6216644625,11.74877665649414,19.6388722625,11.69204965649414Q19.6560801625,11.635322656494141,19.6787653625,11.580555656494141Q19.7014500625,11.525788656494141,19.7293950625,11.47350965649414Q19.7573390625,11.421229656494141,19.7902720625,11.371940656494141Q19.8232060625,11.322651656494141,19.8608130625,11.276828656494141Q19.8984190625,11.231004656494141,19.9403360625,11.18908865649414Q19.9822520625,11.147171656494141,20.0280760625,11.10956565649414Q20.0738990625,11.071958656494141,20.1231880625,11.03902465649414Q20.1724770625,11.00609165649414,20.2247570625,10.97814765649414Q20.2770360625,10.95020265649414,20.3318030625,10.92751795649414Q20.3865700625,10.904832756494141,20.4432970625,10.88762485649414Q20.5000240625,10.87041705649414,20.5581640625,10.85885225649414Q20.6163040625,10.84728745649414,20.6752940625,10.84147703649414Q20.7342940625,10.83566665649414,20.7935740625,10.83566665649414Q20.8528540625,10.83566665649414,20.9118440625,10.84147703649414Q20.9708340625,10.84728745649414,21.0289740625,10.85885225649414Q21.0871140625,10.87041705649414,21.1438440625,10.88762485649414Q21.2005740625,10.904832756494141,21.2553340625,10.92751795649414Q21.3101040625,10.95020265649414,21.3623840625,10.97814765649414Q21.4146640625,11.00609165649414,21.4639540625,11.03902465649414Q21.5132440625,11.071958656494141,21.5590640625,11.10956565649414Q21.6048940625,11.147171656494141,21.6468040625,11.18908865649414Q21.6887240625,11.231004656494141,21.7263340625,11.276828656494141Q21.7639340625,11.322651656494141,21.7968740625,11.371940656494141Q21.8298040625,11.421229656494141,21.8577440625,11.47350965649414Q21.8856940625,11.525788656494141,21.908374062500002,11.580555656494141Q21.9310640625,11.635322656494141,21.9482740625,11.69204965649414Q21.9654740625,11.74877665649414,21.9770440625,11.80691665649414Q21.9886040625,11.86505665649414,21.9944140625,11.924046656494141Q22.0002240625,11.98304665649414,22.0002240625,12.04232665649414Z" fill="#7D9299" fill-opacity="1"/></g></g></g></svg>