<svg xmlns="http://www.w3.org/2000/svg" xmlns:xlink="http://www.w3.org/1999/xlink" fill="none" version="1.1" width="11.698486328125" height="10.918205261230469" viewBox="0 0 11.698486328125 10.918205261230469"><g><path d="M9.37471,4.35981C9.37471,4.35981,2.81203,10.9182,2.81203,10.9182C2.81203,10.9182,0,10.9182,0,10.9182C0,10.9182,0,8.10775,0,8.10775C0,8.10775,6.56268,1.54934,6.56268,1.54934C6.56268,1.54934,9.37473,4.35981,9.37473,4.35981C9.37473,4.35981,9.37471,4.35981,9.37471,4.35981ZM9.92612,3.8088C9.92612,3.8088,7.11447,0.998344,7.11447,0.998344C7.11447,0.998344,7.88506,0.228172,7.88506,0.228172C8.18958,-0.0760574,8.68295,-0.0760574,8.98747,0.228172C8.98747,0.228172,8.98785,0.227776,8.98785,0.227776C8.98785,0.227776,10.6971,1.93502,10.6971,1.93502C11.0018,2.23963,11.0018,2.73363,10.6971,3.03823C10.6971,3.03823,9.92612,3.8088,9.92612,3.8088C9.92612,3.8088,9.92612,3.8088,9.92612,3.8088ZM6.23941,9.3529C6.23941,9.3529,10.9189,9.3529,10.9189,9.3529C11.3495,9.3529,11.6985,9.7019,11.6985,10.1324C11.6985,10.563,11.3495,10.912,10.9189,10.912C10.9189,10.912,6.23941,10.912,6.23941,10.912C5.80887,10.912,5.45987,10.563,5.45987,10.1324C5.45987,9.7019,5.80887,9.3529,6.23941,9.3529C6.23941,9.3529,6.23941,9.3529,6.23941,9.3529Z" fill="#06CCAB" fill-opacity="1"/></g></svg>