<svg xmlns="http://www.w3.org/2000/svg" xmlns:xlink="http://www.w3.org/1999/xlink" fill="none" version="1.1" width="16" height="16" viewBox="0 0 16 16"><g><g><g><path d="M12.862986126708984,4.8881230859375C12.207766126708984,4.2315230859375,11.549756126708985,3.5777130859375,10.894626126708985,2.9210240859375C10.659946126708984,2.6857760859375,10.282356126708985,2.6901720859375002,10.047389126708984,2.9251400859375C9.890846126708984,3.0816850859375,9.734273126708985,3.2381990859375,9.577690126708985,3.3947030859375C9.343237126708985,3.6290330859375,9.336209126708985,4.0064130859375,9.570652126708984,4.2407630859375C10.101897126708984,4.7717830859375,11.011616126708985,5.6811130859375005,11.542866126708985,6.2121330859375C11.777156126708984,6.4463230859375,12.154446126708985,6.4399130859375,12.388736126708984,6.2057330859375C12.545096126708984,6.049433085937499,12.701446126708984,5.8931230859375,12.857776126708984,5.736793085937499C13.091476126708985,5.5030830859375,13.096446126708985,5.122083085937501,12.862986126708984,4.8881230859375" fill="#2A3331" fill-opacity="1"/></g><g><path d="M2.1509361267089844,12.8935238671875C2.1509361267089844,13.2248938671875,2.4269631267089844,13.5005838671875,2.7583341267089843,13.5005838671875L4.713016126708984,13.5005838671875C4.8720761267089845,13.5005838671875,5.0261661267089845,13.4374238671875,5.138676126708985,13.3249838671875L11.100996126708985,7.3665638671875C11.335496126708984,7.1322238671875,11.340366126708984,6.7569938671875,11.105886126708985,6.5226438671875L9.133396126708984,4.5512548671875C8.899116126708984,4.3171058671875,8.530206126708984,4.3150068671875,8.295916126708985,4.5491448671875L2.3259301267089842,10.5152438671875C2.2133239267089846,10.6277738671875,2.1509361267089844,10.7807338671875,2.1509361267089844,10.9399338671875L2.1509361267089844,12.8935238671875ZM4.499256126708985,12.3805838671875L3.2709361267089845,12.3805838671875L3.2709361267089845,11.1542538671875L8.713586126708984,5.7151538671874995L9.941266126708985,6.9421438671875L4.499256126708985,12.3805838671875Z" fill-rule="evenodd" fill="#2A3331" fill-opacity="1"/></g><g><path d="M8.390438064208984,11.942522048950195C8.390438064208984,11.942522048950195,13.069977064208985,11.942522048950195,13.069977064208985,11.942522048950195C13.500517064208985,11.942522048950195,13.849517064208985,12.291521048950194,13.849517064208985,12.722063048950195C13.849517064208985,13.152572048950196,13.500517064208985,13.501592048950195,13.069977064208985,13.501592048950195C13.069977064208985,13.501592048950195,8.390438064208984,13.501592048950195,8.390438064208984,13.501592048950195C7.959896064208984,13.501592048950195,7.610897064208984,13.152572048950196,7.610897064208984,12.722063048950195C7.610897064208984,12.291521048950194,7.959896064208984,11.942522048950195,8.390438064208984,11.942522048950195C8.390438064208984,11.942522048950195,8.390438064208984,11.942522048950195,8.390438064208984,11.942522048950195Z" fill="#2A3331" fill-opacity="1"/></g></g></g></svg>