<svg xmlns="http://www.w3.org/2000/svg" xmlns:xlink="http://www.w3.org/1999/xlink" fill="none" version="1.1" width="16" height="16" viewBox="0 0 16 16"><g><g><g><path d="M12.862741986083984,4.8881230859375C12.207521986083984,4.2315230859375,11.549511986083985,3.5777130859375,10.894381986083985,2.9210240859375C10.659701986083984,2.6857760859375,10.282111986083985,2.6901720859375002,10.047144986083984,2.9251400859375C9.890601986083984,3.0816850859375,9.734028986083985,3.2381990859375,9.577445986083985,3.3947030859375C9.342992986083985,3.6290330859375,9.335964986083985,4.0064130859375,9.570407986083984,4.2407630859375C10.101652986083984,4.7717830859375,11.011371986083985,5.6811130859375005,11.542621986083985,6.2121330859375C11.776911986083984,6.4463230859375,12.154201986083985,6.4399130859375,12.388491986083984,6.2057330859375C12.544851986083984,6.049433085937499,12.701201986083984,5.8931230859375,12.857531986083984,5.736793085937499C13.091231986083985,5.5030830859375,13.096201986083985,5.122083085937501,12.862741986083984,4.8881230859375" fill="#2A3331" fill-opacity="1"/></g><g><path d="M2.1506919860839844,12.8935238671875C2.1506919860839844,13.2248938671875,2.4267189860839844,13.5005838671875,2.7580899860839843,13.5005838671875L4.712771986083984,13.5005838671875C4.8718319860839845,13.5005838671875,5.0259219860839845,13.4374238671875,5.138431986083985,13.3249838671875L11.100751986083985,7.3665638671875C11.335251986083984,7.1322238671875,11.340121986083984,6.7569938671875,11.105641986083985,6.5226438671875L9.133151986083984,4.5512548671875C8.898871986083984,4.3171058671875,8.529961986083984,4.3150068671875,8.295671986083985,4.5491448671875L2.3256859860839842,10.5152438671875C2.2130797860839846,10.6277738671875,2.1506919860839844,10.7807338671875,2.1506919860839844,10.9399338671875L2.1506919860839844,12.8935238671875ZM4.499011986083985,12.3805838671875L3.2706919860839845,12.3805838671875L3.2706919860839845,11.1542538671875L8.713341986083984,5.7151538671874995L9.941021986083985,6.9421438671875L4.499011986083985,12.3805838671875Z" fill-rule="evenodd" fill="#2A3331" fill-opacity="1"/></g><g><path d="M8.390193923583984,11.942522048950195C8.390193923583984,11.942522048950195,13.069732923583985,11.942522048950195,13.069732923583985,11.942522048950195C13.500272923583985,11.942522048950195,13.849272923583985,12.291521048950194,13.849272923583985,12.722063048950195C13.849272923583985,13.152572048950196,13.500272923583985,13.501592048950195,13.069732923583985,13.501592048950195C13.069732923583985,13.501592048950195,8.390193923583984,13.501592048950195,8.390193923583984,13.501592048950195C7.959651923583984,13.501592048950195,7.610652923583984,13.152572048950196,7.610652923583984,12.722063048950195C7.610652923583984,12.291521048950194,7.959651923583984,11.942522048950195,8.390193923583984,11.942522048950195C8.390193923583984,11.942522048950195,8.390193923583984,11.942522048950195,8.390193923583984,11.942522048950195Z" fill="#2A3331" fill-opacity="1"/></g></g></g></svg>