<svg xmlns="http://www.w3.org/2000/svg" xmlns:xlink="http://www.w3.org/1999/xlink" fill="none" version="1.1" width="16.5" height="12.5" viewBox="0 0 16.5 12.5"><g><path d="M1.9915310000000002,6.01415L7.73126,10.2437L6.98973,11.25L6.026,10.45393L14.2863,0.453932Q14.3254,0.40658700000000003,14.3689,0.36330300000000004Q14.4125,0.32001999999999997,14.4601,0.28121399999999996Q14.5077,0.24241000000000001,14.5589,0.20845000000000002Q14.61,0.1745000000000001,14.6643,0.14572999999999992Q14.7185,0.11695000000000011,14.7753,0.0936300000000001Q14.8321,0.0703100000000001,14.891,0.052669999999999995Q14.9498,0.03503999999999996,15.01,0.023249999999999993Q15.0703,0.011460000000000026,15.1314,0.005630000000000024Q15.1926,-0.00018999999999991246,15.254,0.000010000000000065512Q15.3154,0.00019999999999997797,15.3765,0.006420000000000092Q15.4376,0.012629999999999919,15.4978,0.024799999999999933Q15.558,0.03696999999999995,15.6167,0.054990000000000094Q15.6754,0.07299999999999995,15.732,0.0966800000000001Q15.7887,0.12036000000000002,15.8428,0.14948000000000006Q15.8968,0.1786000000000001,15.9478,0.21287999999999996Q15.9987,0.24716000000000005,16.0461,0.28627Q16.093400000000003,0.32537799999999995,16.136699999999998,0.368939Q16.18,0.41249899999999995,16.2188,0.460093Q16.2576,0.507686,16.2915,0.558854Q16.325499999999998,0.610022,16.354300000000002,0.664271Q16.383,0.718521,16.406399999999998,0.7753289999999999Q16.4297,0.832138,16.4473,0.8909590000000001Q16.465,0.9497800000000001,16.4768,1.010046Q16.488500000000002,1.070313,16.4944,1.131445Q16.5002,1.1925764,16.5,1.25398461Q16.4998,1.3153929,16.4936,1.3764859999999999Q16.4874,1.43758,16.4752,1.49777Q16.463,1.55796,16.445,1.616667Q16.427,1.675374,16.4033,1.732033Q16.3796,1.788692,16.3505,1.842757Q16.3214,1.896822,16.287100000000002,1.947772Q16.2528,1.998723,16.2137,2.046068L7.95346,12.0461Q7.91573,12.0917,7.87385,12.1336Q7.83197,12.1755,7.78632,12.2133Q7.74066,12.251,7.69165,12.2843Q7.64263,12.3176,7.59068,12.3461Q7.53873,12.3745,7.48433,12.398Q7.42992,12.4214,7.37354,12.4396Q7.31716,12.4578,7.25932,12.4706Q7.20147,12.4834,7.14267,12.4906Q7.08388,12.4979,7.02466,12.4995Q6.96544,12.5012,6.90633,12.4972Q6.84722,12.4933,6.78875,12.4837Q6.73028,12.4742,6.67297,12.4592Q6.61566,12.4442,6.56003,12.4238Q6.5044,12.4035,6.45095,12.3779Q6.39749,12.3524,6.34669,12.3219Q6.29589,12.2914,6.2482,12.2563L0.508469,8.02674Q0.459033,7.99031,0.413405,7.94921Q0.36777800000000005,7.90811,0.326399,7.86274Q0.285019,7.81737,0.2482899999999999,7.76816Q0.2115499999999999,7.71894,0.1798200000000001,7.66637Q0.14809000000000005,7.6138,0.1216600000000001,7.55836Q0.09523999999999999,7.50293,0.07437000000000005,7.44518Q0.053509999999999946,7.38742,0.03839999999999999,7.3279Q0.0233000000000001,7.26838,0.014100000000000001,7.20766Q0.004899999999999904,7.14695,0.0017000000000000348,7.08562Q-0.0015000000000000568,7.0243,0.0013199999999999878,6.96295Q0.004150000000000098,6.90161,0.012969999999999926,6.84084Q0.021789999999999976,6.78007,0.03652999999999995,6.72045Q0.05126999999999993,6.66084,0.07177999999999995,6.60296Q0.09228999999999998,6.54507,0.11837000000000009,6.48948Q0.14446000000000003,6.43389,0.17586999999999997,6.38112Q0.20727000000000007,6.32835,0.24370000000000003,6.27891Q0.28013299999999997,6.22948,0.32123199999999996,6.18385Q0.36233099999999996,6.13822,0.407705,6.09684Q0.453079,6.05546,0.50229,6.01873Q0.551501,5.982,0.604075,5.95027Q0.65665,5.91853,0.712081,5.89211Q0.767513,5.86568,0.825268,5.84482Q0.883023,5.82395,0.942545,5.80885Q1.002067,5.79374,1.062783,5.78454Q1.123499,5.77535,1.1848237,5.77215Q1.2461487,5.76894,1.3074923,5.77177Q1.368836,5.77459,1.429607,5.78342Q1.490379,5.79224,1.549992,5.80698Q1.6096059999999999,5.82172,1.667488,5.84223Q1.725371,5.86273,1.780964,5.88882Q1.836557,5.9149,1.889326,5.94631Q1.9420950000000001,5.97772,1.9915310000000002,6.01415Z" fill="#303433" fill-opacity="1"/></g></svg>