<svg xmlns="http://www.w3.org/2000/svg" xmlns:xlink="http://www.w3.org/1999/xlink" fill="none" version="1.1" width="4.399993419647217" height="8" viewBox="0 0 4.399993419647217 8"><g><path d="M0.512494,7.99999C0.366705,7.99999,0.269525,7.94985,0.172332,7.84957C-0.0220401,7.64899,0.0265438,7.34815,0.220929,7.14758C0.220929,7.14758,3.33093,4.23933,3.33093,4.23933C3.42812,4.13905,3.4767,4.03876,3.4767,3.93848C3.4767,3.8382,3.42812,3.73792,3.33093,3.63763C3.33093,3.63763,0.172332,0.87981,0.172332,0.87981C-0.0220401,0.679243,-0.0706363,0.378394,0.123736,0.177827C0.318121,-0.022747,0.609686,-0.0728874,0.804058,0.127686C0.804058,0.127686,3.91403,2.88549,3.91403,2.88549C4.20563,3.13621,4.39999,3.53735,4.39999,3.93848C4.39999,4.33962,4.25419,4.69061,3.96264,4.99147C3.96264,4.99147,0.852642,7.89971,0.852642,7.89971C0.755462,7.94985,0.609686,8,0.512494,8C0.512494,8,0.512494,7.99999,0.512494,7.99999Z" fill="#0AC7B7" fill-opacity="1"/></g></svg>