<svg xmlns="http://www.w3.org/2000/svg" xmlns:xlink="http://www.w3.org/1999/xlink" fill="none" version="1.1" width="12" height="12" viewBox="0 0 12 12"><g><g><path d="M12,6C12,9.31371,9.31371,12,6,12C2.68629,12,0,9.31371,0,6C0,2.68629,2.68629,0,6,0C9.31371,0,12,2.68629,12,6ZM11.1,6Q11.1,5.02721,10.7419,4.12272Q10.3531,3.14064,9.60625,2.39376Q8.85937,1.64688,7.87728,1.25808Q6.97279,0.9,6,0.9Q5.02721,0.9,4.12272,1.25808Q3.14063,1.64688,2.39376,2.39376Q1.64688,3.14063,1.25808,4.12272Q0.9,5.02721,0.9,6Q0.9,6.97279,1.25808,7.87728Q1.64688,8.85937,2.39376,9.60625Q3.14063,10.3531,4.12272,10.7419Q5.02721,11.1,6,11.1Q6.97279,11.1,7.87728,10.7419Q8.85936,10.3531,9.60625,9.60625Q10.3531,8.85937,10.7419,7.87728Q11.1,6.97279,11.1,6Z" fill-rule="evenodd" fill="#AAB9BF" fill-opacity="1"/></g><g><path d="M5.999249366516113,9.440372016296386C5.734314366516113,9.440372016296386,5.519055366516113,9.244482016296388,5.519055366516113,9.003422016296387C5.519055366516113,9.003422016296387,5.519055366516113,5.149493016296387,5.519055366516113,5.149493016296387C5.519055366516113,4.9083980162963865,5.734314366516113,4.712512016296387,5.999249366516113,4.712512016296387C6.264184366516114,4.712512016296387,6.479461366516113,4.9083980162963865,6.479461366516113,5.149493016296387C6.479461366516113,5.149493016296387,6.479461366516113,9.003422016296387,6.479461366516113,9.003422016296387C6.479461366516113,9.244482016296388,6.264184366516114,9.440372016296386,5.999249366516113,9.440372016296386C5.999249366516113,9.440372016296386,5.999249366516113,9.440372016296386,5.999249366516113,9.440372016296386Z" fill="#AAB9BF" fill-opacity="1"/><path d="M6.372356366516113,9.349272016296386Q6.5294653665161135,9.206322016296387,6.5294653665161135,9.003422016296387L6.5294653665161135,5.149493016296387Q6.5294653665161135,4.946569016296387,6.3723573665161135,4.8036110162963865Q6.217297366516114,4.662512016296387,5.999249366516113,4.662512016296387Q5.781203366516113,4.662512016296387,5.626149366516113,4.803611916296386Q5.4690553665161135,4.946569016296387,5.4690553665161135,5.149493016296387L5.4690553665161135,9.003422016296387Q5.4690553665161135,9.206322016296387,5.626150366516113,9.349272016296386Q5.7812063665161135,9.490372016296387,5.999249366516113,9.490372016296387Q6.217294366516113,9.490372016296387,6.372356366516113,9.349272016296386ZM6.429461366516113,5.149493016296387L6.429461366516113,9.003422016296387Q6.429461366516113,9.162112016296387,6.305056366516113,9.275312016296386Q6.178607366516113,9.390372016296386,5.999249366516113,9.390372016296386Q5.819893366516113,9.390372016296386,5.693452366516113,9.275312016296386Q5.569055366516113,9.162112016296387,5.569055366516113,9.003422016296387L5.569055366516113,5.149493016296387Q5.569055366516113,4.990776016296387,5.693453366516113,4.877572016296387Q5.819892366516113,4.7625120162963865,5.999249366516113,4.7625120162963865Q6.429461366516113,4.7625120162963865,6.429461366516113,5.149493016296387Z" fill-rule="evenodd" fill="#AAB9BF" fill-opacity="1"/></g><g><path d="M5.40399169921875,3.1557038097076417C5.40399169921875,3.484918809707642,5.67088569921875,3.7518158097076415,6.00010969921875,3.7518158097076415C6.32933369921875,3.7518158097076415,6.59623169921875,3.484918809707642,6.59623169921875,3.1557038097076417C6.59623169921875,2.8264708097076414,6.32933369921875,2.559585809707676,6.00010969921875,2.559585809707676C5.67088569921875,2.559585809707676,5.40399169921875,2.8264708097076414,5.40399169921875,3.1557038097076417C5.40399169921875,3.1557038097076417,5.40399169921875,3.1557038097076417,5.40399169921875,3.1557038097076417Z" fill="#AAB9BF" fill-opacity="1"/></g></g></svg>