<svg xmlns="http://www.w3.org/2000/svg" xmlns:xlink="http://www.w3.org/1999/xlink" fill="none" version="1.1" width="14" height="14" viewBox="0 0 14 14"><g><g><ellipse cx="7" cy="7" rx="7" ry="7" fill="#FA5555" fill-opacity="0.20000000298023224"/></g><g><path d="M6.999904312194825,9.721982089767456Q7.076509312194824,9.721982089767456,7.151641312194824,9.736922089767457Q7.226770312194824,9.751872089767456,7.297550312194824,9.781182089767455Q7.368320312194824,9.810502089767457,7.432010312194825,9.853052089767456Q7.4957103121948245,9.895612089767457,7.549880312194825,9.949782089767456Q7.604040312194824,10.003952089767456,7.646600312194824,10.067642089767457Q7.689160312194824,10.131342089767456,7.718480312194824,10.202112089767457Q7.747790312194824,10.272882089767457,7.762740312194824,10.348022089767456Q7.777680312194824,10.423152089767456,7.777680312194824,10.499752089767455Q7.777680312194824,10.576362089767457,7.762740312194824,10.651492089767455Q7.747790312194824,10.726622089767456,7.718480312194824,10.797402089767456Q7.689160312194824,10.868172089767455,7.646600312194824,10.931862089767456Q7.604040312194824,10.995562089767455,7.549880312194825,11.049732089767456Q7.4957103121948245,11.103892089767456,7.432010312194825,11.146452089767456Q7.368320312194824,11.189012089767456,7.297550312194824,11.218332089767456Q7.226770312194824,11.247642089767456,7.151641312194824,11.262592089767455Q7.076509312194824,11.277532089767456,6.999904312194825,11.277532089767456Q6.923300312194824,11.277532089767456,6.848167312194824,11.262592089767455Q6.773035312194824,11.247642089767456,6.702261312194825,11.218332089767456Q6.631488312194824,11.189012089767456,6.567794312194824,11.146452089767456Q6.504100312194824,11.103892089767456,6.449932312194824,11.049722089767457Q6.395765312194825,10.995562089767455,6.353206312194824,10.931862089767456Q6.3106468121948245,10.868172089767455,6.281331512194824,10.797402089767456Q6.252016312194824,10.726622089767456,6.237071512194825,10.651492089767455Q6.222126722294824,10.576362089767457,6.222126722294824,10.499752089767455Q6.222126722294824,10.423152089767456,6.237071512194825,10.348022089767456Q6.252016312194824,10.272882089767457,6.281331512194824,10.202112089767457Q6.3106468121948245,10.131342089767456,6.353206312194824,10.067642089767457Q6.395765312194825,10.003952089767456,6.449932312194824,9.949782089767456Q6.504100312194824,9.895612089767457,6.567794312194824,9.853052089767456Q6.631488312194824,9.810502089767457,6.702261312194825,9.781182089767455Q6.773035312194824,9.751872089767456,6.848167312194824,9.736922089767457Q6.923300312194824,9.721982089767456,6.999904312194825,9.721982089767456ZM7.000515312194825,2.722222089767456L7.000515312194825,2.722222089767456Q7.077119312194824,2.722222089767456,7.152251312194824,2.737166889767456Q7.227380312194824,2.7521116897674562,7.298160312194824,2.781426889767456Q7.368930312194824,2.810742089767456,7.432620312194825,2.8533010897674562Q7.4963203121948245,2.895860089767456,7.550490312194825,2.9500280897674562Q7.604650312194824,3.004195089767456,7.647210312194824,3.067890089767456Q7.689770312194824,3.131584089767456,7.719090312194824,3.202357089767456Q7.748400312194824,3.273130089767456,7.763350312194824,3.348263089767456Q7.778290312194824,3.423395089767456,7.778290312194824,3.500000089767456L7.778290312194824,8.166662089767456Q7.778290312194824,8.243272089767455,7.763350312194824,8.318402089767456Q7.748400312194824,8.393532089767456,7.719090312194824,8.464312089767457Q7.689770312194824,8.535082089767457,7.647210312194824,8.598772089767456Q7.604650312194824,8.662472089767455,7.550490312194825,8.716642089767456Q7.4963203121948245,8.770802089767457,7.432620312194825,8.813362089767455Q7.368930312194824,8.855922089767457,7.298160312194824,8.885242089767456Q7.227380312194824,8.914552089767456,7.152251312194824,8.929502089767457Q7.077119312194824,8.944442089767456,7.000515312194825,8.944442089767456L7.000515312194825,8.944442089767456Q6.923910312194824,8.944442089767456,6.848778312194824,8.929502089767457Q6.773645312194824,8.914552089767456,6.702872312194824,8.885242089767456Q6.632099312194824,8.855922089767457,6.568404312194824,8.813362089767455Q6.504710312194824,8.770802089767457,6.450543312194824,8.716642089767456Q6.396375312194825,8.662472089767455,6.353816312194824,8.598772089767456Q6.311257112194824,8.535082089767457,6.281941912194824,8.464312089767457Q6.252626612194824,8.393532089767456,6.2376818121948245,8.318402089767456Q6.222737074194824,8.243272089767455,6.222737074194824,8.166662089767456L6.222737074194824,3.500000089767456Q6.222737074194824,3.423395089767456,6.2376818121948245,3.348263089767456Q6.252626612194824,3.273130089767456,6.281941912194824,3.202357089767456Q6.311257112194824,3.131584089767456,6.353816312194824,3.067890089767456Q6.396375312194825,3.004195089767456,6.450543312194824,2.9500280897674562Q6.504710312194824,2.895860089767456,6.568404312194824,2.8533010897674562Q6.632099312194824,2.810742089767456,6.702872312194824,2.781426889767456Q6.773645312194824,2.7521116897674562,6.848778312194824,2.737166889767456Q6.923910312194824,2.722222089767456,7.000515312194825,2.722222089767456Z" fill="#FA5555" fill-opacity="1"/></g></g></svg>
