<svg xmlns="http://www.w3.org/2000/svg" xmlns:xlink="http://www.w3.org/1999/xlink" fill="none" version="1.1" width="49" height="42" viewBox="0 0 49 42"><g><path d="M44.7392,42L42.6088,42L6.39136,42L4.26096,42C1.90771,42,0,40.1196,0,37.8L0,9.45C0,7.13034,1.90771,5.25,4.26096,5.25L6.39131,5.25L13.3154,5.25L15.9783,1.05006C15.9783,0.47003,17.5205,0,18.1088,0L30.8914,0C31.4796,0,33.0218,0.470029,33.0218,1.05006L35.6849,5.25L42.6088,5.25L44.7392,5.25C47.0925,5.25,49,7.13034,49,9.45L49,37.8C49,40.1196,47.0924,42,44.7392,42ZM24.5001,9.45C16.8522,9.45,10.6523,15.5613,10.6523,23.1001C10.6523,30.6388,16.8522,36.75,24.5001,36.75C32.1478,36.75,38.3476,30.639,38.3478,23.1007L38.3478,23.0995C38.3476,15.561,32.1478,9.45,24.5001,9.45ZM24.5001,32.5501C19.2054,32.5501,14.9132,28.3193,14.9132,23.1001C14.9132,17.881,19.2054,13.6501,24.5001,13.6501C29.7948,13.6501,34.087,17.881,34.087,23.1001C34.087,28.3193,29.7948,32.5501,24.5001,32.5501Z" fill="#FF8142" fill-opacity="1"/></g></svg>