<svg xmlns="http://www.w3.org/2000/svg" xmlns:xlink="http://www.w3.org/1999/xlink" fill="none" version="1.1" width="16" height="16" viewBox="0 0 16 16"><g><g><g><path d="M7.9385823097229,3.45068e-8C8.292432309722901,-0.000112003,8.586542309722901,0.272613,8.6130723097229,0.625474L8.6151023097229,0.676187L8.6147623097229,1.46733C11.3600823097229,1.71413,13.4893823097229,4.26573,13.4893823097229,7.34339L13.4893823097229,9.35167C13.4893823097229,10.2226,13.7774823097229,11.059,14.2913823097229,11.693L14.5672823097229,12.0334C15.165282309722901,12.7711,14.6983823097229,13.9623,13.7175823097229,13.9623L10.7349523097229,13.9623C10.3741223097229,15.1714,9.262082309722901,16,8.0002823097229,16C6.7384723097229005,16,5.626442309722901,15.1714,5.265612309722901,13.9623L2.2822723097229005,13.9623C1.3014613097229004,13.9623,0.8345533097229003,12.7708,1.4329793097229004,12.0334L1.7088643097229004,11.6926C2.2227623097229,11.059,2.5104823097229003,10.2226,2.5104823097229003,9.35167L2.5104823097229003,7.34339C2.5104823097229003,4.31171,4.5769123097229,1.79088,7.2623923097229,1.48017L7.2623923097229,0.676187C7.2623923097229,0.302739,7.5651323097229,3.45068e-8,7.9385823097229,3.45068e-8ZM9.2605223097229,13.9623L6.7393623097229005,13.9623C7.3301623097229,14.8785,8.670062309722901,14.8785,9.260862309722901,13.9623L9.2605223097229,13.9623ZM8.1782823097229,2.80043L7.9385823097229,2.80043L7.9311423097229,2.80009L7.8219323097229,2.80009C5.6865323097229,2.80009,3.9156023097229005,4.75901,3.8642123097229004,7.2325L3.8628623097229005,7.34373L3.8628623097229005,9.35167C3.8628623097229005,10.5286,3.4713423097229006,11.6663,2.7596623097229003,12.544L2.7059023097229007,12.6095L13.2936823097229,12.6095L13.2408823097229,12.5443C12.556282309722901,11.7001,12.1677823097229,10.6158,12.1386823097229,9.48725L12.136982309722901,9.35167L12.136982309722901,7.34339C12.136982309722901,4.81784,10.3454723097229,2.80043,8.177952309722901,2.80043L8.1782823097229,2.80043Z" fill="#FCFDFF" fill-opacity="1"/></g></g></g></svg>