<svg xmlns="http://www.w3.org/2000/svg" xmlns:xlink="http://www.w3.org/1999/xlink" fill="none" version="1.1" width="14" height="14" viewBox="0 0 14 14"><g style="mix-blend-mode:passthrough"><g><path d="M6.533329952316285,4.822223349227905L3.333332952316284,4.822223349227905C3.038332952316284,4.822223349227905,2.799999952316284,4.578923349227905,2.799999952316284,4.277778349227905C2.799999952316284,3.976632349227905,3.038332952316284,3.7333333492279053,3.333332952316284,3.7333333492279053L6.533329952316285,3.7333333492279053C6.828329952316285,3.7333333492279053,7.066669952316285,3.976632349227905,7.066669952316285,4.277778349227905C7.066669952316285,4.578923349227905,6.828329952316285,4.822223349227905,6.533329952316285,4.822223349227905ZM9.733329952316284,7.5444433492279055L3.333332952316284,7.5444433492279055C3.038332952316284,7.5444433492279055,2.799999952316284,7.301143349227905,2.799999952316284,7.000003349227905C2.799999952316284,6.698853349227905,3.038332952316284,6.455553349227905,3.333332952316284,6.455553349227905L9.733329952316284,6.455553349227905C10.028329952316284,6.455553349227905,10.266669952316285,6.698853349227905,10.266669952316285,7.000003349227905C10.266669952316285,7.301143349227905,10.028329952316284,7.5444433492279055,9.733329952316284,7.5444433492279055ZM9.733329952316284,10.266663349227905L3.333332952316284,10.266663349227905C3.038332952316284,10.266663349227905,2.799999952316284,10.023363349227905,2.799999952316284,9.722223349227905C2.799999952316284,9.421073349227905,3.038332952316284,9.177773349227905,3.333332952316284,9.177773349227905L9.733329952316284,9.177773349227905C10.028329952316284,9.177773349227905,10.266669952316285,9.421073349227905,10.266669952316285,9.722223349227905C10.266669952316285,10.023363349227905,10.028329952316284,10.266663349227905,9.733329952316284,10.266663349227905Z" fill="#FCFDFF" fill-opacity="1"/></g><g transform="matrix(-1,0,0,1,28,0)"><path d="M25.134700000000002,14L16.86374,14C15.28423,14,14,12.7156,14,11.1359L14,2.86406C14,1.28438,15.28423,0,16.86374,0L25.1363,0C26.714199999999998,0,28,1.28438,28,2.86406L28,11.1359C27.9984,12.7156,26.714199999999998,14,25.134700000000002,14ZM16.86374,1C15.83573,1,14.999888,1.83594,14.999888,2.86406L14.999888,11.1359C14.999888,12.1641,15.83573,13,16.86374,13L25.1363,13C26.1643,13,27.0001,12.1641,27.0001,11.1359L27.0001,2.86406C27.0001,1.83594,26.1643,1,25.1363,1L16.86374,1Z" fill="#FCFDFF" fill-opacity="1"/></g></g></svg>