<svg xmlns="http://www.w3.org/2000/svg" xmlns:xlink="http://www.w3.org/1999/xlink" fill="none" version="1.1" width="18" height="18" viewBox="0 0 18 18"><g><g><path d="M9.000089500488281,9.75534994140625C9.416865500488282,9.75534994140625,9.755775500488282,9.416449941406249,9.755775500488282,9.00002194140625C9.755775500488282,8.73107694140625,9.610935500488281,8.48041294140625,9.378025500488281,8.34576394140625C9.263105500488281,8.27961824140625,9.132857500488281,8.24476753240625,9.00026550048828,8.24468994140625C8.867725500488282,8.24468994140625,8.73711850048828,8.27967044140625,8.622508500488282,8.34576394140625C8.389420500488281,8.48023694140625,8.244575500488281,8.73090094140625,8.244575500488281,9.00002194140625C8.244575500488281,9.416449941406249,8.58348450048828,9.75534994140625,9.000089500488281,9.75534994140625Z" fill="#FCFDFF" fill-opacity="1"/></g><g><path d="M17.9513,7.97062C17.7646,6.2942,17.1427,4.77738,16.1029,3.46219C14.6634,1.63951,12.804,0.523125,10.576,0.144141C10.0108,0.0485156,9.45184,0,8.91464,0C6.855,0,4.95953,0.695039,3.28098,2.06613C1.56693,3.46869,0.511528,5.27766,0.144142,7.44258C-0.320803,10.1753,0.340315,12.645,2.10939,14.7832C3.48665,16.4473,5.29493,17.4892,7.48448,17.8803C7.76344,17.9292,8.05261,17.948,8.30767,17.9645L8.3604,17.968C8.47572,17.9759,8.59507,17.984,8.71038,17.9953C8.74484,17.9991,8.85875,17.9998,8.92361,18C9.08551,18,9.28976,17.997,9.34848,17.9949C13.4289,17.8824,16.9048,14.9901,17.8012,10.9615C17.8732,10.6348,17.9082,10.299,17.942,9.97436L17.9421,9.97242C17.9581,9.81633,17.9741,9.66357,17.9938,9.51082C18.0125,9.3716,17.9863,8.2735,17.9513,7.97062ZM3.66419,3.74361C5.09629,2.29623,6.9958,1.49924,9.01238,1.49924L9.03154,1.49924L9.03154,1.46584L9.04156,1.49924L9.05562,1.49924C11.0332,1.50996,12.903,2.2957,14.321,3.71197C15.7538,5.14424,16.5362,7.04268,16.5239,9.05748C16.5176,10.0633,16.3135,11.0392,15.9173,11.9584C15.5344,12.8468,14.9892,13.6447,14.2969,14.3299C13.6042,15.0156,12.7989,15.554,11.9037,15.93C10.9764,16.3195,9.99237,16.5169,8.97775,16.5169L8.97722,16.5169C6.96082,16.5088,5.06694,15.7069,3.64433,14.2588C2.23947,12.8269,1.48097,10.955,1.50927,8.98752C1.48818,7.03143,2.25353,5.16902,3.66419,3.74361Z" fill="#FCFDFF" fill-opacity="1"/></g><g><path d="M5.193299006347656,13.4357669140625C5.273105006347656,13.4357669140625,5.360117006347656,13.4195969140625,5.467169006347656,13.3846169140625C7.142204006347656,12.8293169140625,9.089174006347656,12.1842069140625,10.997464006347656,11.5543769140625C11.285924006347656,11.4582269140625,11.478764006347657,11.267506914062501,11.570524006347657,10.9874869140625L13.390574006347656,5.4616259140625C13.408154006347656,5.4101219140625,13.419404006347657,5.3579149140624995,13.437864006347656,5.2600049140625L13.438214006347657,5.2582469140625L13.438214006347657,5.2564889140624995C13.439794006347656,5.0819389140624995,13.370004006347656,4.9149459140625,13.241864006347656,4.7860989140625C13.101414006347657,4.6449463140625,12.908574006347656,4.5640869140625,12.712934006347655,4.5640869140625C12.641384006347657,4.5640869140625,12.570544006347657,4.5753369140625,12.502344006347656,4.5973096140625L10.997994006347657,5.0810599140625C9.785624006347657,5.4718209140625,8.411354006347656,5.9146169140625,7.066964006347656,6.3405369140625005C6.745114006347656,6.4431869140625,6.564404006347656,6.6194969140625,6.4626240063476565,6.9301069140625C5.825594006347656,8.8823269140625,5.167459006347656,10.8389469140625,4.600735806347656,12.5195969140625C4.4833130063476565,12.8644769140625,4.656634706347656,13.0914069140625,4.828199006347656,13.2772169140625C4.926813006347656,13.3825069140625,5.049685006347656,13.4357669140625,5.193299006347656,13.4357669140625ZM7.743904006347656,7.5057869140625C8.628444006347657,7.2220769140625,11.387534006347657,6.3371969140625,11.737164006347657,6.2248669140625C11.617104006347656,6.5889069140625,11.127724006347655,8.0677569140625,11.122624006347657,8.0832269140625L11.040534006347656,8.3337169140625C10.834694006347657,8.9621369140625,10.621644006347656,9.6119969140625,10.415274006347655,10.2525469140625C10.382934006347657,10.3544969140625,10.341624006347656,10.3972169140625,10.244594006347656,10.4281469140625C9.327354006347656,10.7275069140625,8.398524006347657,11.0345969140625,7.599944006347656,11.2991469140625C6.630674006347656,11.6192469140625,6.336764006347656,11.7164469140625,6.246594006347657,11.7466869140625C6.365244006347656,11.389846914062499,7.321674006347656,8.5121369140625,7.613474006347657,7.6270769140625C7.636154006347656,7.5571169140625,7.664274006347656,7.5310969140625,7.743904006347656,7.5057869140625Z" fill="#FCFDFF" fill-opacity="1"/></g></g></svg>