<svg xmlns="http://www.w3.org/2000/svg" xmlns:xlink="http://www.w3.org/1999/xlink" fill="none" version="1.1" width="16.199951171875" height="16.199951171875" viewBox="0 0 16.199951171875 16.199951171875"><g style="mix-blend-mode:passthrough"><g style="mix-blend-mode:passthrough"><g><ellipse cx="8.09999942779541" cy="8.09999942779541" rx="7.34999942779541" ry="7.34999942779541" fill-opacity="0" stroke-opacity="1" stroke="#FCFDFF" fill="none" stroke-width="1.5"/></g><g><path d="M8.09898564807129,12.74450079284668C7.741322648071289,12.74450079284668,7.450723648071289,12.48005079284668,7.450723648071289,12.154620792846679C7.450723648071289,12.154620792846679,7.450723648071289,6.95181579284668,7.450723648071289,6.95181579284668C7.450723648071289,6.62633679284668,7.741322648071289,6.36189079284668,8.09898564807129,6.36189079284668C8.456643648071289,6.36189079284668,8.747273648071289,6.62633679284668,8.747273648071289,6.95181579284668C8.747273648071289,6.95181579284668,8.747273648071289,12.154620792846679,8.747273648071289,12.154620792846679C8.747273648071289,12.48005079284668,8.456643648071289,12.74450079284668,8.09898564807129,12.74450079284668C8.09898564807129,12.74450079284668,8.09898564807129,12.74450079284668,8.09898564807129,12.74450079284668Z" fill="#FCFDFF" fill-opacity="1"/><path d="M8.79727364807129,12.154620792846679Q8.79727364807129,12.42080079284668,8.59090364807129,12.60858079284668Q8.38657564807129,12.79450079284668,8.09898564807129,12.79450079284668Q7.8113976480712894,12.79450079284668,7.607079648071289,12.60857079284668Q7.400723648071289,12.42080079284668,7.400723648071289,12.154620792846679L7.400723648071289,6.95181579284668Q7.400723648071289,6.685603792846679,7.607078648071289,6.4978187928466795Q7.811393648071289,6.31189079284668,8.09898564807129,6.31189079284668Q8.386579648071288,6.31189079284668,8.59090364807129,6.497817792846679Q8.79727364807129,6.6856047928466795,8.79727364807129,6.95181579284668L8.79727364807129,12.154620792846679ZM8.697273648071288,12.154620792846679L8.697273648071288,6.95181579284668Q8.697273648071288,6.72981379284668,8.523603648071289,6.57177979284668Q8.34789164807129,6.4118907928466795,8.09898564807129,6.4118907928466795Q7.8500826480712895,6.4118907928466795,7.674383648071289,6.57177879284668Q7.500723648071289,6.7298107928466795,7.500723648071289,6.95181579284668L7.500723648071289,12.154620792846679Q7.500723648071289,12.376590792846681,7.674382648071289,12.53461079284668Q7.850085648071289,12.694500792846679,8.09898564807129,12.694500792846679Q8.347888648071288,12.694500792846679,8.523603648071289,12.53461079284668Q8.697273648071288,12.376590792846681,8.697273648071288,12.154620792846679Z" fill="#FCFDFF" fill-opacity="1"/></g><g><path d="M7.295388221740723,4.260199282821655C7.295388221740723,4.704640282821655,7.6556962217407225,5.0649502828216555,8.100147221740723,5.0649502828216555C8.544598221740722,5.0649502828216555,8.904908221740722,4.704640282821655,8.904908221740722,4.260199282821655C8.904908221740722,3.815735282821655,8.544598221740722,3.4554402828217015,8.100147221740723,3.4554402828217015C7.6556962217407225,3.4554402828217015,7.295388221740723,3.815735282821655,7.295388221740723,4.260199282821655C7.295388221740723,4.260199282821655,7.295388221740723,4.260199282821655,7.295388221740723,4.260199282821655Z" fill="#FCFDFF" fill-opacity="1"/></g></g><g></g></g></svg>