<svg xmlns="http://www.w3.org/2000/svg" xmlns:xlink="http://www.w3.org/1999/xlink" fill="none" version="1.1" width="4.999997138977051" height="10" viewBox="0 0 4.999997138977051 10"><g><path d="M4.41763,9.99999C4.58328,9.99999,4.69373,9.93732,4.80417,9.81197C5.02505,9.56126,4.96985,9.18518,4.74896,8.93447C4.74896,8.93447,1.21484,5.29916,1.21484,5.29916C1.10437,5.17381,1.04919,5.04846,1.04919,4.9231C1.04919,4.79774,1.10437,4.67239,1.21484,4.54704C1.21484,4.54704,4.80417,1.09976,4.80417,1.09976C5.02505,0.849052,5.08026,0.472984,4.85938,0.222282C4.63849,-0.0284272,4.30719,-0.0911103,4.0863,0.159599C4.0863,0.159599,0.552185,3.60686,0.552185,3.60686C0.220886,3.92025,0,4.42167,0,4.9231C0,5.42453,0.165649,5.86327,0.496948,6.23934C0.496948,6.23934,4.03107,9.87463,4.03107,9.87463C4.14154,9.93732,4.30719,10,4.41763,10C4.41763,10,4.41763,9.99999,4.41763,9.99999Z" fill="#363940" fill-opacity="1"/></g></svg>