<svg xmlns="http://www.w3.org/2000/svg" xmlns:xlink="http://www.w3.org/1999/xlink" fill="none" version="1.1" width="15" height="8" viewBox="0 0 15 8"><g><path d="M14.8088,4.57778L13.232,2.94625C13.8473,2.34935,14.4242,1.67285,14.8858,0.916785C15.0396,0.638238,14.9627,0.280097,14.6934,0.0811244C14.4242,-0.078043,14.0781,0.0015316,13.8858,0.280097C12.5012,2.62789,10.1166,4.02067,7.46286,4.02067C4.84753,4.02067,2.42451,2.62789,1.07838,0.319885C0.924544,0.0413371,0.539943,-0.0382557,0.270707,0.120912C0.00148858,0.280097,-0.0754387,0.678025,0.0784159,0.956572C0.539944,1.71266,1.07838,2.38913,1.73222,2.98603L0.193798,4.57778C-0.036966,4.81654,-0.036966,5.17468,0.193798,5.41344C0.30918,5.53282,0.463016,5.57261,0.616853,5.57261C0.77069,5.57261,0.924544,5.53282,1.03993,5.41344L2.69373,3.70232C3.38602,4.17984,4.15524,4.57778,4.96291,4.81654L4.34755,7.24393C4.27062,7.56229,4.46293,7.88062,4.7706,7.96021C4.80907,7.96021,4.88598,8,4.92446,8C5.19368,8,5.42444,7.84083,5.46289,7.56228L6.11673,5.09509C6.57826,5.17468,7.03979,5.21447,7.53977,5.21447C8.03977,5.21447,8.53975,5.17468,9.03973,5.09509L9.69357,7.56229C9.7705,7.84083,10.0013,8,10.232,8C10.2705,8,10.3474,8,10.3859,7.96021C10.6936,7.88062,10.8858,7.56229,10.8089,7.24393L10.1936,4.77674C11.0012,4.53798,11.732,4.14005,12.4243,3.66253L14.0781,5.37364C14.1935,5.49302,14.3473,5.53282,14.5012,5.53282C14.655,5.53282,14.8088,5.49302,14.9242,5.37364C15.0396,5.17468,15.0396,4.81654,14.8088,4.57778Z" fill="#303433" fill-opacity="1"/></g></svg>