<svg xmlns="http://www.w3.org/2000/svg" xmlns:xlink="http://www.w3.org/1999/xlink" fill="none" version="1.1" width="16.199951171875" height="17.10009765625" viewBox="0 0 16.199951171875 17.10009765625"><g style="mix-blend-mode:passthrough"><g><path d="M14.7,2.1375L14.7,14.9278L13.9884,14.4296Q12.8317,13.4135,11.6748,14.4181L10.4625,15.2311L9.25029,14.4182Q8.09994,13.419,6.9497,14.4182L5.73751,15.2311L4.52526,14.4182Q3.36843,13.4134,2.21163,14.4296L1.5,14.9278L1.5,2.1375Q1.5,1.5,2.24999,1.5L13.6125,1.5Q14.3282,1.5,14.5736,1.72811Q14.7,1.84561,14.7,2.1375ZM9.78834,15.682L9.78919,15.6826L10.0049,15.538Q9.89659,15.5962,9.78834,15.682ZM5.06335,15.682L5.0642,15.6826L5.27981,15.538Q5.17158,15.5962,5.06335,15.682ZM6.41082,15.6826L6.41167,15.682Q6.30346,15.5963,6.19526,15.538L6.41082,15.6826ZM11.1358,15.6826L11.1366,15.682Q11.0285,15.5963,10.9203,15.5381L11.1358,15.6826ZM0,2.1375C0,0.961875,1.01251,0,2.24999,0L13.6125,0L13.6125,0C15.4486,0,16.2,0.965928,16.2,2.1375L16.2,17.1L15.1875,17.1L13.05,15.6038C12.9375,15.4969,12.7125,15.4969,12.6,15.6038L10.6875,16.8862C10.575,16.9931,10.35,16.9931,10.2375,16.8862L8.32501,15.6038C8.21251,15.4969,7.98749,15.4969,7.87501,15.6038L5.9625,16.8862C5.85001,16.9931,5.62502,16.9931,5.51252,16.8862L3.60001,15.6038C3.48751,15.4969,3.26251,15.4969,3.15001,15.6038L1.01251,17.1L0,17.1L0,2.1375Z" fill-rule="evenodd" fill="#303433" fill-opacity="1"/></g><g><rect x="2.7003636360168457" y="4.5" width="7.1999993324279785" height="1.350000023841858" rx="0.675000011920929" fill="#303433" fill-opacity="1"/></g><g><rect x="2.7003636360168457" y="7.649835586547852" width="5.399999618530273" height="1.350000023841858" rx="0.675000011920929" fill="#303433" fill-opacity="1"/></g><g><rect x="2.6999998092651367" y="10.800000190734863" width="9.899998664855957" height="1.350000023841858" rx="0.675000011920929" fill="#303433" fill-opacity="1"/></g></g></svg>