<svg width="14" height="14" viewBox="0 0 14 14" fill="none" xmlns="http://www.w3.org/2000/svg">
<path fill-rule="evenodd" clip-rule="evenodd" d="M7 12.05C9.78904 12.05 12.05 9.78904 12.05 7C12.05 4.21096 9.78904 1.95 7 1.95C4.21096 1.95 1.95 4.21096 1.95 7C1.95 9.78904 4.21096 12.05 7 12.05ZM7 14C10.866 14 14 10.866 14 7C14 3.13401 10.866 0 7 0C3.13401 0 0 3.13401 0 7C0 10.866 3.13401 14 7 14Z" fill="#06CCAB"/>
<path d="M7.00015 11.259C6.44775 11.259 6 10.8114 6 10.259C6 9.70679 6.44775 9.25919 7.00015 9.25919C7.55222 9.25919 8 9.70677 8 10.259C7.99997 10.8114 7.55222 11.259 7.00015 11.259ZM7.00015 8.93988C6.53813 8.93988 6.16237 8.56414 6.16237 8.10209V3.83748C6.16237 3.37569 6.53813 3 7.00015 3C7.46187 3 7.83763 3.37569 7.83763 3.83748V8.10207C7.83761 8.56414 7.46187 8.93988 7.00015 8.93988Z" fill="#06CCAB"/>
</svg>
