<svg width="18" height="18" viewBox="0 0 18 18" fill="none" xmlns="http://www.w3.org/2000/svg">
<path opacity="0.25" d="M12.4118 9L17.529 3.88278C18.157 3.25483 18.157 2.2367 17.529 1.60824L16.3918 0.470966C15.7638 -0.156989 14.7457 -0.156989 14.1172 0.470966L9 5.58818L3.88278 0.470966C3.25483 -0.156989 2.2367 -0.156989 1.60824 0.470966L0.470966 1.60824C-0.156989 2.23619 -0.156989 3.25432 0.470966 3.88278L5.58818 9L0.470966 14.1172C-0.156989 14.7452 -0.156989 15.7633 0.470966 16.3918L1.60824 17.529C2.23619 18.157 3.25483 18.157 3.88278 17.529L9 12.4118L14.1172 17.529C14.7452 18.157 15.7638 18.157 16.3918 17.529L17.529 16.3918C18.157 15.7638 18.157 14.7457 17.529 14.1172L12.4118 9Z" fill="black"/>
</svg>
