<svg width="19" height="19" viewBox="0 0 19 19" fill="none" xmlns="http://www.w3.org/2000/svg">
<path d="M17.6429 7.46429H11.5357V1.35714C11.5357 0.607746 10.928 0 10.1786 0H8.82143C8.07203 0 7.46429 0.607746 7.46429 1.35714V7.46429H1.35714C0.607746 7.46429 0 8.07203 0 8.82143V10.1786C0 10.928 0.607746 11.5357 1.35714 11.5357H7.46429V17.6429C7.46429 18.3923 8.07203 19 8.82143 19H10.1786C10.928 19 11.5357 18.3923 11.5357 17.6429V11.5357H17.6429C18.3923 11.5357 19 10.928 19 10.1786V8.82143C19 8.07203 18.3923 7.46429 17.6429 7.46429Z" fill="#06CCAB"/>
</svg>
