<svg width="19" height="19" viewBox="0 0 19 19" fill="none" xmlns="http://www.w3.org/2000/svg">
<path d="M16.0312 11.875H14.8438C14.6863 11.875 14.5353 11.9376 14.4239 12.0489C14.3126 12.1603 14.25 12.3113 14.25 12.4688V16.625H2.375V4.75H7.71875C7.87622 4.75 8.02724 4.68744 8.13859 4.57609C8.24994 4.46475 8.3125 4.31372 8.3125 4.15625V2.96875C8.3125 2.81128 8.24994 2.66026 8.13859 2.54891C8.02724 2.43756 7.87622 2.375 7.71875 2.375H1.78125C1.30883 2.375 0.855765 2.56267 0.521716 2.89672C0.187667 3.23077 0 3.68383 0 4.15625L0 17.2188C0 17.6912 0.187667 18.1442 0.521716 18.4783C0.855765 18.8123 1.30883 19 1.78125 19H14.8438C15.3162 19 15.7692 18.8123 16.1033 18.4783C16.4373 18.1442 16.625 17.6912 16.625 17.2188V12.4688C16.625 12.3113 16.5624 12.1603 16.4511 12.0489C16.3397 11.9376 16.1887 11.875 16.0312 11.875ZM18.1094 0H13.3594C12.5663 0 12.17 0.961504 12.7285 1.52148L14.0544 2.8474L5.00977 11.8887C4.92674 11.9715 4.86086 12.0698 4.8159 12.178C4.77095 12.2863 4.74781 12.4024 4.74781 12.5196C4.74781 12.6368 4.77095 12.7529 4.8159 12.8611C4.86086 12.9694 4.92674 13.0677 5.00977 13.1504L5.85104 13.9902C5.93378 14.0733 6.0321 14.1391 6.14035 14.1841C6.24861 14.229 6.36468 14.2522 6.48189 14.2522C6.59911 14.2522 6.71518 14.229 6.82344 14.1841C6.93169 14.1391 7.03001 14.0733 7.11275 13.9902L16.153 4.94742L17.4785 6.27148C18.0352 6.82812 19 6.43848 19 5.64062V0.890625C19 0.654417 18.9062 0.427883 18.7391 0.260858C18.5721 0.0938334 18.3456 0 18.1094 0V0Z" fill="#06CCAB"/>
</svg>
