<svg width="19" height="19" viewBox="0 0 19 19" fill="none" xmlns="http://www.w3.org/2000/svg">
<path d="M5.63842 14.2522L10.3884 14.2522C11.1815 14.2522 11.5778 13.2907 11.0193 12.7307L9.69337 11.4048L18.738 2.36346C18.8211 2.28072 18.887 2.1824 18.9319 2.07414C18.9769 1.96588 19 1.84982 19 1.7326C19 1.61538 18.9769 1.49931 18.9319 1.39106C18.887 1.2828 18.8211 1.18448 18.738 1.10174L17.8968 0.261953C17.814 0.178923 17.7157 0.113043 17.6075 0.068091C17.4992 0.0231393 17.3831 1.02476e-08 17.2659 0C17.1487 -1.02476e-08 17.0326 0.0231393 16.9244 0.0680909C16.8161 0.113043 16.7178 0.178923 16.6351 0.261953L7.59483 9.30476L6.26928 7.9807C5.71264 7.42406 4.74779 7.81371 4.74779 8.61156L4.74779 13.3616C4.74779 13.5978 4.84163 13.8243 5.00865 13.9913C5.17568 14.1584 5.40221 14.2522 5.63842 14.2522Z" fill="#06CCAB"/>
<path d="M16.0313 11.875H14.8438C14.6863 11.875 14.5353 11.9376 14.4239 12.0489C14.3126 12.1603 14.25 12.3113 14.25 12.4688V16.625H2.375V4.75H7.71876C7.87623 4.75 8.02726 4.68744 8.13861 4.57609C8.24996 4.46475 8.31251 4.31372 8.31251 4.15625V2.96875C8.31251 2.81128 8.24996 2.66026 8.13861 2.54891C8.02726 2.43756 7.87623 2.375 7.71876 2.375H1.78125C1.30883 2.375 0.855766 2.56267 0.521717 2.89672C0.187667 3.23077 0 3.68383 0 4.15625V17.2188C0 17.6912 0.187667 18.1442 0.521717 18.4783C0.855766 18.8123 1.30883 19 1.78125 19H14.8438C15.3162 19 15.7693 18.8123 16.1033 18.4783C16.4374 18.1442 16.625 17.6912 16.625 17.2188V12.4688C16.625 12.3113 16.5625 12.1603 16.4511 12.0489C16.3398 11.9376 16.1887 11.875 16.0313 11.875Z" fill="#06CCAB"/>
</svg>
