<svg width="21" height="22" viewBox="0 0 21 22" fill="none" xmlns="http://www.w3.org/2000/svg">
<path d="M16.5968 2.36151C19.2641 4.32579 21 7.53848 21 11.1746C21 17.146 16.3089 21.9869 10.5212 22C4.74194 22.0131 0.00847547 17.1547 7.7275e-06 11.192C-0.00422614 7.55594 1.73166 4.33452 4.39476 2.36587C4.89013 2.00357 5.58025 2.15635 5.87662 2.70198L6.54557 3.92857C6.79537 4.3869 6.67682 4.96745 6.26613 5.28174C4.50908 6.62618 3.3871 8.75634 3.3871 11.1702C3.38287 15.1992 6.54134 18.5079 10.5 18.5079C14.3782 18.5079 17.6383 15.269 17.6129 11.1266C17.6002 8.86547 16.5671 6.68293 14.7296 5.27737C14.319 4.96309 14.2046 4.38253 14.4544 3.92857L15.1234 2.70198C15.4198 2.16071 16.1056 1.9992 16.5968 2.36151ZM12.1936 11.5238V1.04762C12.1936 0.467063 11.7405 0 11.1774 0H9.82259C9.25948 0 8.80646 0.467063 8.80646 1.04762V11.5238C8.80646 12.1044 9.25948 12.5714 9.82259 12.5714H11.1774C11.7405 12.5714 12.1936 12.1044 12.1936 11.5238Z" fill="#06CCAB"/>
</svg>
