<svg width="22" height="23" viewBox="0 0 22 23" fill="none" xmlns="http://www.w3.org/2000/svg">
<path d="M21.719 14.2637L19.7452 13.123C19.9444 12.0472 19.9444 10.9436 19.7452 9.86775L21.719 8.72703C21.946 8.59719 22.048 8.32824 21.9738 8.07784C21.4595 6.42704 20.5838 4.9339 19.4394 3.69116C19.2633 3.50104 18.9761 3.45467 18.7537 3.58451L16.7799 4.72523C15.9505 4.01112 14.996 3.4593 13.9628 3.09761V0.820806C13.9628 0.56113 13.7821 0.333913 13.5273 0.278268C11.8268 -0.101972 10.0847 -0.083424 8.46769 0.278268C8.21285 0.333913 8.03215 0.56113 8.03215 0.820806V3.10225C7.00356 3.46858 6.04909 4.02039 5.21509 4.72986L3.24593 3.58914C3.0189 3.4593 2.73626 3.50104 2.5602 3.6958C1.41576 4.9339 0.540066 6.42703 0.0257668 8.08247C-0.0529997 8.33287 0.0535668 8.60182 0.2806 8.73166L2.2544 9.87239C2.05516 10.9482 2.05516 12.0518 2.2544 13.1276L0.2806 14.2683C0.0535668 14.3982 -0.0483664 14.6671 0.0257668 14.9175C0.540066 16.5683 1.41576 18.0615 2.5602 19.3042C2.73626 19.4943 3.02353 19.5407 3.24593 19.4109L5.21973 18.2701C6.04909 18.9842 7.00356 19.5361 8.03679 19.8977V22.1792C8.03679 22.4389 8.21749 22.6661 8.47232 22.7217C10.1728 23.102 11.9149 23.0834 13.5319 22.7217C13.7867 22.6661 13.9674 22.4389 13.9674 22.1792V19.8977C14.996 19.5314 15.9505 18.9796 16.7845 18.2701L18.7583 19.4109C18.9853 19.5407 19.268 19.499 19.444 19.3042C20.5885 18.0661 21.4642 16.573 21.9785 14.9175C22.048 14.6625 21.946 14.3935 21.719 14.2637ZM10.9975 15.205C8.95419 15.205 7.29082 13.5403 7.29082 11.4954C7.29082 9.45041 8.95419 7.7857 10.9975 7.7857C13.0408 7.7857 14.7041 9.45041 14.7041 11.4954C14.7041 13.5403 13.0408 15.205 10.9975 15.205Z" fill="#06CCAB"/>
</svg>
