<svg width="22" height="19" viewBox="0 0 22 19" fill="none" xmlns="http://www.w3.org/2000/svg">
<path opacity="0.25" d="M0.785714 3.4898H21.2143C21.6482 3.4898 22 3.14261 22 2.71429V0.77551C22 0.347186 21.6482 0 21.2143 0H0.785714C0.351754 0 0 0.347186 0 0.77551V2.71429C0 3.14261 0.351754 3.4898 0.785714 3.4898ZM0.785714 11.2449H21.2143C21.6482 11.2449 22 10.8977 22 10.4694V8.53061C22 8.10229 21.6482 7.7551 21.2143 7.7551H0.785714C0.351754 7.7551 0 8.10229 0 8.53061V10.4694C0 10.8977 0.351754 11.2449 0.785714 11.2449ZM0.785714 19H21.2143C21.6482 19 22 18.6528 22 18.2245V16.2857C22 15.8574 21.6482 15.5102 21.2143 15.5102H0.785714C0.351754 15.5102 0 15.8574 0 16.2857V18.2245C0 18.6528 0.351754 19 0.785714 19Z" fill="black"/>
</svg>
