<svg xmlns="http://www.w3.org/2000/svg" xmlns:xlink="http://www.w3.org/1999/xlink" fill="none" version="1.1" width="16.2001953125" height="18" viewBox="0 0 16.2001953125 18"><g><g><rect x="0.75" y="0.75" width="14.700008392333984" height="16.5" rx="3.25" fill-opacity="0" stroke-opacity="1" stroke="#FFFFFF" fill="none" stroke-width="1.5"/></g><g><path d="M7.950150715255737,3.5999369621276855C8.814960715255737,3.5999369621276855,9.598230715255738,3.9513939621276855,10.165340715255738,4.519505962127686C10.732330715255738,5.087676962127686,11.083030715255738,5.8725069621276855,11.083030715255738,6.739116962127685C11.083030715255738,7.605676962127686,10.732330715255738,8.390836962127686,10.165340715255738,8.958726962127685C10.023230715255737,9.101056962127686,9.867720715255738,9.229666962127686,9.700660715255736,9.342596962127686C10.362510715255738,9.593416962127685,10.956680715255738,9.981906962127685,11.448460715255738,10.473226962127686C12.345210715255737,11.369726962127686,12.900000715255738,12.607146962127686,12.900000715255738,13.972636962127686C12.900000715255738,14.208536962127685,12.708960715255737,14.399936962127686,12.473270715255737,14.399936962127686C12.237920715255738,14.399936962127686,12.046890715255737,14.208536962127685,12.046890715255737,13.972636962127686C12.046890715255737,12.841306962127685,11.588850715255738,11.817636962127686,10.848430715255738,11.077656962127685C10.108240715255738,10.338026962127685,9.085360715255737,9.879806962127684,7.9552307152557376,9.878296962127685C7.9552307152557376,9.878296962127685,7.950150715255737,9.878296962127685,7.950150715255737,9.878296962127685C7.950150715255737,9.878296962127685,7.9498607152557375,9.878296962127685,7.9498607152557375,9.878296962127685C7.9498607152557375,9.878296962127685,7.9449807152557375,9.878296962127685,7.9449807152557375,9.878296962127685C6.814390715255737,9.879806962127684,5.791540715255737,10.338026962127685,5.051560715255738,11.077656962127685C4.311150715255737,11.817636962127686,3.8530957152557375,12.841306962127685,3.8530957152557375,13.972636962127686C3.8530957152557375,14.208536962127685,3.662069715255737,14.399936962127686,3.4264317152557373,14.399936962127686C3.1910017152557373,14.399936962127686,3.0000007152557373,14.208536962127685,3.0000007152557373,13.972636962127686C3.0000007152557373,12.607146962127686,3.5548007152557375,11.369726962127686,4.451750715255738,10.473226962127686C4.943090715255737,9.981906962127685,5.537260715255737,9.593416962127685,6.199110715255737,9.342576962127685C6.032250715255737,9.229686962127685,5.876750715255737,9.101056962127686,5.734700715255737,8.958726962127685C5.167900715255737,8.390836962127686,4.817190715255737,7.605676962127686,4.817190715255737,6.739106962127686C4.817190715255737,5.8725069621276855,5.167900715255737,5.087676962127686,5.734700715255737,4.519505962127686C6.301700715255738,3.9513939621276855,7.085020715255737,3.5999369621276855,7.950150715255737,3.5999369621276855C7.950150715255737,3.5999369621276855,7.950150715255737,3.5999369621276855,7.950150715255737,3.5999369621276855C7.950150715255737,3.5999369621276855,7.950150715255737,3.5999369621276855,7.950150715255737,3.5999369621276855C7.950150715255737,3.5999369621276855,7.950150715255737,3.5999369621276855,7.950150715255737,3.5999369621276855ZM9.562030715255737,5.124026962127686C9.149590715255737,4.710736962127686,8.579540715255737,4.454720962127686,7.950130715255737,4.454720962127686C7.3206607152557375,4.454720962127686,6.750390715255737,4.710736962127686,6.337970715255738,5.124026962127686C5.925500715255737,5.5372969621276855,5.670020715255737,6.108396962127685,5.670020715255737,6.739126962127686C5.670020715255737,7.369866962127686,5.925500715255737,7.9409669621276855,6.337970715255738,8.354526962127686C6.749160715255737,8.766526962127685,7.317450715255737,9.022026962127686,7.9449807152557375,9.023526962127686C7.9449807152557375,9.023526962127686,7.949840715255737,9.023526962127686,7.949840715255737,9.023526962127686C7.949840715255737,9.023526962127686,7.950130715255737,9.023526962127686,7.950130715255737,9.023526962127686C7.950130715255737,9.023526962127686,7.954990715255737,9.023526962127686,7.954990715255737,9.023526962127686C8.582470715255738,9.022026962127686,9.150710715255737,8.766526962127685,9.561980715255737,8.354526962127686C9.974490715255737,7.9409669621276855,10.229940715255736,7.369846962127685,10.229940715255736,6.739126962127686C10.229940715255736,6.108376962127686,9.974490715255737,5.5372969621276855,9.562030715255737,5.124026962127686C9.562030715255737,5.124026962127686,9.562030715255737,5.124026962127686,9.562030715255737,5.124026962127686C9.562030715255737,5.124026962127686,9.562030715255737,5.124026962127686,9.562030715255737,5.124026962127686Z" fill="#FFFFFF" fill-opacity="1"/><path d="M7.950150715255737,3.3499369621276855Q6.5487707152557375,3.3499369621276855,5.557750715255738,4.342903962127686L5.557720715255737,4.342941962127686Q4.567190715255737,5.335846962127686,4.567190715255737,6.739106962127686Q4.567190715255737,8.142876962127685,5.557750715255738,9.135316962127686Q5.632120715255738,9.209846962127685,5.7105807152557375,9.279336962127687Q4.911730715255738,9.659716962127685,4.275020715255737,10.296396962127686Q2.7500007152557373,11.820656962127686,2.7500007152557373,13.972636962127686Q2.7500007152557373,14.252936962127686,2.947975015255737,14.451336962127685Q3.1461617152557375,14.649936962127686,3.4264317152557373,14.649936962127686Q3.7068117152557374,14.649936962127686,3.905048715255737,14.451336962127685Q4.103100715255737,14.253036962127686,4.103100715255737,13.972636962127686Q4.103100715255737,12.379016962127686,5.228300715255737,11.254476962127686Q6.352870715255737,10.130416962127686,7.9449807152557375,10.128296962127685L7.954900715255738,10.128296962127685Q9.546790715255737,10.130416962127686,10.671700715255739,11.254486962127686Q11.796890715255737,12.379006962127686,11.796890715255737,13.972636962127686Q11.796890715255737,14.252936962127686,11.994870715255738,14.451336962127685Q12.193060715255736,14.649936962127686,12.473270715255737,14.649936962127686Q12.753680715255737,14.649936962127686,12.951930715255738,14.451436962127685Q13.150000715255738,14.253036962127686,13.150000715255738,13.972636962127686Q13.150000715255738,11.820796962127686,11.625160715255737,10.296356962127685Q10.987840715255738,9.659656962127686,10.189320715255738,9.279406962127686Q10.267810715255738,9.209916962127686,10.342250715255737,9.135356962127686Q11.333030715255738,8.143026962127685,11.333030715255738,6.739116962127685Q11.333030715255738,5.3356969621276855,10.342270715255736,4.342886962127686Q9.351080715255737,3.3499369621276855,7.950150715255737,3.3499369621276855ZM5.911660715255737,4.696106962127685L5.911690715255737,4.696066962127686Q6.7561907152557374,3.8499369621276855,7.950150715255737,3.8499369621276855Q9.143710715255736,3.8499369621276855,9.988400715255738,4.6961269621276855Q10.833030715255738,5.5425069621276855,10.833030715255738,6.739116962127685Q10.833030715255738,7.936146962127686,9.988420715255737,8.782086962127686Q9.791160715255737,8.979666962127686,9.560660715255738,9.135466962127685L9.161180715255737,9.405496962127685L9.612060715255737,9.576366962127686Q10.554530715255737,9.933536962127686,11.271770715255737,10.650086962127686Q12.650000715255738,12.027936962127686,12.650000715255738,13.972636962127686Q12.650000715255738,14.149936962127686,12.473270715255737,14.149936962127686Q12.296890715255737,14.149936962127686,12.296890715255737,13.972636962127686Q12.296890715255737,12.171806962127686,11.025150715255737,10.900826962127685Q9.754070715255736,9.630686962127687,7.9555607152557375,9.628296962127685L7.9449807152557375,9.628296962127685Q6.145560715255737,9.630696962127686,4.874820715255737,10.900846962127686Q3.603096715255737,12.171826962127685,3.6030957152557375,13.972636962127686Q3.6030957152557375,14.149936962127686,3.4264317152557373,14.149936962127686Q3.2500007152557373,14.149936962127686,3.2500007152557373,13.972636962127686Q3.2500007152557373,12.027836962127685,4.628480715255737,10.650046962127686Q5.344860715255738,9.933686962127686,6.287710715255738,9.576346962127685L6.738340715255737,9.405556962127687L6.339200715255737,9.135516962127685Q6.108700715255737,8.979566962127684,5.911660715255737,8.782126962127686Q5.067190715255737,7.936046962127685,5.067190715255737,6.739106962127686Q5.067190715255737,5.542636962127686,5.911660715255737,4.696106962127685ZM9.738910715255738,8.531146962127686Q10.479940715255736,7.7882369621276855,10.479940715255736,6.739126962127686Q10.479940715255736,5.689846962127685,9.738980715255737,4.947426962127686Q8.997790715255737,4.204720962127686,7.950130715255737,4.204719962127686Q6.902170715255737,4.204720962127686,6.161010715255737,4.947436962127686Q5.420020715255737,5.689856962127686,5.420020715255737,6.739126962127686Q5.420020715255737,7.788186962127686,6.1609607152557375,8.531066962127685Q6.899480715255738,9.271026962127685,7.944390715255738,9.273526962127686L7.949840715255737,9.273526962127686L7.954990715255737,9.273526962127686Q9.000330715255737,9.271036962127685,9.738910715255738,8.531146962127686ZM9.385070715255736,5.300626962127685Q9.979940715255736,5.896666962127686,9.979940715255736,6.739126962127686Q9.979940715255736,7.5814969621276855,9.385050715255737,8.177906962127686Q8.792470715255737,8.771526962127686,7.954990715255737,8.773526962127686L7.949840715255737,8.773526962127686L7.945580715255737,8.773526962127686Q7.107370715255738,8.771526962127686,6.514980715255737,8.177986962127687Q5.920020715255737,7.581466962127685,5.920020715255737,6.739126962127686Q5.920020715255737,5.896676962127685,6.514930715255737,5.300616962127686Q7.109590715255737,4.704716962127685,7.950130715255737,4.704716962127685Q8.790390715255738,4.704716962127685,9.385070715255736,5.300626962127685Z" fill-rule="evenodd" fill="#FFFFFF" fill-opacity="1"/></g></g></svg>