<svg xmlns="http://www.w3.org/2000/svg" xmlns:xlink="http://www.w3.org/1999/xlink" fill="none" version="1.1" width="197" height="197" viewBox="0 0 197 197"><defs><linearGradient x1="0" y1="-0.04960081726312637" x2="1.0141223669052124" y2="1.0138152837753296" id="master_svg0_1549_26907"><stop offset="0%" stop-color="#0AC7B7" stop-opacity="1"/><stop offset="100%" stop-color="#0ABF92" stop-opacity="1"/></linearGradient><linearGradient x1="0" y1="-0.04960081726312637" x2="1.0141223669052124" y2="1.0138152837753296" id="master_svg1_1549_26907"><stop offset="0%" stop-color="#0AC7B7" stop-opacity="1"/><stop offset="100%" stop-color="#0ABF92" stop-opacity="1"/></linearGradient><linearGradient x1="0" y1="-0.04960081726312637" x2="1.0141223669052124" y2="1.0138152837753296" id="master_svg2_1549_26907"><stop offset="0%" stop-color="#0AC7B7" stop-opacity="1"/><stop offset="100%" stop-color="#0ABF92" stop-opacity="1"/></linearGradient><linearGradient x1="0" y1="-0.04960081726312637" x2="1.0141223669052124" y2="1.0138152837753296" id="master_svg3_1549_26907"><stop offset="0%" stop-color="#0AC7B7" stop-opacity="1"/><stop offset="100%" stop-color="#0ABF92" stop-opacity="1"/></linearGradient></defs><g><g transform="matrix(-1,0,0,1,391,0)"><path d="M199.5,3L219.5,3Q219.5737,3,219.647,2.9927799999999998Q219.7204,2.98555,219.7926,2.97118Q219.8649,2.9568000000000003,219.93540000000002,2.93541Q220.0059,2.91402,220.074,2.88582Q220.1421,2.85762,220.2071,2.82288Q220.2721,2.7881400000000003,220.3334,2.7472000000000003Q220.3946,2.7062600000000003,220.45159999999998,2.65952Q220.5086,2.6127700000000003,220.5607,2.56066Q220.6128,2.50855,220.6595,2.45159Q220.7063,2.394627,220.7472,2.333355Q220.7881,2.272084,220.8229,2.207095Q220.8576,2.142106,220.8858,2.074025Q220.914,2.005944,220.93540000000002,1.935427Q220.9568,1.86491,220.9712,1.792635Q220.9856,1.720361,220.9928,1.6470259999999999Q221,1.5736903,221,1.5Q221,1.4263097,220.9928,1.3529740000000001Q220.9856,1.279639,220.9712,1.207365Q220.9568,1.13509,220.93540000000002,1.064573Q220.914,0.994056,220.8858,0.925975Q220.8576,0.857894,220.8229,0.792905Q220.7881,0.727916,220.7472,0.666645Q220.7063,0.605373,220.6595,0.54841Q220.6128,0.49144999999999994,220.5607,0.43934000000000006Q220.5086,0.38722999999999996,220.45159999999998,0.3404799999999999Q220.3946,0.2937399999999999,220.3334,0.2527999999999999Q220.2721,0.21185999999999994,220.2071,0.17711999999999994Q220.1421,0.14237999999999995,220.074,0.11417999999999995Q220.0059,0.08597999999999995,219.93540000000002,0.06458999999999993Q219.8649,0.043199999999999905,219.7926,0.028820000000000068Q219.7204,0.014450000000000074,219.647,0.007220000000000004Q219.5737,0,219.5,0L199.5,0Q197.22183,0,195.610913,1.610913Q194,3.2218299999999997,194,5.5L194,25.5Q194,25.5737,194.00722,25.647Q194.01445,25.7204,194.02882,25.7926Q194.0432,25.8649,194.06459,25.9354Q194.08598,26.0059,194.11418,26.074Q194.14238,26.1421,194.17712,26.2071Q194.21186,26.2721,194.2528,26.3334Q194.29374,26.3946,194.34048,26.4516Q194.38723,26.5086,194.43934,26.5607Q194.49145,26.6128,194.54841,26.6595Q194.605373,26.7063,194.666645,26.7472Q194.727916,26.7881,194.792905,26.8229Q194.857894,26.8576,194.925975,26.8858Q194.994056,26.914,195.064573,26.9354Q195.13509,26.9568,195.207365,26.9712Q195.279639,26.9856,195.352974,26.9928Q195.4263097,27,195.5,27Q195.5736903,27,195.647026,26.9928Q195.720361,26.9856,195.792635,26.9712Q195.86491,26.9568,195.935427,26.9354Q196.005944,26.914,196.074025,26.8858Q196.142106,26.8576,196.207095,26.8229Q196.272084,26.7881,196.333355,26.7472Q196.394627,26.7063,196.45159,26.6595Q196.50855,26.6128,196.56066,26.5607Q196.61277,26.5086,196.65952,26.4516Q196.70626,26.3946,196.7472,26.3334Q196.78814,26.2721,196.82288,26.2071Q196.85762,26.1421,196.88582,26.074Q196.91402,26.0059,196.93541,25.9354Q196.9568,25.8649,196.97118,25.7926Q196.98555,25.7204,196.99278,25.647Q197,25.5737,197,25.5L197,5.5Q197,3,199.5,3Z" fill-rule="evenodd" fill="url(#master_svg0_1549_26907)" fill-opacity="1"/></g><g><path d="M5.5,3L25.5,3Q25.5737,3,25.647,2.9927799999999998Q25.7204,2.98555,25.7926,2.97118Q25.8649,2.9568000000000003,25.9354,2.93541Q26.0059,2.91402,26.074,2.88582Q26.1421,2.85762,26.2071,2.82288Q26.2721,2.7881400000000003,26.3334,2.7472000000000003Q26.3946,2.7062600000000003,26.4516,2.65952Q26.5086,2.6127700000000003,26.5607,2.56066Q26.6128,2.50855,26.6595,2.45159Q26.7063,2.394627,26.7472,2.333355Q26.7881,2.272084,26.8229,2.207095Q26.8576,2.142106,26.8858,2.074025Q26.914,2.005944,26.9354,1.935427Q26.9568,1.86491,26.9712,1.792635Q26.9856,1.720361,26.9928,1.6470259999999999Q27,1.5736903,27,1.5Q27,1.4263097,26.9928,1.3529740000000001Q26.9856,1.279639,26.9712,1.207365Q26.9568,1.13509,26.9354,1.064573Q26.914,0.994056,26.8858,0.925975Q26.8576,0.857894,26.8229,0.792905Q26.7881,0.727916,26.7472,0.666645Q26.7063,0.605373,26.6595,0.54841Q26.6128,0.49144999999999994,26.5607,0.43934000000000006Q26.5086,0.38722999999999996,26.4516,0.3404799999999999Q26.3946,0.2937399999999999,26.3334,0.2527999999999999Q26.2721,0.21185999999999994,26.2071,0.17711999999999994Q26.1421,0.14237999999999995,26.074,0.11417999999999995Q26.0059,0.08597999999999995,25.9354,0.06458999999999993Q25.8649,0.043199999999999905,25.7926,0.028820000000000068Q25.7204,0.014450000000000074,25.647,0.007220000000000004Q25.5737,0,25.5,0L5.5,0Q3.2218299999999997,0,1.610913,1.610913Q0,3.2218299999999997,0,5.5L0,25.5Q0,25.5737,0.007220000000000004,25.647Q0.014450000000000074,25.7204,0.028820000000000068,25.7926Q0.043199999999999905,25.8649,0.06458999999999993,25.9354Q0.08597999999999995,26.0059,0.11417999999999995,26.074Q0.14237999999999995,26.1421,0.17711999999999994,26.2071Q0.21185999999999994,26.2721,0.2527999999999999,26.3334Q0.2937399999999999,26.3946,0.3404799999999999,26.4516Q0.38722999999999996,26.5086,0.43934000000000006,26.5607Q0.49144999999999994,26.6128,0.54841,26.6595Q0.605373,26.7063,0.666645,26.7472Q0.727916,26.7881,0.792905,26.8229Q0.857894,26.8576,0.925975,26.8858Q0.994056,26.914,1.064573,26.9354Q1.13509,26.9568,1.207365,26.9712Q1.279639,26.9856,1.3529740000000001,26.9928Q1.4263097,27,1.5,27Q1.5736903,27,1.6470259999999999,26.9928Q1.720361,26.9856,1.792635,26.9712Q1.86491,26.9568,1.935427,26.9354Q2.005944,26.914,2.074025,26.8858Q2.142106,26.8576,2.207095,26.8229Q2.272084,26.7881,2.333355,26.7472Q2.394627,26.7063,2.45159,26.6595Q2.50855,26.6128,2.56066,26.5607Q2.6127700000000003,26.5086,2.65952,26.4516Q2.7062600000000003,26.3946,2.7472000000000003,26.3334Q2.7881400000000003,26.2721,2.82288,26.2071Q2.85762,26.1421,2.88582,26.074Q2.91402,26.0059,2.93541,25.9354Q2.9568000000000003,25.8649,2.97118,25.7926Q2.98555,25.7204,2.9927799999999998,25.647Q3,25.5737,3,25.5L3,5.5Q3,3,5.5,3Z" fill-rule="evenodd" fill="url(#master_svg1_1549_26907)" fill-opacity="1"/></g><g transform="matrix(-1,0,0,-1,391,391)"><path d="M199.5,197L219.5,197Q219.5737,197,219.647,196.99278Q219.7204,196.98555,219.7926,196.97118Q219.8649,196.9568,219.93540000000002,196.93541Q220.0059,196.91402,220.074,196.88582Q220.1421,196.85762,220.2071,196.82288Q220.2721,196.78814,220.3334,196.7472Q220.3946,196.70626,220.45159999999998,196.65952Q220.5086,196.61277,220.5607,196.56066Q220.6128,196.50855,220.6595,196.45159Q220.7063,196.394627,220.7472,196.333355Q220.7881,196.272084,220.8229,196.207095Q220.8576,196.142106,220.8858,196.074025Q220.914,196.005944,220.93540000000002,195.935427Q220.9568,195.86491,220.9712,195.792635Q220.9856,195.720361,220.9928,195.647026Q221,195.5736903,221,195.5Q221,195.4263097,220.9928,195.352974Q220.9856,195.279639,220.9712,195.207365Q220.9568,195.13509,220.93540000000002,195.064573Q220.914,194.994056,220.8858,194.925975Q220.8576,194.857894,220.8229,194.792905Q220.7881,194.727916,220.7472,194.666645Q220.7063,194.605373,220.6595,194.54841Q220.6128,194.49145,220.5607,194.43934Q220.5086,194.38723,220.45159999999998,194.34048Q220.3946,194.29374,220.3334,194.2528Q220.2721,194.21186,220.2071,194.17712Q220.1421,194.14238,220.074,194.11418Q220.0059,194.08598,219.93540000000002,194.06459Q219.8649,194.0432,219.7926,194.02882Q219.7204,194.01445,219.647,194.00722Q219.5737,194,219.5,194L199.5,194Q197.22183,194,195.610913,195.610913Q194,197.22183,194,199.5L194,219.5Q194,219.5737,194.00722,219.647Q194.01445,219.7204,194.02882,219.7926Q194.0432,219.8649,194.06459,219.93540000000002Q194.08598,220.0059,194.11418,220.074Q194.14238,220.1421,194.17712,220.2071Q194.21186,220.2721,194.2528,220.3334Q194.29374,220.3946,194.34048,220.45159999999998Q194.38723,220.5086,194.43934,220.5607Q194.49145,220.6128,194.54841,220.6595Q194.605373,220.7063,194.666645,220.7472Q194.727916,220.7881,194.792905,220.8229Q194.857894,220.8576,194.925975,220.8858Q194.994056,220.914,195.064573,220.93540000000002Q195.13509,220.9568,195.207365,220.9712Q195.279639,220.9856,195.352974,220.9928Q195.4263097,221,195.5,221Q195.5736903,221,195.647026,220.9928Q195.720361,220.9856,195.792635,220.9712Q195.86491,220.9568,195.935427,220.93540000000002Q196.005944,220.914,196.074025,220.8858Q196.142106,220.8576,196.207095,220.8229Q196.272084,220.7881,196.333355,220.7472Q196.394627,220.7063,196.45159,220.6595Q196.50855,220.6128,196.56066,220.5607Q196.61277,220.5086,196.65952,220.45159999999998Q196.70626,220.3946,196.7472,220.3334Q196.78814,220.2721,196.82288,220.2071Q196.85762,220.1421,196.88582,220.074Q196.91402,220.0059,196.93541,219.93540000000002Q196.9568,219.8649,196.97118,219.7926Q196.98555,219.7204,196.99278,219.647Q197,219.5737,197,219.5L197,199.5Q197,197,199.5,197Z" fill-rule="evenodd" fill="url(#master_svg2_1549_26907)" fill-opacity="1"/></g><g transform="matrix(1,0,0,-1,0,391)"><path d="M5.5,197L25.5,197Q25.5737,197,25.647,196.99278Q25.7204,196.98555,25.7926,196.97118Q25.8649,196.9568,25.9354,196.93541Q26.0059,196.91402,26.074,196.88582Q26.1421,196.85762,26.2071,196.82288Q26.2721,196.78814,26.3334,196.7472Q26.3946,196.70626,26.4516,196.65952Q26.5086,196.61277,26.5607,196.56066Q26.6128,196.50855,26.6595,196.45159Q26.7063,196.394627,26.7472,196.333355Q26.7881,196.272084,26.8229,196.207095Q26.8576,196.142106,26.8858,196.074025Q26.914,196.005944,26.9354,195.935427Q26.9568,195.86491,26.9712,195.792635Q26.9856,195.720361,26.9928,195.647026Q27,195.5736903,27,195.5Q27,195.4263097,26.9928,195.352974Q26.9856,195.279639,26.9712,195.207365Q26.9568,195.13509,26.9354,195.064573Q26.914,194.994056,26.8858,194.925975Q26.8576,194.857894,26.8229,194.792905Q26.7881,194.727916,26.7472,194.666645Q26.7063,194.605373,26.6595,194.54841Q26.6128,194.49145,26.5607,194.43934Q26.5086,194.38723,26.4516,194.34048Q26.3946,194.29374,26.3334,194.2528Q26.2721,194.21186,26.2071,194.17712Q26.1421,194.14238,26.074,194.11418Q26.0059,194.08598,25.9354,194.06459Q25.8649,194.0432,25.7926,194.02882Q25.7204,194.01445,25.647,194.00722Q25.5737,194,25.5,194L5.5,194Q3.2218299999999997,194,1.610913,195.610913Q0,197.22183,0,199.5L0,219.5Q0,219.5737,0.007220000000000004,219.647Q0.014450000000000074,219.7204,0.028820000000000068,219.7926Q0.043199999999999905,219.8649,0.06458999999999993,219.93540000000002Q0.08597999999999995,220.0059,0.11417999999999995,220.074Q0.14237999999999995,220.1421,0.17711999999999994,220.2071Q0.21185999999999994,220.2721,0.2527999999999999,220.3334Q0.2937399999999999,220.3946,0.3404799999999999,220.45159999999998Q0.38722999999999996,220.5086,0.43934000000000006,220.5607Q0.49144999999999994,220.6128,0.54841,220.6595Q0.605373,220.7063,0.666645,220.7472Q0.727916,220.7881,0.792905,220.8229Q0.857894,220.8576,0.925975,220.8858Q0.994056,220.914,1.064573,220.93540000000002Q1.13509,220.9568,1.207365,220.9712Q1.279639,220.9856,1.3529740000000001,220.9928Q1.4263097,221,1.5,221Q1.5736903,221,1.6470259999999999,220.9928Q1.720361,220.9856,1.792635,220.9712Q1.86491,220.9568,1.935427,220.93540000000002Q2.005944,220.914,2.074025,220.8858Q2.142106,220.8576,2.207095,220.8229Q2.272084,220.7881,2.333355,220.7472Q2.394627,220.7063,2.45159,220.6595Q2.50855,220.6128,2.56066,220.5607Q2.6127700000000003,220.5086,2.65952,220.45159999999998Q2.7062600000000003,220.3946,2.7472000000000003,220.3334Q2.7881400000000003,220.2721,2.82288,220.2071Q2.85762,220.1421,2.88582,220.074Q2.91402,220.0059,2.93541,219.93540000000002Q2.9568000000000003,219.8649,2.97118,219.7926Q2.98555,219.7204,2.9927799999999998,219.647Q3,219.5737,3,219.5L3,199.5Q3,197,5.5,197Z" fill-rule="evenodd" fill="url(#master_svg3_1549_26907)" fill-opacity="1"/></g></g></svg>