<svg xmlns="http://www.w3.org/2000/svg" xmlns:xlink="http://www.w3.org/1999/xlink" fill="none" version="1.1" width="60" height="60" viewBox="0 0 60 60"><g style="mix-blend-mode:passthrough"><g style="opacity:0.15000000596046448;"><path d="M0,30C0,46.5685,13.4315,60,30,60C46.5685,60,60,46.5685,60,30C60,13.4315,46.5685,0,30,0C13.4315,0,0,13.4315,0,30Z" fill="#67EBB2" fill-opacity="1"/></g><g><path d="M30.000370747375488,50.57137074737549C21.68007074737549,50.571470747375486,14.179080747375489,45.559470747375485,10.995050747375489,37.872370747375484C7.811020747375489,30.185370747375487,9.571041747375489,21.337170747375488,15.454400747375487,15.453820747375488C23.48787074737549,7.420150747375488,36.512770747375484,7.420150747375488,44.54627074737549,15.453820747375488C52.57977074737549,23.48747074737549,52.57977074737549,36.51267074737549,44.54627074737549,44.54637074737549C40.69697074737549,48.41687074737549,35.45907074737549,50.58637074737549,30.000370747375488,50.57137074737549ZM21.55917074737549,28.265770747375488C20.56877074737549,28.265770747375488,19.675670747375488,28.86147074737549,19.29496074737549,29.77577074737549C18.91429074737549,30.69007074737549,19.12085074737549,31.74357074737549,19.81857074737549,32.446470747375486L26.14177074737549,38.81957074737549C26.93727074737549,39.62097074737549,28.23327074737549,39.62097074737549,29.02877074737549,38.81957074737549L40.305570747375484,27.48167074737549C41.06827074737549,26.712470747375487,41.09477074737549,25.480670747375488,40.36587074737549,24.679370747375486C39.636970747375486,23.87807074737549,38.40807074737549,23.78827074737549,37.57037074737549,24.47507074737549L28.90697074737549,31.601470747375487C28.141170747375487,32.23207074737549,27.03217074737549,32.21797074737549,26.282570747375487,31.56827074737549L23.161370747375486,28.864670747375488C22.71667074737549,28.47887074737549,22.14787074737549,28.26627074737549,21.55917074737549,28.265770747375488Z" fill="#06CCAB" fill-opacity="1"/></g></g></svg>