<svg xmlns="http://www.w3.org/2000/svg" xmlns:xlink="http://www.w3.org/1999/xlink" fill="none" version="1.1" width="18" height="18" viewBox="0 0 18 18"><g style="mix-blend-mode:passthrough"><g style="mix-blend-mode:passthrough"><g><path d="M15.599636030197143,2.5875549137592317L15.599636030197143,15.377854913759231L14.869536030197144,14.866754913759232Q14.385236030197143,14.473654913759232,13.724636030197143,14.473654913759232Q13.074936030197144,14.473654913759232,12.595736030197143,14.853854913759232L11.362136030197144,15.681154913759231L10.128546030197144,14.853854913759232Q9.649366030197143,14.473654913759232,8.999646030197143,14.473654913759232Q8.349896030197144,14.473654913759232,7.870726030197144,14.853954913759232L6.637146030197144,15.681154913759231L5.403526030197144,14.853854913759232Q4.924346030197143,14.473654913759232,4.274646030197143,14.473654913759232Q3.6140260301971434,14.473654913759232,3.1297060301971436,14.866754913759232L2.3996360301971436,15.377854913759231L2.3996360301971436,2.5875549137592317Q2.3996360301971436,2.3498049137592316,2.5936960301971435,2.1654449137592318Q2.8204260301971438,1.9500549137592316,3.1496260301971435,1.9500549137592316L14.512136030197144,1.9500549137592316L14.512136030197144,1.9500549137592316Q15.227836030197144,1.9500549137592316,15.473236030197144,2.1781649137592316Q15.599636030197143,2.2956649137592313,15.599636030197143,2.5875549137592317ZM0.8996360301971436,2.5875549137592317C0.8996360301971436,1.4119299137592316,1.9121460301971436,0.45005491375923157,3.1496260301971435,0.45005491375923157L14.512136030197144,0.45005491375923157L14.512136030197144,0.45005491375923157C16.348236030197143,0.45005491375923157,17.099636030197143,1.4159829137592315,17.099636030197143,2.5875549137592317L17.099636030197143,17.550054913759233L16.087136030197144,17.550054913759233L13.949636030197144,16.05385491375923C13.837136030197144,15.946954913759232,13.612136030197144,15.946954913759232,13.499636030197143,16.05385491375923L11.587136030197144,17.33625491375923C11.474636030197143,17.44315491375923,11.249636030197143,17.44315491375923,11.137136030197144,17.33625491375923L9.224646030197144,16.05385491375923C9.112146030197144,15.946954913759232,8.887126030197145,15.946954913759232,8.774646030197143,16.05385491375923L6.862136030197144,17.33625491375923C6.749646030197144,17.44315491375923,6.524656030197144,17.44315491375923,6.412156030197144,17.33625491375923L4.499646030197144,16.05385491375923C4.387146030197144,15.946954913759232,4.162146030197143,15.946954913759232,4.0496460301971435,16.05385491375923L1.9121460301971436,17.550054913759233L0.8996360301971436,17.550054913759233L0.8996360301971436,2.5875549137592317Z" fill-rule="evenodd" fill="#FCFDFF" fill-opacity="1"/></g><g><rect x="3.5999996662139893" y="4.950054913759232" width="7.1999993324279785" height="1.350000023841858" rx="0.675000011920929" fill="#FCFDFF" fill-opacity="1"/></g><g><rect x="3.5999996662139893" y="8.099890500307083" width="5.399999618530273" height="1.350000023841858" rx="0.675000011920929" fill="#FCFDFF" fill-opacity="1"/></g><g><rect x="3.5996358394622803" y="11.250055104494095" width="9.899998664855957" height="1.350000023841858" rx="0.675000011920929" fill="#FCFDFF" fill-opacity="1"/></g></g><g></g></g></svg>