<svg xmlns="http://www.w3.org/2000/svg" xmlns:xlink="http://www.w3.org/1999/xlink" fill="none" version="1.1" width="12.000006675720215" height="12" viewBox="0 0 12.000006675720215 12"><g><path d="M4.26317,0.00000610352C4.26317,0.00000610352,10.8947,0.00000610352,10.8947,0.00000610352C11.5052,0.00000610352,12,0.494849,12,1.10527C12,1.10527,12,7.73685,12,7.73685C12,8.34727,11.5052,8.84211,10.8947,8.84211C10.8947,8.84211,4.26317,8.84211,4.26317,8.84211C3.65274,8.84211,3.1579,8.34727,3.1579,7.73685C3.1579,7.73685,3.1579,1.10526,3.1579,1.10526C3.1579,0.494843,3.65274,0,4.26317,0C4.26317,0,4.26317,0.00000610352,4.26317,0.00000610352ZM4.26317,0.947376C4.17596,0.947376,4.10527,1.01807,4.10527,1.10527C4.10527,1.10527,4.10527,7.73685,4.10527,7.73685C4.10527,7.82405,4.17596,7.89474,4.26317,7.89474C4.26317,7.89474,10.8947,7.89474,10.8947,7.89474C10.9819,7.89474,11.0526,7.82405,11.0526,7.73685C11.0526,7.73685,11.0526,1.10526,11.0526,1.10526C11.0526,1.01805,10.9819,0.94737,10.8947,0.94737C10.8947,0.94737,4.26317,0.94737,4.26317,0.94737C4.26317,0.94737,4.26317,0.947376,4.26317,0.947376ZM7.89474,9.78948C7.89474,9.52787,8.10681,9.31579,8.36843,9.31579C8.63003,9.31579,8.84211,9.52787,8.84211,9.78948C8.84211,9.78948,8.84211,10.8947,8.84211,10.8947C8.84211,11.5052,8.34726,12,7.73685,12C7.73685,12,1.10526,12,1.10526,12C0.494843,12,0,11.5052,0,10.8947C0,10.8947,0,4.26317,0,4.26317C0,3.65274,0.494843,3.1579,1.10526,3.1579C1.10526,3.1579,2.21052,3.1579,2.21052,3.1579C2.47213,3.1579,2.68421,3.36998,2.68421,3.63158C2.68421,3.8932,2.47213,4.10527,2.21052,4.10527C2.21052,4.10527,1.10526,4.10527,1.10526,4.10527C1.01805,4.10527,0.94737,4.17596,0.94737,4.26317C0.94737,4.26317,0.94737,10.8947,0.94737,10.8947C0.94737,10.9819,1.01805,11.0526,1.10526,11.0526C1.10526,11.0526,7.73684,11.0526,7.73684,11.0526C7.82404,11.0526,7.89474,10.9819,7.89474,10.8947C7.89474,10.8947,7.89474,9.78948,7.89474,9.78948C7.89474,9.78948,7.89474,9.78948,7.89474,9.78948Z" fill="#FCFDFF" fill-opacity="1"/></g></svg>