<svg xmlns="http://www.w3.org/2000/svg" xmlns:xlink="http://www.w3.org/1999/xlink" fill="none" version="1.1" width="16" height="16" viewBox="0 0 16 16"><g><g><g><path d="M6.184338660736084,2.080008888249004L12.815908660736085,2.080008888249004C13.426328660736084,2.080008888249004,13.921178660736084,2.574851784729004,13.921178660736084,3.185272784729004L13.921178660736084,9.816852784729004C13.921178660736084,10.427272784729004,13.426328660736084,10.922112784729004,12.815908660736085,10.922112784729004L6.184338660736084,10.922112784729004C5.573911660736084,10.922112784729004,5.079068660736084,10.427272784729004,5.079068660736084,9.816852784729004L5.079068660736084,3.185262784729004C5.079068660736084,2.574845784729004,5.573911660736084,2.080002784729004,6.184338660736084,2.080002784729004L6.184338660736084,2.080008888249004ZM6.199068660736084,9.802112784729005L6.199068660736084,3.2000127847290036L12.801178660736085,3.2000127847290036L12.801178660736085,9.802112784729005L6.199068660736084,9.802112784729005Z" fill-rule="evenodd" fill="#F0F5F5" fill-opacity="1"/></g><g><path d="M4.126248660736084,6.132502841949463L3.2312986607360843,6.132502841949463Q3.191568660736084,6.132502841949463,3.191568660736084,6.172232841949463L3.191568660736084,12.767772841949462Q3.191568660736084,12.807502841949463,3.2312986607360843,12.807502841949463L9.827648660736084,12.807502841949463Q9.867378660736083,12.807502841949463,9.867378660736083,12.767772841949462L9.867378660736083,11.866662841949463C9.867378660736083,11.559452841949463,10.116428660736084,11.310412841949463,10.423638660736083,11.310412841949463C10.730838660736085,11.310412841949463,10.979888660736083,11.559452841949463,10.979888660736083,11.866662841949463L10.979888660736083,12.767772841949462Q10.979888660736083,13.245042841949463,10.642398660736085,13.582522841949462Q10.304918660736083,13.920002841949463,9.827648660736084,13.920002841949463L3.2312986607360843,13.920002841949463Q2.754031660736084,13.920002841949463,2.416549660736084,13.582522841949462Q2.079068660736084,13.245042841949463,2.079068660736084,12.767772841949462L2.079068660736084,6.172232841949463Q2.079068719941584,5.694964841949463,2.416549660736084,5.357483841949463Q2.754030660736084,5.020002841949463,3.2312986607360843,5.020002841949463L4.126248660736084,5.020002841949463C4.433448660736084,5.020002841949463,4.6824986607360835,5.269044841949463,4.6824986607360835,5.576252841949463C4.6824986607360835,5.8834608419494625,4.433448660736084,6.132502841949463,4.126248660736084,6.132502841949463Z" fill-rule="evenodd" fill="#F0F5F5" fill-opacity="1"/></g></g></g></svg>