<svg xmlns="http://www.w3.org/2000/svg" xmlns:xlink="http://www.w3.org/1999/xlink" fill="none" version="1.1" width="20" height="20" viewBox="0 0 20 20"><g><g><ellipse cx="10" cy="10" rx="10" ry="10" fill="#FFFFFF" fill-opacity="0.03999999910593033"/><path d="M20,10Q20,10.2455,19.988,10.4907Q19.9759,10.7359,19.9518,10.9802Q19.9278,11.2245,19.8918,11.4673Q19.8557,11.7101,19.8078,11.9509Q19.76,12.1917,19.7003,12.4298Q19.6407,12.6679,19.5694,12.9028Q19.4981,13.1378,19.4154,13.3689Q19.3327,13.6,19.2388,13.8268Q19.1448,14.0536,19.0399,14.2755Q18.9349,14.4975,18.8192,14.714Q18.7035,14.9305,18.5773,15.141Q18.4511,15.3516,18.3147,15.5557Q18.1783,15.7598,18.0321,15.957Q17.8858,16.1542,17.7301,16.3439Q17.5744,16.5337,17.4095,16.7156Q17.2446,16.8975,17.0711,17.0711Q16.8975,17.2446,16.7156,17.4095Q16.5337,17.5744,16.3439,17.7301Q16.1542,17.8858,15.957,18.0321Q15.7598,18.1783,15.5557,18.3147Q15.3516,18.4511,15.141,18.5773Q14.9305,18.7035,14.714,18.8192Q14.4975,18.9349,14.2755,19.0399Q14.0536,19.1448,13.8268,19.2388Q13.6,19.3327,13.3689,19.4154Q13.1378,19.4981,12.9028,19.5694Q12.6679,19.6407,12.4298,19.7003Q12.1917,19.76,11.9509,19.8078Q11.7101,19.8557,11.4673,19.8918Q11.2245,19.9278,10.9802,19.9518Q10.7359,19.9759,10.4907,19.988Q10.2455,20,10,20Q9.75451,20,9.50932,19.988Q9.26413,19.9759,9.01983,19.9518Q8.77552,19.9278,8.53269,19.8918Q8.28987,19.8557,8.0491,19.8078Q7.80833,19.76,7.5702,19.7003Q7.33207,19.6407,7.09715,19.5694Q6.86224,19.4981,6.6311,19.4154Q6.39996,19.3327,6.17316,19.2388Q5.94636,19.1448,5.72445,19.0399Q5.50253,18.9349,5.28603,18.8192Q5.06953,18.7035,4.85897,18.5773Q4.64841,18.4511,4.4443,18.3147Q4.24018,18.1783,4.04301,18.0321Q3.84583,17.8858,3.65607,17.7301Q3.4663,17.5744,3.28441,17.4095Q3.10252,17.2446,2.92893,17.0711Q2.75535,16.8975,2.59049,16.7156Q2.42563,16.5337,2.2699,16.3439Q2.11416,16.1542,1.96792,15.957Q1.82169,15.7598,1.6853,15.5557Q1.54892,15.3516,1.42271,15.141Q1.29651,14.9305,1.18079,14.714Q1.06507,14.4975,0.960107,14.2755Q0.855148,14.0536,0.761205,13.8268Q0.667261,13.6,0.584559,13.3689Q0.501857,13.1378,0.430597,12.9028Q0.359336,12.6679,0.299687,12.4298Q0.240039,12.1917,0.192147,11.9509Q0.144255,11.7101,0.108235,11.4673Q0.0722146,11.2245,0.0481527,10.9802Q0.0240909,10.7359,0.0120454,10.4907Q0,10.2455,0,10Q0,9.75451,0.0120454,9.50932Q0.0240909,9.26413,0.0481527,9.01983Q0.0722146,8.77552,0.108235,8.53269Q0.144255,8.28987,0.192147,8.0491Q0.240039,7.80833,0.299687,7.5702Q0.359336,7.33207,0.430597,7.09715Q0.501857,6.86224,0.584559,6.6311Q0.667261,6.39996,0.761205,6.17316Q0.855148,5.94636,0.960107,5.72445Q1.06507,5.50253,1.18079,5.28603Q1.29651,5.06953,1.42271,4.85897Q1.54892,4.64841,1.6853,4.4443Q1.82169,4.24018,1.96792,4.04301Q2.11416,3.84583,2.2699,3.65607Q2.42563,3.4663,2.59049,3.28441Q2.75535,3.10252,2.92893,2.92893Q3.10252,2.75535,3.28441,2.59049Q3.4663,2.42563,3.65607,2.2699Q3.84583,2.11416,4.04301,1.96792Q4.24018,1.82169,4.4443,1.6853Q4.64841,1.54892,4.85897,1.42271Q5.06953,1.29651,5.28603,1.18079Q5.50253,1.06507,5.72445,0.960107Q5.94636,0.855148,6.17316,0.761205Q6.39996,0.667261,6.6311,0.584559Q6.86224,0.501857,7.09715,0.430597Q7.33207,0.359336,7.5702,0.299687Q7.80833,0.240039,8.0491,0.192147Q8.28987,0.144255,8.53269,0.108235Q8.77552,0.0722146,9.01983,0.0481527Q9.26413,0.0240909,9.50932,0.0120454Q9.75451,0,10,0Q10.2455,0,10.4907,0.0120454Q10.7359,0.0240909,10.9802,0.0481527Q11.2245,0.0722146,11.4673,0.108235Q11.7101,0.144255,11.9509,0.192147Q12.1917,0.240039,12.4298,0.299687Q12.6679,0.359336,12.9028,0.430597Q13.1378,0.501857,13.3689,0.584559Q13.6,0.667261,13.8268,0.761205Q14.0536,0.855148,14.2755,0.960107Q14.4975,1.06507,14.714,1.18079Q14.9305,1.29651,15.141,1.42271Q15.3516,1.54892,15.5557,1.6853Q15.7598,1.82169,15.957,1.96792Q16.1542,2.11416,16.3439,2.2699Q16.5337,2.42563,16.7156,2.59049Q16.8975,2.75535,17.0711,2.92893Q17.2446,3.10252,17.4095,3.28441Q17.5744,3.4663,17.7301,3.65607Q17.8858,3.84583,18.0321,4.04301Q18.1783,4.24018,18.3147,4.4443Q18.4511,4.64841,18.5773,4.85897Q18.7035,5.06953,18.8192,5.28603Q18.9349,5.50253,19.0399,5.72445Q19.1448,5.94636,19.2388,6.17316Q19.3327,6.39996,19.4154,6.6311Q19.4981,6.86224,19.5694,7.09715Q19.6407,7.33207,19.7003,7.5702Q19.76,7.80833,19.8078,8.0491Q19.8557,8.28987,19.8918,8.53269Q19.9278,8.77552,19.9518,9.01983Q19.9759,9.26413,19.988,9.50932Q20,9.75451,20,10ZM19,10Q19,9.77906,18.9892,9.55839Q18.9783,9.33772,18.9567,9.11785Q18.935,8.89797,18.9026,8.67943Q18.8702,8.46088,18.8271,8.24419Q18.784,8.02749,18.7303,7.81318Q18.6766,7.59886,18.6125,7.38744Q18.5483,7.17601,18.4739,6.96799Q18.3995,6.75997,18.3149,6.55585Q18.2304,6.35173,18.1359,6.152Q18.0414,5.95228,17.9373,5.75743Q17.8331,5.56258,17.7196,5.37307Q17.606,5.18357,17.4832,4.99987Q17.3605,4.81616,17.2289,4.63871Q17.0973,4.46125,16.9571,4.29046Q16.8169,4.11967,16.6686,3.95597Q16.5202,3.79226,16.364,3.63604Q16.2077,3.47981,16.044,3.33144Q15.8803,3.18307,15.7095,3.04291Q15.5388,2.90274,15.3613,2.77113Q15.1838,2.63952,15.0001,2.51677Q14.8164,2.39403,14.6269,2.28044Q14.4374,2.16686,14.2426,2.06271Q14.0477,1.95856,13.848,1.8641Q13.6483,1.76963,13.4441,1.68508Q13.24,1.60053,13.032,1.5261Q12.824,1.45167,12.6126,1.38754Q12.4011,1.3234,12.1868,1.26972Q11.9725,1.21604,11.7558,1.17293Q11.5391,1.12983,11.3206,1.09741Q11.102,1.06499,10.8822,1.04334Q10.6623,1.02168,10.4416,1.01084Q10.2209,1,10,1Q9.77906,1,9.55839,1.01084Q9.33772,1.02168,9.11785,1.04334Q8.89797,1.06499,8.67943,1.09741Q8.46088,1.12983,8.24419,1.17293Q8.02749,1.21604,7.81318,1.26972Q7.59886,1.3234,7.38744,1.38754Q7.17601,1.45167,6.96799,1.5261Q6.75997,1.60054,6.55585,1.68508Q6.35173,1.76963,6.152,1.8641Q5.95228,1.95856,5.75743,2.06271Q5.56258,2.16686,5.37307,2.28044Q5.18357,2.39403,4.99987,2.51677Q4.81616,2.63952,4.63871,2.77113Q4.46125,2.90274,4.29046,3.04291Q4.11967,3.18307,3.95597,3.33144Q3.79226,3.47981,3.63604,3.63604Q3.47981,3.79226,3.33144,3.95597Q3.18307,4.11967,3.04291,4.29046Q2.90274,4.46125,2.77113,4.63871Q2.63952,4.81616,2.51677,4.99987Q2.39403,5.18357,2.28044,5.37307Q2.16686,5.56258,2.06271,5.75743Q1.95856,5.95228,1.8641,6.152Q1.76963,6.35173,1.68508,6.55585Q1.60053,6.75997,1.5261,6.96799Q1.45167,7.17601,1.38754,7.38744Q1.3234,7.59886,1.26972,7.81318Q1.21604,8.02749,1.17293,8.24419Q1.12983,8.46088,1.09741,8.67943Q1.06499,8.89797,1.04334,9.11785Q1.02168,9.33772,1.01084,9.55839Q1,9.77906,1,10Q1,10.2209,1.01084,10.4416Q1.02168,10.6623,1.04334,10.8822Q1.06499,11.102,1.09741,11.3206Q1.12983,11.5391,1.17293,11.7558Q1.21604,11.9725,1.26972,12.1868Q1.3234,12.4011,1.38754,12.6126Q1.45167,12.824,1.5261,13.032Q1.60053,13.24,1.68508,13.4441Q1.76963,13.6483,1.8641,13.848Q1.95856,14.0477,2.06271,14.2426Q2.16686,14.4374,2.28044,14.6269Q2.39403,14.8164,2.51677,15.0001Q2.63952,15.1838,2.77113,15.3613Q2.90274,15.5388,3.04291,15.7095Q3.18307,15.8803,3.33144,16.044Q3.47981,16.2077,3.63604,16.364Q3.79226,16.5202,3.95597,16.6686Q4.11967,16.8169,4.29046,16.9571Q4.46125,17.0973,4.63871,17.2289Q4.81616,17.3605,4.99987,17.4832Q5.18357,17.606,5.37307,17.7196Q5.56258,17.8331,5.75743,17.9373Q5.95228,18.0414,6.152,18.1359Q6.35173,18.2304,6.55585,18.3149Q6.75997,18.3995,6.96799,18.4739Q7.17601,18.5483,7.38744,18.6125Q7.59886,18.6766,7.81318,18.7303Q8.02749,18.784,8.24419,18.8271Q8.46088,18.8702,8.67943,18.9026Q8.89797,18.935,9.11785,18.9567Q9.33772,18.9783,9.55839,18.9892Q9.77906,19,10,19Q10.2209,19,10.4416,18.9892Q10.6623,18.9783,10.8822,18.9567Q11.102,18.935,11.3206,18.9026Q11.5391,18.8702,11.7558,18.8271Q11.9725,18.784,12.1868,18.7303Q12.4011,18.6766,12.6126,18.6125Q12.824,18.5483,13.032,18.4739Q13.24,18.3995,13.4441,18.3149Q13.6483,18.2304,13.848,18.1359Q14.0477,18.0414,14.2426,17.9373Q14.4374,17.8331,14.6269,17.7196Q14.8164,17.606,15.0001,17.4832Q15.1838,17.3605,15.3613,17.2289Q15.5388,17.0973,15.7095,16.9571Q15.8803,16.8169,16.044,16.6686Q16.2077,16.5202,16.364,16.364Q16.5202,16.2077,16.6686,16.044Q16.8169,15.8803,16.9571,15.7095Q17.0973,15.5388,17.2289,15.3613Q17.3605,15.1838,17.4832,15.0001Q17.606,14.8164,17.7196,14.6269Q17.8331,14.4374,17.9373,14.2426Q18.0414,14.0477,18.1359,13.848Q18.2304,13.6483,18.3149,13.4441Q18.3995,13.24,18.4739,13.032Q18.5483,12.824,18.6125,12.6126Q18.6766,12.4011,18.7303,12.1868Q18.784,11.9725,18.8271,11.7558Q18.8702,11.5391,18.9026,11.3206Q18.935,11.102,18.9567,10.8822Q18.9783,10.6623,18.9892,10.4416Q19,10.2209,19,10Z" fill="#303135" fill-opacity="1"/></g><g><g><path d="M16.4138550219059,11.889352987365722C16.1355550219059,12.728172987365722,15.680755021905899,13.491472987365723,15.0867550219059,14.141472987365722C14.3376550219059,13.677972987365722,13.494855021905899,13.317672987365723,12.5905550219059,13.073372987365723C12.740355021905899,12.267212987365722,12.834055021905899,11.385522987365723,12.855455021905899,10.453442987365722L17.6740550219059,10.453442987365722C17.6847550219059,10.302292987365723,17.6900550219059,10.151152987365723,17.6900550219059,10.000002987365722C17.6900550219059,9.846332987365724,17.6820550219059,9.692662987365722,17.6740550219059,9.541522987365724L16.7001550219059,9.541522987365724L16.7001550219059,9.546562987365721L12.855455021905899,9.546562987365721C12.834055021905899,8.611962987365722,12.740355021905899,7.730262987365722,12.5905550219059,6.926662987365723C13.494855021905899,6.6823029873657225,14.3376550219059,6.322072987365723,15.0867550219059,5.858552987365723C15.680755021905899,6.508482987365722,16.1355550219059,7.269262987365723,16.4111550219059,8.105612987365722L17.4251550219059,8.105612987365722C16.539555021905898,5.007082987365722,13.537655021905898,2.7272729873657227,9.9685450219059,2.7272729873657227C6.399405021905899,2.7272729873657227,3.3974750219058993,5.007082987365722,2.5118820219058993,8.105612987365722L3.525905021905899,8.105612987365722C3.801485021905899,7.269262987365723,4.256315021905899,6.508482987365722,4.847605021905899,5.858552987365723C5.5967450219059,6.322072987365723,6.439535021905899,6.679782987365723,7.346535021905899,6.924142987365722C7.196705021905899,7.730262987365722,7.103065021905899,8.611962987365722,7.081655021905899,9.546562987365721L3.231596021905899,9.546562987365721L3.231596021905899,9.541522987365724L2.257708121905899,9.541522987365724C2.247006051905899,9.692662987365722,2.241655021905899,9.846332987365724,2.241655021905899,10.000002987365722C2.241655021905899,10.153672987365724,2.247006051905899,10.304812987365722,2.257708121905899,10.453442987365722L7.078985021905899,10.453442987365722C7.1003850219058995,11.388042987365722,7.194035021905899,12.269732987365723,7.343865021905899,13.075872987365722C6.436865021905899,13.320172987365723,5.5940750219058994,13.677972987365722,4.844935021905899,14.141472987365722C4.250965021905899,13.491472987365723,3.7961250219058993,12.728172987365722,3.520555021905899,11.889352987365722L2.506531021905899,11.889352987365722C3.389455021905899,14.987872987365723,6.394055021905899,17.272772987365723,9.965865021905898,17.272772987365723C13.537655021905898,17.272772987365723,16.539555021905898,14.990372987365722,17.4251550219059,11.889352987365722L16.4138550219059,11.889352987365722ZM14.391155021905899,5.198542987365723C13.783855021905898,5.551212987365723,13.1095550219059,5.833362987365723,12.392555021905899,6.032372987365722C12.157115021905899,5.128002987365722,11.8440750219059,4.3672229873657225,11.477535021905899,3.8029429873657223C12.5744550219059,4.037222987365722,13.569755021905898,4.525932987365723,14.391155021905899,5.198542987365723ZM8.0448450219059,9.544042987365723C8.0662450219059,8.639672987365723,8.1545450219059,7.833552987365723,8.2856450219059,7.1307129873657225C8.8314450219059,7.221402987365723,9.3906250219059,7.2717829873657225,9.9685450219059,7.2717829873657225C10.5437750219059,7.2717829873657225,11.105635021905899,7.2239229873657225,11.651435021905899,7.133232987365723C11.779865021905898,7.836072987365722,11.868155021905899,8.642192987365723,11.892235021905899,9.546562987365721L8.0448450219059,9.546562987365721L8.0448450219059,9.544042987365723ZM11.886885021905899,10.453442987365722C11.865485021905899,11.355292987365722,11.777185021905899,12.163932987365722,11.646085021905899,12.866772987365723C11.102965021905899,12.776072987365723,10.5411050219059,12.728172987365722,9.965865021905898,12.728172987365722C9.3906250219059,12.728172987365722,8.828775021905898,12.778572987365722,8.282965021905898,12.869272987365722C8.1545450219059,12.166452987365723,8.0662450219059,11.360332987365723,8.042175021905898,10.455962987365723L11.886885021905899,10.455962987365723L11.886885021905899,10.453442987365722ZM9.965865021905898,3.636678987365723C10.321715021905899,3.636678987365723,11.001285021905899,4.533492987365722,11.4534550219059,6.241462987365723C10.971865021905899,6.319552987365723,10.476885021905899,6.362382987365723,9.965865021905898,6.362382987365723C9.457515021905898,6.362382987365723,8.959875021905898,6.319552987365723,8.4809550219059,6.241462987365723C8.933115021905898,4.533492987365722,9.6126950219059,3.636678987365723,9.965865021905898,3.636678987365723ZM5.543235021905899,5.198542987365723C6.364625021905899,4.525932987365723,7.359915021905899,4.039742987365723,8.4541950219059,3.8029429873657223C8.0876550219059,4.3672229873657225,7.774615021905899,5.128002987365722,7.539175021905899,6.032372987365722C6.824815021905899,5.833362987365723,6.153255021905899,5.551212987365723,5.543235021905899,5.198542987365723ZM5.543235021905899,14.801472987365722C6.150585021905899,14.448772987365723,6.822135021905899,14.166672987365722,7.539175021905899,13.967672987365722C7.774615021905899,14.869472987365723,8.0876550219059,15.632772987365723,8.4541950219059,16.197072987365722C7.359915021905899,15.960272987365723,6.367295021905899,15.474072987365723,5.543235021905899,14.801472987365722ZM9.965865021905898,16.363272987365722C9.610025021905898,16.363272987365722,8.9304450219059,15.466472987365723,8.4809550219059,13.758572987365723C8.9625450219059,13.680472987365723,9.457515021905898,13.637672987365722,9.965865021905898,13.637672987365722C10.474215021905898,13.637672987365722,10.971865021905899,13.680472987365723,11.4534550219059,13.758572987365723C11.001285021905899,15.466472987365723,10.321715021905899,16.363272987365722,9.965865021905898,16.363272987365722ZM11.477535021905899,16.197072987365722C11.8440750219059,15.632772987365723,12.159785021905899,14.871972987365723,12.392555021905899,13.967672987365722C13.112255021905899,14.166672987365722,13.7811550219059,14.446272987365722,14.391155021905899,14.798972987365723C13.569755021905898,15.471572987365724,12.5744550219059,15.960272987365723,11.477535021905899,16.197072987365722Z" fill="#B9BABE" fill-opacity="1"/></g><g><path d="M3.792711991577148,10.032417066558837Q3.792711991577148,10.123968066558838,3.7737419915771486,10.213768066558838Q3.7547719915771482,10.303558066558837,3.7175619915771483,10.388148066558838Q3.6803519915771483,10.472728066558838,3.6263319915771484,10.548848066558838Q3.5723019915771483,10.624978066558837,3.5035519915771483,10.689718066558838Q3.4347919915771485,10.754448066558838,3.3539419915771482,10.805318066558838Q3.2730919915771484,10.856178066558838,3.1832519915771487,10.891218066558839Q3.0934219915771486,10.926258066558837,2.9980519915771486,10.944118066558838Q2.9026819915771487,10.961978066558839,2.8054469915771483,10.961978066558839Q2.7082099915771485,10.961978066558839,2.6128409915771487,10.944118066558838Q2.5174719915771484,10.926258066558837,2.4276369915771485,10.891218066558839Q2.337801991577148,10.856178066558838,2.2569519915771483,10.805318066558838Q2.1761019915771485,10.754448066558838,2.1073449915771483,10.689718066558838Q2.0385879915771485,10.624978066558837,1.9845659915771485,10.548848066558838Q1.9305439915771485,10.472728066558838,1.8933330915771485,10.388148066558838Q1.8561219915771485,10.303558066558837,1.8371519915771484,10.213768066558838Q1.8181819915771484,10.123968066558838,1.8181819915771484,10.032417066558837Q1.8181819915771484,9.940863066558839,1.8371519915771484,9.851069066558837Q1.8561219915771485,9.761275066558838,1.8933330915771485,9.676690066558837Q1.9305439915771485,9.592106066558838,1.9845659915771485,9.515982066558838Q2.0385879915771485,9.439858066558838,2.1073449915771483,9.375120066558837Q2.1761019915771485,9.310381066558838,2.2569519915771483,9.259517066558837Q2.337801991577148,9.208652066558837,2.4276369915771485,9.173616566558838Q2.5174719915771484,9.138580466558837,2.6128409915771487,9.120719266558838Q2.7082099915771485,9.102858066558838,2.8054469915771483,9.102858066558838Q2.9026819915771487,9.102858066558838,2.9980519915771486,9.120719266558838Q3.0934219915771486,9.138580466558837,3.1832519915771487,9.173616566558838Q3.2730919915771484,9.208652066558837,3.3539419915771482,9.259517066558837Q3.4347919915771485,9.310381066558838,3.5035519915771483,9.375120066558837Q3.5723019915771483,9.439858066558838,3.6263319915771484,9.515982066558838Q3.6803519915771483,9.592106066558838,3.7175619915771483,9.676690066558837Q3.7547719915771482,9.761275066558838,3.7737419915771486,9.851069066558837Q3.792711991577148,9.940863066558839,3.792711991577148,10.032417066558837Z" fill="#B9BABE" fill-opacity="1"/></g><g><path d="M18.181207436828615,10.032604463562011Q18.181207436828615,10.124155463562012,18.16223743682861,10.213955463562012Q18.143267436828612,10.303745463562011,18.106057436828614,10.388335463562012Q18.068847436828612,10.472915463562012,18.014827436828615,10.549035463562012Q17.960797436828614,10.625165463562011,17.892047436828612,10.689905463562011Q17.823287436828615,10.754635463562012,17.742437436828613,10.805505463562012Q17.66158743682861,10.856365463562012,17.571747436828613,10.891405463562013Q17.481917436828613,10.926445463562011,17.386547436828614,10.944305463562012Q17.29117743682861,10.962165463562012,17.193942436828614,10.962165463562012Q17.096705436828614,10.962165463562012,17.001336436828613,10.944305463562012Q16.905967436828615,10.926445463562011,16.816132436828614,10.891405463562013Q16.726297436828613,10.856365463562012,16.645447436828615,10.805505463562012Q16.564597436828613,10.754635463562012,16.495840436828612,10.689905463562011Q16.427083436828614,10.625165463562011,16.373061436828614,10.549035463562012Q16.319039436828614,10.472915463562012,16.281828536828613,10.388335463562012Q16.244617436828612,10.303745463562011,16.225647436828613,10.213955463562012Q16.206677436828613,10.124155463562012,16.206677436828613,10.032604463562011Q16.206677436828613,9.941050463562012,16.225647436828613,9.851256463562011Q16.244617436828612,9.761462463562012,16.281828536828613,9.676877463562011Q16.319039436828614,9.592293463562012,16.373061436828614,9.516169463562012Q16.427083436828614,9.440045463562011,16.495840436828612,9.375307463562011Q16.564597436828613,9.310568463562012,16.645447436828615,9.259704463562011Q16.726297436828613,9.208839463562011,16.816132436828614,9.173803963562012Q16.905967436828615,9.13876786356201,17.001336436828613,9.120906663562012Q17.096705436828614,9.103045463562012,17.193942436828614,9.103045463562012Q17.29117743682861,9.103045463562012,17.386547436828614,9.120906663562012Q17.481917436828613,9.13876786356201,17.571747436828613,9.173803963562012Q17.66158743682861,9.208839463562011,17.742437436828613,9.259704463562011Q17.823287436828615,9.310568463562012,17.892047436828612,9.375307463562011Q17.960797436828614,9.440045463562011,18.014827436828615,9.516169463562012Q18.068847436828612,9.592293463562012,18.106057436828614,9.676877463562011Q18.143267436828612,9.761462463562012,18.16223743682861,9.851256463562011Q18.181207436828615,9.941050463562012,18.181207436828615,10.032604463562011Z" fill="#B9BABE" fill-opacity="1"/></g></g></g></svg>