<svg xmlns="http://www.w3.org/2000/svg" xmlns:xlink="http://www.w3.org/1999/xlink" fill="none" version="1.1" width="16" height="16" viewBox="0 0 16 16"><g><g><g><path d="M12.862272778320312,4.8881230859375C12.207052778320312,4.2315230859375,11.549042778320313,3.5777130859375,10.893912778320313,2.9210240859375C10.659232778320312,2.6857760859375,10.281642778320313,2.6901720859375002,10.046675778320312,2.9251400859375C9.890132778320313,3.0816850859375,9.733559778320313,3.2381990859375,9.576976778320313,3.3947030859375C9.342523778320313,3.6290330859375,9.335495778320313,4.0064130859375,9.569938778320312,4.2407630859375C10.101183778320312,4.7717830859375,11.010902778320313,5.6811130859375005,11.542152778320313,6.2121330859375C11.776442778320312,6.4463230859375,12.153732778320313,6.4399130859375,12.388022778320313,6.2057330859375C12.544382778320312,6.049433085937499,12.700732778320312,5.8931230859375,12.857062778320312,5.736793085937499C13.090762778320313,5.5030830859375,13.095732778320313,5.122083085937501,12.862272778320312,4.8881230859375" fill="#F0F5F5" fill-opacity="1"/></g><g><path d="M2.1502227783203125,12.8935238671875C2.1502227783203125,13.2248938671875,2.4262497783203125,13.5005838671875,2.7576207783203124,13.5005838671875L4.712302778320312,13.5005838671875C4.871362778320313,13.5005838671875,5.025452778320313,13.4374238671875,5.137962778320313,13.3249838671875L11.100282778320313,7.3665638671875C11.334782778320312,7.1322238671875,11.339652778320312,6.7569938671875,11.105172778320313,6.5226438671875L9.132682778320312,4.5512548671875C8.898402778320312,4.3171058671875,8.529492778320312,4.3150068671875,8.295202778320313,4.5491448671875L2.3252167783203124,10.5152438671875C2.2126105783203127,10.6277738671875,2.1502227783203125,10.7807338671875,2.1502227783203125,10.9399338671875L2.1502227783203125,12.8935238671875ZM4.498542778320313,12.3805838671875L3.2702227783203126,12.3805838671875L3.2702227783203126,11.1542538671875L8.712872778320312,5.7151538671874995L9.940552778320313,6.9421438671875L4.498542778320313,12.3805838671875Z" fill-rule="evenodd" fill="#F0F5F5" fill-opacity="1"/></g><g><path d="M8.390701278320313,11.942522048950195C8.390701278320313,11.942522048950195,13.070240278320313,11.942522048950195,13.070240278320313,11.942522048950195C13.500780278320313,11.942522048950195,13.849780278320313,12.291521048950194,13.849780278320313,12.722063048950195C13.849780278320313,13.152572048950196,13.500780278320313,13.501592048950195,13.070240278320313,13.501592048950195C13.070240278320313,13.501592048950195,8.390701278320313,13.501592048950195,8.390701278320313,13.501592048950195C7.960159278320313,13.501592048950195,7.6111602783203125,13.152572048950196,7.6111602783203125,12.722063048950195C7.6111602783203125,12.291521048950194,7.960159278320313,11.942522048950195,8.390701278320313,11.942522048950195C8.390701278320313,11.942522048950195,8.390701278320313,11.942522048950195,8.390701278320313,11.942522048950195Z" fill="#F0F5F5" fill-opacity="1"/></g></g></g></svg>