<svg xmlns="http://www.w3.org/2000/svg" xmlns:xlink="http://www.w3.org/1999/xlink" fill="none" version="1.1" width="9" height="15" viewBox="0 0 9 15"><g><path d="M7.95169,15C8.24993,15,8.44868,14.906,8.64748,14.7179C9.04509,14.3419,8.94572,13.7778,8.54811,13.4017C8.54811,13.4017,2.18677,7.94874,2.18677,7.94874C1.98795,7.76071,1.88858,7.57268,1.88858,7.38466C1.88858,7.19662,1.98795,7.00859,2.18677,6.82056C2.18677,6.82056,8.64748,1.64965,8.64748,1.64965C9.04509,1.27359,9.14449,0.709492,8.74688,0.333425C8.3493,-0.0426424,7.75292,-0.13667,7.35534,0.239412C7.35534,0.239412,0.994008,5.41031,0.994008,5.41031C0.397579,5.88039,0,6.63252,0,7.38466C0,8.13679,0.298238,8.7949,0.894621,9.35899C0.894621,9.35899,7.25594,14.812,7.25594,14.812C7.45471,14.906,7.75292,15,7.95169,15C7.95169,15,7.95169,15,7.95169,15Z" fill="#FCFDFF" fill-opacity="1"/></g></svg>