<svg xmlns="http://www.w3.org/2000/svg" xmlns:xlink="http://www.w3.org/1999/xlink" fill="none" version="1.1" width="18" height="18" viewBox="0 0 18 18"><g style="mix-blend-mode:passthrough"><g style="mix-blend-mode:passthrough"><rect x="0" y="0" width="18" height="18" rx="4" fill="#06CCAB" fill-opacity="1"/></g><g><path d="M5.611947,8.67137L8.89179,11.2091L8.27984,12L7.4939,11.3817L12.21406,5.381703Q12.27495,5.304294,12.349779999999999,5.240253Q12.424610000000001,5.176212,12.51049,5.128Q12.59638,5.079788,12.69002,5.049258Q12.783660000000001,5.018727,12.881450000000001,5.007051Q12.97925,4.99538,13.07745,5.003004Q13.17564,5.010632,13.27046,5.03727Q13.36528,5.063908,13.45309,5.1085329999999995Q13.54089,5.1531590000000005,13.6183,5.214055Q13.6957,5.274952,13.75975,5.349781Q13.82379,5.424609,13.872,5.510494Q13.92021,5.596378,13.95074,5.690018Q13.98127,5.783658,13.99295,5.881455Q14.00462,5.9792521,13.99699,6.0774477Q13.98937,6.175643,13.96273,6.270464Q13.93609,6.365285,13.89147,6.453086Q13.84684,6.540888,13.78594,6.618297L9.06579,12.6183Q9.00521,12.69531,8.93083,12.75909Q8.85645,12.82288,8.7711,12.87101Q8.68576,12.91915,8.5927,12.9498Q8.49963,12.98046,8.40239,12.992460000000001Q8.30514,13.004470000000001,8.207419999999999,12.99737Q8.10969,12.99028,8.0152,12.96435Q7.92071,12.93842,7.83305,12.894639999999999Q7.74539,12.85086,7.6678999999999995,12.7909L4.388053,10.25317Q4.310156,10.19289,4.245515,10.11858Q4.180873,10.044270000000001,4.131971,9.95878Q4.083069,9.87329,4.051785,9.7799Q4.020501,9.6865,4.008038,9.58881Q3.99558,9.491109999999999,4.002412,9.39285Q4.009249,9.294599999999999,4.0351230000000005,9.19957Q4.060997,9.10453,4.104913,9.01638Q4.14883,8.92822,4.209101,8.85032Q4.269373,8.77242,4.343683,8.70778Q4.417993,8.643139999999999,4.503487,8.59424Q4.58898,8.54534,4.682371,8.514050000000001Q4.775762,8.48277,4.873462,8.47031Q4.9711616,8.457840000000001,5.0694154,8.46468Q5.167669,8.47152,5.262701,8.49739Q5.357733,8.52326,5.445892,8.56718Q5.53405,8.6111,5.611947,8.67137Z" fill="#363940" fill-opacity="1"/></g></g></svg>