<svg xmlns="http://www.w3.org/2000/svg" xmlns:xlink="http://www.w3.org/1999/xlink" fill="none" version="1.1" width="14" height="12" viewBox="0 0 14 12"><g style="mix-blend-mode:passthrough"><g><path d="M1.6519110000000001,6.01215L6.57168,10.2417L5.91977,11L5.10362,10.42215L12.1839,0.42215100000000005Q12.2408,0.34176799999999996,12.3123,0.27403299999999997Q12.3838,0.20629699999999995,12.4671,0.15381299999999998Q12.5505,0.10132799999999997,12.6424,0.06611100000000003Q12.7344,0.030893999999999977,12.8315,0.014298000000000033Q12.9286,-0.0022999999999999687,13.027,0.00036599999999997745Q13.1255,0.0030289999999999484,13.2215,0.02484799999999998Q13.3176,0.04666800000000004,13.4075,0.08680600000000005Q13.4975,0.12694300000000003,13.5778,0.18385600000000002Q13.6582,0.240769,13.726,0.31227099999999997Q13.7937,0.38377300000000003,13.8462,0.46711499999999995Q13.8987,0.550457,13.9339,0.6424369999999999Q13.9691,0.734417,13.9857,0.8315Q14.0023,0.9285833,13.9996,1.0270386Q13.997,1.125494,13.9752,1.221538Q13.9533,1.317582,13.9132,1.407524Q13.8731,1.497466,13.8161,1.577849L6.73591,11.5778Q6.70873,11.6162,6.67806,11.6519Q6.61385,11.7266,6.53631,11.7873Q6.45876,11.848,6.37086,11.8925Q6.28296,11.9369,6.18808,11.9633Q6.0932,11.9898,5.99499,11.9972Q5.89678,12.0046,5.79901,11.9927Q5.70124,11.9808,5.60766,11.95Q5.51409,11.9193,5.42832,11.8709Q5.34254,11.8225,5.26785,11.7583L0.348089,7.52874Q0.27340299999999995,7.46453,0.21267899999999995,7.38699Q0.15195499999999995,7.30944,0.10752600000000001,7.22154Q0.06309600000000004,7.13364,0.03666899999999995,7.03876Q0.010243000000000002,6.94388,0.0028329999999999744,6.84567Q-0.0045800000000000285,6.74746,0.007318000000000047,6.64969Q0.019212000000000007,6.55192,0.04995099999999997,6.45835Q0.08069000000000004,6.36477,0.12909400000000004,6.279Q0.17749700000000002,6.19322,0.24170499999999995,6.11854Q0.30591199999999996,6.04385,0.38345700000000005,5.98313Q0.461001,5.9224,0.548902,5.87797Q0.636803,5.83354,0.731683,5.80712Q0.8265629999999999,5.78069,0.9247751,5.77328Q1.0229875,5.76587,1.120758,5.77776Q1.218529,5.78966,1.3121,5.8204Q1.405672,5.85114,1.491449,5.89954Q1.577226,5.94794,1.6519110000000001,6.01215Z" fill="#06CCAB" fill-opacity="1"/></g></g></svg>