<svg xmlns="http://www.w3.org/2000/svg" xmlns:xlink="http://www.w3.org/1999/xlink" fill="none" version="1.1" width="14" height="14" viewBox="0 0 14 14"><g style="mix-blend-mode:passthrough"><g><path d="M7,14C3.14117,14,0,10.86,0,6.99922C0,3.13839,3.14117,0,7,0C10.8588,0,14,3.13995,14,6.99922C14,10.8585,10.8604,14,7,14ZM7,1.39953C3.91199,1.39953,1.39937,3.91243,1.39937,7.00078C1.39937,10.0891,3.91199,12.602,7,12.602C10.088,12.602,12.6006,10.0876,12.6006,6.99922C12.6006,3.91087,10.088,1.39953,7,1.39953Z" fill="#06CCAB" fill-opacity="1"/></g><g><path d="M6.146470931472779,9.95621349395752C5.9604109314727785,9.95621349395752,5.782160931472778,9.88272349395752,5.650830931472779,9.75137349395752L3.4774969314727784,7.57779349395752C3.2038757314727784,7.30414349395752,3.2038757314727784,6.8616134939575195,3.4774969314727784,6.58796349395752C3.751116931472778,6.314303493957519,4.193600931472778,6.314303493957519,4.467220931472778,6.58796349395752L6.146470931472779,8.265833493957519L9.533110931472779,4.878811493957519C9.806730931472778,4.60516069395752,10.249220931472777,4.60516069395752,10.522840931472778,4.878811493957519C10.79646093147278,5.152463493957519,10.79646093147278,5.594996493957519,10.522840931472778,5.86864349395752L6.640550931472778,9.75137349395752C6.509210931472778,9.88272349395752,6.332530931472778,9.95621349395752,6.146470931472779,9.95621349395752Z" fill="#06CCAB" fill-opacity="1"/></g></g></svg>