<svg xmlns="http://www.w3.org/2000/svg" xmlns:xlink="http://www.w3.org/1999/xlink" fill="none" version="1.1" width="16" height="12.500007629394531" viewBox="0 0 16 12.500007629394531"><g><path d="M8.00196,2.44442C8.66054,2.44442,9.2675,2.60883,9.82285,2.9416C10.3782,3.27438,10.8227,3.72337,11.152,4.28477C11.4813,4.84603,11.6439,5.45943,11.6439,6.12519C11.6439,6.5821,11.5527,7.03126,11.3702,7.46835C11.3702,7.46835,13.4807,9.60125,13.4807,9.60125C14.6154,8.65888,15.4564,7.50426,16,6.12519C15.3652,4.49738,14.3218,3.17025,12.8659,2.15188C11.4139,1.12955,9.79125,0.620277,7.99802,0.620277C6.99821,0.620277,6.03427,0.792641,5.10588,1.1375C5.10588,1.1375,6.67303,2.72124,6.67303,2.72124C7.10535,2.53661,7.5498,2.44442,8.00196,2.44442C8.00196,2.44442,8.00196,2.44442,8.00196,2.44442ZM1.16504,0.875847C1.16504,0.875847,2.38428,2.13566,2.38428,2.13566C2.38428,2.13566,2.72553,2.44442,2.72553,2.44442C1.47589,3.45466,0.567307,4.68163,0,6.12479C0.634804,7.75259,1.6782,9.0797,3.1341,10.0981C4.58607,11.1204,6.20874,11.6297,8.00196,11.6297C9.11285,11.6297,10.168,11.4252,11.1679,11.0123C11.1679,11.0123,12.6787,12.5,12.6787,12.5C12.6787,12.5,13.6196,11.5779,13.6196,11.5779C13.6196,11.5779,2.11621,0,2.11621,0C2.11621,0,1.16504,0.875847,1.16504,0.875847C1.16504,0.875847,1.16504,0.875847,1.16504,0.875847ZM4.76873,4.50928C4.76873,4.50928,5.89143,5.64405,5.89143,5.64405C5.84785,5.80428,5.82391,5.96473,5.82391,6.12519C5.82391,6.74253,6.03427,7.26788,6.45464,7.68868C6.87518,8.10955,7.39089,8.32627,8.00196,8.32627C8.16071,8.32627,8.31928,8.30227,8.47802,8.25805C8.47802,8.25805,9.60072,9.39281,9.60072,9.39281C9.07713,9.66947,8.54534,9.8057,8.00196,9.8057C7.34338,9.8057,6.73642,9.6413,6.18107,9.30854C5.62571,8.97578,5.18124,8.52677,4.85196,7.96535C4.52267,7.40412,4.35999,6.79072,4.35999,6.12499C4.35999,5.57563,4.49499,5.03443,4.76873,4.50928C4.76873,4.50928,4.76873,4.50928,4.76873,4.50928ZM7.86713,3.92387C7.86713,3.92387,10.1839,6.22929,10.1839,6.22929C10.1839,6.22929,10.1839,6.12499,10.1839,6.12499C10.1839,5.50761,9.97358,4.98229,9.55322,4.56142C9.13268,4.13648,8.61696,3.92387,8.0059,3.92387C8.0059,3.92387,7.86713,3.92387,7.86713,3.92387C7.86713,3.92387,7.86713,3.92387,7.86713,3.92387Z" fill="#AFB6BE" fill-opacity="1"/></g></svg>