<svg xmlns="http://www.w3.org/2000/svg" xmlns:xlink="http://www.w3.org/1999/xlink" fill="none" version="1.1" width="16" height="11" viewBox="0 0 16 11"><g><path d="M8.00001,0C4.36364,0,1.25818,2.28064,0,5.50002C1.25818,8.71935,4.36364,11,8,11C11.6364,11,14.7418,8.71935,16,5.50002C14.7418,2.28064,11.6364,0,8,0C8,0,8.00001,0,8.00001,0ZM8.00001,9.16666C5.99274,9.16666,4.36364,7.524,4.36364,5.50002C4.36364,3.47601,5.99274,1.83334,8.00001,1.83334C10.0073,1.83334,11.6364,3.47601,11.6364,5.50002C11.6364,7.524,10.0073,9.16666,8.00001,9.16666C8.00001,9.16666,8.00001,9.16666,8.00001,9.16666ZM8.00001,3.3C6.79273,3.3,5.81819,4.28267,5.81819,5.50002C5.81819,6.71732,6.79273,7.7,8.00001,7.7C9.20728,7.7,10.1818,6.71732,10.1818,5.50002C10.1818,4.28267,9.20728,3.3,8.00001,3.3C8.00001,3.3,8.00001,3.3,8.00001,3.3Z" fill="#AFB6BE" fill-opacity="1"/></g></svg>