<svg xmlns="http://www.w3.org/2000/svg" xmlns:xlink="http://www.w3.org/1999/xlink" fill="none" version="1.1" width="16" height="16" viewBox="0 0 16 16"><defs><clipPath id="master_svg0_1559_02048"><rect x="0" y="0" width="16" height="16" rx="0"/></clipPath></defs><g clip-path="url(#master_svg0_1559_02048)"><g><path d="M13.3336921875,8.33321390625C13.3336921875,8.05706390625,13.5574921875,7.83321390625,13.8336921875,7.83321390625C14.1097921875,7.83321390625,14.3336921875,8.05706390625,14.3336921875,8.33321390625L14.3336921875,12.49990390625C14.3336921875,13.51240390625,13.5127921875,14.33320390625,12.5002921875,14.33320390625L3.5003221875,14.33320390625C2.4878251875,14.33320390625,1.6669921875,13.51240390625,1.6669921875,12.49990390625L1.6669921875,3.99987390625C1.6669921875,2.98737390625,2.4878251875,2.1665439062500003,3.5003221875,2.1665439062500003L7.8336621875,2.1665439062500003C8.1098021875,2.1665439062500003,8.3336621875,2.39040190625,8.3336621875,2.6665439062500003C8.3336621875,2.94268390625,8.1098021875,3.1665439062500003,7.8336621875,3.1665439062500003L3.5003221875,3.1665439062500003C3.0400921875,3.1665439062500003,2.6669921875,3.5396439062500002,2.6669921875,3.99987390625L2.6669921875,12.49990390625C2.6669921875,12.96010390625,3.0400921875,13.33320390625,3.5003221875,13.33320390625L12.5002921875,13.33320390625C12.9605921875,13.33320390625,13.3336921875,12.96010390625,13.3336921875,12.49990390625L13.3336921875,8.33321390625ZM12.6764921875,3.99987390625L11.2734921875,2.5092099062499997C11.0842421875,2.30808590625,11.0938721875,1.99162590625,11.2949921875,1.80237590625C11.4961121875,1.61312680625,11.8125921875,1.62275300625,12.0017921875,1.82387690625L14.1977921875,4.15721390625C14.4981921875,4.47621390625,14.2717921875,4.99987390625,13.8336921875,4.99987390625L11.3238221875,4.99987390625C10.0476621875,4.99987390625,9.0003221875,6.11254390625,9.0003221875,7.49987390625L9.0003221875,10.49987390625C9.0003221875,10.77602390625,8.7764721875,10.99987390625,8.5003221875,10.99987390625C8.2241821875,10.99987390625,8.0003221875,10.77602390625,8.0003221875,10.49987390625L8.0003221875,7.49987390625C8.0003221875,5.57337390625,9.4813221875,3.99987390625,11.3238221875,3.99987390625L12.6764921875,3.99987390625Z" fill="#FCFDFF" fill-opacity="1"/><path d="M12.2135921875,3.79987390625L11.3238221875,3.79987390625Q9.8581721875,3.79987390625,8.8259221875,4.88992390625Q7.8003221875,5.97293390625,7.8003221875,7.49987390625L7.8003221875,10.49987390625Q7.8003221875,10.78982390625,8.0053521875,10.99485390625Q8.210372187499999,11.19987390625,8.5003221875,11.19987390625Q8.790272187500001,11.19987390625,8.9953021875,10.99485390625Q9.2003221875,10.78982390625,9.2003221875,10.49987390625L9.2003221875,7.49987390625Q9.2003221875,6.54064390625,9.8297421875,5.86607390625Q10.4513321875,5.19987390625,11.3238221875,5.19987390625L13.8336921875,5.19987390625Q14.2936921875,5.19987390625,14.4762921875,4.77751390625Q14.6587921875,4.35510390625,14.3434921875,4.02014390625L12.1474921875,1.68682050625Q11.9487921875,1.4756449062499999,11.6589421875,1.46682890625Q11.3691121875,1.45801290625,11.1579321875,1.65672124625Q10.9467621875,1.85542890625,10.9379421875,2.14525890625Q10.9291321875,2.43509090625,11.1278521875,2.64628390625L12.2135921875,3.79987390625ZM9.1163521875,5.16495390625Q10.0302721875,4.19987390625,11.3238221875,4.19987390625L13.1393921875,4.19987390625L11.4191321875,2.37213590625Q11.2135421875,2.15364290625,11.4320521875,1.94803190625Q11.6505621875,1.74242180625,11.8561921875,1.96093290625L14.0521921875,4.29428390625Q14.1872921875,4.43781390625,14.1090921875,4.61882390625Q14.0308921875,4.79987390625,13.8336921875,4.79987390625L11.3238221875,4.79987390625Q10.2774821875,4.79987390625,9.5372821875,5.59318390625Q8.8003221875,6.38301390625,8.8003221875,7.49987390625L8.8003221875,10.49987390625Q8.8003221875,10.79987390625,8.5003221875,10.79987390625Q8.2003221875,10.79987390625,8.2003221875,10.49987390625L8.2003221875,7.49987390625Q8.2003221875,6.13227390625,9.1163521875,5.16495390625ZM13.1336921875,8.33321390625L13.1336921875,12.49990390625Q13.1336921875,12.76220390625,12.9481921875,12.94770390625Q12.7626921875,13.13320390625,12.5002921875,13.13320390625L3.5003221875,13.13320390625Q3.2379921874999997,13.13320390625,3.0524921875,12.94770390625Q2.8669921875,12.76220390625,2.8669921875,12.49990390625L2.8669921875,3.99987390625Q2.8669921875,3.73754390625,3.0524921875,3.5520439062499998Q3.2379921874999997,3.36654390625,3.5003221875,3.36654390625L7.8336621875,3.36654390625Q8.123612187500001,3.36654390625,8.3286321875,3.1615239062500002Q8.5336621875,2.95649390625,8.5336621875,2.6665439062500003Q8.5336621875,2.3765949062500002,8.3286321875,2.17156890625Q8.123612187500001,1.96654390625,7.8336621875,1.96654390625L3.5003221875,1.96654390625Q2.6581071874999997,1.96654390625,2.0625501875,2.56210190625Q1.4669921875,3.15766390625,1.4669921875,3.99987390625L1.4669921875,12.49990390625Q1.4669921875,13.34210390625,2.0625501875,13.93760390625Q2.6581071874999997,14.53320390625,3.5003221875,14.53320390625L12.5002921875,14.53320390625Q13.3424921875,14.53320390625,13.9380921875,13.93760390625Q14.5336921875,13.34210390625,14.5336921875,12.49990390625L14.5336921875,8.33321390625Q14.5336921875,8.04326390625,14.3285921875,7.83823390625Q14.1235921875,7.63321390625,13.8336921875,7.63321390625Q13.5436921875,7.63321390625,13.3386921875,7.83823390625Q13.1336921875,8.04326390625,13.1336921875,8.33321390625ZM13.2309921875,13.23050390625Q13.5336921875,12.92790390625,13.5336921875,12.49990390625L13.5336921875,8.33321390625Q13.5336921875,8.20894390625,13.6214921875,8.12107390625Q13.7093921875,8.033213906250001,13.8336921875,8.033213906250001Q14.1336921875,8.033213906250001,14.1336921875,8.33321390625L14.1336921875,12.49990390625Q14.1336921875,13.17640390625,13.6552921875,13.65480390625Q13.1768921875,14.13320390625,12.5002921875,14.13320390625L3.5003221875,14.13320390625Q2.8237921875,14.13320390625,2.3453931875,13.65480390625Q1.8669921875,13.17640390625,1.8669921875,12.49990390625L1.8669921875,3.99987390625Q1.8669921875,3.32334390625,2.3453931875,2.84494390625Q2.8237921875,2.36654390625,3.5003221875,2.36654390625L7.8336621875,2.36654390625Q8.1336621875,2.36654390625,8.1336621875,2.6665439062500003Q8.1336621875,2.79080390625,8.0457921875,2.87867390625Q7.9579221875,2.96654390625,7.8336621875,2.96654390625L3.5003221875,2.96654390625Q3.0723021875,2.96654390625,2.7696521875,3.26920390625Q2.4669921875,3.5718539062500003,2.4669921875,3.99987390625L2.4669921875,12.49990390625Q2.4669921875,12.92790390625,2.7696521875,13.23050390625Q3.0723021875,13.53320390625,3.5003221875,13.53320390625L12.5002921875,13.53320390625Q12.9283921875,13.53320390625,13.2309921875,13.23050390625Z" fill-rule="evenodd" fill="#FCFDFF" fill-opacity="1"/></g></g></svg>
