<svg xmlns="http://www.w3.org/2000/svg" xmlns:xlink="http://www.w3.org/1999/xlink" fill="none" version="1.1" width="20" height="20" viewBox="0 0 20 20"><g><g><g><rect x="1.7499942779541016" y="0.75" width="16.500011444091797" height="18.5" rx="3.25" fill-opacity="0" stroke-opacity="1" stroke="#F0F5F5" fill="none" stroke-width="1.5"/></g><g><path d="M9.833488485488893,3.9999303817749023C10.794388485488891,3.9999303817749023,11.664698485488891,4.390438381774902,12.294808485488891,5.021670381774903C12.924808485488892,5.652970381774902,13.314478485488891,6.525010381774902,13.314478485488891,7.487910381774903C13.314478485488891,8.450750381774903,12.924808485488892,9.323150381774902,12.294808485488891,9.954140381774902C12.136918485488891,10.112290381774901,11.964128485488892,10.255190381774902,11.778508485488892,10.380660381774902C12.513898485488891,10.659350381774903,13.174088485488891,11.091010381774902,13.720508485488892,11.636910381774904C14.716928485488891,12.633030381774903,15.333328485488892,14.007930381774901,15.333328485488892,15.525230381774902C15.333328485488892,15.787230381774902,15.12102848548889,15.999930381774902,14.859228485488892,15.999930381774902C14.597728485488892,15.999930381774902,14.385428485488891,15.787230381774902,14.385428485488891,15.525230381774902C14.385428485488891,14.268130381774903,13.876488485488892,13.130710381774902,13.053798485488892,12.308510381774902C12.231378485488891,11.486690381774903,11.094848485488892,10.977560381774904,9.839138485488892,10.975890381774903C9.839138485488892,10.975890381774903,9.833488485488893,10.975890381774903,9.833488485488893,10.975890381774903C9.833488485488893,10.975890381774903,9.833178485488892,10.975890381774903,9.833178485488892,10.975890381774903C9.833178485488892,10.975890381774903,9.827748485488891,10.975890381774903,9.827748485488891,10.975890381774903C8.57153848548889,10.977560381774904,7.435038485488892,11.486690381774903,6.612838485488892,12.308510381774902C5.790158485488892,13.130710381774902,5.281211485488892,14.268130381774903,5.281211485488892,15.525230381774902C5.281211485488892,15.787230381774902,5.068961485488892,15.999930381774902,4.807140485488891,15.999930381774902C4.545552485488892,15.999930381774902,4.333328485488892,15.787230381774902,4.333328485488892,15.525230381774902C4.333328485488892,14.007930381774901,4.949773485488891,12.633030381774903,5.9463884854888915,11.636910381774904C6.492318485488892,11.091000381774903,7.152508485488891,10.659350381774903,7.887898485488892,10.380640381774903C7.702498485488892,10.255210381774901,7.529718485488892,10.112290381774901,7.371888485488892,9.954140381774902C6.742108485488892,9.323150381774902,6.3524284854888915,8.450750381774903,6.3524284854888915,7.487900381774902C6.3524284854888915,6.525010381774902,6.742108485488892,5.652970381774902,7.371888485488892,5.021670381774903C8.001878485488891,4.390438381774902,8.872238485488891,3.9999303817749023,9.833488485488893,3.9999303817749023C9.833488485488893,3.9999303817749023,9.833488485488893,3.9999303817749023,9.833488485488893,3.9999303817749023C9.833488485488893,3.9999303817749023,9.833488485488893,3.9999303817749023,9.833488485488893,3.9999303817749023C9.833488485488893,3.9999303817749023,9.833488485488893,3.9999303817749023,9.833488485488893,3.9999303817749023ZM11.624468485488892,5.693360381774903C11.166198485488891,5.2341603817749025,10.532808485488893,4.949690381774903,9.833468485488892,4.949690381774903C9.134058485488891,4.949690381774903,8.500428485488891,5.2341603817749025,8.042178485488892,5.693360381774903C7.583878485488892,6.152560381774903,7.300018485488891,6.787110381774903,7.300018485488891,7.487920381774902C7.300018485488891,8.188740381774902,7.583878485488892,8.823300381774903,8.042178485488892,9.282810381774901C8.499068485488891,9.740580381774901,9.130498485488893,10.024480381774902,9.827748485488891,10.026140381774901C9.827748485488891,10.026140381774901,9.833148485488891,10.026140381774901,9.833148485488891,10.026140381774901C9.833148485488891,10.026140381774901,9.833468485488892,10.026140381774901,9.833468485488892,10.026140381774901C9.833468485488892,10.026140381774901,9.838868485488891,10.026140381774901,9.838868485488891,10.026140381774901C10.536068485488892,10.024480381774902,11.167448485488892,9.740580381774901,11.624418485488892,9.282810381774901C12.082758485488892,8.823300381774903,12.366598485488892,8.188720381774903,12.366598485488892,7.487920381774902C12.366598485488892,6.787090381774902,12.082758485488892,6.152560381774903,11.624468485488892,5.693360381774903C11.624468485488892,5.693360381774903,11.624468485488892,5.693360381774903,11.624468485488892,5.693360381774903C11.624468485488892,5.693360381774903,11.624468485488892,5.693360381774903,11.624468485488892,5.693360381774903Z" fill="#F0F5F5" fill-opacity="1"/><path d="M9.833488485488893,3.7499303817749023Q8.287918485488891,3.7499303817749023,7.194938485488892,4.845071381774902L7.194898485488892,4.845109381774902Q6.1024284854888915,5.940210381774902,6.1024284854888915,7.487900381774902Q6.1024284854888915,9.036150381774902,7.194928485488892,10.130730381774903Q7.291958485488891,10.227960381774903,7.395278485488891,10.317410381774902Q6.488918485488892,10.740860381774901,5.769648485488892,11.460090381774902Q4.083328485488892,13.145580381774902,4.083328485488892,15.525230381774902Q4.083328485488892,15.825130381774903,4.295184085488891,16.037430381774904Q4.507252485488892,16.249930381774902,4.807140485488891,16.249930381774902Q5.107154485488891,16.249930381774902,5.319279485488892,16.037430381774904Q5.531208485488891,15.825230381774903,5.531208485488891,15.525230381774902Q5.531208485488891,13.742950381774902,6.789578485488891,12.485330381774903Q8.04721848548889,11.228260381774902,9.827748485488891,11.225890381774903L9.838808485488892,11.225890381774903Q11.619068485488892,11.228260381774902,12.877078485488891,12.485340381774902Q14.135428485488891,13.742940381774902,14.135428485488891,15.525230381774902Q14.135428485488891,16.249930381774902,14.859228485488892,16.249930381774902Q15.159228485488892,16.249930381774902,15.371328485488892,16.037430381774904Q15.583328485488892,15.825230381774903,15.583328485488892,15.525230381774902Q15.583328485488892,13.145720381774902,13.897198485488891,11.460050381774902Q13.177248485488892,10.740780381774902,12.271258485488891,10.317490381774903Q12.374618485488892,10.228040381774903,12.471728485488892,10.130770381774902Q13.564478485488891,9.036310381774904,13.564478485488891,7.487910381774903Q13.564478485488891,5.940050381774903,12.471748485488892,4.8450543817749026Q11.378568485488891,3.7499303817749023,9.833488485488893,3.7499303817749023ZM7.548838485488892,5.198280381774902L7.548878485488892,5.1982403817749026Q8.495348485488892,4.249930381774902,9.833488485488893,4.249930381774902Q11.17119848548889,4.249930381774902,12.117878485488891,5.198290381774902Q13.064478485488891,6.146850381774902,13.064478485488891,7.487910381774903Q13.064478485488891,8.829440381774901,12.117898485488892,9.777500381774903Q11.896828485488893,9.998920381774902,11.638498485488892,10.173540381774902L11.239028485488891,10.443560381774901L11.689908485488893,10.614430381774902Q12.742678485488891,11.013400381774902,13.543818485488892,11.813780381774903Q15.083328485488892,13.352870381774903,15.083328485488892,15.525230381774902Q15.083328485488892,15.749930381774902,14.859228485488892,15.749930381774902Q14.635428485488891,15.749930381774902,14.635428485488891,15.525230381774902Q14.635428485488891,13.535740381774902,13.230528485488891,12.131680381774903Q11.826338485488892,10.728530381774902,9.839468485488892,10.725890381774903L9.827748485488891,10.725890381774903Q7.839908485488891,10.728530381774902,6.436098485488891,12.131700381774902Q5.031212485488892,13.535760381774903,5.031211485488892,15.525230381774902Q5.031211485488892,15.637930381774902,4.974855485488892,15.694130381774903Q4.918838485488892,15.749930381774902,4.807140485488891,15.749930381774902Q4.714655485488891,15.749930381774902,4.6490934854888915,15.684230381774903Q4.583328485488892,15.618330381774902,4.583328485488892,15.525230381774902Q4.583328485488892,13.352760381774903,6.123118485488892,11.813740381774902Q6.923308485488892,11.013570381774901,7.976498485488891,10.614410381774903L8.427128485488891,10.443630381774902L8.02798848548889,10.173580381774903Q7.7696584854888915,9.998800381774902,7.548848485488891,9.777540381774902Q6.6024284854888915,8.829320381774902,6.6024284854888915,7.487900381774902Q6.6024284854888915,6.146990381774902,7.548838485488892,5.198280381774902ZM11.80134848548889,9.459430381774903Q12.616598485488892,8.642110381774902,12.616598485488892,7.487920381774902Q12.616598485488892,6.333550381774902,11.801418485488892,5.516760381774902Q10.986018485488891,4.699689381774903,9.833468485488892,4.699690381774903Q8.680598485488892,4.699690381774903,7.865218485488892,5.5167703817749025Q7.050018485488891,6.333560381774902,7.050018485488891,7.487920381774902Q7.050018485488891,8.642050381774903,7.865178485488892,9.459350381774902Q8.677638485488892,10.273400381774902,9.82715848548889,10.276140381774901L9.833148485488891,10.276140381774901L9.838868485488891,10.276140381774901Q10.988818485488892,10.273400381774902,11.80134848548889,9.459430381774903ZM11.447518485488892,5.869960381774902Q12.116598485488892,6.540360381774903,12.116598485488892,7.487920381774902Q12.116598485488892,8.435370381774902,11.447478485488892,9.106190381774901Q10.780958485488892,9.773890381774901,9.838868485488891,9.776140381774901L9.833148485488891,9.776140381774901L9.828348485488892,9.776140381774901Q8.885518485488891,9.773890381774901,8.219188485488893,9.106260381774902Q7.550018485488891,8.435330381774902,7.550018485488891,7.487920381774902Q7.550018485488891,6.540380381774902,8.219138485488891,5.869950381774903Q8.888008485488893,5.199690381774902,9.833468485488892,5.199690381774902Q10.778618485488892,5.199690381774902,11.447518485488892,5.869960381774902Z" fill-rule="evenodd" fill="#F0F5F5" fill-opacity="1"/></g></g></g></svg>