<svg xmlns="http://www.w3.org/2000/svg" xmlns:xlink="http://www.w3.org/1999/xlink" fill="none" version="1.1" width="20" height="20.604248046875" viewBox="0 0 20 20.604248046875"><g style="mix-blend-mode:passthrough"><g style="mix-blend-mode:passthrough"><g><path d="M9.93339,20.30419921875L9.92871,20.30419921875C9.08727,20.29969921875,6.52319,18.65549921875,5.00625,17.55189921875C1.687205,15.13609921875,0.99534858,13.84179921875,1.0000232822,13.18009921875L1.0491077,4.13597921875C1.0514451,3.70978921875,1.306217,3.32621921875,1.696555,3.16022921875L1.72694,3.14900921875L9.64356,0.38103421875C9.90067,0.27785181875,10.1905,0.27785181875,10.44761,0.38552041875L18.3642,3.23873921875C18.7522,3.40920921875,19.0023,3.79501921875,19,4.221209218749999L18.9509,13.26539921875C18.9415,14.70319921875,16.7327,16.51339921875,14.8816,17.77619921875C13.0584,19.01889921875,10.71173,20.30419921875,9.93339,20.30419921875ZM2.0705299999999998,3.99465921875C2.0261199999999997,4.01932921875,1.995736,4.07764921875,1.995736,4.140459218749999L1.9466510000000001,13.18459921875C1.9443139999999999,13.67589921875,3.04988,14.97909921875,5.52981,16.78929921875C7.64979,18.33699921875,9.55707,19.36429921875,9.9404,19.39349921875C10.9478,19.35539921875,17.9902,15.13389921875,18.0019,13.25859921875L18.051,4.21447921875C18.051,4.15167921875,18.0206,4.09335921875,17.9786,4.06867921875L10.06895,1.21770821875C10.05026,1.20873621875,10.02922,1.20873621875,10.00818,1.21770821875L9.9778,1.22892421875L2.0705299999999998,3.99465921875Z" fill="#FCFDFF" fill-opacity="1"/><path d="M10.07685,1.51209921875L2.16958,4.27783921875L2.0705299999999998,3.99465921875L2.21623,4.25689921875Q2.29574,4.21272921875,2.29574,4.140459218749999L2.24665,13.18619921875Q2.2453000000000003,13.46969921875,3.0243,14.28509921875Q3.98354,15.28919921875,5.70669,16.54699921875Q7.17239,17.61699921875,8.53586,18.40079921875Q9.70889,19.07499921875,9.96316,19.09439921875L9.9404,19.39349921875L9.92905,19.09369921875Q10.24503,19.08179921875,11.4815,18.41819921875Q12.7976,17.71189921875,14.1749,16.76759921875Q15.7375,15.69609921875,16.6697,14.78809921875Q17.6986,13.78579921875,17.7019,13.25679921875L17.751,4.21284921875Q17.751,4.28301921875,17.8268,4.32745921875L17.9786,4.06867921875L17.8768,4.35090921875L9.9529,1.49476921875L9.93917,1.48817921875Q10.03308,1.53323921875,10.12589,1.49365921875L10.11904,1.49656921875L10.08168,1.51036921875L10.07685,1.51209921875ZM9.87392,0.94748321875L9.9043,0.93626821875L10.00818,1.21770821875L9.89048,0.94176221875Q10.04764,0.87473021875,10.19874,0.94723421875L10.06895,1.21770821875L10.17068,0.93548221875L18.1064,3.79585921875L18.1303,3.80989921875Q18.351,3.93932921875,18.351,4.216109218750001L18.3019,13.26049921875Q18.2931,14.67129921875,14.5142,17.26239921875Q13.1101,18.22519921875,11.7652,18.94689921875Q10.40643,19.67609921875,9.95175,19.69329921875L9.93468,19.69389921875L9.91765,19.69259921875Q9.52777,19.66299921875,8.23685,18.92089921875Q6.84502,18.12089921875,5.35294,17.03159921875Q1.641235,14.32229921875,1.6466560000000001,13.18299921875L1.6957360000000001,4.140459218749999Q1.695735,3.85969921875,1.924831,3.73241921875L1.947262,3.71994921875L9.87875,0.94574621875L9.87392,0.94748321875ZM15.0505,18.02409921875Q13.5765,19.02879921875,12.1547,19.77209921875Q10.5628,20.60419921875,9.93339,20.60419921875L9.92871,20.60419921875Q9.27479,20.60069921875,7.56887,19.59889921875Q6.22608,18.81039921875,4.82976,17.79449921875Q0.688709,14.78039921875,0.700032,13.17799921875L0.749112,4.13434921875Q0.7540439999999999,3.23502921875,1.579155,2.88414921875L1.585849,2.88130921875L1.623057,2.86756921875L9.54454,0.09784521874999999L9.64356,0.38103421875L9.53182,0.10261821874999999Q10.05109,-0.10577178124999997,10.56349,0.10880421874999999L10.44761,0.38552041875L10.54932,0.10329121875L18.4755,2.95996921875L18.4849,2.96407921875Q19.3049,3.32435921875,19.3,4.22285921875L19.2509,13.26699921875Q19.2385,15.16709921875,15.0506,18.02409921875L15.0505,18.02409921875ZM14.7125,17.52839921875Q18.6406,14.84869921875,18.6509,13.26369921875L18.7,4.219569218749999Q18.7028,3.71515921875,18.2435,3.51339921875L18.3642,3.23873921875L18.2625,3.52096921875L10.33874,0.66517221875L10.33173,0.6622372187500001Q10.04624,0.54268621875,9.75529,0.65945021875L9.74898,0.66198121875L1.830823,3.43044921875L1.800437,3.44166921875L1.696555,3.16022921875L1.8139539999999998,3.43629921875Q1.351872,3.63279921875,1.349103,4.13759921875L1.300017,13.18219921875Q1.296478,13.68309921875,1.987682,14.51679921875Q2.96432,15.69459921875,5.18274,17.30929921875Q6.55526,18.30789921875,7.87271,19.08149921875Q9.43942,20.00159921875,9.92871,20.00419921875L9.93339,20.00419921875Q10.41544,20.00419921875,11.8767,19.24039921875Q13.2675,18.51329921875,14.7126,17.52829921875L14.7125,17.52839921875Z" fill="#FCFDFF" fill-opacity="1"/></g><g><path d="M8.89744,13.031476708221437C8.730879999999999,13.031476708221437,8.56432,12.971986708221436,8.43551,12.853026708221435L5.637222,10.265636708221436C5.4595535,10.099946708221434,5.4528909,9.828036708221436,5.626118,9.655966708221435C5.799345,9.486026708221436,6.083615,9.479646708221436,6.263505,9.645346708221435L8.89967,12.084036708221436L13.74114,7.695242708221436C13.92103,7.5316717082214355,14.20752,7.538044608221435,14.37631,7.712236708221435C14.54731,7.8843047082214355,14.54065,8.158338708221436,14.35854,8.319785708221435L9.35494,12.857276708221436C9.22613,12.974116708221436,9.06179,13.031476708221437,8.89744,13.031476708221437Z" fill="#FCFDFF" fill-opacity="1"/><path d="M9.55649,13.079486708221435Q9.278690000000001,13.331476708221436,8.89744,13.331476708221436Q8.511379999999999,13.331476708221436,8.23197,13.073426708221437L5.4335529,10.485906708221435Q5.206286,10.273966708221435,5.200145,9.969236708221436Q5.193961,9.662386708221435,5.4146992,9.443126708221435Q5.631451,9.230476708221435,5.936782,9.224846708221435Q6.243646,9.219186708221436,6.466752,9.424686708221437L9.103390000000001,11.863816708221435L8.89967,12.084036708221436L8.69818,11.861766708221435L13.53965,7.472973708221436Q13.76355,7.269392708221435,14.07049,7.277174708221436Q14.38008,7.285023708221436,14.59175,7.503475008221436Q14.80823,7.721263708221436,14.79973,8.028303708221436Q14.79117,8.337164708221435,14.55755,8.544271708221435L9.556470000000001,13.079506708221436L9.55649,13.079486708221435ZM9.153410000000001,12.635046708221434L14.15953,8.095298708221435Q14.1986,8.060658708221435,14.19996,8.011684708221436Q14.20134,7.9617687082214355,14.16086,7.920998708221435Q14.05684,7.813654708221436,13.94263,7.917510708221435L8.89761,12.490816708221436L6.060257,9.866006708221436Q5.946866,9.761556708221436,5.837537,9.868806708221435Q5.799014,9.907076708221435,5.800023,9.957146708221435Q5.801052,10.008206708221437,5.840892,10.045366708221437L8.63904,12.632636708221437Q8.74606,12.731466708221436,8.89744,12.731466708221436Q9.04711,12.731466708221436,9.15339,12.635076708221437L9.153410000000001,12.635046708221434Z" fill="#FCFDFF" fill-opacity="1"/></g></g><g style="mix-blend-mode:passthrough"></g></g></svg>