<svg xmlns="http://www.w3.org/2000/svg" xmlns:xlink="http://www.w3.org/1999/xlink" fill="none" version="1.1" width="20" height="20" viewBox="0 0 20 20"><g style="mix-blend-mode:passthrough"><g><path d="M10,0C11.5121,0,12.7408,1.22264,12.7653,2.74024L12.7656,2.7863L12.7656,6.3046L17.5,6.3046C18.3201,6.3046,18.9865,6.96774,18.9998,7.79083L19,7.81583L19,9.51594C19,10.3422,18.3418,11.0136,17.5248,11.027L17.5,11.0271L17.0166,11.0271L18.1506,18.2528C18.2787,19.0689,17.7326,19.8356,16.9277,19.9774L16.9032,19.9815C16.8335,19.9925,16.7631,19.9987,16.692500000000003,19.9998L16.669,20L3.33102,20C2.5026,20,1.831023,19.3234,1.831023,18.4888C1.831023,18.4177,1.836015,18.3466,1.845929,18.2762L1.849445,18.2528L2.98337,11.0271L2.5,11.0271C1.679852,11.0271,1.0134532,10.364,1.000211029,9.54092L1,9.51592L1,7.81582C1,6.98955,1.6582189999999999,6.31816,2.4752,6.30481L2.5,6.3046L7.23438,6.3046L7.23438,2.7863C7.23438,1.26285,8.44797,0.0249765,9.95427,0.000377497L10,0ZM15.498,11.0271L4.5020299999999995,11.0271L3.33102,18.4888L6.07673,18.4888L6.74753,14.222C6.82033,13.759,7.25233,13.443,7.71245,13.5163C7.71255,13.5163,7.71264,13.5163,7.71273,13.5163C8.17305,13.5897,8.48709,14.0247,8.41427,14.4879L7.78527,18.4888L16.669,18.4888L15.498,11.0271ZM7.23438,7.8158L2.5,7.8158L2.5,9.51594L17.5,9.51594L17.5,7.8158L12.7656,7.81578L12.7656,7.83941L7.23438,7.83941L7.23438,7.8158ZM10,1.51123C9.30801,1.51123,8.74572,2.07073,8.734539999999999,2.76524L8.73438,2.7863L8.73438,6.3046L11.2656,6.3046L11.2656,2.7863C11.2656,2.09611,10.72131,1.53399,10.04158,1.51189L10.02093,1.51139L10,1.51123Z" fill="#FCFDFF" fill-opacity="1"/></g><g style="mix-blend-mode:passthrough"></g></g></svg>