<svg xmlns="http://www.w3.org/2000/svg" xmlns:xlink="http://www.w3.org/1999/xlink" fill="none" version="1.1" width="20" height="20" viewBox="0 0 20 20"><g style="mix-blend-mode:passthrough"><g style="mix-blend-mode:passthrough"><g><path d="M10.000005232696534,14.034245506744384C9.392685232696532,14.034245506744384,8.828765232696533,13.817345506744385,8.394985232696534,13.383555506744385L6.659810232696533,11.648405506744385C6.226027232696533,11.214605506744384,6.009125232696533,10.650685506744384,6.009125232696533,10.043365506744385C6.009125232696533,9.436075506744384,6.226027232696533,8.872135506744385,6.659810232696533,8.438355506744385L8.394985232696534,6.703200506744385C8.828765232696533,6.269397506744385,9.392685232696532,6.052515506744385,9.999995232696534,6.052515506744385C10.607315232696532,6.052515506744385,11.171235232696533,6.269397506744385,11.605015232696534,6.703200506744385L13.340185232696534,8.438355506744385C13.773975232696532,8.872135506744385,13.990875232696533,9.436075506744384,13.990875232696533,10.043365506744385C13.990875232696533,10.650685506744384,13.773975232696532,11.214605506744384,13.340185232696534,11.648405506744385L11.605015232696534,13.383555506744385C11.171235232696533,13.773965506744386,10.607315232696532,14.034245506744384,10.000005232696534,14.034245506744384ZM10.000005232696534,7.267125506744385C9.739725232696532,7.267125506744385,9.479455232696534,7.353885506744385,9.305945232696534,7.570765506744385L7.570765232696533,9.305945506744385C7.397265232696533,9.479445506744385,7.267125232696533,9.739725506744385,7.267125232696533,9.999995506744385C7.267125232696533,10.260275506744385,7.353885232696533,10.520545506744384,7.570765232696533,10.694055506744384L9.305945232696534,12.429225506744384C9.652965232696534,12.776245506744385,10.303645232696534,12.776245506744385,10.694055232696533,12.429225506744384L12.429235232696534,10.694055506744384C12.602735232696533,10.520545506744384,12.732875232696532,10.260275506744385,12.732875232696532,9.999995506744385C12.732875232696532,9.739725506744385,12.646115232696534,9.479445506744385,12.429235232696534,9.305935506744385L10.694055232696533,7.570765506744385C10.520545232696534,7.397255506744385,10.260275232696532,7.267125506744385,10.000005232696534,7.267125506744385Z" fill="#FCFDFF" fill-opacity="1"/><path d="M10.623345232696533,7.641475506744385Q10.348985232696533,7.367125506744385,10.000005232696534,7.367125506744385Q9.596925232696533,7.367125506744385,9.384025232696533,7.633235506744384L9.380565232696533,7.637565506744385L7.641475232696533,9.376655506744385Q7.367125232696534,9.651005506744385,7.367125232696534,9.999995506744385Q7.367125232696534,10.403065506744385,7.633245232696533,10.615965506744384L7.6375652326965335,10.619425506744385L9.376655232696534,12.358515506744386Q9.607625232696533,12.589495506744385,9.983725232696534,12.589495506744385Q10.363225232696532,12.589495506744385,10.627625232696534,12.354485506744386L10.694055232696533,12.429225506744384L10.623345232696533,12.358515506744386L12.358525232696532,10.623345506744386Q12.632875232696534,10.348985506744384,12.632875232696534,9.999995506744385Q12.632875232696534,9.596925506744384,12.366765232696533,9.384025506744385L12.362435232696534,9.380565506744386L10.623345232696533,7.641475506744385ZM10.764765232696533,7.500055506744385L12.499945232696533,9.235225506744385L12.429235232696534,9.305935506744385L12.491705232696532,9.227855506744385Q12.832875232696534,9.500805506744385,12.832875232696534,9.999995506744385Q12.832875232696534,10.431825506744385,12.499945232696533,10.764765506744386L10.762685232696533,12.502015506744385L10.760495232696533,12.503975506744386Q10.439265232696533,12.789495506744384,9.983725232696534,12.789495506744384Q9.524785232696534,12.789495506744384,9.235235232696533,12.499935506744386L7.500055232696534,10.764765506744386L7.570765232696533,10.694055506744384L7.508295232696533,10.772145506744385Q7.167125232696533,10.499195506744385,7.167125232696533,9.999995506744385Q7.167125232696533,9.568165506744386,7.500055232696534,9.235225506744385L9.235235232696533,7.500055506744385L9.305945232696534,7.570765506744385L9.227855232696534,7.508295506744385Q9.500805232696534,7.167115506744385,10.000005232696534,7.167125506744385Q10.431835232696534,7.167125506744385,10.764765232696533,7.500055506744385ZM11.671915232696534,13.457885506744384Q10.920415232696534,14.134245506744385,10.000005232696534,14.134245506744385Q9.004245232696533,14.134245506744385,8.324275232696532,13.454265506744385L6.589100232696533,11.719115506744384Q5.909125332696533,11.039115506744384,5.909125332696533,10.043365506744385Q5.909125232696534,9.047615506744386,6.589099232696533,8.367645506744385L8.324275232696532,6.632489506744385Q9.004215232696533,5.9525156067443845,9.999995232696534,5.952515506744385Q10.995785232696534,5.952515506744385,11.675725232696532,6.632491506744385L13.410895232696532,8.367645506744385Q14.090875232696533,9.047615506744386,14.090875232696533,10.043365506744385Q14.090865232696533,11.039115506744384,13.410905232696532,11.719115506744384L11.673865232696533,13.456125506744385L11.671915232696534,13.457885506744384ZM11.538115232696533,13.309225506744385L11.605015232696534,13.383555506744385L11.534305232696532,13.312845506744384L13.269475232696532,11.577695506744384Q13.890875232696533,10.956275506744385,13.890875232696533,10.043365506744385Q13.890875232696533,9.130465506744384,13.269475232696532,8.509065506744385L11.534305232696532,6.773909506744385Q10.912935232696533,6.152515506744384,9.999995232696534,6.152515406744385Q9.087055232696533,6.152515406744385,8.465695232696532,6.773911506744385L6.730520232696533,8.509065506744385Q6.109125232696533,9.130465506744384,6.109125232696533,10.043365506744385Q6.109125232696533,10.956275506744385,6.730520232696533,11.577695506744384L8.465695232696532,13.312845506744384Q9.087085232696534,13.934245506744386,10.000005232696534,13.934245506744386Q10.843675232696533,13.934245506744386,11.538115232696533,13.309225506744385Z" fill="#FCFDFF" fill-opacity="1"/></g><g><path d="M10,19.5C4.75115,19.5,0.5,15.2488,0.5,10C0.5,4.75115,4.75115,0.5,10,0.5C15.2488,0.5,19.5,4.75115,19.5,10C19.5,15.2488,15.2488,19.5,10,19.5ZM10,1.80137C5.48858,1.80137,1.80137,5.48858,1.80137,10C1.80137,14.5114,5.48858,18.1986,10,18.1986C14.5114,18.1986,18.1986,14.5114,18.1986,10C18.1986,5.48858,14.5114,1.80137,10,1.80137Z" fill="#FCFDFF" fill-opacity="1"/><path d="M18.0986,10Q18.0986,6.65784,15.7204,4.27961Q13.3421,1.90137,10,1.90137Q6.65787,1.90137,4.27961,4.27961Q1.90137,6.65785,1.90137,10Q1.90137,13.3421,4.27961,15.7204Q6.65784,18.0986,10,18.0986Q13.3422,18.0986,15.7204,15.7204Q18.0986,13.3422,18.0986,10L18.0986,10ZM18.2986,10Q18.2986,13.425,15.8618,15.8618Q13.425,18.2986,10,18.2986Q6.575,18.2986,4.13819,15.8618Q1.70137,13.425,1.70137,10Q1.70137,6.57501,4.13819,4.13819Q6.57501,1.70137,10,1.70137Q13.4249,1.70137,15.8618,4.13819Q18.2986,6.57498,18.2986,10L18.2986,10ZM19.6,10Q19.6,11.9539,18.8458,13.7377Q18.1174,15.4606,16.789,16.789Q15.4606,18.1174,13.7377,18.8458Q11.9539,19.6,10,19.6Q8.04613,19.6,6.26232,18.8458Q4.53934,18.1174,3.21097,16.789Q1.88257,15.4606,1.1541489999999999,13.7377Q0.4,11.9539,0.4,10Q0.4,8.046109999999999,1.1541489999999999,6.26232Q1.88259,4.53935,3.21097,3.21097Q4.53935,1.88259,6.26232,1.1541489999999999Q8.0461,0.4000006,10,0.400001Q11.9539,0.4,13.7377,1.1541489999999999Q15.4606,1.88257,16.789,3.21097Q18.1174,4.53934,18.8458,6.26232Q19.6,8.04613,19.6,10ZM19.4,10Q19.4,8.08666,18.6616,6.34021Q17.9484,4.65318,16.6476,3.35239Q15.3468,2.05159,13.6598,1.338362Q11.9133,0.6,10,0.600001Q8.086649999999999,0.6,6.34021,1.338362Q4.65318,2.0516,3.35239,3.35239Q2.0516,4.65318,1.338362,6.34021Q0.6,8.086649999999999,0.6,10Q0.5999994,11.9133,1.338362,13.6598Q2.05159,15.3468,3.35239,16.6476Q4.65318,17.9484,6.34021,18.6616Q8.086649999999999,19.4,10,19.4Q11.9133,19.4,13.6598,18.6616Q15.3468,17.9484,16.6476,16.6476Q17.9484,15.3468,18.6616,13.6598Q19.4,11.9133,19.4,10Z" fill="#FCFDFF" fill-opacity="1"/></g></g><g style="mix-blend-mode:passthrough"></g></g></svg>