<svg xmlns="http://www.w3.org/2000/svg" xmlns:xlink="http://www.w3.org/1999/xlink" fill="none" version="1.1" width="20" height="20" viewBox="0 0 20 20"><g style="mix-blend-mode:passthrough"><g style="mix-blend-mode:passthrough"><g><path d="M10.093271742504882,1.8181737661361694L11.670722942504883,2.1847187661361693C11.477632942504883,3.006173766136169,11.862182942504884,3.7711737661361697,12.975722942504882,4.568903766136169C15.574272942504884,6.42944376613617,16.187902942504884,7.47835376613617,15.449092942504883,9.797083766136168C15.013812942504883,11.163443766136169,15.541542942504883,11.66253376613617,17.363632942504882,11.66253376613617L17.363632942504882,13.272673766136169C14.565452942504884,13.272673766136169,13.087002942504883,11.87367376613617,13.904362942504882,9.31108376613617C14.381362942504882,7.81544376613617,14.123632942504884,7.376083766136169,12.028272942504882,5.8747137661361695C10.427906942504883,4.729263766136169,9.732452942504883,3.3465337661361696,10.093271742504882,1.8181737661361694Z" fill="#FCFDFF" fill-opacity="1"/><path d="M11.970072942504883,5.956033766136169Q9.440995942504882,4.1458737661361695,9.995946652504882,1.7951976661361695L10.018842842504883,1.6982147661361695L11.791012942504883,2.1100057661361693L11.768072942504883,2.2076017661361695Q11.491822942504882,3.3828437661361694,13.033962942504882,4.48760376613617Q15.041012942504882,5.92465376613617,15.553652942504883,6.967043766136169Q16.101092942504884,8.08019376613617,15.544372942504882,9.82744376613617Q15.237452942504884,10.79086376613617,15.629412942504882,11.17035376613617Q16.034492942504883,11.56253376613617,17.363632942504882,11.56253376613617L17.463632942504884,11.56253376613617L17.463632942504884,13.37267376613617L17.363632942504882,13.37267376613617Q15.173712942504883,13.37267376613617,14.204612942504884,12.32057376613617Q13.190612942504883,11.21972376613617,13.809092942504883,9.280693766136169Q14.152332942504882,8.20448376613617,13.843352942504882,7.643273766136169Q13.529662942504883,7.073503766136169,11.970022942504883,5.9560037661361696L11.970072942504883,5.956033766136169ZM12.086512942504882,5.79343376613617Q13.683002942504883,6.93734376613617,14.018552942504883,7.54681376613617Q14.368992942504882,8.183333766136169,13.999632942504883,9.341473766136168Q13.416472942504882,11.169733766136169,14.351722942504882,12.185073766136169Q15.261402942504883,13.172773766136169,17.363632942504882,13.17267376613617L17.363632942504882,13.272673766136169L17.263632942504884,13.272673766136169L17.263632942504884,11.66253376613617L17.363632942504882,11.66253376613617L17.363632942504882,11.762533766136169Q15.953532942504882,11.762543766136169,15.490292942504883,11.31404376613617Q15.009252942504883,10.848313766136169,15.353812942504883,9.76672376613617Q15.886082942504883,8.09620376613617,15.374182942504882,7.055303766136169Q14.883722942504882,6.0580137661361695,12.917492942504882,4.650193766136169Q11.266482942504883,3.4674337661361694,11.573382942504884,2.1618367661361693L11.670722942504883,2.1847187661361693L11.648092942504883,2.2821237661361695L10.070638142504883,1.9155786661361693L10.093271742504882,1.8181737661361694L10.190595942504883,1.8411507661361695Q9.666459942504883,4.061283766136169,12.086472942504884,5.793403766136169L12.086512942504882,5.79343376613617Z" fill="#363940" fill-opacity="1"/></g><g><path d="M2.7639847412109377,8.62545C1.7176287412109374,14.1218,6.9414247412109376,18.7311,12.264684741210937,17.0085C11.812284741210938,15.9629,11.318884741210937,15.7289,10.399254741210937,15.7551C10.287164741210937,15.7575,10.191434741210937,15.7633,9.981984741210937,15.7755C8.396344741210937,15.8713,7.6076247412109375,15.6733,6.862254741210937,14.5401C6.028524741210937,13.2752,6.289534741210938,12.3605,7.295894741210938,11.2003L7.415344741210937,11.0628C8.164804741210936,10.20373,8.235984741210938,9.93536,7.6918947412109375,9.15318C7.083164741210937,8.27773,6.745254741210937,8.23109,5.473804741210937,8.59518C4.279254741210938,8.93636,3.5134347412109377,9.01164,2.7639847412109377,8.62545ZM3.2696247412109374,7.00709C3.6803447412109374,7.32045,4.045254741210938,7.30164,5.023804741210937,7.02182C6.891714741210937,6.48755,7.931624741210937,6.63236,9.035344741210938,8.218820000000001C10.105534741210937,9.757,9.833894741210937,10.77973,8.648344741210938,12.1387L8.532164741210938,12.2721C7.951254741210938,12.943,7.895624741210938,13.1353,8.229434741210937,13.6409C8.555074741210937,14.1367,8.829984741210938,14.2055,9.882984741210937,14.1425C10.110434741210938,14.1285,10.217624741210937,14.1228,10.352624741210937,14.1187C11.918584741210937,14.0745,12.995384741210938,14.6587,13.751384741210938,16.337600000000002C18.039684741210937,13.7962,18.616584741210936,7.81751,14.893384741210937,4.502940000000001C11.170184741210937,1.188379,5.298464741210937,2.45343,3.2704347412109374,7.00709L3.2696247412109374,7.00709ZM9.999984741210938,19C5.029534741210938,19,0.9999847412109375,14.9705,0.9999847412109375,10C0.9999847412109375,5.02955,5.029534741210938,1,9.999984741210938,1C14.970484741210937,1,18.999984741210938,5.02955,18.999984741210938,10C18.999984741210938,14.9705,14.970484741210937,19,9.999984741210938,19Z" fill="#FCFDFF" fill-opacity="1"/><path d="M19.09998474121094,10Q19.09998474121094,11.8513,18.384784741210936,13.5421Q17.694084741210936,15.1752,16.434584741210937,16.4346Q15.175184741210938,17.6941,13.542084741210937,18.3848Q11.851284741210938,19.1,9.999984741210938,19.1Q8.148714741210938,19.1,6.457864741210938,18.3848Q4.824794741210937,17.6941,3.5653547412109377,16.4346Q2.3059047412109375,15.1752,1.6151647412109376,13.5421Q0.8999853412109375,11.8513,0.8999847412109375,10Q0.8999847412109375,8.148710000000001,1.6151647412109376,6.45788Q2.3059147412109375,4.824809999999999,3.5653547412109377,3.56537Q4.824794741210937,2.30593,6.457864741210938,1.61518Q8.148704741210938,0.9,9.999984741210938,0.9Q11.851284741210938,0.9000001,13.542084741210937,1.61518Q15.175184741210938,2.30592,16.434584741210937,3.56537Q17.694084741210936,4.824809999999999,18.384784741210936,6.45788Q19.09998474121094,8.14873,19.09998474121094,10ZM18.899984741210936,10Q18.899984741210936,8.18929,18.20058474121094,6.5358Q17.525084741210936,4.9386399999999995,16.293184741210936,3.70679Q15.061284741210937,2.47493,13.464184741210937,1.79938Q11.810684741210938,1.1,9.999984741210938,1.1Q8.189264741210938,1.1,6.5357847412109376,1.79938Q4.938624741210937,2.47493,3.7067747412109373,3.70679Q2.4749147412109376,4.93865,1.7993647412109375,6.53579Q1.0999847412109376,8.18927,1.0999847412109376,10Q1.0999847412109376,11.8107,1.7993647412109375,13.4642Q2.4749147412109376,15.0613,3.7067747412109373,16.2932Q4.938624741210937,17.5251,6.5357847412109376,18.2006Q8.189274741210937,18.9,9.999984741210938,18.9Q11.810684741210938,18.9,13.464184741210937,18.2006Q15.061284741210937,17.5251,16.293184741210936,16.2932Q17.525084741210936,15.0613,18.20058474121094,13.4642Q18.899984741210936,11.8107,18.899984741210936,10ZM3.2703247412109375,7.10709L3.2695047412109375,7.10709L3.2696247412109374,7.00709L3.3302747412109377,6.92759Q3.6054547412109375,7.13753,3.9335847412109377,7.1369Q4.259844741210937,7.13627,4.996304741210937,6.92567Q6.483314741210937,6.50035,7.341814741210937,6.7284Q8.296734741210937,6.98205,9.117434741210937,8.16171Q9.913834741210938,9.30637,9.786874741210937,10.25917Q9.672604741210938,11.1168,8.723704741210938,12.2045L8.607564741210936,12.3378Q8.184464741210938,12.8264,8.135244741210936,13.0408Q8.088254741210937,13.2456,8.312894741210936,13.5858Q8.534584741210939,13.9234,8.811804741210938,14.0053Q9.095924741210938,14.0894,9.877014741210937,14.0426Q10.186234741210937,14.0237,10.349594741210938,14.0188Q11.588984741210938,13.9838,12.408784741210937,14.4973Q13.277284741210938,15.0412,13.842484741210937,16.296599999999998L13.751384741210938,16.337600000000002L13.700384741210938,16.2516Q15.248084741210938,15.3343,16.17748474121094,13.8299Q17.06368474121094,12.3951,17.227184741210937,10.70061Q17.390684741210936,9.00607,16.79518474121094,7.42837Q16.170684741210938,5.77393,14.826884741210938,4.57763Q13.483084741210938,3.38132,11.767584741210937,2.95254Q10.131504741210938,2.54364,8.467294741210939,2.90219Q6.803084741210937,3.26074,5.480574741210938,4.30706Q4.093754741210938,5.40425,3.3617847412109376,7.04777L3.3353347412109375,7.10717L3.2703247412109375,7.10709ZM3.2705547412109377,6.90709L3.2704347412109374,7.00709L3.1790847412109375,6.96641Q3.9310647412109376,5.27793,5.3564747412109375,4.1502099999999995Q6.715484741210937,3.07503,8.425164741210939,2.70668Q10.134854741210937,2.33833,11.815984741210938,2.7585100000000002Q13.579384741210937,3.19923,14.959884741210937,4.42825Q16.340484741210936,5.65726,16.98228474121094,7.35774Q17.59418474121094,8.97897,17.42628474121094,10.71982Q17.258284741210936,12.4606,16.347584741210937,13.935Q15.392384741210938,15.4813,13.802284741210938,16.4237L13.706084741210937,16.4807L13.660184741210937,16.378700000000002Q13.119784741210937,15.1785,12.302684741210937,14.6668Q11.534184741210938,14.1854,10.355654741210937,14.2187Q10.195394741210938,14.2235,9.888954741210938,14.2423Q9.072854741210937,14.2911,8.755094741210938,14.1971Q8.407624741210938,14.0944,8.145984741210938,13.696Q7.8741647412109375,13.2843,7.940314741210938,12.9961Q8.000674741210936,12.7332,8.456764741210938,12.2064L8.572994741210938,12.073Q9.482304741210937,11.0306,9.588624741210937,10.23276Q9.705334741210937,9.3569,8.953264741210937,8.275929999999999Q8.174454741210937,7.15651,7.290474741210938,6.92169Q6.485284741210937,6.70781,5.0512947412109375,7.11796Q4.288064741210937,7.33621,3.9339747412109376,7.3369Q3.5380447412109377,7.33766,3.2089647412109374,7.08659L2.9732347412109377,6.90674L3.2705547412109377,6.90709ZM5.501264741210938,8.69134Q4.542434741210938,8.96519,3.9550147412109373,8.98303Q3.2794347412109377,9.00355,2.7181747412109374,8.71435L2.7639847412109377,8.62545L2.8622247412109374,8.64416Q2.4862947412109375,10.61887,3.1525047412109375,12.4623Q3.7824647412109376,14.2055,5.1918947412109375,15.4491Q6.601344741210937,16.692700000000002,8.409334741210937,17.1007Q10.321364741210937,17.5323,12.233884741210938,16.9134L12.264684741210937,17.0085L12.172884741210938,17.0483Q11.857384741210938,16.3189,11.453884741210938,16.064500000000002Q11.090684741210938,15.8354,10.402104741210938,15.855Q10.294224741210938,15.8574,10.004784741210937,15.8744L9.987834741210937,15.8754Q8.724514741210937,15.9516,8.072584741210939,15.7125Q7.336084741210938,15.4424,6.778704741210937,14.595Q6.154344741210937,13.6478,6.290344741210937,12.8148Q6.4126147412109376,12.0659,7.2203547412109375,11.1347L7.3398647412109375,10.99722Q7.891884741210937,10.36445,7.939954741210937,10.06339Q7.989094741210938,9.75556,7.6098047412109375,9.21028Q7.182014741210938,8.59506,6.8083547412109375,8.50667Q6.445724741210937,8.42089,5.501334741210938,8.691320000000001L5.501264741210938,8.69134ZM5.446274741210938,8.49904Q6.440904741210938,8.214220000000001,6.854394741210937,8.31204Q7.302534741210938,8.418050000000001,7.7739847412109375,9.09608Q8.199304741210938,9.70751,8.137444741210938,10.09492Q8.080334741210937,10.45267,7.490824741210938,11.1284L7.371434741210938,11.2658Q6.600864741210938,12.1541,6.487734741210938,12.847Q6.364314741210937,13.6029,6.945804741210938,14.4851Q7.466914741210937,15.2774,8.141454741210937,15.5248Q8.754154741210938,15.7495,9.976134741210938,15.6757L9.993084741210938,15.6747Q10.286154741210938,15.6575,10.396414741210938,15.6551Q11.145784741210937,15.6338,11.560484741210937,15.8953Q12.016384741210938,16.1827,12.356484741210938,16.9688L12.400184741210937,17.0698L12.295484741210938,17.1037Q10.330794741210937,17.7394,8.365304741210938,17.2958Q6.507394741210938,16.8765,5.059564741210938,15.5991Q3.6117547412109374,14.3216,2.9644047412109376,12.5303Q2.2795747412109373,10.63528,2.665744741210937,8.60675L2.690784741210938,8.47524L2.8097847412109376,8.53656Q3.3250647412109373,8.80207,3.9489447412109375,8.78312Q4.511474741210938,8.76604,5.446334741210937,8.499030000000001L5.446274741210938,8.49904Z" fill="#363940" fill-opacity="1"/></g></g><g style="mix-blend-mode:passthrough"></g></g></svg>