<svg xmlns="http://www.w3.org/2000/svg" xmlns:xlink="http://www.w3.org/1999/xlink" fill="none" version="1.1" width="20" height="20" viewBox="0 0 20 20"><g style="mix-blend-mode:passthrough"><g transform="matrix(-1,0,0,1,38,0)"><path d="M27.95894,2.63636C32.057,2.75909,35.3101,6.03182,35.3101,10C35.3101,14.05,31.887999999999998,17.3636,27.70545,17.3636C24.53685,17.3636,21.83299,15.4818,20.69229,12.8636L20.94578,12.8636C25.12833,12.8636,28.55041,9.55,28.55041,5.5C28.55041,4.47727,28.33917,3.53636,27.95894,2.63636ZM27.95894,1C27.40972,1,26.90274,1.245455,26.56476,1.695454C26.226770000000002,2.1454500000000003,26.18453,2.75909,26.39576,3.25C26.691499999999998,3.98636,26.86049,4.72273,26.86049,5.5C26.86049,8.65,24.19887,11.2273,20.94578,11.2273L20.73454,11.2273L20.69229,11.2273C20.14307,11.2273,19.636093,11.4727,19.298109,11.9227C18.9601259,12.3727,18.917878,12.9864,19.129118,13.4773C20.6078,16.8318,23.94538,19,27.70545,19C32.8175,19,37,14.95,37,10C37,5.13182,33.0709,1.163637,28.00119,1.000000686645L27.95894,1Z" fill="#FCFDFF" fill-opacity="1"/></g><g style="mix-blend-mode:passthrough"></g></g></svg>