<svg xmlns="http://www.w3.org/2000/svg" xmlns:xlink="http://www.w3.org/1999/xlink" fill="none" version="1.1" width="18" height="18" viewBox="0 0 18 18"><defs><clipPath id="master_svg0_1635_00840"><rect x="0" y="0" width="18" height="18" rx="0"/></clipPath></defs><g clip-path="url(#master_svg0_1635_00840)"><g><path d="M8.7003,12.2697C8.35275,12.641,7.76676,12.6508,7.407,12.2913L4.2228,9.108C3.87143,8.75628,3.87157,8.18636,4.22311,7.83481C4.57466,7.48326,5.14458,7.48313,5.4963,7.8345L8.0433,10.3815L12.5811,5.8428C12.9325,5.49113,13.5025,5.49093,13.8541,5.84235C14.2058,6.19377,14.206,6.76373,13.8546,7.1154L8.7003,12.2697ZM9,18C13.9707,18,18,13.9707,18,9C18,4.0293,13.9707,0,9,0C4.0293,0,0,4.0293,0,9C0,13.9707,4.0293,18,9,18Z" fill="#06CCAB" fill-opacity="1" style="mix-blend-mode:passthrough"/></g></g></svg>