<svg xmlns="http://www.w3.org/2000/svg" xmlns:xlink="http://www.w3.org/1999/xlink" fill="none" version="1.1" width="15.80078125" height="13.7998046875" viewBox="0 0 15.80078125 13.7998046875"><g><g><path d="M12.330762081071361,13.400282578430176C12.143462081071362,13.400282578430176,11.956062081071362,13.323232578430176,11.813062081071362,13.169132578430176C11.526962081071362,12.860942578430176,11.526962081071362,12.361642578430176,11.813062081071362,12.053412578430176L13.610062081071362,10.117862578430175L1.135131081071362,10.117862578430175C0.7303720810713619,10.117862578430175,0.4028620810713619,9.764962578430175,0.4028620810713619,9.328840578430176C0.4028620810713619,8.892741578430176,0.7303720810713619,8.539822578430176,1.135131081071362,8.539822578430176L13.913262081071363,8.539822578430176C14.900062081071361,8.539822578430176,15.225462081071361,9.110041578430176,15.319862081071362,9.355059578430176C15.414262081071362,9.600082578430175,15.558062081071363,10.250392578430176,14.860062081071362,11.002432578430176L12.848562081071362,13.169132578430176C12.705462081071362,13.323232578430176,12.518062081071362,13.400282578430176,12.330762081071361,13.400282578430176Z" fill="#FF8142" fill-opacity="1" style="mix-blend-mode:passthrough"/><path d="M11.519862081071363,13.441212578430175Q11.853062081071362,13.800282578430176,12.330762081071361,13.800282578430176Q12.808462081071362,13.800282578430176,13.141662081071361,13.441282578430176L15.153262081071363,11.274542578430175Q15.694162081071362,10.691732578430177,15.783362081071362,10.043132578430175Q15.843962081071362,9.602722578430175,15.693162081071362,9.211255578430176Q15.540362081071361,8.814527578430177,15.201162081071361,8.543199138430175Q14.696862081071362,8.139822578430175,13.913262081071363,8.139822578430175L1.135131081071362,8.139822578430175Q0.657072081071362,8.139822578430175,0.3240190810713619,8.498695078430176Q0.002862081071361877,8.844749578430175,0.002862081071361877,9.328840578430176Q0.002862081071361877,9.812952578430176,0.3240222810713619,10.159002578430176Q0.6570710810713619,10.517862578430176,1.135131081071362,10.517862578430176L12.692862081071361,10.517862578430176L11.519862081071363,11.781312578430176Q11.198562081071362,12.127572578430176,11.198562081071362,12.611292578430175Q11.198562081071362,13.095012578430175,11.519862081071363,13.441212578430175ZM1.135131081071362,10.117862578430175L13.610062081071362,10.117862578430175L13.238762081071362,10.517862578430176L11.813062081071362,12.053412578430176C11.526962081071362,12.361642578430176,11.526962081071362,12.860942578430176,11.813062081071362,13.169132578430176C11.956062081071362,13.323232578430176,12.143462081071362,13.400282578430176,12.330762081071361,13.400282578430176C12.518062081071362,13.400282578430176,12.705462081071362,13.323232578430176,12.848562081071362,13.169132578430176L14.860062081071362,11.002432578430176C15.558062081071363,10.250392578430176,15.414262081071362,9.600082578430175,15.319862081071362,9.355059578430176C15.225462081071361,9.110041578430176,14.900062081071361,8.539822578430176,13.913262081071363,8.539822578430176L1.135131081071362,8.539822578430176C0.7303720810713619,8.539822578430176,0.4028620810713619,8.892741578430176,0.4028620810713619,9.328840578430176C0.4028620810713619,9.764962578430175,0.7303720810713619,10.117862578430175,1.135131081071362,10.117862578430175Z" fill-rule="evenodd" fill="#FF8142" fill-opacity="1"/></g><g transform="matrix(-1,0,0,-1,30.79437255859375,10.521477699279785)"><path d="M27.325086279296876,10.121198849639892C27.137786279296876,10.121198849639892,26.950386279296875,10.044148849639893,26.807386279296875,9.890048849639893C26.521286279296874,9.581858849639893,26.521286279296874,9.082558849639893,26.807386279296875,8.774328849639893L28.604386279296875,6.838778849639892L16.129455279296874,6.838778849639892C15.724696279296875,6.838778849639892,15.397186279296875,6.485878849639892,15.397186279296875,6.049756849639893C15.397186279296875,5.613657849639893,15.724696279296875,5.260738849639893,16.129455279296874,5.260738849639893L28.907586279296876,5.260738849639893C29.894386279296874,5.260738849639893,30.219786279296876,5.830957849639892,30.314186279296877,6.075975849639892C30.408586279296877,6.320998849639892,30.552386279296876,6.971308849639892,29.854386279296875,7.723348849639892L27.842886279296877,9.890048849639893C27.699786279296873,10.044148849639893,27.512386279296877,10.121198849639892,27.325086279296876,10.121198849639892Z" fill="#FF8142" fill-opacity="1" style="mix-blend-mode:passthrough"/><path d="M26.514186279296876,10.162128849639892Q26.847386279296877,10.521198849639893,27.325086279296876,10.521198849639893Q27.802786279296875,10.521198849639893,28.135986279296873,10.162198849639893L30.147586279296874,7.995458849639892Q30.688486279296875,7.412648849639893,30.777686279296873,6.7640488496398925Q30.838286279296874,6.3236388496398925,30.687486279296877,5.932171849639893Q30.534686279296874,5.5354438496398926,30.195486279296873,5.264115409639893Q29.691186279296875,4.860738849639892,28.907586279296876,4.860738849639892L16.129455279296874,4.860738849639892Q15.651396279296875,4.860738849639892,15.318343279296876,5.219611349639893Q14.997186279296875,5.565665849639893,14.997186279296875,6.049756849639893Q14.997186279296875,6.533868849639893,15.318346479296874,6.879918849639893Q15.651395279296874,7.238778849639893,16.129455279296874,7.238778849639893L27.687186279296874,7.238778849639893L26.514186279296876,8.502228849639893Q26.192886279296875,8.848488849639892,26.192886279296875,9.332208849639892Q26.192886279296875,9.815928849639892,26.514186279296876,10.162128849639892ZM16.129455279296874,6.838778849639892L28.604386279296875,6.838778849639892L28.233086279296877,7.238778849639893L26.807386279296875,8.774328849639893C26.521286279296874,9.082558849639893,26.521286279296874,9.581858849639893,26.807386279296875,9.890048849639893C26.950386279296875,10.044148849639893,27.137786279296876,10.121198849639892,27.325086279296876,10.121198849639892C27.512386279296877,10.121198849639892,27.699786279296873,10.044148849639893,27.842886279296877,9.890048849639893L29.854386279296875,7.723348849639892C30.552386279296876,6.971308849639892,30.408586279296877,6.320998849639892,30.314186279296877,6.075975849639892C30.219786279296876,5.830957849639892,29.894386279296874,5.260738849639893,28.907586279296876,5.260738849639893L16.129455279296874,5.260738849639893C15.724696279296875,5.260738849639893,15.397186279296875,5.613657849639893,15.397186279296875,6.049756849639893C15.397186279296875,6.485878849639892,15.724696279296875,6.838778849639892,16.129455279296874,6.838778849639892Z" fill-rule="evenodd" fill="#FF8142" fill-opacity="1"/></g></g></svg>