<svg xmlns="http://www.w3.org/2000/svg" xmlns:xlink="http://www.w3.org/1999/xlink" fill="none" version="1.1" width="18.8671875" height="18.8671875" viewBox="0 0 18.8671875 18.8671875"><g><g><path d="M10.452219618530274,8.065909799728393L12.428909618530273,8.009999799728394C12.835559618530272,8.053089799728394,13.187339618530274,8.314599799728393,13.348539618530275,8.693649799728394C13.509749618530273,9.072699799728394,13.455179618530273,9.510049799728392,13.205899618530275,9.836989799728393L9.546959618530273,14.636099799728393C9.294139618530274,14.967799799728393,8.853149618530274,15.088799799728394,8.468579618530274,14.932099799728393C8.083999618530274,14.775299799728394,7.850139618530274,14.379299799728393,7.896699618530274,13.963499799728394L8.458999618530274,10.844389799728393C8.465349618530274,10.787259799728393,8.424339618530274,10.735839799728392,8.367659618530274,10.729879799728394L6.411079618530273,10.787869799728394C6.002109618530273,10.744519799728394,5.648846618530273,10.480309799728394,5.488908218530273,10.098169799728392C5.328969618530273,9.716019799728393,5.387650718530273,9.276379799728392,5.642090618530274,8.950519799728394L9.262029618530274,4.315424799728394C9.517429618530272,3.9882375997283934,9.957039618530274,3.8717109997283936,10.338899618530274,4.029982199728393C10.720759618530273,4.188253799728393,10.952159618530274,4.582893799728393,10.905719618530274,4.996689799728394L10.361069618530273,7.951399799728394C10.354719618530273,8.008459799728394,10.395609618530273,8.059839799728394,10.452219618530274,8.065909799728393Z" fill="#7D9299" fill-opacity="1" style="mix-blend-mode:passthrough"/></g><g><path d="M9.43406,0C4.23211,0,0,4.23141,0,9.43336C0,14.6353,4.23211,18.8672,9.43406,18.8672C12.035,18.8672,14.3935,17.8092,16.1017,16.1009C17.8099,14.3927,18.8679,12.0342,18.8679,9.43336C18.8679,4.23164,14.6358,0,9.43406,0ZM9.43406,17.4438C5.01727,17.4438,1.42406,13.8506,1.42406,9.43383C1.42406,5.01703,5.01727,1.42336,9.43406,1.42336C13.8509,1.42336,17.4438,5.01562,17.4438,9.43336C17.4438,13.8511,13.8506,17.4431,9.43406,17.4431L9.43406,17.4438Z" fill="#7D9299" fill-opacity="1" style="mix-blend-mode:passthrough"/></g></g></svg>