<svg xmlns="http://www.w3.org/2000/svg" xmlns:xlink="http://www.w3.org/1999/xlink" fill="none" version="1.1" width="18.8671875" height="18.8671875" viewBox="0 0 18.8671875 18.8671875"><g><g><path d="M9.43406,0C4.23211,0,0,4.23141,0,9.43336C0,14.6353,4.23211,18.8672,9.43406,18.8672C14.636,18.8672,18.8679,14.6351,18.8679,9.43336C18.8679,4.23164,14.6358,0,9.43406,0ZM9.43406,17.4438C5.01727,17.4438,1.42406,13.8506,1.42406,9.43383C1.42406,5.01703,5.01727,1.42336,9.43406,1.42336C13.8509,1.42336,17.4438,5.01562,17.4438,9.43336C17.4438,13.8511,13.8506,17.4431,9.43406,17.4431L9.43406,17.4438Z" fill="#7D9299" fill-opacity="1" style="mix-blend-mode:passthrough"/></g><g><path d="M13.924129828338623,6.226957C13.623509828338623,5.9243478,13.172569828338624,5.9243478,12.871949828338623,6.226957L8.061999828338623,11.0687L5.957639828338623,8.95043C5.657021828338623,8.647829999999999,5.206088828338623,8.647829999999999,4.905466828338623,8.95043C4.604844228338623,9.25304,4.604844228338623,9.70696,4.905466828338623,10.00956L7.535909828338623,12.65739Q7.535909828338623,12.733039999999999,7.6110598283386235,12.733039999999999C7.911689828338623,13.03565,8.362619828338623,13.03565,8.663239828338623,12.733039999999999L13.999279828338622,7.36174C14.224749828338624,6.983477,14.224749828338624,6.529564,13.924129828338623,6.226957Z" fill="#7D9299" fill-opacity="1" style="mix-blend-mode:passthrough"/></g></g></svg>