<svg xmlns="http://www.w3.org/2000/svg" xmlns:xlink="http://www.w3.org/1999/xlink" fill="none" version="1.1" width="18.8671875" height="18.8671875" viewBox="0 0 18.8671875 18.8671875"><g><g><path d="M9.43406,0C4.23211,0,0,4.23141,0,9.43336C0,14.6353,4.23211,18.8672,9.43406,18.8672C14.636,18.8672,18.8679,14.6351,18.8679,9.43336C18.8679,4.23164,14.6358,0,9.43406,0ZM9.43406,17.4438C5.01727,17.4438,1.42406,13.8506,1.42406,9.43383C1.42406,5.01703,5.01727,1.42336,9.43406,1.42336C13.8509,1.42336,17.4438,5.01562,17.4438,9.43336C17.4438,13.8511,13.8506,17.4431,9.43406,17.4431L9.43406,17.4438Z" fill="#7D9299" fill-opacity="1" style="mix-blend-mode:passthrough"/></g><g><path d="M12.764840048828125,7.128703243103027Q12.814980048828126,7.078563243103027,12.854380048828125,7.0196032431030275Q12.893780048828125,6.960633243103027,12.920920048828126,6.895122243103027Q12.948050048828126,6.8296062431030276,12.961890048828124,6.760055243103027Q12.975720048828125,6.690503243103027,12.975720048828125,6.619590243103027Q12.975720048828125,6.548676243103027,12.961890048828124,6.479124243103027Q12.948050048828126,6.4095732431030275,12.920920048828126,6.344057243103027Q12.893780048828125,6.278542243103027,12.854380048828125,6.219579243103027Q12.814980048828126,6.160616243103028,12.764840048828125,6.110473243103027Q12.714700048828124,6.060329243103027,12.655730048828126,6.0209312431030275Q12.596770048828125,5.981534143103027,12.531250048828124,5.954396643103028Q12.465740048828124,5.927259043103027,12.396190048828124,5.913424443103027Q12.326640048828125,5.8995898801030275,12.255720048828124,5.8995898801030275Q12.184810048828126,5.8995898801030275,12.115260048828125,5.913424443103027Q12.045710048828125,5.927259043103027,11.980190048828124,5.954396643103028Q11.914670048828125,5.981534143103027,11.855710048828126,6.0209312431030275Q11.796750048828125,6.060329243103027,11.746610048828124,6.110473243103027L9.539900048828125,8.317173243103028L7.3338500488281255,6.111128243103027Q7.283710048828125,6.060985243103027,7.224750048828125,6.021587243103028Q7.165790048828125,5.982189643103028,7.100270048828125,5.955052143103027Q7.0347500488281245,5.927914643103027,6.965202048828125,5.914080043103027Q6.895651048828125,5.900245412103027,6.824737048828125,5.900245412103027Q6.753824048828125,5.900245412103027,6.684272048828125,5.914080043103027Q6.614721048828125,5.927914643103027,6.549205048828125,5.955052143103027Q6.483690048828125,5.982189643103028,6.424727048828125,6.021587243103028Q6.365764048828125,6.060985243103027,6.315621048828125,6.111128243103027Q6.214351048828125,6.212398243103028,6.159544048828125,6.344713243103027Q6.104737648828125,6.477028243103027,6.104737648828125,6.620245243103027Q6.104737648828125,6.763462243103027,6.159544048828125,6.895777243103027Q6.214351048828125,7.028093243103028,6.315621048828125,7.129363243103027L8.521670048828124,9.335413243103027L6.231174048828125,11.625903243103028Q6.181030048828125,11.676053243103027,6.141633048828125,11.735013243103026Q6.102235048828125,11.793973243103029,6.075097548828125,11.859493243103028Q6.047959948828125,11.925003243103028,6.034125348828125,11.994553243103027Q6.020290774828125,12.064103243103027,6.020290774828125,12.135023243103028Q6.020290774828125,12.205933243103027,6.034125348828125,12.275483243103027Q6.047959948828125,12.345043243103028,6.075097548828125,12.410553243103028Q6.102235048828125,12.476073243103027,6.141633048828125,12.535033243103026Q6.181030048828125,12.593993243103029,6.231174048828125,12.644143243103027Q6.281318048828125,12.694283243103026,6.3402800488281255,12.733683243103027Q6.399243048828125,12.773073243103028,6.464759048828125,12.800213243103027Q6.530274048828125,12.827353243103026,6.599826048828125,12.841183243103028Q6.6693770488281245,12.855023243103027,6.740291048828125,12.855023243103027Q6.811205048828125,12.855023243103027,6.880756048828125,12.841183243103028Q6.950307048828125,12.827353243103026,7.015823048828125,12.800213243103027Q7.081340048828125,12.773073243103028,7.140300048828125,12.733683243103027Q7.199260048828125,12.694283243103026,7.249410048828125,12.644143243103027L9.539900048828125,10.353643243103027L11.831050048828125,12.644793243103027Q11.881200048828125,12.694933243103026,11.940160048828126,12.734333243103027Q11.999120048828125,12.773733243103027,12.064640048828124,12.800873243103027Q12.130150048828124,12.828003243103026,12.199700048828124,12.841843243103028Q12.269250048828125,12.855673243103027,12.340170048828124,12.855673243103027Q12.411080048828126,12.855673243103027,12.480630048828125,12.841843243103028Q12.550190048828124,12.828003243103026,12.615700048828124,12.800873243103027Q12.681220048828125,12.773733243103027,12.740180048828126,12.734333243103027Q12.799140048828125,12.694933243103026,12.849290048828125,12.644793243103027Q12.899430048828126,12.594653243103028,12.938830048828125,12.535683243103026Q12.978220048828124,12.476723243103027,13.005360048828125,12.411213243103028Q13.032500048828126,12.345693243103028,13.046330048828125,12.276143243103029Q13.060170048828125,12.206593243103027,13.060170048828125,12.135673243103028Q13.060170048828125,12.064763243103027,13.046330048828125,11.995213243103027Q13.032500048828126,11.925663243103028,13.005360048828125,11.860143243103028Q12.978220048828124,11.794633243103029,12.938830048828125,11.735663243103026Q12.899430048828126,11.676703243103027,12.849290048828125,11.626563243103028L10.558140048828125,9.335413243103027L12.764840048828125,7.128703243103027Z" fill-rule="evenodd" fill="#7D9299" fill-opacity="1"/></g></g></svg>