<svg xmlns="http://www.w3.org/2000/svg" xmlns:xlink="http://www.w3.org/1999/xlink" fill="none" version="1.1" width="18.8671875" height="18.8671875" viewBox="0 0 18.8671875 18.8671875"><g><g><path d="M9.43406,0C4.23211,0,0,4.23141,0,9.43336C0,14.6353,4.23211,18.8672,9.43406,18.8672C14.636,18.8672,18.8679,14.6351,18.8679,9.43336C18.8679,4.23164,14.6358,0,9.43406,0ZM9.43406,17.4438C5.01727,17.4438,1.42406,13.8506,1.42406,9.43383C1.42406,5.01703,5.01727,1.42336,9.43406,1.42336C13.8509,1.42336,17.4438,5.01562,17.4438,9.43336C17.4438,13.8511,13.8506,17.4431,9.43406,17.4431L9.43406,17.4438Z" fill="#7D9299" fill-opacity="1" style="mix-blend-mode:passthrough"/></g><g><path d="M10.199300076293945,5.520000190734863Q10.199300076293945,5.449086190734864,10.185460076293946,5.379535190734863Q10.171630076293944,5.3099841907348635,10.144490076293945,5.244468190734863Q10.117350076293945,5.178952190734863,10.077950076293945,5.119989190734863Q10.038560076293946,5.061027190734864,9.988410076293945,5.010883190734863Q9.938270076293946,4.960740190734863,9.879310076293946,4.921342190734864Q9.820340076293945,4.881944490734863,9.754830076293945,4.854806890734864Q9.689310076293946,4.827669390734863,9.619760076293947,4.813834790734863Q9.550210076293945,4.800000190734863,9.479300076293946,4.800000190734863Q9.408380076293945,4.800000190734863,9.338830076293945,4.813834790734863Q9.269280076293946,4.827669390734863,9.203760076293946,4.854806890734864Q9.138250076293946,4.881944490734863,9.079290076293946,4.921342190734864Q9.020320076293945,4.960740190734863,8.970180076293946,5.010883190734863Q8.920040076293946,5.061027190734864,8.880640076293945,5.119989190734863Q8.841240076293946,5.178952190734863,8.814100076293945,5.244468190734863Q8.786970076293946,5.3099841907348635,8.773130076293945,5.379535190734863Q8.759300076293945,5.449086190734864,8.759300076293945,5.520000190734863L8.759300076293945,8.639840190734864L5.640000076293945,8.639840190734864Q5.569086076293946,8.639840190734864,5.499535076293945,8.653680190734864Q5.4299840762939455,8.667510190734863,5.364468076293945,8.694650190734864Q5.298952076293945,8.721790190734863,5.239989076293945,8.761180190734864Q5.181027076293946,8.800580190734863,5.130883076293945,8.850730190734863Q5.080739076293946,8.900870190734864,5.041342076293946,8.959830190734863Q5.001944376293945,9.018800190734863,4.974806776293946,9.084310190734863Q4.947669276293945,9.149830190734864,4.933834676293945,9.219380190734864Q4.920000076293945,9.288930190734863,4.920000076293945,9.359840190734865Q4.920000076293945,9.430760190734864,4.933834676293945,9.500310190734863Q4.947669276293945,9.569860190734865,4.974806776293946,9.635380190734864Q5.001944376293945,9.700890190734864,5.041342076293946,9.759850190734863Q5.080739076293946,9.818820190734863,5.130883076293945,9.868960190734864Q5.181027076293946,9.919100190734863,5.239989076293945,9.958500190734863Q5.298952076293945,9.997900190734864,5.364468076293945,10.025040190734863Q5.4299840762939455,10.052170190734863,5.499535076293945,10.066010190734863Q5.569086076293946,10.079840190734863,5.640000076293945,10.079840190734863L8.759300076293945,10.079840190734863L8.759300076293945,13.320000190734863Q8.759300076293945,13.390910190734862,8.773130076293945,13.460470190734863Q8.786970076293946,13.530020190734863,8.814100076293945,13.595530190734863Q8.841240076293946,13.661050190734864,8.880640076293945,13.720010190734863Q8.920040076293946,13.778970190734864,8.970180076293946,13.829120190734864Q9.020320076293945,13.879260190734863,9.079290076293946,13.918660190734863Q9.138250076293946,13.958060190734864,9.203760076293946,13.985190190734864Q9.269280076293946,14.012330190734863,9.338830076293945,14.026170190734863Q9.408380076293945,14.040000190734863,9.479300076293946,14.040000190734863Q9.550210076293945,14.040000190734863,9.619760076293947,14.026170190734863Q9.689310076293946,14.012330190734863,9.754830076293945,13.985190190734864Q9.820340076293945,13.958060190734864,9.879310076293946,13.918660190734863Q9.938270076293946,13.879260190734863,9.988410076293945,13.829120190734864Q10.038560076293946,13.778970190734864,10.077950076293945,13.720010190734863Q10.117350076293945,13.661050190734864,10.144490076293945,13.595530190734863Q10.171630076293944,13.530020190734863,10.185460076293946,13.460470190734863Q10.199300076293945,13.390910190734862,10.199300076293945,13.320000190734863L10.199300076293945,10.079840190734863L13.440000076293945,10.079840190734863Q13.510910076293944,10.079840190734863,13.580470076293945,10.066010190734863Q13.650020076293945,10.052170190734863,13.715530076293945,10.025040190734863Q13.781050076293946,9.997900190734864,13.840010076293945,9.958500190734863Q13.898970076293946,9.919100190734863,13.949120076293946,9.868960190734864Q13.999260076293945,9.818820190734863,14.038660076293946,9.759850190734863Q14.078060076293946,9.700890190734864,14.105190076293946,9.635380190734864Q14.132330076293945,9.569860190734865,14.146170076293945,9.500310190734863Q14.160000076293946,9.430760190734864,14.160000076293946,9.359840190734865Q14.160000076293946,9.288930190734863,14.146170076293945,9.219380190734864Q14.132330076293945,9.149830190734864,14.105190076293946,9.084310190734863Q14.078060076293946,9.018800190734863,14.038660076293946,8.959830190734863Q13.999260076293945,8.900870190734864,13.949120076293946,8.850730190734863Q13.898970076293946,8.800580190734863,13.840010076293945,8.761180190734864Q13.781050076293946,8.721790190734863,13.715530076293945,8.694650190734864Q13.650020076293945,8.667510190734863,13.580470076293945,8.653680190734864Q13.510910076293944,8.639840190734864,13.440000076293945,8.639840190734864L10.199300076293945,8.639840190734864L10.199300076293945,5.520000190734863Z" fill-rule="evenodd" fill="#7D9299" fill-opacity="1"/></g></g></svg>