<svg xmlns="http://www.w3.org/2000/svg" xmlns:xlink="http://www.w3.org/1999/xlink" fill="none" version="1.1" width="12" height="12.300048828125" viewBox="0 0 12 12.300048828125"><g><g><path d="M5.41084,11.8990244140625L1.244118,7.6132144140625C0.9186376,7.2785044140625,0.9186376,6.7359344140625,1.2440579999999999,6.4012544140625C1.406558,6.2336744140625,1.619899,6.1500744140625,1.8332410000000001,6.1500744140625C2.04658,6.1500744140625,2.25992,6.2340444140625,2.42242,6.4012544140625L5.16665,9.2238044140625L5.16665,1.0071794140625001C5.16665,0.5336354140624999,5.5396,0.1500244140625,6,0.1500244140625C6.46045,0.1500244140625,6.83335,0.5336354140624999,6.83335,1.0071794140625001L6.83335,9.2238044140625L9.57757,6.4012544140625C9.90299,6.0664744140625,10.43051,6.0664744140625,10.75593,6.4012544140625C11.0814,6.7359344140625,11.0814,7.2785044140625,10.75593,7.6132144140625L6.58918,11.8990244140625C6.26376,12.2337244140625,5.7363,12.2337244140625,5.41084,11.8990244140625Z" fill-rule="evenodd" fill="#0AC7B7" fill-opacity="1"/><path d="M5.01665,8.8543444140625L2.5299899999999997,6.2967144140625Q2.2417100000000003,6.0000744140625,1.8332410000000001,6.0000744140625Q1.424139,6.0000744140625,1.136514,6.2966844140625Q0.44562999999999997,7.0072344140625,1.136568,7.7177744140625L5.3033,12.0035244140625Q5.59156,12.3000244140625,6.00002,12.3000244140625Q6.40849,12.3000244140625,6.69673,12.0035244140625L10.86348,7.7177744140625Q11.5543,7.0072044140625,10.86349,6.2967044140625Q10.57525,6.0001744140625,10.16675,6.0001744140625Q9.75826,6.0001744140625,9.47002,6.2966944140625L6.98335,8.8543444140625L6.98335,1.0071794140625001Q6.98335,0.00002441406250000555,6,0.00002441406250000555Q5.01665,0.00002441406250000555,5.01665,1.0071794140625001L5.01665,8.8543444140625ZM2.31485,6.5057944140625L5.31665,9.5932644140625L5.31665,1.0071794140625001Q5.31665,0.3000244140625,6,0.3000244140625Q6.28195,0.3000244140625,6.48179,0.5055824140625Q6.68335,0.7129054140625,6.68335,1.0071794140625001L6.68335,9.5932644140625L9.68512,6.5058144140625Q9.88502,6.3001744140625,10.16675,6.3001744140625Q10.44849,6.3001744140625,10.64838,6.5058044140625Q11.1359,7.0072144140625,10.64839,7.5086544140625L6.48163,11.7944244140625Q6.28174,12.0000244140625,6.00002,12.0000244140625Q5.7183,12.0000244140625,5.51839,11.7944244140625L1.351667,7.5086544140625Q0.864074,7.0072244140625,1.351601,6.5058244140625Q1.551114,6.3000744140625,1.8332410000000001,6.3000744140625Q2.11493,6.3000744140625,2.31485,6.5057944140625Z" fill-rule="evenodd" fill="#0AC7B7" fill-opacity="1"/></g></g></svg>