<svg xmlns="http://www.w3.org/2000/svg" xmlns:xlink="http://www.w3.org/1999/xlink" fill="none" version="1.1" width="24" height="24" viewBox="0 0 24 24"><g transform="matrix(1,-2.2348338291067193e-8,2.2348338291067193e-8,1,0,0)"><rect x="0" y="0" width="24" height="24" rx="12" fill="#F5F9F9" fill-opacity="1"/><g transform="matrix(0,-0.9999998807907104,0.9999998807907104,0,-10.99999749660492,22.999999761581364)"><g><path d="M10.410840476837159,28.749000000000002L6.2441184768371585,24.46319C5.9186380768371585,24.12848,5.9186380768371585,23.58591,6.244058476837158,23.25123C6.406558476837159,23.08365,6.619899476837158,23.00005,6.833241476837158,23.00005C7.046580476837159,23.00005,7.259920476837158,23.08402,7.422420476837158,23.25123L10.166650476837159,26.07378L10.166650476837159,17.857155C10.166650476837159,17.383611,10.539600476837158,17,11.000000476837158,17C11.460450476837158,17,11.833350476837158,17.383611,11.833350476837158,17.857155L11.833350476837158,26.07378L14.577570476837158,23.25123C14.902990476837159,22.91645,15.430510476837158,22.91645,15.755930476837158,23.25123C16.08140047683716,23.58591,16.08140047683716,24.12848,15.755930476837158,24.46319L11.589180476837157,28.749000000000002C11.26376047683716,29.0837,10.736300476837158,29.0837,10.410840476837159,28.749000000000002Z" fill-rule="evenodd" fill="#0AC7B7" fill-opacity="1"/></g></g></g></svg>