<svg xmlns="http://www.w3.org/2000/svg" xmlns:xlink="http://www.w3.org/1999/xlink" fill="none" version="1.1" width="30" height="30" viewBox="0 0 30 30"><g><g><ellipse cx="15" cy="15" rx="15" ry="15" fill="#2A3331" fill-opacity="1"/></g><g><path d="M14.99524,9C17.2417,9,19.3393,10.64048,21.2226,13.93214C21.7548,14.85595,22.975,15.43929,23.9095,15.50357L24.0952,15.50952L25,15.50949L25,18.523809999999997L19.119,18.523809999999997L19.119,16.22619C19.119,13.92857,17.2714,12.07143,14.99643,12.06905C12.79847,12.077580000000001,10.99044,13.802489999999999,10.87857,15.997620000000001L10.872620000000001,16.22619L10.872620000000001,18.523809999999997L5,18.523809999999997L5,15.50949L5.908333,15.50952C7.02262,15.51191,8.20238,14.914290000000001,8.76548,13.9381C10.65119,10.639289999999999,12.75,9,14.99524,9Z" fill="#FFFFFF" fill-opacity="1"/></g></g></svg>