<svg xmlns="http://www.w3.org/2000/svg" xmlns:xlink="http://www.w3.org/1999/xlink" fill="none" version="1.1" width="38" height="38" viewBox="0 0 38 38"><g><rect x="3" y="3" width="32" height="32" rx="16" fill="#F5F9F9" fill-opacity="1"/><rect x="1.5" y="1.5" width="35" height="35" rx="17.5" fill-opacity="0" stroke-opacity="1" stroke="#FFFFFF" fill="none" stroke-width="3"/><g><g><g transform="matrix(0,1,-1,0,38.11464238166809,-15.185357809066772)"><path d="M42.64590009536743,17.32078228630066L27.222742095367433,17.32078228630066C26.90568809536743,17.32078228630066,26.65000009536743,17.07073228630066,26.65000009536743,16.76067228630066L26.65000009536743,15.61045228630066C26.65000009536743,15.30039228630066,26.90568809536743,15.050342286300658,27.222742095367433,15.050342286300658L38.35030009536743,15.050342286300658L36.488880095367435,13.22998228630066C36.26388009536743,13.009942286300658,36.26388009536743,12.65987228630066,36.488880095367435,12.439832286300659L37.31730009536743,11.62967428630066C37.54230009536743,11.40963148630066,37.90030009536743,11.40963148630066,38.125300095367436,11.62967428630066L43.02430009536744,16.42061228630066C43.239100095367434,16.63065228630066,43.239100095367434,16.96071228630066,43.02430009536744,17.170752286300658C42.92200009536743,17.27077228630066,42.78900009536743,17.32078228630066,42.64590009536743,17.32078228630066Z" fill="#0AC7B7" fill-opacity="1"/></g><g transform="matrix(0,1,-1,0,27.206141471862793,-7.206141471862793)"><path d="M33.74154147186279,10.560108L33.74154147186279,11.710329999999999C33.74154147186279,12.020389999999999,33.48584147186279,12.27044,33.168741471862795,12.27044L22.04120147186279,12.27044L23.902621471862794,14.0908C24.127621471862792,14.310839999999999,24.127621471862792,14.660910000000001,23.902621471862794,14.88095L23.074191471862793,15.69111C22.849181471862792,15.91115,22.491221471862794,15.91115,22.266211471862793,15.69111L17.367225471862792,10.900175C17.152446971862794,10.690134,17.152446971862794,10.360069,17.367225471862792,10.150029C17.469500471862794,10.0500098,17.602458471862793,10,17.745643471862792,10L33.168741471862795,10C33.48584147186279,10,33.74154147186279,10.250048,33.74154147186279,10.560108Z" fill="#2A3331" fill-opacity="1"/></g></g></g></g></svg>