<svg xmlns="http://www.w3.org/2000/svg" xmlns:xlink="http://www.w3.org/1999/xlink" fill="none" version="1.1" width="60" height="60" viewBox="0 0 60 60"><g><g style="opacity:0.1599999964237213;"><path d="M60,30Q60,30.7365,59.9639,31.472Q59.9277,32.2076,59.8555,32.9405Q59.7833,33.6734,59.6753,34.4019Q59.5672,35.1304,59.4235,35.8527Q59.2799,36.575,59.1009,37.2894Q58.922,38.0038,58.7082,38.7085Q58.4944,39.4133,58.2463,40.1067Q57.9982,40.8001,57.7164,41.4805Q57.4345,42.1609,57.1197,42.8266Q56.8048,43.4924,56.4576,44.1419Q56.1105,44.7914,55.7318,45.4231Q55.3532,46.0548,54.9441,46.6671Q54.5349,47.2794,54.0962,47.871Q53.6575,48.4625,53.1903,49.0318Q52.7231,49.6011,52.2285,50.1468Q51.734,50.6924,51.2132,51.2132Q50.6924,51.734,50.1468,52.2285Q49.6011,52.7231,49.0318,53.1903Q48.4625,53.6575,47.871,54.0962Q47.2794,54.5349,46.6671,54.9441Q46.0548,55.3532,45.4231,55.7319Q44.7914,56.1105,44.1419,56.4576Q43.4924,56.8048,42.8266,57.1197Q42.1609,57.4345,41.4805,57.7164Q40.8001,57.9982,40.1067,58.2463Q39.4133,58.4944,38.7085,58.7082Q38.0038,58.922,37.2894,59.1009Q36.575,59.2799,35.8527,59.4236Q35.1304,59.5672,34.4019,59.6753Q33.6734,59.7833,32.9405,59.8555Q32.2076,59.9277,31.472,59.9639Q30.7365,60,30,60Q29.2635,60,28.528,59.9639Q27.7924,59.9277,27.0595,59.8555Q26.3266,59.7833,25.5981,59.6753Q24.8696,59.5672,24.1473,59.4235Q23.425,59.2799,22.7106,59.1009Q21.9962,58.922,21.2915,58.7082Q20.5867,58.4944,19.8933,58.2463Q19.1999,57.9982,18.5195,57.7164Q17.8391,57.4345,17.1733,57.1197Q16.5076,56.8048,15.8581,56.4576Q15.2086,56.1105,14.5769,55.7318Q13.9452,55.3532,13.3329,54.9441Q12.7205,54.5349,12.129,54.0962Q11.5375,53.6575,10.9682,53.1903Q10.3989,52.7231,9.85323,52.2285Q9.30755,51.734,8.7868,51.2132Q8.26604,50.6924,7.77146,50.1468Q7.27689,49.6011,6.80969,49.0318Q6.34248,48.4625,5.90377,47.871Q5.46507,47.2794,5.05591,46.6671Q4.64676,46.0548,4.26814,45.4231Q3.88953,44.7914,3.54236,44.1419Q3.1952,43.4924,2.88032,42.8266Q2.56544,42.1609,2.28361,41.4805Q2.00178,40.8001,1.75368,40.1067Q1.50557,39.4133,1.29179,38.7085Q1.07801,38.0038,0.899062,37.2894Q0.720117,36.575,0.576441,35.8527Q0.432766,35.1304,0.324705,34.4019Q0.216644,33.6734,0.144458,32.9405Q0.0722726,32.2076,0.0361363,31.472Q0,30.7365,0,30Q0,29.2635,0.0361363,28.528Q0.0722726,27.7924,0.144458,27.0595Q0.216644,26.3266,0.324705,25.5981Q0.432766,24.8696,0.576441,24.1473Q0.720117,23.425,0.899062,22.7106Q1.07801,21.9962,1.29179,21.2915Q1.50557,20.5867,1.75368,19.8933Q2.00178,19.1999,2.28361,18.5195Q2.56544,17.8391,2.88032,17.1733Q3.1952,16.5076,3.54236,15.8581Q3.88953,15.2086,4.26814,14.5769Q4.64676,13.9452,5.05591,13.3329Q5.46507,12.7205,5.90377,12.129Q6.34248,11.5375,6.80969,10.9682Q7.27689,10.3989,7.77146,9.85323Q8.26604,9.30755,8.7868,8.7868Q9.30755,8.26604,9.85323,7.77146Q10.3989,7.27689,10.9682,6.80969Q11.5375,6.34248,12.129,5.90377Q12.7205,5.46507,13.3329,5.05591Q13.9452,4.64676,14.5769,4.26814Q15.2086,3.88953,15.8581,3.54236Q16.5076,3.1952,17.1733,2.88032Q17.8391,2.56544,18.5195,2.28361Q19.1999,2.00178,19.8933,1.75368Q20.5867,1.50557,21.2915,1.29179Q21.9962,1.07801,22.7106,0.899062Q23.425,0.720117,24.1473,0.576441Q24.8696,0.432766,25.5981,0.324705Q26.3266,0.216644,27.0595,0.144458Q27.7924,0.0722726,28.528,0.0361363Q29.2635,0,30,0Q30.7365,0,31.472,0.0361363Q32.2076,0.0722726,32.9405,0.144458Q33.6734,0.216644,34.4019,0.324705Q35.1304,0.432766,35.8527,0.576441Q36.575,0.720117,37.2894,0.899062Q38.0038,1.07801,38.7085,1.29179Q39.4133,1.50557,40.1067,1.75368Q40.8001,2.00178,41.4805,2.28361Q42.1609,2.56544,42.8266,2.88032Q43.4924,3.1952,44.1419,3.54236Q44.7914,3.88953,45.4231,4.26814Q46.0548,4.64676,46.6671,5.05591Q47.2794,5.46507,47.871,5.90377Q48.4625,6.34248,49.0318,6.80969Q49.6011,7.27689,50.1468,7.77146Q50.6924,8.26604,51.2132,8.7868Q51.734,9.30755,52.2285,9.85323Q52.7231,10.3989,53.1903,10.9682Q53.6575,11.5375,54.0962,12.129Q54.5349,12.7205,54.9441,13.3329Q55.3532,13.9452,55.7319,14.5769Q56.1105,15.2086,56.4576,15.8581Q56.8048,16.5076,57.1197,17.1733Q57.4345,17.8391,57.7164,18.5195Q57.9982,19.1999,58.2463,19.8933Q58.4944,20.5867,58.7082,21.2915Q58.922,21.9962,59.1009,22.7106Q59.2799,23.425,59.4236,24.1473Q59.5672,24.8696,59.6753,25.5981Q59.7833,26.3266,59.8555,27.0595Q59.9277,27.7924,59.9639,28.528Q60,29.2635,60,30Z" fill="#0AC7B7" fill-opacity="1"/></g><g><path d="M10.9951909375,37.872510937499996C14.1792209375,45.5596109375,21.6802109375,50.5716109375,30.0005109375,50.5715109375C35.4592109375,50.5865109375,40.6971109375,48.4170109375,44.5464109375,44.5465109375C52.5799109375,36.5128109375,52.5799109375,23.4876109375,44.5464109375,15.4539609375C36.512910937499996,7.4202909375,23.4880109375,7.4202909375,15.4545409375,15.4539609375C9.5711819375,21.3373109375,7.8111609375,30.1855109375,10.9951909375,37.872510937499996ZM39.2007109375,26.1269109375Q39.8586109375,26.7847109375,39.5025109375,27.6444109375Q39.1465109375,28.5040109375,38.216110937500005,28.5040109375L21.7428109375,28.5040109375Q21.165810937499998,28.5040109375,20.7580109375,28.0960109375Q20.3502109375,27.6882109375,20.3502109375,27.1115109375L20.3502109375,26.0594109375Q20.3502109375,25.4825109375,20.7582109375,25.074610937499997Q21.1661109375,24.6669109375,21.7428109375,24.6669109375L32.652310937500005,24.6669109375L32.652310937500005,22.9403109375Q32.652310937500005,22.0098109375,33.5121109375,21.653810937499998Q34.3720109375,21.2978109375,35.0295109375,21.9558109375L38.033710937500004,24.959810937500002L39.2007109375,26.1269109375ZM20.755910937499998,33.9672109375Q20.0982109375,33.3092109375,20.4540109375,32.449810937500004Q20.8099109375,31.5901109375,21.7406109375,31.5901109375L38.2144109375,31.5901109375Q38.7911109375,31.5901109375,39.1990109375,31.9977109375Q39.607110937499996,32.4056109375,39.607110937499996,32.9826109375L39.607110937499996,34.0345109375Q39.607110937499996,34.6115109375,39.1990109375,35.0194109375Q38.7911109375,35.4270109375,38.2144109375,35.4270109375L27.3043109375,35.4270109375L27.3043109375,37.153610937500005Q27.3043109375,38.0842109375,26.4445109375,38.4402109375Q25.5850109375,38.7961109375,24.9271109375,38.138310937499995L20.755910937499998,33.9672109375Z" fill-rule="evenodd" fill="#0AC7B7" fill-opacity="1"/></g></g></svg>